M48
; DRILL file {KiCad 5.1.1-8be2ce7~80~ubuntu18.10.1} date Isnin 27 Mei 2019 12:45:52  +08
; FORMAT={-:-/ absolute / metric / decimal}
; #@! TF.CreationDate,2019-05-27T00:45:52+08:00
; #@! TF.GenerationSoftware,Kicad,Pcbnew,5.1.1-8be2ce7~80~ubuntu18.10.1
; #@! TF.FileFunction,Plated,1,2,PTH
FMAT,2
METRIC
T1C0.100
T2C0.150
T3C0.200
T4C1.000
T5C1.520
%
G90
G05
T1
X147.625Y-109.372
X147.777Y-106.731
X147.955Y-111.176
X148.158Y-107.798
X148.311Y-105.816
X149.047Y-113.03
X151.257Y-79.959
X151.257Y-80.959
X151.257Y-81.959
X151.257Y-82.959
X151.257Y-83.959
X152.457Y-79.959
X152.457Y-80.959
X152.457Y-81.959
X152.457Y-82.959
X152.457Y-83.959
X153.657Y-79.959
X153.657Y-80.959
X153.657Y-81.959
X153.657Y-82.959
X153.657Y-83.959
X154.857Y-79.959
X154.857Y-80.959
X154.857Y-81.959
X154.857Y-82.959
X154.857Y-83.959
X156.057Y-79.959
X156.057Y-80.959
X156.057Y-81.959
X156.057Y-82.959
X156.057Y-83.959
X157.023Y-85.547
X157.257Y-79.959
X157.257Y-80.959
X157.257Y-81.959
X157.257Y-82.959
X157.257Y-83.959
X157.413Y-112.988
X157.48Y-99.822
X157.518Y-102.4
X157.785Y-86.792
X158.013Y-85.623
X158.28Y-102.4
X158.457Y-79.959
X158.457Y-80.959
X158.457Y-81.959
X158.457Y-82.959
X158.457Y-83.959
X159.042Y-102.4
X159.657Y-79.959
X159.657Y-80.959
X159.657Y-81.959
X159.657Y-82.959
X159.657Y-83.959
X159.69Y-86.716
X159.804Y-102.4
X159.893Y-88.468
X160.02Y-112.471
X160.096Y-90.399
X160.249Y-85.623
X160.528Y-89.332
X160.857Y-79.959
X160.857Y-80.959
X160.857Y-81.959
X160.857Y-82.959
X160.857Y-83.959
X161.163Y-87.097
X161.29Y-99.822
X161.569Y-111.989
X161.595Y-110.465
X161.747Y-89.433
X161.975Y-102.021
X162.057Y-79.959
X162.057Y-80.959
X162.057Y-81.959
X162.057Y-82.959
X162.057Y-83.959
X162.814Y-103.632
X163.322Y-103.632
X163.322Y-113.259
X163.83Y-103.632
X164.617Y-82.448
X164.846Y-103.632
X165.293Y-103.632
X166.37Y-82.271
X166.37Y-92.989
X166.37Y-93.989
X166.37Y-94.989
X166.37Y-95.989
X166.37Y-96.989
X166.37Y-97.989
X166.37Y-98.989
X166.37Y-99.989
X166.37Y-100.989
X166.37Y-101.989
X167.57Y-92.989
X167.57Y-93.989
X167.57Y-94.989
X167.57Y-95.989
X167.57Y-96.989
X167.57Y-97.989
X167.57Y-98.989
X167.57Y-99.989
X167.57Y-100.989
X167.57Y-101.989
X168.25Y-80.315
X168.402Y-113.157
X168.453Y-81.026
X168.631Y-78.994
X168.77Y-92.989
X168.77Y-93.989
X168.77Y-94.989
X168.77Y-95.989
X168.77Y-96.989
X168.77Y-97.989
X168.77Y-98.989
X168.77Y-99.989
X168.77Y-100.989
X168.77Y-101.989
X169.393Y-81.61
X169.418Y-79.832
X169.697Y-79.096
X169.97Y-92.989
X169.97Y-93.989
X169.97Y-94.989
X169.97Y-95.989
X169.97Y-96.989
X169.97Y-97.989
X169.97Y-98.989
X169.97Y-99.989
X169.97Y-100.989
X169.97Y-101.989
X170.104Y-81.128
X170.256Y-79.883
X170.713Y-78.943
X170.84Y-80.797
X171.17Y-92.989
X171.17Y-93.989
X171.17Y-94.989
X171.17Y-95.989
X171.17Y-96.989
X171.17Y-97.989
X171.17Y-98.989
X171.17Y-99.989
X171.17Y-100.989
X171.17Y-101.989
X173.634Y-106.35
X173.634Y-113.487
X173.863Y-107.798
X174.015Y-109.423
T2
X151.156Y-103.895
X151.156Y-105.626
X151.156Y-107.289
X151.156Y-108.756
X152.386Y-102.665
X153.931Y-101.12
X155.13Y-106.108
X155.956Y-101.12
X156.464Y-106.108
X156.537Y-103.514
X158.178Y-106.108
X159.35Y-108.93
X160.4Y-102.4
X160.4Y-102.8
X160.4Y-103.2
X160.4Y-103.6
X160.431Y-106.396
X160.431Y-107.849
X160.8Y-102.0
X160.8Y-102.4
X160.8Y-102.8
X160.8Y-103.2
X160.8Y-103.6
X161.2Y-102.4
X161.2Y-102.8
X161.2Y-103.2
X161.6Y-102.4
X162.0Y-102.4
X162.0Y-103.2
X162.4Y-101.6
X162.4Y-102.4
X163.295Y-102.655
X163.322Y-102.108
X164.807Y-102.655
X165.4Y-105.4
X165.4Y-107.361
X165.901Y-102.655
X166.624Y-84.836
X166.624Y-86.868
X167.41Y-102.655
X169.055Y-102.655
X170.0Y-105.475
X170.0Y-107.453
T3
X155.956Y-97.028
X157.091Y-98.941
X157.988Y-103.632
X158.242Y-94.996
X159.486Y-98.832
X160.431Y-105.156
X162.8Y-101.2
X164.084Y-91.44
X164.091Y-103.082
X165.862Y-91.44
X167.4Y-85.802
X167.4Y-85.802
X168.765Y-84.437
T4
X148.996Y-80.264
X148.996Y-82.804
X148.996Y-85.344
X148.996Y-87.884
X148.996Y-90.424
X148.996Y-92.964
X148.996Y-95.504
X148.996Y-98.044
X148.996Y-100.584
X148.996Y-103.124
X172.974Y-80.264
X172.974Y-82.804
X172.974Y-85.344
X172.974Y-87.884
X172.974Y-90.424
X172.974Y-92.964
X172.974Y-95.504
X172.974Y-98.044
X172.974Y-100.584
X172.974Y-103.124
T5
X152.8Y-110.4
X157.88Y-110.4
X166.0Y-110.4
X171.08Y-110.4
T0
M30
