G04 #@! TF.GenerationSoftware,KiCad,Pcbnew,5.1.1-8be2ce7~80~ubuntu18.10.1*
G04 #@! TF.CreationDate,2019-05-27T00:45:37+08:00*
G04 #@! TF.ProjectId,tas2562_dev_pcb,74617332-3536-4325-9f64-65765f706362,rev?*
G04 #@! TF.SameCoordinates,Original*
G04 #@! TF.FileFunction,Soldermask,Top*
G04 #@! TF.FilePolarity,Negative*
%FSLAX46Y46*%
G04 Gerber Fmt 4.6, Leading zero omitted, Abs format (unit mm)*
G04 Created by KiCad (PCBNEW 5.1.1-8be2ce7~80~ubuntu18.10.1) date 2019-05-27 00:45:37*
%MOMM*%
%LPD*%
G04 APERTURE LIST*
%ADD10C,0.100000*%
G04 APERTURE END LIST*
D10*
G36*
X171532410Y-108908604D02*
G01*
X171532412Y-108908605D01*
X171532413Y-108908605D01*
X171636678Y-108951793D01*
X171814674Y-109025521D01*
X172068705Y-109195259D01*
X172284741Y-109411295D01*
X172454479Y-109665326D01*
X172571396Y-109947590D01*
X172631000Y-110247240D01*
X172631000Y-110552760D01*
X172571396Y-110852410D01*
X172454479Y-111134674D01*
X172284741Y-111388705D01*
X172068705Y-111604741D01*
X171814674Y-111774479D01*
X171636678Y-111848207D01*
X171532413Y-111891395D01*
X171532412Y-111891395D01*
X171532410Y-111891396D01*
X171232760Y-111951000D01*
X170927240Y-111951000D01*
X170627590Y-111891396D01*
X170627588Y-111891395D01*
X170627587Y-111891395D01*
X170523322Y-111848207D01*
X170345326Y-111774479D01*
X170091295Y-111604741D01*
X169875259Y-111388705D01*
X169705521Y-111134674D01*
X169588604Y-110852410D01*
X169529000Y-110552760D01*
X169529000Y-110247240D01*
X169588604Y-109947590D01*
X169705521Y-109665326D01*
X169875259Y-109411295D01*
X170091295Y-109195259D01*
X170345326Y-109025521D01*
X170523322Y-108951793D01*
X170627587Y-108908605D01*
X170627588Y-108908605D01*
X170627590Y-108908604D01*
X170927240Y-108849000D01*
X171232760Y-108849000D01*
X171532410Y-108908604D01*
X171532410Y-108908604D01*
G37*
G36*
X167551000Y-111951000D02*
G01*
X164449000Y-111951000D01*
X164449000Y-108849000D01*
X167551000Y-108849000D01*
X167551000Y-111951000D01*
X167551000Y-111951000D01*
G37*
G36*
X158332410Y-108908604D02*
G01*
X158332412Y-108908605D01*
X158332413Y-108908605D01*
X158436678Y-108951793D01*
X158614674Y-109025521D01*
X158868705Y-109195259D01*
X159084741Y-109411295D01*
X159254479Y-109665326D01*
X159371396Y-109947590D01*
X159431000Y-110247240D01*
X159431000Y-110552760D01*
X159371396Y-110852410D01*
X159254479Y-111134674D01*
X159084741Y-111388705D01*
X158868705Y-111604741D01*
X158614674Y-111774479D01*
X158436678Y-111848207D01*
X158332413Y-111891395D01*
X158332412Y-111891395D01*
X158332410Y-111891396D01*
X158032760Y-111951000D01*
X157727240Y-111951000D01*
X157427590Y-111891396D01*
X157427588Y-111891395D01*
X157427587Y-111891395D01*
X157323322Y-111848207D01*
X157145326Y-111774479D01*
X156891295Y-111604741D01*
X156675259Y-111388705D01*
X156505521Y-111134674D01*
X156388604Y-110852410D01*
X156329000Y-110552760D01*
X156329000Y-110247240D01*
X156388604Y-109947590D01*
X156505521Y-109665326D01*
X156675259Y-109411295D01*
X156891295Y-109195259D01*
X157145326Y-109025521D01*
X157323322Y-108951793D01*
X157427587Y-108908605D01*
X157427588Y-108908605D01*
X157427590Y-108908604D01*
X157727240Y-108849000D01*
X158032760Y-108849000D01*
X158332410Y-108908604D01*
X158332410Y-108908604D01*
G37*
G36*
X154351000Y-111951000D02*
G01*
X151249000Y-111951000D01*
X151249000Y-108849000D01*
X154351000Y-108849000D01*
X154351000Y-111951000D01*
X154351000Y-111951000D01*
G37*
G36*
X160792932Y-104663688D02*
G01*
X160833969Y-104676136D01*
X160871788Y-104696351D01*
X160904941Y-104723559D01*
X160932149Y-104756712D01*
X160952364Y-104794531D01*
X160964812Y-104835568D01*
X160969500Y-104883167D01*
X160969500Y-105936833D01*
X160964812Y-105984432D01*
X160952364Y-106025469D01*
X160932149Y-106063288D01*
X160904941Y-106096441D01*
X160871788Y-106123649D01*
X160833969Y-106143864D01*
X160792932Y-106156312D01*
X160745333Y-106161000D01*
X160116667Y-106161000D01*
X160069068Y-106156312D01*
X160028031Y-106143864D01*
X159990212Y-106123649D01*
X159957059Y-106096441D01*
X159929851Y-106063288D01*
X159909636Y-106025469D01*
X159897188Y-105984432D01*
X159892500Y-105936833D01*
X159892500Y-104883167D01*
X159897188Y-104835568D01*
X159909636Y-104794531D01*
X159929851Y-104756712D01*
X159957059Y-104723559D01*
X159990212Y-104696351D01*
X160028031Y-104676136D01*
X160069068Y-104663688D01*
X160116667Y-104659000D01*
X160745333Y-104659000D01*
X160792932Y-104663688D01*
X160792932Y-104663688D01*
G37*
G36*
X162667932Y-104663688D02*
G01*
X162708969Y-104676136D01*
X162746788Y-104696351D01*
X162779941Y-104723559D01*
X162807149Y-104756712D01*
X162827364Y-104794531D01*
X162839812Y-104835568D01*
X162844500Y-104883167D01*
X162844500Y-105936833D01*
X162839812Y-105984432D01*
X162827364Y-106025469D01*
X162807149Y-106063288D01*
X162779941Y-106096441D01*
X162746788Y-106123649D01*
X162708969Y-106143864D01*
X162667932Y-106156312D01*
X162620333Y-106161000D01*
X161991667Y-106161000D01*
X161944068Y-106156312D01*
X161903031Y-106143864D01*
X161865212Y-106123649D01*
X161832059Y-106096441D01*
X161804851Y-106063288D01*
X161784636Y-106025469D01*
X161772188Y-105984432D01*
X161767500Y-105936833D01*
X161767500Y-104883167D01*
X161772188Y-104835568D01*
X161784636Y-104794531D01*
X161804851Y-104756712D01*
X161832059Y-104723559D01*
X161865212Y-104696351D01*
X161903031Y-104676136D01*
X161944068Y-104663688D01*
X161991667Y-104659000D01*
X162620333Y-104659000D01*
X162667932Y-104663688D01*
X162667932Y-104663688D01*
G37*
G36*
X170574432Y-104941188D02*
G01*
X170615469Y-104953636D01*
X170653288Y-104973851D01*
X170686441Y-105001059D01*
X170713649Y-105034212D01*
X170733864Y-105072031D01*
X170746312Y-105113068D01*
X170751000Y-105160667D01*
X170751000Y-105789333D01*
X170746312Y-105836932D01*
X170733864Y-105877969D01*
X170713649Y-105915788D01*
X170686441Y-105948941D01*
X170653288Y-105976149D01*
X170615469Y-105996364D01*
X170574432Y-106008812D01*
X170526833Y-106013500D01*
X169473167Y-106013500D01*
X169425568Y-106008812D01*
X169384531Y-105996364D01*
X169346712Y-105976149D01*
X169313559Y-105948941D01*
X169286351Y-105915788D01*
X169266136Y-105877969D01*
X169253688Y-105836932D01*
X169249000Y-105789333D01*
X169249000Y-105160667D01*
X169253688Y-105113068D01*
X169266136Y-105072031D01*
X169286351Y-105034212D01*
X169313559Y-105001059D01*
X169346712Y-104973851D01*
X169384531Y-104953636D01*
X169425568Y-104941188D01*
X169473167Y-104936500D01*
X170526833Y-104936500D01*
X170574432Y-104941188D01*
X170574432Y-104941188D01*
G37*
G36*
X158807000Y-105946000D02*
G01*
X153105000Y-105946000D01*
X153105000Y-104294000D01*
X158807000Y-104294000D01*
X158807000Y-105946000D01*
X158807000Y-105946000D01*
G37*
G36*
X165974432Y-104866188D02*
G01*
X166015469Y-104878636D01*
X166053288Y-104898851D01*
X166086441Y-104926059D01*
X166113649Y-104959212D01*
X166133864Y-104997031D01*
X166146312Y-105038068D01*
X166151000Y-105085667D01*
X166151000Y-105714333D01*
X166146312Y-105761932D01*
X166133864Y-105802969D01*
X166113649Y-105840788D01*
X166086441Y-105873941D01*
X166053288Y-105901149D01*
X166015469Y-105921364D01*
X165974432Y-105933812D01*
X165926833Y-105938500D01*
X164873167Y-105938500D01*
X164825568Y-105933812D01*
X164784531Y-105921364D01*
X164746712Y-105901149D01*
X164713559Y-105873941D01*
X164686351Y-105840788D01*
X164666136Y-105802969D01*
X164653688Y-105761932D01*
X164649000Y-105714333D01*
X164649000Y-105085667D01*
X164653688Y-105038068D01*
X164666136Y-104997031D01*
X164686351Y-104959212D01*
X164713559Y-104926059D01*
X164746712Y-104898851D01*
X164784531Y-104878636D01*
X164825568Y-104866188D01*
X164873167Y-104861500D01*
X165926833Y-104861500D01*
X165974432Y-104866188D01*
X165974432Y-104866188D01*
G37*
G36*
X170574432Y-103066188D02*
G01*
X170615469Y-103078636D01*
X170653288Y-103098851D01*
X170686441Y-103126059D01*
X170713649Y-103159212D01*
X170733864Y-103197031D01*
X170746312Y-103238068D01*
X170751000Y-103285667D01*
X170751000Y-103914333D01*
X170746312Y-103961932D01*
X170733864Y-104002969D01*
X170713649Y-104040788D01*
X170686441Y-104073941D01*
X170653288Y-104101149D01*
X170615469Y-104121364D01*
X170574432Y-104133812D01*
X170526833Y-104138500D01*
X169473167Y-104138500D01*
X169425568Y-104133812D01*
X169384531Y-104121364D01*
X169346712Y-104101149D01*
X169313559Y-104073941D01*
X169286351Y-104040788D01*
X169266136Y-104002969D01*
X169253688Y-103961932D01*
X169249000Y-103914333D01*
X169249000Y-103285667D01*
X169253688Y-103238068D01*
X169266136Y-103197031D01*
X169286351Y-103159212D01*
X169313559Y-103126059D01*
X169346712Y-103098851D01*
X169384531Y-103078636D01*
X169425568Y-103066188D01*
X169473167Y-103061500D01*
X170526833Y-103061500D01*
X170574432Y-103066188D01*
X170574432Y-103066188D01*
G37*
G36*
X165974432Y-102991188D02*
G01*
X166015469Y-103003636D01*
X166053288Y-103023851D01*
X166086441Y-103051059D01*
X166113649Y-103084212D01*
X166133864Y-103122031D01*
X166146312Y-103163068D01*
X166151000Y-103210667D01*
X166151000Y-103839333D01*
X166146312Y-103886932D01*
X166133864Y-103927969D01*
X166113649Y-103965788D01*
X166086441Y-103998941D01*
X166053288Y-104026149D01*
X166015469Y-104046364D01*
X165974432Y-104058812D01*
X165926833Y-104063500D01*
X164873167Y-104063500D01*
X164825568Y-104058812D01*
X164784531Y-104046364D01*
X164746712Y-104026149D01*
X164713559Y-103998941D01*
X164686351Y-103965788D01*
X164666136Y-103927969D01*
X164653688Y-103886932D01*
X164649000Y-103839333D01*
X164649000Y-103210667D01*
X164653688Y-103163068D01*
X164666136Y-103122031D01*
X164686351Y-103084212D01*
X164713559Y-103051059D01*
X164746712Y-103023851D01*
X164784531Y-103003636D01*
X164825568Y-102991188D01*
X164873167Y-102986500D01*
X165926833Y-102986500D01*
X165974432Y-102991188D01*
X165974432Y-102991188D01*
G37*
G36*
X173117535Y-102232778D02*
G01*
X173150627Y-102236037D01*
X173263853Y-102270384D01*
X173320467Y-102287557D01*
X173476990Y-102371220D01*
X173614186Y-102483814D01*
X173726780Y-102621010D01*
X173810443Y-102777533D01*
X173822188Y-102816251D01*
X173861963Y-102947373D01*
X173863377Y-102961732D01*
X173879360Y-103124000D01*
X173867134Y-103248126D01*
X173861963Y-103300627D01*
X173831819Y-103400000D01*
X173810443Y-103470467D01*
X173726780Y-103626990D01*
X173614186Y-103764186D01*
X173476990Y-103876780D01*
X173320467Y-103960443D01*
X173263853Y-103977616D01*
X173150627Y-104011963D01*
X173117535Y-104015222D01*
X173018264Y-104025000D01*
X172929736Y-104025000D01*
X172830465Y-104015222D01*
X172797373Y-104011963D01*
X172684147Y-103977616D01*
X172627533Y-103960443D01*
X172471010Y-103876780D01*
X172333814Y-103764186D01*
X172221220Y-103626990D01*
X172137557Y-103470467D01*
X172116181Y-103400000D01*
X172086037Y-103300627D01*
X172080866Y-103248126D01*
X172068640Y-103124000D01*
X172084623Y-102961732D01*
X172086037Y-102947373D01*
X172125812Y-102816251D01*
X172137557Y-102777533D01*
X172221220Y-102621010D01*
X172333814Y-102483814D01*
X172471010Y-102371220D01*
X172627533Y-102287557D01*
X172684147Y-102270384D01*
X172797373Y-102236037D01*
X172830465Y-102232778D01*
X172929736Y-102223000D01*
X173018264Y-102223000D01*
X173117535Y-102232778D01*
X173117535Y-102232778D01*
G37*
G36*
X149897400Y-104025000D02*
G01*
X148095400Y-104025000D01*
X148095400Y-102223000D01*
X149897400Y-102223000D01*
X149897400Y-104025000D01*
X149897400Y-104025000D01*
G37*
G36*
X162048420Y-101440379D02*
G01*
X162066117Y-101447710D01*
X162078631Y-101452893D01*
X162105819Y-101471060D01*
X162129997Y-101495238D01*
X162145151Y-101507674D01*
X162162439Y-101516915D01*
X162181198Y-101522606D01*
X162200707Y-101524527D01*
X162220216Y-101522606D01*
X162238975Y-101516915D01*
X162256263Y-101507674D01*
X162271417Y-101495238D01*
X162294819Y-101471836D01*
X162321843Y-101453779D01*
X162351871Y-101441341D01*
X162351872Y-101441341D01*
X162351874Y-101441340D01*
X162383747Y-101435000D01*
X162416253Y-101435000D01*
X162448126Y-101441340D01*
X162448128Y-101441341D01*
X162448129Y-101441341D01*
X162478157Y-101453779D01*
X162505181Y-101471836D01*
X162528164Y-101494819D01*
X162546221Y-101521843D01*
X162558538Y-101551580D01*
X162558660Y-101551874D01*
X162565000Y-101583747D01*
X162565000Y-101616253D01*
X162564981Y-101616350D01*
X162558659Y-101648129D01*
X162546221Y-101678157D01*
X162528916Y-101704055D01*
X162528163Y-101705182D01*
X162504055Y-101729290D01*
X162491619Y-101744444D01*
X162482378Y-101761732D01*
X162476687Y-101780491D01*
X162474766Y-101800000D01*
X162476687Y-101819509D01*
X162482378Y-101838268D01*
X162491619Y-101855556D01*
X162504055Y-101870710D01*
X162528164Y-101894819D01*
X162546221Y-101921843D01*
X162558659Y-101951871D01*
X162565000Y-101983749D01*
X162565000Y-102016251D01*
X162558659Y-102048129D01*
X162546221Y-102078157D01*
X162528916Y-102104055D01*
X162528163Y-102105182D01*
X162504055Y-102129290D01*
X162491619Y-102144444D01*
X162482378Y-102161732D01*
X162476687Y-102180491D01*
X162474766Y-102200000D01*
X162476687Y-102219509D01*
X162482378Y-102238268D01*
X162491619Y-102255556D01*
X162504055Y-102270710D01*
X162528164Y-102294819D01*
X162546221Y-102321843D01*
X162558659Y-102351871D01*
X162558660Y-102351874D01*
X162565000Y-102383747D01*
X162565000Y-102416251D01*
X162558659Y-102448129D01*
X162546221Y-102478157D01*
X162528916Y-102504055D01*
X162528163Y-102505182D01*
X162504055Y-102529290D01*
X162491619Y-102544444D01*
X162482378Y-102561732D01*
X162476687Y-102580491D01*
X162474766Y-102600000D01*
X162476687Y-102619509D01*
X162482378Y-102638268D01*
X162491619Y-102655556D01*
X162504055Y-102670710D01*
X162528164Y-102694819D01*
X162546221Y-102721843D01*
X162558659Y-102751871D01*
X162565000Y-102783749D01*
X162565000Y-102816251D01*
X162558659Y-102848129D01*
X162546221Y-102878157D01*
X162528916Y-102904055D01*
X162528163Y-102905182D01*
X162504055Y-102929290D01*
X162491619Y-102944444D01*
X162482378Y-102961732D01*
X162476687Y-102980491D01*
X162474766Y-103000000D01*
X162476687Y-103019509D01*
X162482378Y-103038268D01*
X162491619Y-103055556D01*
X162504055Y-103070710D01*
X162528164Y-103094819D01*
X162546221Y-103121843D01*
X162547967Y-103126059D01*
X162558660Y-103151874D01*
X162565000Y-103183747D01*
X162565000Y-103216253D01*
X162560661Y-103238068D01*
X162558659Y-103248129D01*
X162546221Y-103278157D01*
X162531208Y-103300625D01*
X162528163Y-103305182D01*
X162504055Y-103329290D01*
X162491619Y-103344444D01*
X162482378Y-103361732D01*
X162476687Y-103380491D01*
X162474766Y-103400000D01*
X162476687Y-103419509D01*
X162482378Y-103438268D01*
X162491619Y-103455556D01*
X162504055Y-103470710D01*
X162528164Y-103494819D01*
X162546221Y-103521843D01*
X162558659Y-103551871D01*
X162565000Y-103583749D01*
X162565000Y-103616251D01*
X162558659Y-103648129D01*
X162546221Y-103678157D01*
X162528164Y-103705181D01*
X162505181Y-103728164D01*
X162478157Y-103746221D01*
X162448129Y-103758659D01*
X162448128Y-103758659D01*
X162448126Y-103758660D01*
X162416253Y-103765000D01*
X162383747Y-103765000D01*
X162351874Y-103758660D01*
X162351872Y-103758659D01*
X162351871Y-103758659D01*
X162321843Y-103746221D01*
X162294819Y-103728164D01*
X162270710Y-103704055D01*
X162255556Y-103691619D01*
X162238268Y-103682378D01*
X162219509Y-103676687D01*
X162200000Y-103674766D01*
X162180491Y-103676687D01*
X162161732Y-103682378D01*
X162144444Y-103691619D01*
X162129290Y-103704055D01*
X162105181Y-103728164D01*
X162078157Y-103746221D01*
X162048129Y-103758659D01*
X162048128Y-103758659D01*
X162048126Y-103758660D01*
X162016253Y-103765000D01*
X161983747Y-103765000D01*
X161951874Y-103758660D01*
X161951872Y-103758659D01*
X161951871Y-103758659D01*
X161921843Y-103746221D01*
X161894819Y-103728164D01*
X161870710Y-103704055D01*
X161855556Y-103691619D01*
X161838268Y-103682378D01*
X161819509Y-103676687D01*
X161800000Y-103674766D01*
X161780491Y-103676687D01*
X161761732Y-103682378D01*
X161744444Y-103691619D01*
X161729290Y-103704055D01*
X161705181Y-103728164D01*
X161678157Y-103746221D01*
X161648129Y-103758659D01*
X161648128Y-103758659D01*
X161648126Y-103758660D01*
X161616253Y-103765000D01*
X161583747Y-103765000D01*
X161551874Y-103758660D01*
X161551872Y-103758659D01*
X161551871Y-103758659D01*
X161521843Y-103746221D01*
X161494819Y-103728164D01*
X161470710Y-103704055D01*
X161455556Y-103691619D01*
X161438268Y-103682378D01*
X161419509Y-103676687D01*
X161400000Y-103674766D01*
X161380491Y-103676687D01*
X161361732Y-103682378D01*
X161344444Y-103691619D01*
X161329290Y-103704055D01*
X161305181Y-103728164D01*
X161278157Y-103746221D01*
X161248129Y-103758659D01*
X161248128Y-103758659D01*
X161248126Y-103758660D01*
X161216253Y-103765000D01*
X161183747Y-103765000D01*
X161151874Y-103758660D01*
X161151872Y-103758659D01*
X161151871Y-103758659D01*
X161121843Y-103746221D01*
X161094819Y-103728164D01*
X161070710Y-103704055D01*
X161055556Y-103691619D01*
X161038268Y-103682378D01*
X161019509Y-103676687D01*
X161000000Y-103674766D01*
X160980491Y-103676687D01*
X160961732Y-103682378D01*
X160944444Y-103691619D01*
X160929290Y-103704055D01*
X160905181Y-103728164D01*
X160878157Y-103746221D01*
X160848129Y-103758659D01*
X160848128Y-103758659D01*
X160848126Y-103758660D01*
X160816253Y-103765000D01*
X160783747Y-103765000D01*
X160751874Y-103758660D01*
X160751872Y-103758659D01*
X160751871Y-103758659D01*
X160721843Y-103746221D01*
X160694819Y-103728164D01*
X160670710Y-103704055D01*
X160655556Y-103691619D01*
X160638268Y-103682378D01*
X160619509Y-103676687D01*
X160600000Y-103674766D01*
X160580491Y-103676687D01*
X160561732Y-103682378D01*
X160544444Y-103691619D01*
X160529290Y-103704055D01*
X160505181Y-103728164D01*
X160478157Y-103746221D01*
X160448129Y-103758659D01*
X160448128Y-103758659D01*
X160448126Y-103758660D01*
X160416253Y-103765000D01*
X160383747Y-103765000D01*
X160351874Y-103758660D01*
X160351872Y-103758659D01*
X160351871Y-103758659D01*
X160321843Y-103746221D01*
X160294819Y-103728164D01*
X160271836Y-103705181D01*
X160253779Y-103678157D01*
X160241341Y-103648129D01*
X160235000Y-103616251D01*
X160235000Y-103583749D01*
X160241341Y-103551871D01*
X160253779Y-103521843D01*
X160271836Y-103494819D01*
X160295945Y-103470710D01*
X160308381Y-103455556D01*
X160317622Y-103438268D01*
X160323313Y-103419509D01*
X160325234Y-103400000D01*
X160474766Y-103400000D01*
X160476687Y-103419509D01*
X160482378Y-103438268D01*
X160491619Y-103455556D01*
X160504055Y-103470710D01*
X160529290Y-103495945D01*
X160544444Y-103508381D01*
X160561732Y-103517622D01*
X160580491Y-103523313D01*
X160600000Y-103525234D01*
X160619509Y-103523313D01*
X160638268Y-103517622D01*
X160655556Y-103508381D01*
X160670710Y-103495945D01*
X160695945Y-103470710D01*
X160708381Y-103455556D01*
X160717622Y-103438268D01*
X160723313Y-103419509D01*
X160725234Y-103400000D01*
X160874766Y-103400000D01*
X160876687Y-103419509D01*
X160882378Y-103438268D01*
X160891619Y-103455556D01*
X160904055Y-103470710D01*
X160929290Y-103495945D01*
X160944444Y-103508381D01*
X160961732Y-103517622D01*
X160980491Y-103523313D01*
X161000000Y-103525234D01*
X161019509Y-103523313D01*
X161038268Y-103517622D01*
X161055556Y-103508381D01*
X161070710Y-103495945D01*
X161095945Y-103470710D01*
X161108381Y-103455556D01*
X161117622Y-103438268D01*
X161123313Y-103419509D01*
X161125234Y-103400000D01*
X161274766Y-103400000D01*
X161276687Y-103419509D01*
X161282378Y-103438268D01*
X161291619Y-103455556D01*
X161304055Y-103470710D01*
X161329290Y-103495945D01*
X161344444Y-103508381D01*
X161361732Y-103517622D01*
X161380491Y-103523313D01*
X161400000Y-103525234D01*
X161419509Y-103523313D01*
X161438268Y-103517622D01*
X161455556Y-103508381D01*
X161470710Y-103495945D01*
X161495945Y-103470710D01*
X161508381Y-103455556D01*
X161517622Y-103438268D01*
X161523313Y-103419509D01*
X161525234Y-103400000D01*
X161674766Y-103400000D01*
X161676687Y-103419509D01*
X161682378Y-103438268D01*
X161691619Y-103455556D01*
X161704055Y-103470710D01*
X161729290Y-103495945D01*
X161744444Y-103508381D01*
X161761732Y-103517622D01*
X161780491Y-103523313D01*
X161800000Y-103525234D01*
X161819509Y-103523313D01*
X161838268Y-103517622D01*
X161855556Y-103508381D01*
X161870710Y-103495945D01*
X161895945Y-103470710D01*
X161908381Y-103455556D01*
X161917622Y-103438268D01*
X161923313Y-103419509D01*
X161925234Y-103400000D01*
X162074766Y-103400000D01*
X162076687Y-103419509D01*
X162082378Y-103438268D01*
X162091619Y-103455556D01*
X162104055Y-103470710D01*
X162129290Y-103495945D01*
X162144444Y-103508381D01*
X162161732Y-103517622D01*
X162180491Y-103523313D01*
X162200000Y-103525234D01*
X162219509Y-103523313D01*
X162238268Y-103517622D01*
X162255556Y-103508381D01*
X162270710Y-103495945D01*
X162295945Y-103470710D01*
X162308381Y-103455556D01*
X162317622Y-103438268D01*
X162323313Y-103419509D01*
X162325234Y-103400000D01*
X162323313Y-103380491D01*
X162317622Y-103361732D01*
X162308381Y-103344444D01*
X162295945Y-103329290D01*
X162270710Y-103304055D01*
X162255556Y-103291619D01*
X162238268Y-103282378D01*
X162219509Y-103276687D01*
X162200000Y-103274766D01*
X162180491Y-103276687D01*
X162161732Y-103282378D01*
X162144444Y-103291619D01*
X162129290Y-103304055D01*
X162104055Y-103329290D01*
X162091619Y-103344444D01*
X162082378Y-103361732D01*
X162076687Y-103380491D01*
X162074766Y-103400000D01*
X161925234Y-103400000D01*
X161923313Y-103380491D01*
X161917622Y-103361732D01*
X161908381Y-103344444D01*
X161895945Y-103329290D01*
X161870710Y-103304055D01*
X161855556Y-103291619D01*
X161838268Y-103282378D01*
X161819509Y-103276687D01*
X161800000Y-103274766D01*
X161780491Y-103276687D01*
X161761732Y-103282378D01*
X161744444Y-103291619D01*
X161729290Y-103304055D01*
X161704055Y-103329290D01*
X161691619Y-103344444D01*
X161682378Y-103361732D01*
X161676687Y-103380491D01*
X161674766Y-103400000D01*
X161525234Y-103400000D01*
X161523313Y-103380491D01*
X161517622Y-103361732D01*
X161508381Y-103344444D01*
X161495945Y-103329290D01*
X161470710Y-103304055D01*
X161455556Y-103291619D01*
X161438268Y-103282378D01*
X161419509Y-103276687D01*
X161400000Y-103274766D01*
X161380491Y-103276687D01*
X161361732Y-103282378D01*
X161344444Y-103291619D01*
X161329290Y-103304055D01*
X161304055Y-103329290D01*
X161291619Y-103344444D01*
X161282378Y-103361732D01*
X161276687Y-103380491D01*
X161274766Y-103400000D01*
X161125234Y-103400000D01*
X161123313Y-103380491D01*
X161117622Y-103361732D01*
X161108381Y-103344444D01*
X161095945Y-103329290D01*
X161070710Y-103304055D01*
X161055556Y-103291619D01*
X161038268Y-103282378D01*
X161019509Y-103276687D01*
X161000000Y-103274766D01*
X160980491Y-103276687D01*
X160961732Y-103282378D01*
X160944444Y-103291619D01*
X160929290Y-103304055D01*
X160904055Y-103329290D01*
X160891619Y-103344444D01*
X160882378Y-103361732D01*
X160876687Y-103380491D01*
X160874766Y-103400000D01*
X160725234Y-103400000D01*
X160723313Y-103380491D01*
X160717622Y-103361732D01*
X160708381Y-103344444D01*
X160695945Y-103329290D01*
X160670710Y-103304055D01*
X160655556Y-103291619D01*
X160638268Y-103282378D01*
X160619509Y-103276687D01*
X160600000Y-103274766D01*
X160580491Y-103276687D01*
X160561732Y-103282378D01*
X160544444Y-103291619D01*
X160529290Y-103304055D01*
X160504055Y-103329290D01*
X160491619Y-103344444D01*
X160482378Y-103361732D01*
X160476687Y-103380491D01*
X160474766Y-103400000D01*
X160325234Y-103400000D01*
X160323313Y-103380491D01*
X160317622Y-103361732D01*
X160308381Y-103344444D01*
X160295945Y-103329290D01*
X160271837Y-103305182D01*
X160268792Y-103300625D01*
X160253779Y-103278157D01*
X160241341Y-103248129D01*
X160239340Y-103238068D01*
X160235000Y-103216253D01*
X160235000Y-103183747D01*
X160241340Y-103151874D01*
X160252033Y-103126059D01*
X160253779Y-103121843D01*
X160271836Y-103094819D01*
X160295945Y-103070710D01*
X160308381Y-103055556D01*
X160317622Y-103038268D01*
X160323313Y-103019509D01*
X160325234Y-103000000D01*
X160474766Y-103000000D01*
X160476687Y-103019509D01*
X160482378Y-103038268D01*
X160491619Y-103055556D01*
X160504055Y-103070710D01*
X160529290Y-103095945D01*
X160544444Y-103108381D01*
X160561732Y-103117622D01*
X160580491Y-103123313D01*
X160600000Y-103125234D01*
X160619509Y-103123313D01*
X160638268Y-103117622D01*
X160655556Y-103108381D01*
X160670710Y-103095945D01*
X160695945Y-103070710D01*
X160708381Y-103055556D01*
X160717622Y-103038268D01*
X160723313Y-103019509D01*
X160725234Y-103000000D01*
X160874766Y-103000000D01*
X160876687Y-103019509D01*
X160882378Y-103038268D01*
X160891619Y-103055556D01*
X160904055Y-103070710D01*
X160929290Y-103095945D01*
X160944444Y-103108381D01*
X160961732Y-103117622D01*
X160980491Y-103123313D01*
X161000000Y-103125234D01*
X161019509Y-103123313D01*
X161038268Y-103117622D01*
X161055556Y-103108381D01*
X161070710Y-103095945D01*
X161095945Y-103070710D01*
X161108381Y-103055556D01*
X161117622Y-103038268D01*
X161123313Y-103019509D01*
X161125234Y-103000000D01*
X161274766Y-103000000D01*
X161276687Y-103019509D01*
X161282378Y-103038268D01*
X161291619Y-103055556D01*
X161304055Y-103070710D01*
X161329290Y-103095945D01*
X161344444Y-103108381D01*
X161361732Y-103117622D01*
X161380491Y-103123313D01*
X161400000Y-103125234D01*
X161419509Y-103123313D01*
X161438268Y-103117622D01*
X161455556Y-103108381D01*
X161470710Y-103095945D01*
X161495945Y-103070710D01*
X161508381Y-103055556D01*
X161517622Y-103038268D01*
X161523313Y-103019509D01*
X161525234Y-103000000D01*
X161674766Y-103000000D01*
X161676687Y-103019509D01*
X161682378Y-103038268D01*
X161691619Y-103055556D01*
X161704055Y-103070710D01*
X161729290Y-103095945D01*
X161744444Y-103108381D01*
X161761732Y-103117622D01*
X161780491Y-103123313D01*
X161800000Y-103125234D01*
X161819509Y-103123313D01*
X161838268Y-103117622D01*
X161855556Y-103108381D01*
X161870710Y-103095945D01*
X161895945Y-103070710D01*
X161908381Y-103055556D01*
X161917622Y-103038268D01*
X161923313Y-103019509D01*
X161925234Y-103000000D01*
X162074766Y-103000000D01*
X162076687Y-103019509D01*
X162082378Y-103038268D01*
X162091619Y-103055556D01*
X162104055Y-103070710D01*
X162129290Y-103095945D01*
X162144444Y-103108381D01*
X162161732Y-103117622D01*
X162180491Y-103123313D01*
X162200000Y-103125234D01*
X162219509Y-103123313D01*
X162238268Y-103117622D01*
X162255556Y-103108381D01*
X162270710Y-103095945D01*
X162295945Y-103070710D01*
X162308381Y-103055556D01*
X162317622Y-103038268D01*
X162323313Y-103019509D01*
X162325234Y-103000000D01*
X162323313Y-102980491D01*
X162317622Y-102961732D01*
X162308381Y-102944444D01*
X162295945Y-102929290D01*
X162270710Y-102904055D01*
X162255556Y-102891619D01*
X162238268Y-102882378D01*
X162219509Y-102876687D01*
X162200000Y-102874766D01*
X162180491Y-102876687D01*
X162161732Y-102882378D01*
X162144444Y-102891619D01*
X162129290Y-102904055D01*
X162104055Y-102929290D01*
X162091619Y-102944444D01*
X162082378Y-102961732D01*
X162076687Y-102980491D01*
X162074766Y-103000000D01*
X161925234Y-103000000D01*
X161923313Y-102980491D01*
X161917622Y-102961732D01*
X161908381Y-102944444D01*
X161895945Y-102929290D01*
X161870710Y-102904055D01*
X161855556Y-102891619D01*
X161838268Y-102882378D01*
X161819509Y-102876687D01*
X161800000Y-102874766D01*
X161780491Y-102876687D01*
X161761732Y-102882378D01*
X161744444Y-102891619D01*
X161729290Y-102904055D01*
X161704055Y-102929290D01*
X161691619Y-102944444D01*
X161682378Y-102961732D01*
X161676687Y-102980491D01*
X161674766Y-103000000D01*
X161525234Y-103000000D01*
X161523313Y-102980491D01*
X161517622Y-102961732D01*
X161508381Y-102944444D01*
X161495945Y-102929290D01*
X161470710Y-102904055D01*
X161455556Y-102891619D01*
X161438268Y-102882378D01*
X161419509Y-102876687D01*
X161400000Y-102874766D01*
X161380491Y-102876687D01*
X161361732Y-102882378D01*
X161344444Y-102891619D01*
X161329290Y-102904055D01*
X161304055Y-102929290D01*
X161291619Y-102944444D01*
X161282378Y-102961732D01*
X161276687Y-102980491D01*
X161274766Y-103000000D01*
X161125234Y-103000000D01*
X161123313Y-102980491D01*
X161117622Y-102961732D01*
X161108381Y-102944444D01*
X161095945Y-102929290D01*
X161070710Y-102904055D01*
X161055556Y-102891619D01*
X161038268Y-102882378D01*
X161019509Y-102876687D01*
X161000000Y-102874766D01*
X160980491Y-102876687D01*
X160961732Y-102882378D01*
X160944444Y-102891619D01*
X160929290Y-102904055D01*
X160904055Y-102929290D01*
X160891619Y-102944444D01*
X160882378Y-102961732D01*
X160876687Y-102980491D01*
X160874766Y-103000000D01*
X160725234Y-103000000D01*
X160723313Y-102980491D01*
X160717622Y-102961732D01*
X160708381Y-102944444D01*
X160695945Y-102929290D01*
X160670710Y-102904055D01*
X160655556Y-102891619D01*
X160638268Y-102882378D01*
X160619509Y-102876687D01*
X160600000Y-102874766D01*
X160580491Y-102876687D01*
X160561732Y-102882378D01*
X160544444Y-102891619D01*
X160529290Y-102904055D01*
X160504055Y-102929290D01*
X160491619Y-102944444D01*
X160482378Y-102961732D01*
X160476687Y-102980491D01*
X160474766Y-103000000D01*
X160325234Y-103000000D01*
X160323313Y-102980491D01*
X160317622Y-102961732D01*
X160308381Y-102944444D01*
X160295945Y-102929290D01*
X160271837Y-102905182D01*
X160271084Y-102904055D01*
X160253779Y-102878157D01*
X160241341Y-102848129D01*
X160235000Y-102816251D01*
X160235000Y-102783749D01*
X160241341Y-102751871D01*
X160253779Y-102721843D01*
X160271836Y-102694819D01*
X160295945Y-102670710D01*
X160308381Y-102655556D01*
X160317622Y-102638268D01*
X160323313Y-102619509D01*
X160325234Y-102600000D01*
X160474766Y-102600000D01*
X160476687Y-102619509D01*
X160482378Y-102638268D01*
X160491619Y-102655556D01*
X160504055Y-102670710D01*
X160529290Y-102695945D01*
X160544444Y-102708381D01*
X160561732Y-102717622D01*
X160580491Y-102723313D01*
X160600000Y-102725234D01*
X160619509Y-102723313D01*
X160638268Y-102717622D01*
X160655556Y-102708381D01*
X160670710Y-102695945D01*
X160695945Y-102670710D01*
X160708381Y-102655556D01*
X160717622Y-102638268D01*
X160723313Y-102619509D01*
X160725234Y-102600000D01*
X160874766Y-102600000D01*
X160876687Y-102619509D01*
X160882378Y-102638268D01*
X160891619Y-102655556D01*
X160904055Y-102670710D01*
X160929290Y-102695945D01*
X160944444Y-102708381D01*
X160961732Y-102717622D01*
X160980491Y-102723313D01*
X161000000Y-102725234D01*
X161019509Y-102723313D01*
X161038268Y-102717622D01*
X161055556Y-102708381D01*
X161070710Y-102695945D01*
X161095945Y-102670710D01*
X161108381Y-102655556D01*
X161117622Y-102638268D01*
X161123313Y-102619509D01*
X161125234Y-102600000D01*
X161274766Y-102600000D01*
X161276687Y-102619509D01*
X161282378Y-102638268D01*
X161291619Y-102655556D01*
X161304055Y-102670710D01*
X161329290Y-102695945D01*
X161344444Y-102708381D01*
X161361732Y-102717622D01*
X161380491Y-102723313D01*
X161400000Y-102725234D01*
X161419509Y-102723313D01*
X161438268Y-102717622D01*
X161455556Y-102708381D01*
X161470710Y-102695945D01*
X161495945Y-102670710D01*
X161508381Y-102655556D01*
X161517622Y-102638268D01*
X161523313Y-102619509D01*
X161525234Y-102600000D01*
X161674766Y-102600000D01*
X161676687Y-102619509D01*
X161682378Y-102638268D01*
X161691619Y-102655556D01*
X161704055Y-102670710D01*
X161729290Y-102695945D01*
X161744444Y-102708381D01*
X161761732Y-102717622D01*
X161780491Y-102723313D01*
X161800000Y-102725234D01*
X161819509Y-102723313D01*
X161838268Y-102717622D01*
X161855556Y-102708381D01*
X161870710Y-102695945D01*
X161895945Y-102670710D01*
X161908381Y-102655556D01*
X161917622Y-102638268D01*
X161923313Y-102619509D01*
X161925234Y-102600000D01*
X162074766Y-102600000D01*
X162076687Y-102619509D01*
X162082378Y-102638268D01*
X162091619Y-102655556D01*
X162104055Y-102670710D01*
X162129290Y-102695945D01*
X162144444Y-102708381D01*
X162161732Y-102717622D01*
X162180491Y-102723313D01*
X162200000Y-102725234D01*
X162219509Y-102723313D01*
X162238268Y-102717622D01*
X162255556Y-102708381D01*
X162270710Y-102695945D01*
X162295945Y-102670710D01*
X162308381Y-102655556D01*
X162317622Y-102638268D01*
X162323313Y-102619509D01*
X162325234Y-102600000D01*
X162323313Y-102580491D01*
X162317622Y-102561732D01*
X162308381Y-102544444D01*
X162295945Y-102529290D01*
X162270710Y-102504055D01*
X162255556Y-102491619D01*
X162238268Y-102482378D01*
X162219509Y-102476687D01*
X162200000Y-102474766D01*
X162180491Y-102476687D01*
X162161732Y-102482378D01*
X162144444Y-102491619D01*
X162129290Y-102504055D01*
X162104055Y-102529290D01*
X162091619Y-102544444D01*
X162082378Y-102561732D01*
X162076687Y-102580491D01*
X162074766Y-102600000D01*
X161925234Y-102600000D01*
X161923313Y-102580491D01*
X161917622Y-102561732D01*
X161908381Y-102544444D01*
X161895945Y-102529290D01*
X161870710Y-102504055D01*
X161855556Y-102491619D01*
X161838268Y-102482378D01*
X161819509Y-102476687D01*
X161800000Y-102474766D01*
X161780491Y-102476687D01*
X161761732Y-102482378D01*
X161744444Y-102491619D01*
X161729290Y-102504055D01*
X161704055Y-102529290D01*
X161691619Y-102544444D01*
X161682378Y-102561732D01*
X161676687Y-102580491D01*
X161674766Y-102600000D01*
X161525234Y-102600000D01*
X161523313Y-102580491D01*
X161517622Y-102561732D01*
X161508381Y-102544444D01*
X161495945Y-102529290D01*
X161470710Y-102504055D01*
X161455556Y-102491619D01*
X161438268Y-102482378D01*
X161419509Y-102476687D01*
X161400000Y-102474766D01*
X161380491Y-102476687D01*
X161361732Y-102482378D01*
X161344444Y-102491619D01*
X161329290Y-102504055D01*
X161304055Y-102529290D01*
X161291619Y-102544444D01*
X161282378Y-102561732D01*
X161276687Y-102580491D01*
X161274766Y-102600000D01*
X161125234Y-102600000D01*
X161123313Y-102580491D01*
X161117622Y-102561732D01*
X161108381Y-102544444D01*
X161095945Y-102529290D01*
X161070710Y-102504055D01*
X161055556Y-102491619D01*
X161038268Y-102482378D01*
X161019509Y-102476687D01*
X161000000Y-102474766D01*
X160980491Y-102476687D01*
X160961732Y-102482378D01*
X160944444Y-102491619D01*
X160929290Y-102504055D01*
X160904055Y-102529290D01*
X160891619Y-102544444D01*
X160882378Y-102561732D01*
X160876687Y-102580491D01*
X160874766Y-102600000D01*
X160725234Y-102600000D01*
X160723313Y-102580491D01*
X160717622Y-102561732D01*
X160708381Y-102544444D01*
X160695945Y-102529290D01*
X160670710Y-102504055D01*
X160655556Y-102491619D01*
X160638268Y-102482378D01*
X160619509Y-102476687D01*
X160600000Y-102474766D01*
X160580491Y-102476687D01*
X160561732Y-102482378D01*
X160544444Y-102491619D01*
X160529290Y-102504055D01*
X160504055Y-102529290D01*
X160491619Y-102544444D01*
X160482378Y-102561732D01*
X160476687Y-102580491D01*
X160474766Y-102600000D01*
X160325234Y-102600000D01*
X160323313Y-102580491D01*
X160317622Y-102561732D01*
X160308381Y-102544444D01*
X160295945Y-102529290D01*
X160271837Y-102505182D01*
X160271084Y-102504055D01*
X160253779Y-102478157D01*
X160241341Y-102448129D01*
X160235000Y-102416251D01*
X160235000Y-102383747D01*
X160241340Y-102351874D01*
X160241341Y-102351871D01*
X160253779Y-102321843D01*
X160271836Y-102294819D01*
X160295945Y-102270710D01*
X160308381Y-102255556D01*
X160317622Y-102238268D01*
X160323313Y-102219509D01*
X160325234Y-102200000D01*
X160474766Y-102200000D01*
X160476687Y-102219509D01*
X160482378Y-102238268D01*
X160491619Y-102255556D01*
X160504055Y-102270710D01*
X160529290Y-102295945D01*
X160544444Y-102308381D01*
X160561732Y-102317622D01*
X160580491Y-102323313D01*
X160600000Y-102325234D01*
X160619509Y-102323313D01*
X160638268Y-102317622D01*
X160655556Y-102308381D01*
X160670710Y-102295945D01*
X160695945Y-102270710D01*
X160708381Y-102255556D01*
X160717622Y-102238268D01*
X160723313Y-102219509D01*
X160725234Y-102200000D01*
X160874766Y-102200000D01*
X160876687Y-102219509D01*
X160882378Y-102238268D01*
X160891619Y-102255556D01*
X160904055Y-102270710D01*
X160929290Y-102295945D01*
X160944444Y-102308381D01*
X160961732Y-102317622D01*
X160980491Y-102323313D01*
X161000000Y-102325234D01*
X161019509Y-102323313D01*
X161038268Y-102317622D01*
X161055556Y-102308381D01*
X161070710Y-102295945D01*
X161095945Y-102270710D01*
X161108381Y-102255556D01*
X161117622Y-102238268D01*
X161123313Y-102219509D01*
X161125234Y-102200000D01*
X161274766Y-102200000D01*
X161276687Y-102219509D01*
X161282378Y-102238268D01*
X161291619Y-102255556D01*
X161304055Y-102270710D01*
X161329290Y-102295945D01*
X161344444Y-102308381D01*
X161361732Y-102317622D01*
X161380491Y-102323313D01*
X161400000Y-102325234D01*
X161419509Y-102323313D01*
X161438268Y-102317622D01*
X161455556Y-102308381D01*
X161470710Y-102295945D01*
X161495945Y-102270710D01*
X161508381Y-102255556D01*
X161517622Y-102238268D01*
X161523313Y-102219509D01*
X161525234Y-102200000D01*
X161674766Y-102200000D01*
X161676687Y-102219509D01*
X161682378Y-102238268D01*
X161691619Y-102255556D01*
X161704055Y-102270710D01*
X161729290Y-102295945D01*
X161744444Y-102308381D01*
X161761732Y-102317622D01*
X161780491Y-102323313D01*
X161800000Y-102325234D01*
X161819509Y-102323313D01*
X161838268Y-102317622D01*
X161855556Y-102308381D01*
X161870710Y-102295945D01*
X161895945Y-102270710D01*
X161908381Y-102255556D01*
X161917622Y-102238268D01*
X161923313Y-102219509D01*
X161925234Y-102200000D01*
X162074766Y-102200000D01*
X162076687Y-102219509D01*
X162082378Y-102238268D01*
X162091619Y-102255556D01*
X162104055Y-102270710D01*
X162129290Y-102295945D01*
X162144444Y-102308381D01*
X162161732Y-102317622D01*
X162180491Y-102323313D01*
X162200000Y-102325234D01*
X162219509Y-102323313D01*
X162238268Y-102317622D01*
X162255556Y-102308381D01*
X162270710Y-102295945D01*
X162295945Y-102270710D01*
X162308381Y-102255556D01*
X162317622Y-102238268D01*
X162323313Y-102219509D01*
X162325234Y-102200000D01*
X162323313Y-102180491D01*
X162317622Y-102161732D01*
X162308381Y-102144444D01*
X162295945Y-102129290D01*
X162270710Y-102104055D01*
X162255556Y-102091619D01*
X162238268Y-102082378D01*
X162219509Y-102076687D01*
X162200000Y-102074766D01*
X162180491Y-102076687D01*
X162161732Y-102082378D01*
X162144444Y-102091619D01*
X162129290Y-102104055D01*
X162104055Y-102129290D01*
X162091619Y-102144444D01*
X162082378Y-102161732D01*
X162076687Y-102180491D01*
X162074766Y-102200000D01*
X161925234Y-102200000D01*
X161923313Y-102180491D01*
X161917622Y-102161732D01*
X161908381Y-102144444D01*
X161895945Y-102129290D01*
X161870710Y-102104055D01*
X161855556Y-102091619D01*
X161838268Y-102082378D01*
X161819509Y-102076687D01*
X161800000Y-102074766D01*
X161780491Y-102076687D01*
X161761732Y-102082378D01*
X161744444Y-102091619D01*
X161729290Y-102104055D01*
X161704055Y-102129290D01*
X161691619Y-102144444D01*
X161682378Y-102161732D01*
X161676687Y-102180491D01*
X161674766Y-102200000D01*
X161525234Y-102200000D01*
X161523313Y-102180491D01*
X161517622Y-102161732D01*
X161508381Y-102144444D01*
X161495945Y-102129290D01*
X161470710Y-102104055D01*
X161455556Y-102091619D01*
X161438268Y-102082378D01*
X161419509Y-102076687D01*
X161400000Y-102074766D01*
X161380491Y-102076687D01*
X161361732Y-102082378D01*
X161344444Y-102091619D01*
X161329290Y-102104055D01*
X161304055Y-102129290D01*
X161291619Y-102144444D01*
X161282378Y-102161732D01*
X161276687Y-102180491D01*
X161274766Y-102200000D01*
X161125234Y-102200000D01*
X161123313Y-102180491D01*
X161117622Y-102161732D01*
X161108381Y-102144444D01*
X161095945Y-102129290D01*
X161070710Y-102104055D01*
X161055556Y-102091619D01*
X161038268Y-102082378D01*
X161019509Y-102076687D01*
X161000000Y-102074766D01*
X160980491Y-102076687D01*
X160961732Y-102082378D01*
X160944444Y-102091619D01*
X160929290Y-102104055D01*
X160904055Y-102129290D01*
X160891619Y-102144444D01*
X160882378Y-102161732D01*
X160876687Y-102180491D01*
X160874766Y-102200000D01*
X160725234Y-102200000D01*
X160723313Y-102180491D01*
X160717622Y-102161732D01*
X160708381Y-102144444D01*
X160695945Y-102129290D01*
X160670710Y-102104055D01*
X160655556Y-102091619D01*
X160638268Y-102082378D01*
X160619509Y-102076687D01*
X160600000Y-102074766D01*
X160580491Y-102076687D01*
X160561732Y-102082378D01*
X160544444Y-102091619D01*
X160529290Y-102104055D01*
X160504055Y-102129290D01*
X160491619Y-102144444D01*
X160482378Y-102161732D01*
X160476687Y-102180491D01*
X160474766Y-102200000D01*
X160325234Y-102200000D01*
X160323313Y-102180491D01*
X160317622Y-102161732D01*
X160308381Y-102144444D01*
X160295945Y-102129290D01*
X160271837Y-102105182D01*
X160271084Y-102104055D01*
X160253779Y-102078157D01*
X160241341Y-102048129D01*
X160235000Y-102016251D01*
X160235000Y-101983749D01*
X160241341Y-101951871D01*
X160253779Y-101921843D01*
X160271836Y-101894819D01*
X160295945Y-101870710D01*
X160308381Y-101855556D01*
X160317622Y-101838268D01*
X160323313Y-101819509D01*
X160325234Y-101800000D01*
X160474766Y-101800000D01*
X160476687Y-101819509D01*
X160482378Y-101838268D01*
X160491619Y-101855556D01*
X160504055Y-101870710D01*
X160529290Y-101895945D01*
X160544444Y-101908381D01*
X160561732Y-101917622D01*
X160580491Y-101923313D01*
X160600000Y-101925234D01*
X160619509Y-101923313D01*
X160638268Y-101917622D01*
X160655556Y-101908381D01*
X160670710Y-101895945D01*
X160695945Y-101870710D01*
X160708381Y-101855556D01*
X160717622Y-101838268D01*
X160723313Y-101819509D01*
X160725234Y-101800000D01*
X160874766Y-101800000D01*
X160876687Y-101819509D01*
X160882378Y-101838268D01*
X160891619Y-101855556D01*
X160904055Y-101870710D01*
X160929290Y-101895945D01*
X160944444Y-101908381D01*
X160961732Y-101917622D01*
X160980491Y-101923313D01*
X161000000Y-101925234D01*
X161019509Y-101923313D01*
X161038268Y-101917622D01*
X161055556Y-101908381D01*
X161070710Y-101895945D01*
X161095945Y-101870710D01*
X161108381Y-101855556D01*
X161117622Y-101838268D01*
X161123313Y-101819509D01*
X161125234Y-101800000D01*
X161274766Y-101800000D01*
X161276687Y-101819509D01*
X161282378Y-101838268D01*
X161291619Y-101855556D01*
X161304055Y-101870710D01*
X161329290Y-101895945D01*
X161344444Y-101908381D01*
X161361732Y-101917622D01*
X161380491Y-101923313D01*
X161400000Y-101925234D01*
X161419509Y-101923313D01*
X161438268Y-101917622D01*
X161455556Y-101908381D01*
X161470710Y-101895945D01*
X161495945Y-101870710D01*
X161508381Y-101855556D01*
X161517622Y-101838268D01*
X161523313Y-101819509D01*
X161525234Y-101800000D01*
X161674766Y-101800000D01*
X161676687Y-101819509D01*
X161682378Y-101838268D01*
X161691619Y-101855556D01*
X161704055Y-101870710D01*
X161729290Y-101895945D01*
X161744444Y-101908381D01*
X161761732Y-101917622D01*
X161780491Y-101923313D01*
X161800000Y-101925234D01*
X161819509Y-101923313D01*
X161838268Y-101917622D01*
X161855556Y-101908381D01*
X161870710Y-101895945D01*
X161895238Y-101871417D01*
X161907674Y-101856263D01*
X161916915Y-101838975D01*
X161922606Y-101820216D01*
X161924527Y-101800707D01*
X162075473Y-101800707D01*
X162077394Y-101820216D01*
X162083085Y-101838975D01*
X162092326Y-101856263D01*
X162104762Y-101871417D01*
X162129290Y-101895945D01*
X162144444Y-101908381D01*
X162161732Y-101917622D01*
X162180491Y-101923313D01*
X162200000Y-101925234D01*
X162219509Y-101923313D01*
X162238268Y-101917622D01*
X162255556Y-101908381D01*
X162270710Y-101895945D01*
X162295945Y-101870710D01*
X162308381Y-101855556D01*
X162317622Y-101838268D01*
X162323313Y-101819509D01*
X162325234Y-101800000D01*
X162323313Y-101780491D01*
X162317622Y-101761732D01*
X162308381Y-101744444D01*
X162295945Y-101729290D01*
X162271417Y-101704762D01*
X162256263Y-101692326D01*
X162238975Y-101683085D01*
X162220216Y-101677394D01*
X162200707Y-101675473D01*
X162181198Y-101677394D01*
X162162439Y-101683085D01*
X162145151Y-101692326D01*
X162129997Y-101704762D01*
X162104762Y-101729997D01*
X162092326Y-101745151D01*
X162083085Y-101762439D01*
X162077394Y-101781198D01*
X162075473Y-101800707D01*
X161924527Y-101800707D01*
X161922606Y-101781198D01*
X161916915Y-101762439D01*
X161907674Y-101745151D01*
X161895238Y-101729997D01*
X161870003Y-101704762D01*
X161854849Y-101692326D01*
X161837561Y-101683085D01*
X161818802Y-101677394D01*
X161799293Y-101675473D01*
X161779784Y-101677394D01*
X161761025Y-101683085D01*
X161743737Y-101692326D01*
X161728583Y-101704762D01*
X161704055Y-101729290D01*
X161691619Y-101744444D01*
X161682378Y-101761732D01*
X161676687Y-101780491D01*
X161674766Y-101800000D01*
X161525234Y-101800000D01*
X161523313Y-101780491D01*
X161517622Y-101761732D01*
X161508381Y-101744444D01*
X161495945Y-101729290D01*
X161470710Y-101704055D01*
X161455556Y-101691619D01*
X161438268Y-101682378D01*
X161419509Y-101676687D01*
X161400000Y-101674766D01*
X161380491Y-101676687D01*
X161361732Y-101682378D01*
X161344444Y-101691619D01*
X161329290Y-101704055D01*
X161304055Y-101729290D01*
X161291619Y-101744444D01*
X161282378Y-101761732D01*
X161276687Y-101780491D01*
X161274766Y-101800000D01*
X161125234Y-101800000D01*
X161123313Y-101780491D01*
X161117622Y-101761732D01*
X161108381Y-101744444D01*
X161095945Y-101729290D01*
X161070710Y-101704055D01*
X161055556Y-101691619D01*
X161038268Y-101682378D01*
X161019509Y-101676687D01*
X161000000Y-101674766D01*
X160980491Y-101676687D01*
X160961732Y-101682378D01*
X160944444Y-101691619D01*
X160929290Y-101704055D01*
X160904055Y-101729290D01*
X160891619Y-101744444D01*
X160882378Y-101761732D01*
X160876687Y-101780491D01*
X160874766Y-101800000D01*
X160725234Y-101800000D01*
X160723313Y-101780491D01*
X160717622Y-101761732D01*
X160708381Y-101744444D01*
X160695945Y-101729290D01*
X160670710Y-101704055D01*
X160655556Y-101691619D01*
X160638268Y-101682378D01*
X160619509Y-101676687D01*
X160600000Y-101674766D01*
X160580491Y-101676687D01*
X160561732Y-101682378D01*
X160544444Y-101691619D01*
X160529290Y-101704055D01*
X160504055Y-101729290D01*
X160491619Y-101744444D01*
X160482378Y-101761732D01*
X160476687Y-101780491D01*
X160474766Y-101800000D01*
X160325234Y-101800000D01*
X160323313Y-101780491D01*
X160317622Y-101761732D01*
X160308381Y-101744444D01*
X160295945Y-101729290D01*
X160271837Y-101705182D01*
X160271084Y-101704055D01*
X160253779Y-101678157D01*
X160241341Y-101648129D01*
X160235020Y-101616350D01*
X160235000Y-101616253D01*
X160235000Y-101583747D01*
X160241340Y-101551874D01*
X160241462Y-101551580D01*
X160253779Y-101521843D01*
X160271836Y-101494819D01*
X160294819Y-101471836D01*
X160321843Y-101453779D01*
X160351871Y-101441341D01*
X160351872Y-101441341D01*
X160351874Y-101441340D01*
X160383747Y-101435000D01*
X160416253Y-101435000D01*
X160448126Y-101441340D01*
X160448128Y-101441341D01*
X160448129Y-101441341D01*
X160478157Y-101453779D01*
X160505181Y-101471836D01*
X160529290Y-101495945D01*
X160544444Y-101508381D01*
X160561732Y-101517622D01*
X160580491Y-101523313D01*
X160600000Y-101525234D01*
X160619509Y-101523313D01*
X160638268Y-101517622D01*
X160655556Y-101508381D01*
X160670710Y-101495945D01*
X160694819Y-101471836D01*
X160721843Y-101453779D01*
X160751871Y-101441341D01*
X160751872Y-101441341D01*
X160751874Y-101441340D01*
X160783747Y-101435000D01*
X160816253Y-101435000D01*
X160848126Y-101441340D01*
X160848128Y-101441341D01*
X160848129Y-101441341D01*
X160878157Y-101453779D01*
X160905181Y-101471836D01*
X160929290Y-101495945D01*
X160944444Y-101508381D01*
X160961732Y-101517622D01*
X160980491Y-101523313D01*
X161000000Y-101525234D01*
X161019509Y-101523313D01*
X161038268Y-101517622D01*
X161055556Y-101508381D01*
X161070710Y-101495945D01*
X161094819Y-101471836D01*
X161121843Y-101453779D01*
X161151871Y-101441341D01*
X161151872Y-101441341D01*
X161151874Y-101441340D01*
X161183747Y-101435000D01*
X161216253Y-101435000D01*
X161248126Y-101441340D01*
X161248128Y-101441341D01*
X161248129Y-101441341D01*
X161278157Y-101453779D01*
X161305181Y-101471836D01*
X161329290Y-101495945D01*
X161344444Y-101508381D01*
X161361732Y-101517622D01*
X161380491Y-101523313D01*
X161400000Y-101525234D01*
X161419509Y-101523313D01*
X161438268Y-101517622D01*
X161455556Y-101508381D01*
X161470710Y-101495945D01*
X161494819Y-101471836D01*
X161521843Y-101453779D01*
X161551871Y-101441341D01*
X161551872Y-101441341D01*
X161551874Y-101441340D01*
X161583747Y-101435000D01*
X161616253Y-101435000D01*
X161648126Y-101441340D01*
X161648128Y-101441341D01*
X161648129Y-101441341D01*
X161678157Y-101453779D01*
X161705181Y-101471836D01*
X161728583Y-101495238D01*
X161743737Y-101507674D01*
X161761025Y-101516915D01*
X161779784Y-101522606D01*
X161799293Y-101524527D01*
X161818802Y-101522606D01*
X161837561Y-101516915D01*
X161854849Y-101507674D01*
X161870003Y-101495238D01*
X161894181Y-101471060D01*
X161921369Y-101452893D01*
X161933883Y-101447710D01*
X161951580Y-101440379D01*
X161983650Y-101434000D01*
X162016350Y-101434000D01*
X162048420Y-101440379D01*
X162048420Y-101440379D01*
G37*
G36*
X158807000Y-101946000D02*
G01*
X153105000Y-101946000D01*
X153105000Y-100294000D01*
X158807000Y-100294000D01*
X158807000Y-101946000D01*
X158807000Y-101946000D01*
G37*
G36*
X164348932Y-100091688D02*
G01*
X164389969Y-100104136D01*
X164427788Y-100124351D01*
X164460941Y-100151559D01*
X164488149Y-100184712D01*
X164508364Y-100222531D01*
X164520812Y-100263568D01*
X164525500Y-100311167D01*
X164525500Y-101364833D01*
X164520812Y-101412432D01*
X164508364Y-101453469D01*
X164488149Y-101491288D01*
X164460941Y-101524441D01*
X164427788Y-101551649D01*
X164389969Y-101571864D01*
X164348932Y-101584312D01*
X164301333Y-101589000D01*
X163672667Y-101589000D01*
X163625068Y-101584312D01*
X163584031Y-101571864D01*
X163546212Y-101551649D01*
X163513059Y-101524441D01*
X163485851Y-101491288D01*
X163465636Y-101453469D01*
X163453188Y-101412432D01*
X163448500Y-101364833D01*
X163448500Y-100311167D01*
X163453188Y-100263568D01*
X163465636Y-100222531D01*
X163485851Y-100184712D01*
X163513059Y-100151559D01*
X163546212Y-100124351D01*
X163584031Y-100104136D01*
X163625068Y-100091688D01*
X163672667Y-100087000D01*
X164301333Y-100087000D01*
X164348932Y-100091688D01*
X164348932Y-100091688D01*
G37*
G36*
X166223932Y-100091688D02*
G01*
X166264969Y-100104136D01*
X166302788Y-100124351D01*
X166335941Y-100151559D01*
X166363149Y-100184712D01*
X166383364Y-100222531D01*
X166395812Y-100263568D01*
X166400500Y-100311167D01*
X166400500Y-101364833D01*
X166395812Y-101412432D01*
X166383364Y-101453469D01*
X166363149Y-101491288D01*
X166335941Y-101524441D01*
X166302788Y-101551649D01*
X166264969Y-101571864D01*
X166223932Y-101584312D01*
X166176333Y-101589000D01*
X165547667Y-101589000D01*
X165500068Y-101584312D01*
X165459031Y-101571864D01*
X165421212Y-101551649D01*
X165388059Y-101524441D01*
X165360851Y-101491288D01*
X165340636Y-101453469D01*
X165328188Y-101412432D01*
X165323500Y-101364833D01*
X165323500Y-100311167D01*
X165328188Y-100263568D01*
X165340636Y-100222531D01*
X165360851Y-100184712D01*
X165388059Y-100151559D01*
X165421212Y-100124351D01*
X165459031Y-100104136D01*
X165500068Y-100091688D01*
X165547667Y-100087000D01*
X166176333Y-100087000D01*
X166223932Y-100091688D01*
X166223932Y-100091688D01*
G37*
G36*
X173117535Y-99692778D02*
G01*
X173150627Y-99696037D01*
X173263853Y-99730384D01*
X173320467Y-99747557D01*
X173476990Y-99831220D01*
X173614186Y-99943814D01*
X173726780Y-100081010D01*
X173810443Y-100237533D01*
X173810443Y-100237534D01*
X173861963Y-100407373D01*
X173861963Y-100407375D01*
X173879360Y-100584000D01*
X173864826Y-100731559D01*
X173861963Y-100760627D01*
X173827616Y-100873853D01*
X173810443Y-100930467D01*
X173726780Y-101086990D01*
X173614186Y-101224186D01*
X173476990Y-101336780D01*
X173320467Y-101420443D01*
X173272478Y-101435000D01*
X173150627Y-101471963D01*
X173117535Y-101475222D01*
X173018264Y-101485000D01*
X172929736Y-101485000D01*
X172830465Y-101475222D01*
X172797373Y-101471963D01*
X172675522Y-101435000D01*
X172627533Y-101420443D01*
X172471010Y-101336780D01*
X172333814Y-101224186D01*
X172221220Y-101086990D01*
X172137557Y-100930467D01*
X172120384Y-100873853D01*
X172086037Y-100760627D01*
X172083174Y-100731559D01*
X172068640Y-100584000D01*
X172086037Y-100407375D01*
X172086037Y-100407373D01*
X172137557Y-100237534D01*
X172137557Y-100237533D01*
X172221220Y-100081010D01*
X172333814Y-99943814D01*
X172471010Y-99831220D01*
X172627533Y-99747557D01*
X172684147Y-99730384D01*
X172797373Y-99696037D01*
X172830465Y-99692778D01*
X172929736Y-99683000D01*
X173018264Y-99683000D01*
X173117535Y-99692778D01*
X173117535Y-99692778D01*
G37*
G36*
X149139935Y-99692778D02*
G01*
X149173027Y-99696037D01*
X149286253Y-99730384D01*
X149342867Y-99747557D01*
X149499390Y-99831220D01*
X149636586Y-99943814D01*
X149749180Y-100081010D01*
X149832843Y-100237533D01*
X149832843Y-100237534D01*
X149884363Y-100407373D01*
X149884363Y-100407375D01*
X149901760Y-100584000D01*
X149887226Y-100731559D01*
X149884363Y-100760627D01*
X149850016Y-100873853D01*
X149832843Y-100930467D01*
X149749180Y-101086990D01*
X149636586Y-101224186D01*
X149499390Y-101336780D01*
X149342867Y-101420443D01*
X149294878Y-101435000D01*
X149173027Y-101471963D01*
X149139935Y-101475222D01*
X149040664Y-101485000D01*
X148952136Y-101485000D01*
X148852865Y-101475222D01*
X148819773Y-101471963D01*
X148697922Y-101435000D01*
X148649933Y-101420443D01*
X148493410Y-101336780D01*
X148356214Y-101224186D01*
X148243620Y-101086990D01*
X148159957Y-100930467D01*
X148142784Y-100873853D01*
X148108437Y-100760627D01*
X148105574Y-100731559D01*
X148091040Y-100584000D01*
X148108437Y-100407375D01*
X148108437Y-100407373D01*
X148159957Y-100237534D01*
X148159957Y-100237533D01*
X148243620Y-100081010D01*
X148356214Y-99943814D01*
X148493410Y-99831220D01*
X148649933Y-99747557D01*
X148706547Y-99730384D01*
X148819773Y-99696037D01*
X148852865Y-99692778D01*
X148952136Y-99683000D01*
X149040664Y-99683000D01*
X149139935Y-99692778D01*
X149139935Y-99692778D01*
G37*
G36*
X149139935Y-97152778D02*
G01*
X149173027Y-97156037D01*
X149286253Y-97190384D01*
X149342867Y-97207557D01*
X149499390Y-97291220D01*
X149636586Y-97403814D01*
X149749180Y-97541010D01*
X149832843Y-97697533D01*
X149832843Y-97697534D01*
X149884363Y-97867373D01*
X149884363Y-97867375D01*
X149901760Y-98044000D01*
X149887226Y-98191559D01*
X149884363Y-98220627D01*
X149850016Y-98333853D01*
X149832843Y-98390467D01*
X149749180Y-98546990D01*
X149636586Y-98684186D01*
X149499390Y-98796780D01*
X149342867Y-98880443D01*
X149286253Y-98897616D01*
X149173027Y-98931963D01*
X149139935Y-98935222D01*
X149040664Y-98945000D01*
X148952136Y-98945000D01*
X148852865Y-98935222D01*
X148819773Y-98931963D01*
X148706547Y-98897616D01*
X148649933Y-98880443D01*
X148493410Y-98796780D01*
X148356214Y-98684186D01*
X148243620Y-98546990D01*
X148159957Y-98390467D01*
X148142784Y-98333853D01*
X148108437Y-98220627D01*
X148105574Y-98191559D01*
X148091040Y-98044000D01*
X148108437Y-97867375D01*
X148108437Y-97867373D01*
X148159957Y-97697534D01*
X148159957Y-97697533D01*
X148243620Y-97541010D01*
X148356214Y-97403814D01*
X148493410Y-97291220D01*
X148649933Y-97207557D01*
X148706547Y-97190384D01*
X148819773Y-97156037D01*
X148852865Y-97152778D01*
X148952136Y-97143000D01*
X149040664Y-97143000D01*
X149139935Y-97152778D01*
X149139935Y-97152778D01*
G37*
G36*
X173117535Y-97152778D02*
G01*
X173150627Y-97156037D01*
X173263853Y-97190384D01*
X173320467Y-97207557D01*
X173476990Y-97291220D01*
X173614186Y-97403814D01*
X173726780Y-97541010D01*
X173810443Y-97697533D01*
X173810443Y-97697534D01*
X173861963Y-97867373D01*
X173861963Y-97867375D01*
X173879360Y-98044000D01*
X173864826Y-98191559D01*
X173861963Y-98220627D01*
X173827616Y-98333853D01*
X173810443Y-98390467D01*
X173726780Y-98546990D01*
X173614186Y-98684186D01*
X173476990Y-98796780D01*
X173320467Y-98880443D01*
X173263853Y-98897616D01*
X173150627Y-98931963D01*
X173117535Y-98935222D01*
X173018264Y-98945000D01*
X172929736Y-98945000D01*
X172830465Y-98935222D01*
X172797373Y-98931963D01*
X172684147Y-98897616D01*
X172627533Y-98880443D01*
X172471010Y-98796780D01*
X172333814Y-98684186D01*
X172221220Y-98546990D01*
X172137557Y-98390467D01*
X172120384Y-98333853D01*
X172086037Y-98220627D01*
X172083174Y-98191559D01*
X172068640Y-98044000D01*
X172086037Y-97867375D01*
X172086037Y-97867373D01*
X172137557Y-97697534D01*
X172137557Y-97697533D01*
X172221220Y-97541010D01*
X172333814Y-97403814D01*
X172471010Y-97291220D01*
X172627533Y-97207557D01*
X172684147Y-97190384D01*
X172797373Y-97156037D01*
X172830465Y-97152778D01*
X172929736Y-97143000D01*
X173018264Y-97143000D01*
X173117535Y-97152778D01*
X173117535Y-97152778D01*
G37*
G36*
X173117535Y-94612778D02*
G01*
X173150627Y-94616037D01*
X173263853Y-94650384D01*
X173320467Y-94667557D01*
X173476990Y-94751220D01*
X173614186Y-94863814D01*
X173726780Y-95001010D01*
X173810443Y-95157533D01*
X173810443Y-95157534D01*
X173861963Y-95327373D01*
X173861963Y-95327375D01*
X173879360Y-95504000D01*
X173868114Y-95618178D01*
X173861963Y-95680627D01*
X173850235Y-95719288D01*
X173810443Y-95850467D01*
X173726780Y-96006990D01*
X173614186Y-96144186D01*
X173476990Y-96256780D01*
X173320467Y-96340443D01*
X173263853Y-96357616D01*
X173150627Y-96391963D01*
X173117535Y-96395222D01*
X173018264Y-96405000D01*
X172929736Y-96405000D01*
X172830465Y-96395222D01*
X172797373Y-96391963D01*
X172684147Y-96357616D01*
X172627533Y-96340443D01*
X172471010Y-96256780D01*
X172333814Y-96144186D01*
X172221220Y-96006990D01*
X172137557Y-95850467D01*
X172097765Y-95719288D01*
X172086037Y-95680627D01*
X172079886Y-95618178D01*
X172068640Y-95504000D01*
X172086037Y-95327375D01*
X172086037Y-95327373D01*
X172137557Y-95157534D01*
X172137557Y-95157533D01*
X172221220Y-95001010D01*
X172333814Y-94863814D01*
X172471010Y-94751220D01*
X172627533Y-94667557D01*
X172684147Y-94650384D01*
X172797373Y-94616037D01*
X172830465Y-94612778D01*
X172929736Y-94603000D01*
X173018264Y-94603000D01*
X173117535Y-94612778D01*
X173117535Y-94612778D01*
G37*
G36*
X149139935Y-94612778D02*
G01*
X149173027Y-94616037D01*
X149286253Y-94650384D01*
X149342867Y-94667557D01*
X149499390Y-94751220D01*
X149636586Y-94863814D01*
X149749180Y-95001010D01*
X149832843Y-95157533D01*
X149832843Y-95157534D01*
X149884363Y-95327373D01*
X149884363Y-95327375D01*
X149901760Y-95504000D01*
X149890514Y-95618178D01*
X149884363Y-95680627D01*
X149872635Y-95719288D01*
X149832843Y-95850467D01*
X149749180Y-96006990D01*
X149636586Y-96144186D01*
X149499390Y-96256780D01*
X149342867Y-96340443D01*
X149286253Y-96357616D01*
X149173027Y-96391963D01*
X149139935Y-96395222D01*
X149040664Y-96405000D01*
X148952136Y-96405000D01*
X148852865Y-96395222D01*
X148819773Y-96391963D01*
X148706547Y-96357616D01*
X148649933Y-96340443D01*
X148493410Y-96256780D01*
X148356214Y-96144186D01*
X148243620Y-96006990D01*
X148159957Y-95850467D01*
X148120165Y-95719288D01*
X148108437Y-95680627D01*
X148102286Y-95618178D01*
X148091040Y-95504000D01*
X148108437Y-95327375D01*
X148108437Y-95327373D01*
X148159957Y-95157534D01*
X148159957Y-95157533D01*
X148243620Y-95001010D01*
X148356214Y-94863814D01*
X148493410Y-94751220D01*
X148649933Y-94667557D01*
X148706547Y-94650384D01*
X148819773Y-94616037D01*
X148852865Y-94612778D01*
X148952136Y-94603000D01*
X149040664Y-94603000D01*
X149139935Y-94612778D01*
X149139935Y-94612778D01*
G37*
G36*
X161102432Y-94813188D02*
G01*
X161143469Y-94825636D01*
X161181288Y-94845851D01*
X161214441Y-94873059D01*
X161241649Y-94906212D01*
X161261864Y-94944031D01*
X161274312Y-94985068D01*
X161279000Y-95032667D01*
X161279000Y-95661333D01*
X161274312Y-95708932D01*
X161261864Y-95749969D01*
X161241649Y-95787788D01*
X161214441Y-95820941D01*
X161181288Y-95848149D01*
X161143469Y-95868364D01*
X161102432Y-95880812D01*
X161054833Y-95885500D01*
X160001167Y-95885500D01*
X159953568Y-95880812D01*
X159912531Y-95868364D01*
X159874712Y-95848149D01*
X159841559Y-95820941D01*
X159814351Y-95787788D01*
X159794136Y-95749969D01*
X159781688Y-95708932D01*
X159777000Y-95661333D01*
X159777000Y-95032667D01*
X159781688Y-94985068D01*
X159794136Y-94944031D01*
X159814351Y-94906212D01*
X159841559Y-94873059D01*
X159874712Y-94845851D01*
X159912531Y-94825636D01*
X159953568Y-94813188D01*
X160001167Y-94808500D01*
X161054833Y-94808500D01*
X161102432Y-94813188D01*
X161102432Y-94813188D01*
G37*
G36*
X108080476Y-94205261D02*
G01*
X108183645Y-94225782D01*
X108269036Y-94261153D01*
X108329416Y-94286163D01*
X108460608Y-94373822D01*
X108572178Y-94485392D01*
X108659837Y-94616584D01*
X108680951Y-94667557D01*
X108720218Y-94762355D01*
X108730329Y-94813188D01*
X108751000Y-94917108D01*
X108751000Y-95074892D01*
X108740739Y-95126476D01*
X108720218Y-95229645D01*
X108684847Y-95315036D01*
X108659837Y-95375416D01*
X108572178Y-95506608D01*
X108460608Y-95618178D01*
X108329416Y-95705837D01*
X108296942Y-95719288D01*
X108183645Y-95766218D01*
X108080476Y-95786739D01*
X108028892Y-95797000D01*
X107871108Y-95797000D01*
X107819524Y-95786739D01*
X107716355Y-95766218D01*
X107603058Y-95719288D01*
X107570584Y-95705837D01*
X107439392Y-95618178D01*
X107327822Y-95506608D01*
X107240163Y-95375416D01*
X107215153Y-95315036D01*
X107179782Y-95229645D01*
X107159261Y-95126476D01*
X107149000Y-95074892D01*
X107149000Y-94917108D01*
X107169671Y-94813188D01*
X107179782Y-94762355D01*
X107219049Y-94667557D01*
X107240163Y-94616584D01*
X107327822Y-94485392D01*
X107439392Y-94373822D01*
X107570584Y-94286163D01*
X107630964Y-94261153D01*
X107716355Y-94225782D01*
X107819524Y-94205261D01*
X107871108Y-94195000D01*
X108028892Y-94195000D01*
X108080476Y-94205261D01*
X108080476Y-94205261D01*
G37*
G36*
X161102432Y-92938188D02*
G01*
X161143469Y-92950636D01*
X161181288Y-92970851D01*
X161214441Y-92998059D01*
X161241649Y-93031212D01*
X161261864Y-93069031D01*
X161274312Y-93110068D01*
X161279000Y-93157667D01*
X161279000Y-93786333D01*
X161274312Y-93833932D01*
X161261864Y-93874969D01*
X161241649Y-93912788D01*
X161214441Y-93945941D01*
X161181288Y-93973149D01*
X161143469Y-93993364D01*
X161102432Y-94005812D01*
X161054833Y-94010500D01*
X160001167Y-94010500D01*
X159953568Y-94005812D01*
X159912531Y-93993364D01*
X159874712Y-93973149D01*
X159841559Y-93945941D01*
X159814351Y-93912788D01*
X159794136Y-93874969D01*
X159781688Y-93833932D01*
X159777000Y-93786333D01*
X159777000Y-93157667D01*
X159781688Y-93110068D01*
X159794136Y-93069031D01*
X159814351Y-93031212D01*
X159841559Y-92998059D01*
X159874712Y-92970851D01*
X159912531Y-92950636D01*
X159953568Y-92938188D01*
X160001167Y-92933500D01*
X161054833Y-92933500D01*
X161102432Y-92938188D01*
X161102432Y-92938188D01*
G37*
G36*
X149139935Y-92072778D02*
G01*
X149173027Y-92076037D01*
X149286253Y-92110384D01*
X149342867Y-92127557D01*
X149499390Y-92211220D01*
X149636586Y-92323814D01*
X149749180Y-92461010D01*
X149832843Y-92617533D01*
X149832843Y-92617534D01*
X149884363Y-92787373D01*
X149884363Y-92787375D01*
X149901760Y-92964000D01*
X149888393Y-93099712D01*
X149884363Y-93140627D01*
X149865518Y-93202750D01*
X149832843Y-93310467D01*
X149749180Y-93466990D01*
X149636586Y-93604186D01*
X149499390Y-93716780D01*
X149342867Y-93800443D01*
X149286253Y-93817616D01*
X149173027Y-93851963D01*
X149139935Y-93855222D01*
X149040664Y-93865000D01*
X148952136Y-93865000D01*
X148852865Y-93855222D01*
X148819773Y-93851963D01*
X148706547Y-93817616D01*
X148649933Y-93800443D01*
X148493410Y-93716780D01*
X148356214Y-93604186D01*
X148243620Y-93466990D01*
X148159957Y-93310467D01*
X148127282Y-93202750D01*
X148108437Y-93140627D01*
X148104407Y-93099712D01*
X148091040Y-92964000D01*
X148108437Y-92787375D01*
X148108437Y-92787373D01*
X148159957Y-92617534D01*
X148159957Y-92617533D01*
X148243620Y-92461010D01*
X148356214Y-92323814D01*
X148493410Y-92211220D01*
X148649933Y-92127557D01*
X148706547Y-92110384D01*
X148819773Y-92076037D01*
X148852865Y-92072778D01*
X148952136Y-92063000D01*
X149040664Y-92063000D01*
X149139935Y-92072778D01*
X149139935Y-92072778D01*
G37*
G36*
X173117535Y-92072778D02*
G01*
X173150627Y-92076037D01*
X173263853Y-92110384D01*
X173320467Y-92127557D01*
X173476990Y-92211220D01*
X173614186Y-92323814D01*
X173726780Y-92461010D01*
X173810443Y-92617533D01*
X173810443Y-92617534D01*
X173861963Y-92787373D01*
X173861963Y-92787375D01*
X173879360Y-92964000D01*
X173865993Y-93099712D01*
X173861963Y-93140627D01*
X173843118Y-93202750D01*
X173810443Y-93310467D01*
X173726780Y-93466990D01*
X173614186Y-93604186D01*
X173476990Y-93716780D01*
X173320467Y-93800443D01*
X173263853Y-93817616D01*
X173150627Y-93851963D01*
X173117535Y-93855222D01*
X173018264Y-93865000D01*
X172929736Y-93865000D01*
X172830465Y-93855222D01*
X172797373Y-93851963D01*
X172684147Y-93817616D01*
X172627533Y-93800443D01*
X172471010Y-93716780D01*
X172333814Y-93604186D01*
X172221220Y-93466990D01*
X172137557Y-93310467D01*
X172104882Y-93202750D01*
X172086037Y-93140627D01*
X172082007Y-93099712D01*
X172068640Y-92964000D01*
X172086037Y-92787375D01*
X172086037Y-92787373D01*
X172137557Y-92617534D01*
X172137557Y-92617533D01*
X172221220Y-92461010D01*
X172333814Y-92323814D01*
X172471010Y-92211220D01*
X172627533Y-92127557D01*
X172684147Y-92110384D01*
X172797373Y-92076037D01*
X172830465Y-92072778D01*
X172929736Y-92063000D01*
X173018264Y-92063000D01*
X173117535Y-92072778D01*
X173117535Y-92072778D01*
G37*
G36*
X158308432Y-91003188D02*
G01*
X158349469Y-91015636D01*
X158387288Y-91035851D01*
X158420441Y-91063059D01*
X158447649Y-91096212D01*
X158467864Y-91134031D01*
X158480312Y-91175068D01*
X158485000Y-91222667D01*
X158485000Y-91851333D01*
X158480312Y-91898932D01*
X158467864Y-91939969D01*
X158447649Y-91977788D01*
X158420441Y-92010941D01*
X158387288Y-92038149D01*
X158349469Y-92058364D01*
X158308432Y-92070812D01*
X158260833Y-92075500D01*
X157207167Y-92075500D01*
X157159568Y-92070812D01*
X157118531Y-92058364D01*
X157080712Y-92038149D01*
X157047559Y-92010941D01*
X157020351Y-91977788D01*
X157000136Y-91939969D01*
X156987688Y-91898932D01*
X156983000Y-91851333D01*
X156983000Y-91222667D01*
X156987688Y-91175068D01*
X157000136Y-91134031D01*
X157020351Y-91096212D01*
X157047559Y-91063059D01*
X157080712Y-91035851D01*
X157118531Y-91015636D01*
X157159568Y-91003188D01*
X157207167Y-90998500D01*
X158260833Y-90998500D01*
X158308432Y-91003188D01*
X158308432Y-91003188D01*
G37*
G36*
X149139935Y-89532778D02*
G01*
X149173027Y-89536037D01*
X149286253Y-89570384D01*
X149342867Y-89587557D01*
X149499390Y-89671220D01*
X149636586Y-89783814D01*
X149749180Y-89921010D01*
X149832843Y-90077533D01*
X149832843Y-90077534D01*
X149884363Y-90247373D01*
X149884363Y-90247375D01*
X149901760Y-90424000D01*
X149887226Y-90571559D01*
X149884363Y-90600627D01*
X149850016Y-90713853D01*
X149832843Y-90770467D01*
X149749180Y-90926990D01*
X149636586Y-91064186D01*
X149499390Y-91176780D01*
X149342867Y-91260443D01*
X149286253Y-91277616D01*
X149173027Y-91311963D01*
X149139935Y-91315222D01*
X149040664Y-91325000D01*
X148952136Y-91325000D01*
X148852865Y-91315222D01*
X148819773Y-91311963D01*
X148706547Y-91277616D01*
X148649933Y-91260443D01*
X148493410Y-91176780D01*
X148356214Y-91064186D01*
X148243620Y-90926990D01*
X148159957Y-90770467D01*
X148142784Y-90713853D01*
X148108437Y-90600627D01*
X148105574Y-90571559D01*
X148091040Y-90424000D01*
X148108437Y-90247375D01*
X148108437Y-90247373D01*
X148159957Y-90077534D01*
X148159957Y-90077533D01*
X148243620Y-89921010D01*
X148356214Y-89783814D01*
X148493410Y-89671220D01*
X148649933Y-89587557D01*
X148706547Y-89570384D01*
X148819773Y-89536037D01*
X148852865Y-89532778D01*
X148952136Y-89523000D01*
X149040664Y-89523000D01*
X149139935Y-89532778D01*
X149139935Y-89532778D01*
G37*
G36*
X173117535Y-89532778D02*
G01*
X173150627Y-89536037D01*
X173263853Y-89570384D01*
X173320467Y-89587557D01*
X173476990Y-89671220D01*
X173614186Y-89783814D01*
X173726780Y-89921010D01*
X173810443Y-90077533D01*
X173810443Y-90077534D01*
X173861963Y-90247373D01*
X173861963Y-90247375D01*
X173879360Y-90424000D01*
X173864826Y-90571559D01*
X173861963Y-90600627D01*
X173827616Y-90713853D01*
X173810443Y-90770467D01*
X173726780Y-90926990D01*
X173614186Y-91064186D01*
X173476990Y-91176780D01*
X173320467Y-91260443D01*
X173263853Y-91277616D01*
X173150627Y-91311963D01*
X173117535Y-91315222D01*
X173018264Y-91325000D01*
X172929736Y-91325000D01*
X172830465Y-91315222D01*
X172797373Y-91311963D01*
X172684147Y-91277616D01*
X172627533Y-91260443D01*
X172471010Y-91176780D01*
X172333814Y-91064186D01*
X172221220Y-90926990D01*
X172137557Y-90770467D01*
X172120384Y-90713853D01*
X172086037Y-90600627D01*
X172083174Y-90571559D01*
X172068640Y-90424000D01*
X172086037Y-90247375D01*
X172086037Y-90247373D01*
X172137557Y-90077534D01*
X172137557Y-90077533D01*
X172221220Y-89921010D01*
X172333814Y-89783814D01*
X172471010Y-89671220D01*
X172627533Y-89587557D01*
X172684147Y-89570384D01*
X172797373Y-89536037D01*
X172830465Y-89532778D01*
X172929736Y-89523000D01*
X173018264Y-89523000D01*
X173117535Y-89532778D01*
X173117535Y-89532778D01*
G37*
G36*
X158308432Y-89128188D02*
G01*
X158349469Y-89140636D01*
X158387288Y-89160851D01*
X158420441Y-89188059D01*
X158447649Y-89221212D01*
X158467864Y-89259031D01*
X158480312Y-89300068D01*
X158485000Y-89347667D01*
X158485000Y-89976333D01*
X158480312Y-90023932D01*
X158467864Y-90064969D01*
X158447649Y-90102788D01*
X158420441Y-90135941D01*
X158387288Y-90163149D01*
X158349469Y-90183364D01*
X158308432Y-90195812D01*
X158260833Y-90200500D01*
X157207167Y-90200500D01*
X157159568Y-90195812D01*
X157118531Y-90183364D01*
X157080712Y-90163149D01*
X157047559Y-90135941D01*
X157020351Y-90102788D01*
X157000136Y-90064969D01*
X156987688Y-90023932D01*
X156983000Y-89976333D01*
X156983000Y-89347667D01*
X156987688Y-89300068D01*
X157000136Y-89259031D01*
X157020351Y-89221212D01*
X157047559Y-89188059D01*
X157080712Y-89160851D01*
X157118531Y-89140636D01*
X157159568Y-89128188D01*
X157207167Y-89123500D01*
X158260833Y-89123500D01*
X158308432Y-89128188D01*
X158308432Y-89128188D01*
G37*
G36*
X106163997Y-87844753D02*
G01*
X106164000Y-87844753D01*
X106173998Y-87845738D01*
X106183611Y-87848654D01*
X106183613Y-87848655D01*
X106192469Y-87853388D01*
X106192471Y-87853390D01*
X106200237Y-87859763D01*
X106206640Y-87867573D01*
X106206671Y-87867619D01*
X106209785Y-87871418D01*
X106235556Y-87910074D01*
X106247976Y-87925241D01*
X106263116Y-87937693D01*
X106280395Y-87946952D01*
X106299148Y-87952662D01*
X106318655Y-87954604D01*
X106338166Y-87952703D01*
X106356931Y-87947032D01*
X106374229Y-87937809D01*
X106389396Y-87925389D01*
X106401848Y-87910249D01*
X106414422Y-87883737D01*
X106416674Y-87876339D01*
X106421371Y-87867573D01*
X106421418Y-87867485D01*
X106427802Y-87859723D01*
X106435570Y-87853362D01*
X106435572Y-87853361D01*
X106435573Y-87853360D01*
X106444438Y-87848633D01*
X106454055Y-87845727D01*
X106454056Y-87845727D01*
X106454082Y-87845719D01*
X106468883Y-87844269D01*
X107609084Y-87844269D01*
X107613997Y-87844753D01*
X107614000Y-87844753D01*
X107623998Y-87845738D01*
X107633611Y-87848654D01*
X107633613Y-87848655D01*
X107642469Y-87853388D01*
X107650237Y-87859763D01*
X107656612Y-87867531D01*
X107656634Y-87867573D01*
X107661346Y-87876389D01*
X107664262Y-87886002D01*
X107665242Y-87895946D01*
X107665731Y-87900916D01*
X107665731Y-89391084D01*
X107664262Y-89405997D01*
X107661345Y-89415613D01*
X107656612Y-89424469D01*
X107650237Y-89432237D01*
X107642469Y-89438612D01*
X107633613Y-89443345D01*
X107633611Y-89443346D01*
X107623998Y-89446262D01*
X107614000Y-89447247D01*
X107613997Y-89447247D01*
X107609084Y-89447731D01*
X106468916Y-89447731D01*
X106464003Y-89447247D01*
X106464000Y-89447247D01*
X106454002Y-89446262D01*
X106444389Y-89443346D01*
X106444387Y-89443345D01*
X106435531Y-89438612D01*
X106427763Y-89432237D01*
X106421388Y-89424469D01*
X106416655Y-89415613D01*
X106414455Y-89408362D01*
X106406952Y-89390251D01*
X106396061Y-89373952D01*
X106382199Y-89360091D01*
X106365900Y-89349200D01*
X106347789Y-89341698D01*
X106328562Y-89337874D01*
X106308959Y-89337875D01*
X106289732Y-89341699D01*
X106271621Y-89349202D01*
X106255322Y-89360093D01*
X106241461Y-89373955D01*
X106235558Y-89381923D01*
X106209768Y-89420608D01*
X106200277Y-89432198D01*
X106192515Y-89438582D01*
X106187719Y-89441151D01*
X106183661Y-89443326D01*
X106174050Y-89446252D01*
X106164000Y-89447247D01*
X106163945Y-89447247D01*
X106159057Y-89447731D01*
X105168916Y-89447731D01*
X105164003Y-89447247D01*
X105164000Y-89447247D01*
X105154002Y-89446262D01*
X105144389Y-89443346D01*
X105144387Y-89443345D01*
X105135531Y-89438612D01*
X105127763Y-89432237D01*
X105121388Y-89424469D01*
X105116655Y-89415613D01*
X105113738Y-89405997D01*
X105112269Y-89391084D01*
X105112269Y-87900916D01*
X105112759Y-87895946D01*
X105113738Y-87886002D01*
X105116654Y-87876389D01*
X105121366Y-87867573D01*
X105121388Y-87867531D01*
X105127763Y-87859763D01*
X105135531Y-87853388D01*
X105144387Y-87848655D01*
X105144389Y-87848654D01*
X105154002Y-87845738D01*
X105164000Y-87844753D01*
X105164003Y-87844753D01*
X105168916Y-87844269D01*
X106159084Y-87844269D01*
X106163997Y-87844753D01*
X106163997Y-87844753D01*
G37*
G36*
X165207932Y-87391688D02*
G01*
X165248969Y-87404136D01*
X165286788Y-87424351D01*
X165319941Y-87451559D01*
X165347149Y-87484712D01*
X165367364Y-87522531D01*
X165379812Y-87563568D01*
X165384500Y-87611167D01*
X165384500Y-88664833D01*
X165379812Y-88712432D01*
X165367364Y-88753469D01*
X165347149Y-88791288D01*
X165319941Y-88824441D01*
X165286788Y-88851649D01*
X165248969Y-88871864D01*
X165207932Y-88884312D01*
X165160333Y-88889000D01*
X164531667Y-88889000D01*
X164484068Y-88884312D01*
X164443031Y-88871864D01*
X164405212Y-88851649D01*
X164372059Y-88824441D01*
X164344851Y-88791288D01*
X164324636Y-88753469D01*
X164312188Y-88712432D01*
X164307500Y-88664833D01*
X164307500Y-87611167D01*
X164312188Y-87563568D01*
X164324636Y-87522531D01*
X164344851Y-87484712D01*
X164372059Y-87451559D01*
X164405212Y-87424351D01*
X164443031Y-87404136D01*
X164484068Y-87391688D01*
X164531667Y-87387000D01*
X165160333Y-87387000D01*
X165207932Y-87391688D01*
X165207932Y-87391688D01*
G37*
G36*
X163332932Y-87391688D02*
G01*
X163373969Y-87404136D01*
X163411788Y-87424351D01*
X163444941Y-87451559D01*
X163472149Y-87484712D01*
X163492364Y-87522531D01*
X163504812Y-87563568D01*
X163509500Y-87611167D01*
X163509500Y-88664833D01*
X163504812Y-88712432D01*
X163492364Y-88753469D01*
X163472149Y-88791288D01*
X163444941Y-88824441D01*
X163411788Y-88851649D01*
X163373969Y-88871864D01*
X163332932Y-88884312D01*
X163285333Y-88889000D01*
X162656667Y-88889000D01*
X162609068Y-88884312D01*
X162568031Y-88871864D01*
X162530212Y-88851649D01*
X162497059Y-88824441D01*
X162469851Y-88791288D01*
X162449636Y-88753469D01*
X162437188Y-88712432D01*
X162432500Y-88664833D01*
X162432500Y-87611167D01*
X162437188Y-87563568D01*
X162449636Y-87522531D01*
X162469851Y-87484712D01*
X162497059Y-87451559D01*
X162530212Y-87424351D01*
X162568031Y-87404136D01*
X162609068Y-87391688D01*
X162656667Y-87387000D01*
X163285333Y-87387000D01*
X163332932Y-87391688D01*
X163332932Y-87391688D01*
G37*
G36*
X173117535Y-86992778D02*
G01*
X173150627Y-86996037D01*
X173261141Y-87029561D01*
X173320467Y-87047557D01*
X173476990Y-87131220D01*
X173614186Y-87243814D01*
X173726780Y-87381010D01*
X173810443Y-87537533D01*
X173810443Y-87537534D01*
X173861963Y-87707373D01*
X173861963Y-87707375D01*
X173879360Y-87884000D01*
X173864826Y-88031559D01*
X173861963Y-88060627D01*
X173827616Y-88173853D01*
X173810443Y-88230467D01*
X173726780Y-88386990D01*
X173614186Y-88524186D01*
X173476990Y-88636780D01*
X173320467Y-88720443D01*
X173312736Y-88722788D01*
X173150627Y-88771963D01*
X173117535Y-88775222D01*
X173018264Y-88785000D01*
X172929736Y-88785000D01*
X172830465Y-88775222D01*
X172797373Y-88771963D01*
X172635264Y-88722788D01*
X172627533Y-88720443D01*
X172471010Y-88636780D01*
X172333814Y-88524186D01*
X172221220Y-88386990D01*
X172137557Y-88230467D01*
X172120384Y-88173853D01*
X172086037Y-88060627D01*
X172083174Y-88031559D01*
X172068640Y-87884000D01*
X172086037Y-87707375D01*
X172086037Y-87707373D01*
X172137557Y-87537534D01*
X172137557Y-87537533D01*
X172221220Y-87381010D01*
X172333814Y-87243814D01*
X172471010Y-87131220D01*
X172627533Y-87047557D01*
X172686859Y-87029561D01*
X172797373Y-86996037D01*
X172830465Y-86992778D01*
X172929736Y-86983000D01*
X173018264Y-86983000D01*
X173117535Y-86992778D01*
X173117535Y-86992778D01*
G37*
G36*
X149139935Y-86992778D02*
G01*
X149173027Y-86996037D01*
X149283541Y-87029561D01*
X149342867Y-87047557D01*
X149499390Y-87131220D01*
X149636586Y-87243814D01*
X149749180Y-87381010D01*
X149832843Y-87537533D01*
X149832843Y-87537534D01*
X149884363Y-87707373D01*
X149884363Y-87707375D01*
X149901760Y-87884000D01*
X149887226Y-88031559D01*
X149884363Y-88060627D01*
X149850016Y-88173853D01*
X149832843Y-88230467D01*
X149749180Y-88386990D01*
X149636586Y-88524186D01*
X149499390Y-88636780D01*
X149342867Y-88720443D01*
X149335136Y-88722788D01*
X149173027Y-88771963D01*
X149139935Y-88775222D01*
X149040664Y-88785000D01*
X148952136Y-88785000D01*
X148852865Y-88775222D01*
X148819773Y-88771963D01*
X148657664Y-88722788D01*
X148649933Y-88720443D01*
X148493410Y-88636780D01*
X148356214Y-88524186D01*
X148243620Y-88386990D01*
X148159957Y-88230467D01*
X148142784Y-88173853D01*
X148108437Y-88060627D01*
X148105574Y-88031559D01*
X148091040Y-87884000D01*
X148108437Y-87707375D01*
X148108437Y-87707373D01*
X148159957Y-87537534D01*
X148159957Y-87537533D01*
X148243620Y-87381010D01*
X148356214Y-87243814D01*
X148493410Y-87131220D01*
X148649933Y-87047557D01*
X148709259Y-87029561D01*
X148819773Y-86996037D01*
X148852865Y-86992778D01*
X148952136Y-86983000D01*
X149040664Y-86983000D01*
X149139935Y-86992778D01*
X149139935Y-86992778D01*
G37*
G36*
X116065997Y-85808753D02*
G01*
X116066000Y-85808753D01*
X116075998Y-85809738D01*
X116085611Y-85812654D01*
X116085613Y-85812655D01*
X116094469Y-85817388D01*
X116102237Y-85823763D01*
X116108612Y-85831531D01*
X116113345Y-85840387D01*
X116113346Y-85840389D01*
X116116262Y-85850002D01*
X116116262Y-85850003D01*
X116117731Y-85864916D01*
X116117731Y-87005084D01*
X116117247Y-87009997D01*
X116117247Y-87010000D01*
X116116262Y-87019998D01*
X116113361Y-87029562D01*
X116113345Y-87029613D01*
X116108612Y-87038469D01*
X116102237Y-87046237D01*
X116094469Y-87052612D01*
X116085613Y-87057345D01*
X116085611Y-87057346D01*
X116079760Y-87059121D01*
X116078362Y-87059545D01*
X116060251Y-87067048D01*
X116043952Y-87077939D01*
X116030091Y-87091801D01*
X116019200Y-87108100D01*
X116011698Y-87126211D01*
X116007874Y-87145438D01*
X116007875Y-87165041D01*
X116011699Y-87184268D01*
X116019202Y-87202379D01*
X116030093Y-87218678D01*
X116043955Y-87232539D01*
X116051923Y-87238442D01*
X116090608Y-87264232D01*
X116102198Y-87273723D01*
X116108582Y-87281485D01*
X116111151Y-87286281D01*
X116113326Y-87290339D01*
X116116252Y-87299950D01*
X116117247Y-87310000D01*
X116117247Y-87310055D01*
X116117731Y-87314943D01*
X116117731Y-88305084D01*
X116116262Y-88319997D01*
X116113345Y-88329613D01*
X116108612Y-88338469D01*
X116102237Y-88346237D01*
X116094469Y-88352612D01*
X116085613Y-88357345D01*
X116085611Y-88357346D01*
X116075998Y-88360262D01*
X116066000Y-88361247D01*
X116065997Y-88361247D01*
X116061084Y-88361731D01*
X114570916Y-88361731D01*
X114566003Y-88361247D01*
X114566000Y-88361247D01*
X114556002Y-88360262D01*
X114546389Y-88357346D01*
X114546387Y-88357345D01*
X114537531Y-88352612D01*
X114529763Y-88346237D01*
X114523388Y-88338469D01*
X114518655Y-88329613D01*
X114515738Y-88319997D01*
X114514269Y-88305084D01*
X114514269Y-87314916D01*
X114515738Y-87300003D01*
X114515754Y-87299950D01*
X114518654Y-87290389D01*
X114518682Y-87290336D01*
X114523388Y-87281531D01*
X114525788Y-87278607D01*
X114529763Y-87273763D01*
X114537573Y-87267360D01*
X114537619Y-87267329D01*
X114541418Y-87264215D01*
X114580074Y-87238444D01*
X114595241Y-87226024D01*
X114607693Y-87210884D01*
X114616952Y-87193605D01*
X114622662Y-87174852D01*
X114624604Y-87155345D01*
X114622703Y-87135834D01*
X114617032Y-87117069D01*
X114607809Y-87099771D01*
X114595389Y-87084604D01*
X114580249Y-87072152D01*
X114553739Y-87059579D01*
X114546339Y-87057326D01*
X114542281Y-87055151D01*
X114537485Y-87052582D01*
X114529723Y-87046198D01*
X114523362Y-87038430D01*
X114523360Y-87038427D01*
X114518633Y-87029562D01*
X114515727Y-87019945D01*
X114515727Y-87019944D01*
X114515719Y-87019918D01*
X114514269Y-87005117D01*
X114514269Y-85864916D01*
X114515738Y-85850003D01*
X114515738Y-85850002D01*
X114518654Y-85840389D01*
X114518655Y-85840387D01*
X114523388Y-85831531D01*
X114529763Y-85823763D01*
X114537531Y-85817388D01*
X114546387Y-85812655D01*
X114546389Y-85812654D01*
X114556002Y-85809738D01*
X114566000Y-85808753D01*
X114566003Y-85808753D01*
X114570916Y-85808269D01*
X116061084Y-85808269D01*
X116065997Y-85808753D01*
X116065997Y-85808753D01*
G37*
G36*
X168201000Y-86853000D02*
G01*
X166599000Y-86853000D01*
X166599000Y-84751000D01*
X168201000Y-84751000D01*
X168201000Y-86853000D01*
X168201000Y-86853000D01*
G37*
G36*
X163601000Y-86853000D02*
G01*
X161999000Y-86853000D01*
X161999000Y-84751000D01*
X163601000Y-84751000D01*
X163601000Y-86853000D01*
X163601000Y-86853000D01*
G37*
G36*
X165901000Y-86853000D02*
G01*
X164299000Y-86853000D01*
X164299000Y-84751000D01*
X165901000Y-84751000D01*
X165901000Y-86853000D01*
X165901000Y-86853000D01*
G37*
G36*
X149139935Y-84452778D02*
G01*
X149173027Y-84456037D01*
X149286253Y-84490384D01*
X149342867Y-84507557D01*
X149499390Y-84591220D01*
X149636586Y-84703814D01*
X149749180Y-84841010D01*
X149832843Y-84997533D01*
X149832843Y-84997534D01*
X149884363Y-85167373D01*
X149884363Y-85167375D01*
X149901760Y-85344000D01*
X149887226Y-85491559D01*
X149884363Y-85520627D01*
X149850016Y-85633853D01*
X149832843Y-85690467D01*
X149749180Y-85846990D01*
X149636586Y-85984186D01*
X149499390Y-86096780D01*
X149342867Y-86180443D01*
X149286253Y-86197616D01*
X149173027Y-86231963D01*
X149139935Y-86235222D01*
X149040664Y-86245000D01*
X148952136Y-86245000D01*
X148852865Y-86235222D01*
X148819773Y-86231963D01*
X148706547Y-86197616D01*
X148649933Y-86180443D01*
X148493410Y-86096780D01*
X148356214Y-85984186D01*
X148243620Y-85846990D01*
X148159957Y-85690467D01*
X148142784Y-85633853D01*
X148108437Y-85520627D01*
X148105574Y-85491559D01*
X148091040Y-85344000D01*
X148108437Y-85167375D01*
X148108437Y-85167373D01*
X148159957Y-84997534D01*
X148159957Y-84997533D01*
X148243620Y-84841010D01*
X148356214Y-84703814D01*
X148493410Y-84591220D01*
X148649933Y-84507557D01*
X148706547Y-84490384D01*
X148819773Y-84456037D01*
X148852865Y-84452778D01*
X148952136Y-84443000D01*
X149040664Y-84443000D01*
X149139935Y-84452778D01*
X149139935Y-84452778D01*
G37*
G36*
X173117535Y-84452778D02*
G01*
X173150627Y-84456037D01*
X173263853Y-84490384D01*
X173320467Y-84507557D01*
X173476990Y-84591220D01*
X173614186Y-84703814D01*
X173726780Y-84841010D01*
X173810443Y-84997533D01*
X173810443Y-84997534D01*
X173861963Y-85167373D01*
X173861963Y-85167375D01*
X173879360Y-85344000D01*
X173864826Y-85491559D01*
X173861963Y-85520627D01*
X173827616Y-85633853D01*
X173810443Y-85690467D01*
X173726780Y-85846990D01*
X173614186Y-85984186D01*
X173476990Y-86096780D01*
X173320467Y-86180443D01*
X173263853Y-86197616D01*
X173150627Y-86231963D01*
X173117535Y-86235222D01*
X173018264Y-86245000D01*
X172929736Y-86245000D01*
X172830465Y-86235222D01*
X172797373Y-86231963D01*
X172684147Y-86197616D01*
X172627533Y-86180443D01*
X172471010Y-86096780D01*
X172333814Y-85984186D01*
X172221220Y-85846990D01*
X172137557Y-85690467D01*
X172120384Y-85633853D01*
X172086037Y-85520627D01*
X172083174Y-85491559D01*
X172068640Y-85344000D01*
X172086037Y-85167375D01*
X172086037Y-85167373D01*
X172137557Y-84997534D01*
X172137557Y-84997533D01*
X172221220Y-84841010D01*
X172333814Y-84703814D01*
X172471010Y-84591220D01*
X172627533Y-84507557D01*
X172684147Y-84490384D01*
X172797373Y-84456037D01*
X172830465Y-84452778D01*
X172929736Y-84443000D01*
X173018264Y-84443000D01*
X173117535Y-84452778D01*
X173117535Y-84452778D01*
G37*
G36*
X149139935Y-81912778D02*
G01*
X149173027Y-81916037D01*
X149286253Y-81950384D01*
X149342867Y-81967557D01*
X149499390Y-82051220D01*
X149636586Y-82163814D01*
X149749180Y-82301010D01*
X149832843Y-82457533D01*
X149832843Y-82457534D01*
X149884363Y-82627373D01*
X149884363Y-82627375D01*
X149901760Y-82804000D01*
X149887226Y-82951559D01*
X149884363Y-82980627D01*
X149850016Y-83093853D01*
X149832843Y-83150467D01*
X149749180Y-83306990D01*
X149636586Y-83444186D01*
X149499390Y-83556780D01*
X149342867Y-83640443D01*
X149286253Y-83657616D01*
X149173027Y-83691963D01*
X149139935Y-83695222D01*
X149040664Y-83705000D01*
X148952136Y-83705000D01*
X148852865Y-83695222D01*
X148819773Y-83691963D01*
X148706547Y-83657616D01*
X148649933Y-83640443D01*
X148493410Y-83556780D01*
X148356214Y-83444186D01*
X148243620Y-83306990D01*
X148159957Y-83150467D01*
X148142784Y-83093853D01*
X148108437Y-82980627D01*
X148105574Y-82951559D01*
X148091040Y-82804000D01*
X148108437Y-82627375D01*
X148108437Y-82627373D01*
X148159957Y-82457534D01*
X148159957Y-82457533D01*
X148243620Y-82301010D01*
X148356214Y-82163814D01*
X148493410Y-82051220D01*
X148649933Y-81967557D01*
X148706547Y-81950384D01*
X148819773Y-81916037D01*
X148852865Y-81912778D01*
X148952136Y-81903000D01*
X149040664Y-81903000D01*
X149139935Y-81912778D01*
X149139935Y-81912778D01*
G37*
G36*
X173117535Y-81912778D02*
G01*
X173150627Y-81916037D01*
X173263853Y-81950384D01*
X173320467Y-81967557D01*
X173476990Y-82051220D01*
X173614186Y-82163814D01*
X173726780Y-82301010D01*
X173810443Y-82457533D01*
X173810443Y-82457534D01*
X173861963Y-82627373D01*
X173861963Y-82627375D01*
X173879360Y-82804000D01*
X173864826Y-82951559D01*
X173861963Y-82980627D01*
X173827616Y-83093853D01*
X173810443Y-83150467D01*
X173726780Y-83306990D01*
X173614186Y-83444186D01*
X173476990Y-83556780D01*
X173320467Y-83640443D01*
X173263853Y-83657616D01*
X173150627Y-83691963D01*
X173117535Y-83695222D01*
X173018264Y-83705000D01*
X172929736Y-83705000D01*
X172830465Y-83695222D01*
X172797373Y-83691963D01*
X172684147Y-83657616D01*
X172627533Y-83640443D01*
X172471010Y-83556780D01*
X172333814Y-83444186D01*
X172221220Y-83306990D01*
X172137557Y-83150467D01*
X172120384Y-83093853D01*
X172086037Y-82980627D01*
X172083174Y-82951559D01*
X172068640Y-82804000D01*
X172086037Y-82627375D01*
X172086037Y-82627373D01*
X172137557Y-82457534D01*
X172137557Y-82457533D01*
X172221220Y-82301010D01*
X172333814Y-82163814D01*
X172471010Y-82051220D01*
X172627533Y-81967557D01*
X172684147Y-81950384D01*
X172797373Y-81916037D01*
X172830465Y-81912778D01*
X172929736Y-81903000D01*
X173018264Y-81903000D01*
X173117535Y-81912778D01*
X173117535Y-81912778D01*
G37*
G36*
X173875000Y-81165000D02*
G01*
X172073000Y-81165000D01*
X172073000Y-79363000D01*
X173875000Y-79363000D01*
X173875000Y-81165000D01*
X173875000Y-81165000D01*
G37*
G36*
X149139935Y-79372778D02*
G01*
X149173027Y-79376037D01*
X149286253Y-79410384D01*
X149342867Y-79427557D01*
X149499390Y-79511220D01*
X149636586Y-79623814D01*
X149749180Y-79761010D01*
X149832843Y-79917533D01*
X149832843Y-79917534D01*
X149884363Y-80087373D01*
X149884363Y-80087375D01*
X149901760Y-80264000D01*
X149887226Y-80411559D01*
X149884363Y-80440627D01*
X149850275Y-80553000D01*
X149832843Y-80610467D01*
X149749180Y-80766990D01*
X149636586Y-80904186D01*
X149499390Y-81016780D01*
X149342867Y-81100443D01*
X149286253Y-81117616D01*
X149173027Y-81151963D01*
X149139935Y-81155222D01*
X149040664Y-81165000D01*
X148952136Y-81165000D01*
X148852865Y-81155222D01*
X148819773Y-81151963D01*
X148706547Y-81117616D01*
X148649933Y-81100443D01*
X148493410Y-81016780D01*
X148356214Y-80904186D01*
X148243620Y-80766990D01*
X148159957Y-80610467D01*
X148142525Y-80553000D01*
X148108437Y-80440627D01*
X148105574Y-80411559D01*
X148091040Y-80264000D01*
X148108437Y-80087375D01*
X148108437Y-80087373D01*
X148159957Y-79917534D01*
X148159957Y-79917533D01*
X148243620Y-79761010D01*
X148356214Y-79623814D01*
X148493410Y-79511220D01*
X148649933Y-79427557D01*
X148706547Y-79410384D01*
X148819773Y-79376037D01*
X148852865Y-79372778D01*
X148952136Y-79363000D01*
X149040664Y-79363000D01*
X149139935Y-79372778D01*
X149139935Y-79372778D01*
G37*
G36*
X167051000Y-80553000D02*
G01*
X163149000Y-80553000D01*
X163149000Y-78451000D01*
X167051000Y-78451000D01*
X167051000Y-80553000D01*
X167051000Y-80553000D01*
G37*
G36*
X113414476Y-78711261D02*
G01*
X113517645Y-78731782D01*
X113603036Y-78767153D01*
X113663416Y-78792163D01*
X113794608Y-78879822D01*
X113906178Y-78991392D01*
X113993837Y-79122584D01*
X114018847Y-79182964D01*
X114054218Y-79268355D01*
X114085000Y-79423109D01*
X114085000Y-79580891D01*
X114054218Y-79735645D01*
X114043711Y-79761010D01*
X113993837Y-79881416D01*
X113906178Y-80012608D01*
X113794608Y-80124178D01*
X113663416Y-80211837D01*
X113603036Y-80236847D01*
X113517645Y-80272218D01*
X113414476Y-80292739D01*
X113362892Y-80303000D01*
X113205108Y-80303000D01*
X113153524Y-80292739D01*
X113050355Y-80272218D01*
X112964964Y-80236847D01*
X112904584Y-80211837D01*
X112773392Y-80124178D01*
X112661822Y-80012608D01*
X112574163Y-79881416D01*
X112524289Y-79761010D01*
X112513782Y-79735645D01*
X112483000Y-79580891D01*
X112483000Y-79423109D01*
X112513782Y-79268355D01*
X112549153Y-79182964D01*
X112574163Y-79122584D01*
X112661822Y-78991392D01*
X112773392Y-78879822D01*
X112904584Y-78792163D01*
X112964964Y-78767153D01*
X113050355Y-78731782D01*
X113153524Y-78711261D01*
X113205108Y-78701000D01*
X113362892Y-78701000D01*
X113414476Y-78711261D01*
X113414476Y-78711261D01*
G37*
M02*
