G04 #@! TF.GenerationSoftware,KiCad,Pcbnew,5.1.1-8be2ce7~80~ubuntu18.10.1*
G04 #@! TF.CreationDate,2019-05-27T00:45:37+08:00*
G04 #@! TF.ProjectId,tas2562_dev_pcb,74617332-3536-4325-9f64-65765f706362,rev?*
G04 #@! TF.SameCoordinates,Original*
G04 #@! TF.FileFunction,Other,User*
%FSLAX46Y46*%
G04 Gerber Fmt 4.6, Leading zero omitted, Abs format (unit mm)*
G04 Created by KiCad (PCBNEW 5.1.1-8be2ce7~80~ubuntu18.10.1) date 2019-05-27 00:45:37*
%MOMM*%
%LPD*%
G04 APERTURE LIST*
%ADD10C,0.152400*%
%ADD11C,0.050000*%
G04 APERTURE END LIST*
D10*
X163054000Y-104254000D02*
X159746000Y-104254000D01*
X163054000Y-100946000D02*
X163054000Y-104254000D01*
X159746000Y-100946000D02*
X163054000Y-100946000D01*
X159746000Y-104254000D02*
X159746000Y-100946000D01*
D11*
X147196400Y-104924000D02*
X150796400Y-104924000D01*
X147196400Y-78474000D02*
X147196400Y-104924000D01*
X150796400Y-78474000D02*
X147196400Y-78474000D01*
X150796400Y-104924000D02*
X150796400Y-78474000D01*
X174774000Y-78464000D02*
X171174000Y-78464000D01*
X174774000Y-104914000D02*
X174774000Y-78464000D01*
X171174000Y-104914000D02*
X174774000Y-104914000D01*
X171174000Y-78464000D02*
X171174000Y-104914000D01*
X161478000Y-92729500D02*
X161478000Y-96089500D01*
X159578000Y-92729500D02*
X161478000Y-92729500D01*
X159578000Y-96089500D02*
X159578000Y-92729500D01*
X161478000Y-96089500D02*
X159578000Y-96089500D01*
X158684000Y-92279500D02*
X156784000Y-92279500D01*
X156784000Y-92279500D02*
X156784000Y-88919500D01*
X156784000Y-88919500D02*
X158684000Y-88919500D01*
X158684000Y-88919500D02*
X158684000Y-92279500D01*
X165588500Y-87188000D02*
X165588500Y-89088000D01*
X165588500Y-89088000D02*
X162228500Y-89088000D01*
X162228500Y-89088000D02*
X162228500Y-87188000D01*
X162228500Y-87188000D02*
X165588500Y-87188000D01*
X166604500Y-101788000D02*
X163244500Y-101788000D01*
X166604500Y-99888000D02*
X166604500Y-101788000D01*
X163244500Y-99888000D02*
X166604500Y-99888000D01*
X163244500Y-101788000D02*
X163244500Y-99888000D01*
X159688500Y-104460000D02*
X163048500Y-104460000D01*
X159688500Y-106360000D02*
X159688500Y-104460000D01*
X163048500Y-106360000D02*
X159688500Y-106360000D01*
X163048500Y-104460000D02*
X163048500Y-106360000D01*
X150090000Y-106400000D02*
X160590000Y-106400000D01*
X150090000Y-106400000D02*
X150090000Y-114400000D01*
X160590000Y-114400000D02*
X160590000Y-106400000D01*
X160590000Y-114400000D02*
X150090000Y-114400000D01*
X170950000Y-106217500D02*
X169050000Y-106217500D01*
X169050000Y-106217500D02*
X169050000Y-102857500D01*
X169050000Y-102857500D02*
X170950000Y-102857500D01*
X170950000Y-102857500D02*
X170950000Y-106217500D01*
X164450000Y-106142500D02*
X164450000Y-102782500D01*
X166350000Y-106142500D02*
X164450000Y-106142500D01*
X166350000Y-102782500D02*
X166350000Y-106142500D01*
X164450000Y-102782500D02*
X166350000Y-102782500D01*
X173790000Y-114400000D02*
X163290000Y-114400000D01*
X173790000Y-114400000D02*
X173790000Y-106400000D01*
X163290000Y-106400000D02*
X163290000Y-114400000D01*
X163290000Y-106400000D02*
X173790000Y-106400000D01*
X114534000Y-79502000D02*
G75*
G03X114534000Y-79502000I-1250000J0D01*
G01*
X109200000Y-94996000D02*
G75*
G03X109200000Y-94996000I-1250000J0D01*
G01*
X161500000Y-78252000D02*
X161500000Y-87052000D01*
X168700000Y-78252000D02*
X161500000Y-78252000D01*
X168700000Y-87052000D02*
X168700000Y-78252000D01*
X161500000Y-87052000D02*
X168700000Y-87052000D01*
X108039000Y-89896000D02*
X104739000Y-89896000D01*
X108039000Y-89896000D02*
X108039000Y-87396000D01*
X104739000Y-87396000D02*
X104739000Y-89896000D01*
X104739000Y-87396000D02*
X108039000Y-87396000D01*
X114066000Y-88735000D02*
X114066000Y-85435000D01*
X114066000Y-88735000D02*
X116566000Y-88735000D01*
X116566000Y-85435000D02*
X114066000Y-85435000D01*
X116566000Y-85435000D02*
X116566000Y-88735000D01*
M02*
