G04 #@! TF.GenerationSoftware,KiCad,Pcbnew,5.1.1-8be2ce7~80~ubuntu18.10.1*
G04 #@! TF.CreationDate,2019-05-27T00:45:37+08:00*
G04 #@! TF.ProjectId,tas2562_dev_pcb,74617332-3536-4325-9f64-65765f706362,rev?*
G04 #@! TF.SameCoordinates,Original*
G04 #@! TF.FileFunction,Legend,Top*
G04 #@! TF.FilePolarity,Positive*
%FSLAX46Y46*%
G04 Gerber Fmt 4.6, Leading zero omitted, Abs format (unit mm)*
G04 Created by KiCad (PCBNEW 5.1.1-8be2ce7~80~ubuntu18.10.1) date 2019-05-27 00:45:37*
%MOMM*%
%LPD*%
G04 APERTURE LIST*
%ADD10C,0.200000*%
%ADD11C,0.150000*%
%ADD12C,0.120000*%
%ADD13C,0.010000*%
%ADD14C,0.152400*%
G04 APERTURE END LIST*
D10*
X152958761Y-97986857D02*
X152349238Y-97986857D01*
X151815904Y-79825904D02*
X152311142Y-79825904D01*
X152044476Y-80130666D01*
X152158761Y-80130666D01*
X152234952Y-80168761D01*
X152273047Y-80206857D01*
X152311142Y-80283047D01*
X152311142Y-80473523D01*
X152273047Y-80549714D01*
X152234952Y-80587809D01*
X152158761Y-80625904D01*
X151930190Y-80625904D01*
X151854000Y-80587809D01*
X151815904Y-80549714D01*
X152654000Y-80549714D02*
X152692095Y-80587809D01*
X152654000Y-80625904D01*
X152615904Y-80587809D01*
X152654000Y-80549714D01*
X152654000Y-80625904D01*
X152958761Y-79825904D02*
X153454000Y-79825904D01*
X153187333Y-80130666D01*
X153301619Y-80130666D01*
X153377809Y-80168761D01*
X153415904Y-80206857D01*
X153454000Y-80283047D01*
X153454000Y-80473523D01*
X153415904Y-80549714D01*
X153377809Y-80587809D01*
X153301619Y-80625904D01*
X153073047Y-80625904D01*
X152996857Y-80587809D01*
X152958761Y-80549714D01*
X152501619Y-82365904D02*
X152120666Y-82365904D01*
X152082571Y-82746857D01*
X152120666Y-82708761D01*
X152196857Y-82670666D01*
X152387333Y-82670666D01*
X152463523Y-82708761D01*
X152501619Y-82746857D01*
X152539714Y-82823047D01*
X152539714Y-83013523D01*
X152501619Y-83089714D01*
X152463523Y-83127809D01*
X152387333Y-83165904D01*
X152196857Y-83165904D01*
X152120666Y-83127809D01*
X152082571Y-83089714D01*
X152768285Y-82365904D02*
X153034952Y-83165904D01*
X153301619Y-82365904D01*
X152025428Y-85667809D02*
X152139714Y-85705904D01*
X152330190Y-85705904D01*
X152406380Y-85667809D01*
X152444476Y-85629714D01*
X152482571Y-85553523D01*
X152482571Y-85477333D01*
X152444476Y-85401142D01*
X152406380Y-85363047D01*
X152330190Y-85324952D01*
X152177809Y-85286857D01*
X152101619Y-85248761D01*
X152063523Y-85210666D01*
X152025428Y-85134476D01*
X152025428Y-85058285D01*
X152063523Y-84982095D01*
X152101619Y-84944000D01*
X152177809Y-84905904D01*
X152368285Y-84905904D01*
X152482571Y-84944000D01*
X152825428Y-85705904D02*
X152825428Y-84905904D01*
X153015904Y-84905904D01*
X153130190Y-84944000D01*
X153206380Y-85020190D01*
X153244476Y-85096380D01*
X153282571Y-85248761D01*
X153282571Y-85363047D01*
X153244476Y-85515428D01*
X153206380Y-85591619D01*
X153130190Y-85667809D01*
X153015904Y-85705904D01*
X152825428Y-85705904D01*
X151701619Y-88207809D02*
X151815904Y-88245904D01*
X152006380Y-88245904D01*
X152082571Y-88207809D01*
X152120666Y-88169714D01*
X152158761Y-88093523D01*
X152158761Y-88017333D01*
X152120666Y-87941142D01*
X152082571Y-87903047D01*
X152006380Y-87864952D01*
X151854000Y-87826857D01*
X151777809Y-87788761D01*
X151739714Y-87750666D01*
X151701619Y-87674476D01*
X151701619Y-87598285D01*
X151739714Y-87522095D01*
X151777809Y-87484000D01*
X151854000Y-87445904D01*
X152044476Y-87445904D01*
X152158761Y-87484000D01*
X152958761Y-88169714D02*
X152920666Y-88207809D01*
X152806380Y-88245904D01*
X152730190Y-88245904D01*
X152615904Y-88207809D01*
X152539714Y-88131619D01*
X152501619Y-88055428D01*
X152463523Y-87903047D01*
X152463523Y-87788761D01*
X152501619Y-87636380D01*
X152539714Y-87560190D01*
X152615904Y-87484000D01*
X152730190Y-87445904D01*
X152806380Y-87445904D01*
X152920666Y-87484000D01*
X152958761Y-87522095D01*
X153682571Y-88245904D02*
X153301619Y-88245904D01*
X153301619Y-87445904D01*
X151682571Y-90747809D02*
X151796857Y-90785904D01*
X151987333Y-90785904D01*
X152063523Y-90747809D01*
X152101619Y-90709714D01*
X152139714Y-90633523D01*
X152139714Y-90557333D01*
X152101619Y-90481142D01*
X152063523Y-90443047D01*
X151987333Y-90404952D01*
X151834952Y-90366857D01*
X151758761Y-90328761D01*
X151720666Y-90290666D01*
X151682571Y-90214476D01*
X151682571Y-90138285D01*
X151720666Y-90062095D01*
X151758761Y-90024000D01*
X151834952Y-89985904D01*
X152025428Y-89985904D01*
X152139714Y-90024000D01*
X152482571Y-90785904D02*
X152482571Y-89985904D01*
X152673047Y-89985904D01*
X152787333Y-90024000D01*
X152863523Y-90100190D01*
X152901619Y-90176380D01*
X152939714Y-90328761D01*
X152939714Y-90443047D01*
X152901619Y-90595428D01*
X152863523Y-90671619D01*
X152787333Y-90747809D01*
X152673047Y-90785904D01*
X152482571Y-90785904D01*
X153244476Y-90557333D02*
X153625428Y-90557333D01*
X153168285Y-90785904D02*
X153434952Y-89985904D01*
X153701619Y-90785904D01*
X151834952Y-93325904D02*
X151834952Y-92525904D01*
X152025428Y-92525904D01*
X152139714Y-92564000D01*
X152215904Y-92640190D01*
X152254000Y-92716380D01*
X152292095Y-92868761D01*
X152292095Y-92983047D01*
X152254000Y-93135428D01*
X152215904Y-93211619D01*
X152139714Y-93287809D01*
X152025428Y-93325904D01*
X151834952Y-93325904D01*
X152634952Y-93325904D02*
X152634952Y-92525904D01*
X153015904Y-93325904D02*
X153015904Y-92525904D01*
X153473047Y-93325904D01*
X153473047Y-92525904D01*
X151777809Y-95789714D02*
X151739714Y-95827809D01*
X151625428Y-95865904D01*
X151549238Y-95865904D01*
X151434952Y-95827809D01*
X151358761Y-95751619D01*
X151320666Y-95675428D01*
X151282571Y-95523047D01*
X151282571Y-95408761D01*
X151320666Y-95256380D01*
X151358761Y-95180190D01*
X151434952Y-95104000D01*
X151549238Y-95065904D01*
X151625428Y-95065904D01*
X151739714Y-95104000D01*
X151777809Y-95142095D01*
X152501619Y-95865904D02*
X152120666Y-95865904D01*
X152120666Y-95065904D01*
X153225428Y-95789714D02*
X153187333Y-95827809D01*
X153073047Y-95865904D01*
X152996857Y-95865904D01*
X152882571Y-95827809D01*
X152806380Y-95751619D01*
X152768285Y-95675428D01*
X152730190Y-95523047D01*
X152730190Y-95408761D01*
X152768285Y-95256380D01*
X152806380Y-95180190D01*
X152882571Y-95104000D01*
X152996857Y-95065904D01*
X153073047Y-95065904D01*
X153187333Y-95104000D01*
X153225428Y-95142095D01*
X153568285Y-95865904D02*
X153568285Y-95065904D01*
X154025428Y-95865904D02*
X153682571Y-95408761D01*
X154025428Y-95065904D02*
X153568285Y-95523047D01*
X150895104Y-101161666D02*
X151695104Y-100971190D01*
X151123676Y-100818809D01*
X151695104Y-100666428D01*
X150895104Y-100475952D01*
X151618914Y-99714047D02*
X151657009Y-99752142D01*
X151695104Y-99866428D01*
X151695104Y-99942619D01*
X151657009Y-100056904D01*
X151580819Y-100133095D01*
X151504628Y-100171190D01*
X151352247Y-100209285D01*
X151237961Y-100209285D01*
X151085580Y-100171190D01*
X151009390Y-100133095D01*
X150933200Y-100056904D01*
X150895104Y-99942619D01*
X150895104Y-99866428D01*
X150933200Y-99752142D01*
X150971295Y-99714047D01*
X151695104Y-98990238D02*
X151695104Y-99371190D01*
X150895104Y-99371190D01*
X151695104Y-98723571D02*
X150895104Y-98723571D01*
X151695104Y-98266428D02*
X151237961Y-98609285D01*
X150895104Y-98266428D02*
X151352247Y-98723571D01*
X151130076Y-102571600D02*
X151053885Y-102533504D01*
X150939600Y-102533504D01*
X150825314Y-102571600D01*
X150749123Y-102647790D01*
X150711028Y-102723980D01*
X150672933Y-102876361D01*
X150672933Y-102990647D01*
X150711028Y-103143028D01*
X150749123Y-103219219D01*
X150825314Y-103295409D01*
X150939600Y-103333504D01*
X151015790Y-103333504D01*
X151130076Y-103295409D01*
X151168171Y-103257314D01*
X151168171Y-102990647D01*
X151015790Y-102990647D01*
X151511028Y-103333504D02*
X151511028Y-102533504D01*
X151968171Y-103333504D01*
X151968171Y-102533504D01*
X152349123Y-103333504D02*
X152349123Y-102533504D01*
X152539600Y-102533504D01*
X152653885Y-102571600D01*
X152730076Y-102647790D01*
X152768171Y-102723980D01*
X152806266Y-102876361D01*
X152806266Y-102990647D01*
X152768171Y-103143028D01*
X152730076Y-103219219D01*
X152653885Y-103295409D01*
X152539600Y-103333504D01*
X152349123Y-103333504D01*
D11*
X156766142Y-119689619D02*
X156813761Y-119642000D01*
X156909000Y-119594380D01*
X157147095Y-119594380D01*
X157242333Y-119642000D01*
X157289952Y-119689619D01*
X157337571Y-119784857D01*
X157337571Y-119880095D01*
X157289952Y-120022952D01*
X156718523Y-120594380D01*
X157337571Y-120594380D01*
X157813761Y-120594380D02*
X158004238Y-120594380D01*
X158099476Y-120546761D01*
X158147095Y-120499142D01*
X158242333Y-120356285D01*
X158289952Y-120165809D01*
X158289952Y-119784857D01*
X158242333Y-119689619D01*
X158194714Y-119642000D01*
X158099476Y-119594380D01*
X157909000Y-119594380D01*
X157813761Y-119642000D01*
X157766142Y-119689619D01*
X157718523Y-119784857D01*
X157718523Y-120022952D01*
X157766142Y-120118190D01*
X157813761Y-120165809D01*
X157909000Y-120213428D01*
X158099476Y-120213428D01*
X158194714Y-120165809D01*
X158242333Y-120118190D01*
X158289952Y-120022952D01*
X158718523Y-120499142D02*
X158766142Y-120546761D01*
X158718523Y-120594380D01*
X158670904Y-120546761D01*
X158718523Y-120499142D01*
X158718523Y-120594380D01*
X159147095Y-119689619D02*
X159194714Y-119642000D01*
X159289952Y-119594380D01*
X159528047Y-119594380D01*
X159623285Y-119642000D01*
X159670904Y-119689619D01*
X159718523Y-119784857D01*
X159718523Y-119880095D01*
X159670904Y-120022952D01*
X159099476Y-120594380D01*
X159718523Y-120594380D01*
X160670904Y-120594380D02*
X160099476Y-120594380D01*
X160385190Y-120594380D02*
X160385190Y-119594380D01*
X160289952Y-119737238D01*
X160194714Y-119832476D01*
X160099476Y-119880095D01*
X161289952Y-119594380D02*
X161385190Y-119594380D01*
X161480428Y-119642000D01*
X161528047Y-119689619D01*
X161575666Y-119784857D01*
X161623285Y-119975333D01*
X161623285Y-120213428D01*
X161575666Y-120403904D01*
X161528047Y-120499142D01*
X161480428Y-120546761D01*
X161385190Y-120594380D01*
X161289952Y-120594380D01*
X161194714Y-120546761D01*
X161147095Y-120499142D01*
X161099476Y-120403904D01*
X161051857Y-120213428D01*
X161051857Y-119975333D01*
X161099476Y-119784857D01*
X161147095Y-119689619D01*
X161194714Y-119642000D01*
X161289952Y-119594380D01*
X162813761Y-120594380D02*
X162813761Y-119927714D01*
X162813761Y-120022952D02*
X162861380Y-119975333D01*
X162956619Y-119927714D01*
X163099476Y-119927714D01*
X163194714Y-119975333D01*
X163242333Y-120070571D01*
X163242333Y-120594380D01*
X163242333Y-120070571D02*
X163289952Y-119975333D01*
X163385190Y-119927714D01*
X163528047Y-119927714D01*
X163623285Y-119975333D01*
X163670904Y-120070571D01*
X163670904Y-120594380D01*
X164147095Y-120594380D02*
X164147095Y-119927714D01*
X164147095Y-120022952D02*
X164194714Y-119975333D01*
X164289952Y-119927714D01*
X164432809Y-119927714D01*
X164528047Y-119975333D01*
X164575666Y-120070571D01*
X164575666Y-120594380D01*
X164575666Y-120070571D02*
X164623285Y-119975333D01*
X164718523Y-119927714D01*
X164861380Y-119927714D01*
X164956619Y-119975333D01*
X165004238Y-120070571D01*
X165004238Y-120594380D01*
D12*
X175514000Y-118872000D02*
X146304000Y-118872000D01*
X175514000Y-114554000D02*
X175514000Y-119458421D01*
X146304000Y-114554000D02*
X146304000Y-119458421D01*
X146304000Y-118872000D02*
X147430504Y-118285579D01*
X146304000Y-118872000D02*
X147430504Y-119458421D01*
X175514000Y-118872000D02*
X174387496Y-118285579D01*
X175514000Y-118872000D02*
X174387496Y-119458421D01*
D11*
X135596380Y-100329476D02*
X135596380Y-99710428D01*
X135977333Y-100043761D01*
X135977333Y-99900904D01*
X136024952Y-99805666D01*
X136072571Y-99758047D01*
X136167809Y-99710428D01*
X136405904Y-99710428D01*
X136501142Y-99758047D01*
X136548761Y-99805666D01*
X136596380Y-99900904D01*
X136596380Y-100186619D01*
X136548761Y-100281857D01*
X136501142Y-100329476D01*
X135596380Y-98853285D02*
X135596380Y-99043761D01*
X135644000Y-99139000D01*
X135691619Y-99186619D01*
X135834476Y-99281857D01*
X136024952Y-99329476D01*
X136405904Y-99329476D01*
X136501142Y-99281857D01*
X136548761Y-99234238D01*
X136596380Y-99139000D01*
X136596380Y-98948523D01*
X136548761Y-98853285D01*
X136501142Y-98805666D01*
X136405904Y-98758047D01*
X136167809Y-98758047D01*
X136072571Y-98805666D01*
X136024952Y-98853285D01*
X135977333Y-98948523D01*
X135977333Y-99139000D01*
X136024952Y-99234238D01*
X136072571Y-99281857D01*
X136167809Y-99329476D01*
X136501142Y-98329476D02*
X136548761Y-98281857D01*
X136596380Y-98329476D01*
X136548761Y-98377095D01*
X136501142Y-98329476D01*
X136596380Y-98329476D01*
X136024952Y-97710428D02*
X135977333Y-97805666D01*
X135929714Y-97853285D01*
X135834476Y-97900904D01*
X135786857Y-97900904D01*
X135691619Y-97853285D01*
X135644000Y-97805666D01*
X135596380Y-97710428D01*
X135596380Y-97519952D01*
X135644000Y-97424714D01*
X135691619Y-97377095D01*
X135786857Y-97329476D01*
X135834476Y-97329476D01*
X135929714Y-97377095D01*
X135977333Y-97424714D01*
X136024952Y-97519952D01*
X136024952Y-97710428D01*
X136072571Y-97805666D01*
X136120190Y-97853285D01*
X136215428Y-97900904D01*
X136405904Y-97900904D01*
X136501142Y-97853285D01*
X136548761Y-97805666D01*
X136596380Y-97710428D01*
X136596380Y-97519952D01*
X136548761Y-97424714D01*
X136501142Y-97377095D01*
X136405904Y-97329476D01*
X136215428Y-97329476D01*
X136120190Y-97377095D01*
X136072571Y-97424714D01*
X136024952Y-97519952D01*
X135596380Y-96996142D02*
X135596380Y-96377095D01*
X135977333Y-96710428D01*
X135977333Y-96567571D01*
X136024952Y-96472333D01*
X136072571Y-96424714D01*
X136167809Y-96377095D01*
X136405904Y-96377095D01*
X136501142Y-96424714D01*
X136548761Y-96472333D01*
X136596380Y-96567571D01*
X136596380Y-96853285D01*
X136548761Y-96948523D01*
X136501142Y-96996142D01*
X135596380Y-95758047D02*
X135596380Y-95662809D01*
X135644000Y-95567571D01*
X135691619Y-95519952D01*
X135786857Y-95472333D01*
X135977333Y-95424714D01*
X136215428Y-95424714D01*
X136405904Y-95472333D01*
X136501142Y-95519952D01*
X136548761Y-95567571D01*
X136596380Y-95662809D01*
X136596380Y-95758047D01*
X136548761Y-95853285D01*
X136501142Y-95900904D01*
X136405904Y-95948523D01*
X136215428Y-95996142D01*
X135977333Y-95996142D01*
X135786857Y-95948523D01*
X135691619Y-95900904D01*
X135644000Y-95853285D01*
X135596380Y-95758047D01*
X136596380Y-94234238D02*
X135929714Y-94234238D01*
X136024952Y-94234238D02*
X135977333Y-94186619D01*
X135929714Y-94091380D01*
X135929714Y-93948523D01*
X135977333Y-93853285D01*
X136072571Y-93805666D01*
X136596380Y-93805666D01*
X136072571Y-93805666D02*
X135977333Y-93758047D01*
X135929714Y-93662809D01*
X135929714Y-93519952D01*
X135977333Y-93424714D01*
X136072571Y-93377095D01*
X136596380Y-93377095D01*
X136596380Y-92900904D02*
X135929714Y-92900904D01*
X136024952Y-92900904D02*
X135977333Y-92853285D01*
X135929714Y-92758047D01*
X135929714Y-92615190D01*
X135977333Y-92519952D01*
X136072571Y-92472333D01*
X136596380Y-92472333D01*
X136072571Y-92472333D02*
X135977333Y-92424714D01*
X135929714Y-92329476D01*
X135929714Y-92186619D01*
X135977333Y-92091380D01*
X136072571Y-92043761D01*
X136596380Y-92043761D01*
D12*
X137414000Y-114554000D02*
X137414000Y-77724000D01*
X146304000Y-114554000D02*
X136827579Y-114554000D01*
X146304000Y-77724000D02*
X136827579Y-77724000D01*
X137414000Y-77724000D02*
X138000421Y-78850504D01*
X137414000Y-77724000D02*
X136827579Y-78850504D01*
X137414000Y-114554000D02*
X138000421Y-113427496D01*
X137414000Y-114554000D02*
X136827579Y-113427496D01*
D13*
G36*
X157851885Y-78751429D02*
G01*
X157890105Y-78756679D01*
X158046471Y-78789066D01*
X158193491Y-78838328D01*
X158346327Y-78910088D01*
X158432500Y-78957795D01*
X158495559Y-78994211D01*
X158588051Y-79047686D01*
X158702781Y-79114058D01*
X158832553Y-79189163D01*
X158970171Y-79268837D01*
X159067500Y-79325203D01*
X159212286Y-79408899D01*
X159359807Y-79493883D01*
X159501496Y-79575239D01*
X159628783Y-79648053D01*
X159733101Y-79707409D01*
X159780440Y-79734147D01*
X159976481Y-79856229D01*
X160135618Y-79983243D01*
X160263265Y-80121219D01*
X160364838Y-80276191D01*
X160445751Y-80454192D01*
X160458805Y-80489894D01*
X160517417Y-80655584D01*
X160517417Y-81756250D01*
X160517392Y-82011981D01*
X160517049Y-82229365D01*
X160515987Y-82412387D01*
X160513803Y-82565032D01*
X160510097Y-82691288D01*
X160504467Y-82795138D01*
X160496511Y-82880570D01*
X160485827Y-82951568D01*
X160472013Y-83012119D01*
X160454668Y-83066208D01*
X160433391Y-83117821D01*
X160407780Y-83170943D01*
X160377432Y-83229561D01*
X160366922Y-83249620D01*
X160305968Y-83352521D01*
X160233108Y-83447776D01*
X160143689Y-83539261D01*
X160033065Y-83630854D01*
X159896583Y-83726431D01*
X159729596Y-83829871D01*
X159543750Y-83936020D01*
X159426531Y-84001761D01*
X159285502Y-84081914D01*
X159133242Y-84169268D01*
X158982333Y-84256608D01*
X158866417Y-84324336D01*
X158697244Y-84423367D01*
X158559262Y-84503167D01*
X158447424Y-84566396D01*
X158356685Y-84615715D01*
X158282002Y-84653783D01*
X158218330Y-84683261D01*
X158160623Y-84706809D01*
X158103837Y-84727086D01*
X158100465Y-84728218D01*
X157960917Y-84762479D01*
X157803482Y-84781114D01*
X157645960Y-84783085D01*
X157506151Y-84767352D01*
X157489776Y-84763855D01*
X157389868Y-84736176D01*
X157282703Y-84696124D01*
X157162009Y-84640755D01*
X157021510Y-84567123D01*
X156854932Y-84472282D01*
X156801212Y-84440605D01*
X156682500Y-84370734D01*
X156540770Y-84288210D01*
X156389927Y-84201077D01*
X156243880Y-84117382D01*
X156167667Y-84074048D01*
X155988834Y-83972540D01*
X155842727Y-83889060D01*
X155725097Y-83821022D01*
X155631698Y-83765835D01*
X155558281Y-83720913D01*
X155500599Y-83683666D01*
X155454405Y-83651507D01*
X155415449Y-83621845D01*
X155386375Y-83597950D01*
X155233561Y-83445450D01*
X155110291Y-83268897D01*
X155074633Y-83203481D01*
X155048278Y-83150755D01*
X155025943Y-83100964D01*
X155007295Y-83050207D01*
X154992003Y-82994581D01*
X154979734Y-82930186D01*
X154970157Y-82853118D01*
X154962940Y-82759477D01*
X154957750Y-82645359D01*
X154957481Y-82634667D01*
X156083000Y-82634667D01*
X156548667Y-82634667D01*
X156548667Y-82020834D01*
X156601846Y-82020834D01*
X156625585Y-82024585D01*
X156650090Y-82038744D01*
X156678547Y-82067667D01*
X156714139Y-82115710D01*
X156760051Y-82187229D01*
X156819470Y-82286582D01*
X156895579Y-82418125D01*
X156907472Y-82438875D01*
X157019595Y-82634667D01*
X157281547Y-82634667D01*
X157381242Y-82633734D01*
X157463476Y-82631187D01*
X157520193Y-82627407D01*
X157536598Y-82624121D01*
X157645879Y-82624121D01*
X157646002Y-82624280D01*
X157670041Y-82628354D01*
X157727659Y-82631678D01*
X157810103Y-82633899D01*
X157904110Y-82634667D01*
X158151831Y-82634667D01*
X158177773Y-82534125D01*
X158198162Y-82460536D01*
X158218779Y-82394292D01*
X158225425Y-82375375D01*
X158247136Y-82317167D01*
X158790415Y-82317167D01*
X158804147Y-82390363D01*
X158820972Y-82462021D01*
X158843447Y-82537945D01*
X158845436Y-82543821D01*
X158872994Y-82624084D01*
X159131519Y-82630047D01*
X159243403Y-82631718D01*
X159318465Y-82630327D01*
X159362137Y-82625413D01*
X159379852Y-82616512D01*
X159380215Y-82608880D01*
X159371672Y-82583484D01*
X159351362Y-82522240D01*
X159320726Y-82429521D01*
X159281206Y-82309698D01*
X159234243Y-82167145D01*
X159181281Y-82006232D01*
X159123759Y-81831333D01*
X159097235Y-81750642D01*
X158824083Y-80919535D01*
X158506583Y-80925142D01*
X158189083Y-80930750D01*
X158140250Y-81078917D01*
X158041552Y-81378656D01*
X157955595Y-81640317D01*
X157881717Y-81865973D01*
X157819255Y-82057701D01*
X157767543Y-82217575D01*
X157725919Y-82347672D01*
X157693719Y-82450066D01*
X157670278Y-82526832D01*
X157654934Y-82580047D01*
X157647022Y-82611785D01*
X157645879Y-82624121D01*
X157536598Y-82624121D01*
X157543338Y-82622771D01*
X157543500Y-82622337D01*
X157532253Y-82601766D01*
X157500896Y-82551637D01*
X157453004Y-82477479D01*
X157392155Y-82384819D01*
X157321923Y-82279187D01*
X157310667Y-82262366D01*
X157239372Y-82155479D01*
X157176901Y-82060985D01*
X157126823Y-81984352D01*
X157092706Y-81931045D01*
X157078117Y-81906531D01*
X157077833Y-81905659D01*
X157091708Y-81887467D01*
X157128429Y-81847544D01*
X157180646Y-81793826D01*
X157191994Y-81782433D01*
X157255194Y-81715089D01*
X157294348Y-81659461D01*
X157318315Y-81600632D01*
X157331078Y-81548219D01*
X157345220Y-81396989D01*
X157321048Y-81263623D01*
X157258486Y-81147811D01*
X157217240Y-81100793D01*
X157162370Y-81050289D01*
X157106767Y-81011003D01*
X157044039Y-80981369D01*
X156967793Y-80959823D01*
X156871637Y-80944801D01*
X156749179Y-80934737D01*
X156594027Y-80928068D01*
X156501042Y-80925488D01*
X156083000Y-80915224D01*
X156083000Y-82634667D01*
X154957481Y-82634667D01*
X154954256Y-82506864D01*
X154952125Y-82340089D01*
X154951026Y-82141133D01*
X154950626Y-81906092D01*
X154950583Y-81745667D01*
X154950616Y-81505509D01*
X154950823Y-81303728D01*
X154951362Y-81136369D01*
X154952393Y-80999476D01*
X154954077Y-80889094D01*
X154956574Y-80801265D01*
X154960042Y-80732036D01*
X154964643Y-80677450D01*
X154970535Y-80633551D01*
X154977879Y-80596383D01*
X154986834Y-80561991D01*
X154997561Y-80526419D01*
X155000187Y-80518000D01*
X155074604Y-80328563D01*
X155174287Y-80161399D01*
X155303391Y-80011766D01*
X155466068Y-79874918D01*
X155666473Y-79746113D01*
X155685418Y-79735362D01*
X155772811Y-79685884D01*
X155888194Y-79620069D01*
X156022958Y-79542854D01*
X156168494Y-79459176D01*
X156316194Y-79373975D01*
X156400500Y-79325203D01*
X156539329Y-79244807D01*
X156675357Y-79166062D01*
X156801390Y-79093130D01*
X156910231Y-79030174D01*
X156994685Y-78981358D01*
X157035500Y-78957795D01*
X157252095Y-78848768D01*
X157457870Y-78778616D01*
X157656556Y-78746463D01*
X157851885Y-78751429D01*
X157851885Y-78751429D01*
G37*
X157851885Y-78751429D02*
X157890105Y-78756679D01*
X158046471Y-78789066D01*
X158193491Y-78838328D01*
X158346327Y-78910088D01*
X158432500Y-78957795D01*
X158495559Y-78994211D01*
X158588051Y-79047686D01*
X158702781Y-79114058D01*
X158832553Y-79189163D01*
X158970171Y-79268837D01*
X159067500Y-79325203D01*
X159212286Y-79408899D01*
X159359807Y-79493883D01*
X159501496Y-79575239D01*
X159628783Y-79648053D01*
X159733101Y-79707409D01*
X159780440Y-79734147D01*
X159976481Y-79856229D01*
X160135618Y-79983243D01*
X160263265Y-80121219D01*
X160364838Y-80276191D01*
X160445751Y-80454192D01*
X160458805Y-80489894D01*
X160517417Y-80655584D01*
X160517417Y-81756250D01*
X160517392Y-82011981D01*
X160517049Y-82229365D01*
X160515987Y-82412387D01*
X160513803Y-82565032D01*
X160510097Y-82691288D01*
X160504467Y-82795138D01*
X160496511Y-82880570D01*
X160485827Y-82951568D01*
X160472013Y-83012119D01*
X160454668Y-83066208D01*
X160433391Y-83117821D01*
X160407780Y-83170943D01*
X160377432Y-83229561D01*
X160366922Y-83249620D01*
X160305968Y-83352521D01*
X160233108Y-83447776D01*
X160143689Y-83539261D01*
X160033065Y-83630854D01*
X159896583Y-83726431D01*
X159729596Y-83829871D01*
X159543750Y-83936020D01*
X159426531Y-84001761D01*
X159285502Y-84081914D01*
X159133242Y-84169268D01*
X158982333Y-84256608D01*
X158866417Y-84324336D01*
X158697244Y-84423367D01*
X158559262Y-84503167D01*
X158447424Y-84566396D01*
X158356685Y-84615715D01*
X158282002Y-84653783D01*
X158218330Y-84683261D01*
X158160623Y-84706809D01*
X158103837Y-84727086D01*
X158100465Y-84728218D01*
X157960917Y-84762479D01*
X157803482Y-84781114D01*
X157645960Y-84783085D01*
X157506151Y-84767352D01*
X157489776Y-84763855D01*
X157389868Y-84736176D01*
X157282703Y-84696124D01*
X157162009Y-84640755D01*
X157021510Y-84567123D01*
X156854932Y-84472282D01*
X156801212Y-84440605D01*
X156682500Y-84370734D01*
X156540770Y-84288210D01*
X156389927Y-84201077D01*
X156243880Y-84117382D01*
X156167667Y-84074048D01*
X155988834Y-83972540D01*
X155842727Y-83889060D01*
X155725097Y-83821022D01*
X155631698Y-83765835D01*
X155558281Y-83720913D01*
X155500599Y-83683666D01*
X155454405Y-83651507D01*
X155415449Y-83621845D01*
X155386375Y-83597950D01*
X155233561Y-83445450D01*
X155110291Y-83268897D01*
X155074633Y-83203481D01*
X155048278Y-83150755D01*
X155025943Y-83100964D01*
X155007295Y-83050207D01*
X154992003Y-82994581D01*
X154979734Y-82930186D01*
X154970157Y-82853118D01*
X154962940Y-82759477D01*
X154957750Y-82645359D01*
X154957481Y-82634667D01*
X156083000Y-82634667D01*
X156548667Y-82634667D01*
X156548667Y-82020834D01*
X156601846Y-82020834D01*
X156625585Y-82024585D01*
X156650090Y-82038744D01*
X156678547Y-82067667D01*
X156714139Y-82115710D01*
X156760051Y-82187229D01*
X156819470Y-82286582D01*
X156895579Y-82418125D01*
X156907472Y-82438875D01*
X157019595Y-82634667D01*
X157281547Y-82634667D01*
X157381242Y-82633734D01*
X157463476Y-82631187D01*
X157520193Y-82627407D01*
X157536598Y-82624121D01*
X157645879Y-82624121D01*
X157646002Y-82624280D01*
X157670041Y-82628354D01*
X157727659Y-82631678D01*
X157810103Y-82633899D01*
X157904110Y-82634667D01*
X158151831Y-82634667D01*
X158177773Y-82534125D01*
X158198162Y-82460536D01*
X158218779Y-82394292D01*
X158225425Y-82375375D01*
X158247136Y-82317167D01*
X158790415Y-82317167D01*
X158804147Y-82390363D01*
X158820972Y-82462021D01*
X158843447Y-82537945D01*
X158845436Y-82543821D01*
X158872994Y-82624084D01*
X159131519Y-82630047D01*
X159243403Y-82631718D01*
X159318465Y-82630327D01*
X159362137Y-82625413D01*
X159379852Y-82616512D01*
X159380215Y-82608880D01*
X159371672Y-82583484D01*
X159351362Y-82522240D01*
X159320726Y-82429521D01*
X159281206Y-82309698D01*
X159234243Y-82167145D01*
X159181281Y-82006232D01*
X159123759Y-81831333D01*
X159097235Y-81750642D01*
X158824083Y-80919535D01*
X158506583Y-80925142D01*
X158189083Y-80930750D01*
X158140250Y-81078917D01*
X158041552Y-81378656D01*
X157955595Y-81640317D01*
X157881717Y-81865973D01*
X157819255Y-82057701D01*
X157767543Y-82217575D01*
X157725919Y-82347672D01*
X157693719Y-82450066D01*
X157670278Y-82526832D01*
X157654934Y-82580047D01*
X157647022Y-82611785D01*
X157645879Y-82624121D01*
X157536598Y-82624121D01*
X157543338Y-82622771D01*
X157543500Y-82622337D01*
X157532253Y-82601766D01*
X157500896Y-82551637D01*
X157453004Y-82477479D01*
X157392155Y-82384819D01*
X157321923Y-82279187D01*
X157310667Y-82262366D01*
X157239372Y-82155479D01*
X157176901Y-82060985D01*
X157126823Y-81984352D01*
X157092706Y-81931045D01*
X157078117Y-81906531D01*
X157077833Y-81905659D01*
X157091708Y-81887467D01*
X157128429Y-81847544D01*
X157180646Y-81793826D01*
X157191994Y-81782433D01*
X157255194Y-81715089D01*
X157294348Y-81659461D01*
X157318315Y-81600632D01*
X157331078Y-81548219D01*
X157345220Y-81396989D01*
X157321048Y-81263623D01*
X157258486Y-81147811D01*
X157217240Y-81100793D01*
X157162370Y-81050289D01*
X157106767Y-81011003D01*
X157044039Y-80981369D01*
X156967793Y-80959823D01*
X156871637Y-80944801D01*
X156749179Y-80934737D01*
X156594027Y-80928068D01*
X156501042Y-80925488D01*
X156083000Y-80915224D01*
X156083000Y-82634667D01*
X154957481Y-82634667D01*
X154954256Y-82506864D01*
X154952125Y-82340089D01*
X154951026Y-82141133D01*
X154950626Y-81906092D01*
X154950583Y-81745667D01*
X154950616Y-81505509D01*
X154950823Y-81303728D01*
X154951362Y-81136369D01*
X154952393Y-80999476D01*
X154954077Y-80889094D01*
X154956574Y-80801265D01*
X154960042Y-80732036D01*
X154964643Y-80677450D01*
X154970535Y-80633551D01*
X154977879Y-80596383D01*
X154986834Y-80561991D01*
X154997561Y-80526419D01*
X155000187Y-80518000D01*
X155074604Y-80328563D01*
X155174287Y-80161399D01*
X155303391Y-80011766D01*
X155466068Y-79874918D01*
X155666473Y-79746113D01*
X155685418Y-79735362D01*
X155772811Y-79685884D01*
X155888194Y-79620069D01*
X156022958Y-79542854D01*
X156168494Y-79459176D01*
X156316194Y-79373975D01*
X156400500Y-79325203D01*
X156539329Y-79244807D01*
X156675357Y-79166062D01*
X156801390Y-79093130D01*
X156910231Y-79030174D01*
X156994685Y-78981358D01*
X157035500Y-78957795D01*
X157252095Y-78848768D01*
X157457870Y-78778616D01*
X157656556Y-78746463D01*
X157851885Y-78751429D01*
G36*
X156678033Y-81288424D02*
G01*
X156747209Y-81305655D01*
X156804707Y-81329937D01*
X156825359Y-81345026D01*
X156857103Y-81402948D01*
X156865052Y-81477756D01*
X156847472Y-81550205D01*
X156844372Y-81556339D01*
X156797256Y-81606093D01*
X156723563Y-81643276D01*
X156638726Y-81660565D01*
X156623801Y-81661000D01*
X156548667Y-81661000D01*
X156548667Y-81482333D01*
X156551262Y-81393135D01*
X156558353Y-81326751D01*
X156568900Y-81292025D01*
X156571336Y-81289655D01*
X156613851Y-81281880D01*
X156678033Y-81288424D01*
X156678033Y-81288424D01*
G37*
X156678033Y-81288424D02*
X156747209Y-81305655D01*
X156804707Y-81329937D01*
X156825359Y-81345026D01*
X156857103Y-81402948D01*
X156865052Y-81477756D01*
X156847472Y-81550205D01*
X156844372Y-81556339D01*
X156797256Y-81606093D01*
X156723563Y-81643276D01*
X156638726Y-81660565D01*
X156623801Y-81661000D01*
X156548667Y-81661000D01*
X156548667Y-81482333D01*
X156551262Y-81393135D01*
X156558353Y-81326751D01*
X156568900Y-81292025D01*
X156571336Y-81289655D01*
X156613851Y-81281880D01*
X156678033Y-81288424D01*
G36*
X158523403Y-81314951D02*
G01*
X158540471Y-81371456D01*
X158562196Y-81450890D01*
X158586433Y-81544548D01*
X158611035Y-81643726D01*
X158633859Y-81739716D01*
X158652759Y-81823815D01*
X158665589Y-81887316D01*
X158670205Y-81921514D01*
X158669568Y-81924876D01*
X158642071Y-81932107D01*
X158586942Y-81935688D01*
X158517758Y-81935917D01*
X158448098Y-81933092D01*
X158391539Y-81927512D01*
X158361659Y-81919474D01*
X158360322Y-81918084D01*
X158361129Y-81893170D01*
X158370611Y-81837631D01*
X158386729Y-81759837D01*
X158407447Y-81668158D01*
X158430729Y-81570966D01*
X158454536Y-81476631D01*
X158476833Y-81393524D01*
X158495583Y-81330016D01*
X158508747Y-81294478D01*
X158513138Y-81290082D01*
X158523403Y-81314951D01*
X158523403Y-81314951D01*
G37*
X158523403Y-81314951D02*
X158540471Y-81371456D01*
X158562196Y-81450890D01*
X158586433Y-81544548D01*
X158611035Y-81643726D01*
X158633859Y-81739716D01*
X158652759Y-81823815D01*
X158665589Y-81887316D01*
X158670205Y-81921514D01*
X158669568Y-81924876D01*
X158642071Y-81932107D01*
X158586942Y-81935688D01*
X158517758Y-81935917D01*
X158448098Y-81933092D01*
X158391539Y-81927512D01*
X158361659Y-81919474D01*
X158360322Y-81918084D01*
X158361129Y-81893170D01*
X158370611Y-81837631D01*
X158386729Y-81759837D01*
X158407447Y-81668158D01*
X158430729Y-81570966D01*
X158454536Y-81476631D01*
X158476833Y-81393524D01*
X158495583Y-81330016D01*
X158508747Y-81294478D01*
X158513138Y-81290082D01*
X158523403Y-81314951D01*
D14*
X159873000Y-101073000D02*
X159873000Y-104127000D01*
X162927000Y-101073000D02*
X159873000Y-101073000D01*
X162927000Y-104127000D02*
X162927000Y-101073000D01*
X159873000Y-104127000D02*
X162927000Y-104127000D01*
X161999948Y-104085140D02*
X161999948Y-104254000D01*
X161999948Y-101114860D02*
X161999948Y-100946000D01*
X162885140Y-103199948D02*
X163054000Y-103199948D01*
X159914860Y-103199948D02*
X159746000Y-103199948D01*
D12*
X159704057Y-100850000D02*
G75*
G03X159704057Y-100850000I-79057J0D01*
G01*
X150326400Y-104454000D02*
X148996400Y-104454000D01*
X150326400Y-103124000D02*
X150326400Y-104454000D01*
X150326400Y-101854000D02*
X147666400Y-101854000D01*
X147666400Y-101854000D02*
X147666400Y-78934000D01*
X150326400Y-101854000D02*
X150326400Y-78934000D01*
X150326400Y-78934000D02*
X147666400Y-78934000D01*
X171644000Y-78934000D02*
X172974000Y-78934000D01*
X171644000Y-80264000D02*
X171644000Y-78934000D01*
X171644000Y-81534000D02*
X174304000Y-81534000D01*
X174304000Y-81534000D02*
X174304000Y-104454000D01*
X171644000Y-81534000D02*
X171644000Y-104454000D01*
X171644000Y-104454000D02*
X174304000Y-104454000D01*
X161238000Y-94668078D02*
X161238000Y-94150922D01*
X159818000Y-94668078D02*
X159818000Y-94150922D01*
X157024000Y-90858078D02*
X157024000Y-90340922D01*
X158444000Y-90858078D02*
X158444000Y-90340922D01*
X164167078Y-88848000D02*
X163649922Y-88848000D01*
X164167078Y-87428000D02*
X163649922Y-87428000D01*
X164665922Y-101548000D02*
X165183078Y-101548000D01*
X164665922Y-100128000D02*
X165183078Y-100128000D01*
X161627078Y-104700000D02*
X161109922Y-104700000D01*
X161627078Y-106120000D02*
X161109922Y-106120000D01*
X160420000Y-112940000D02*
X150260000Y-112940000D01*
X160420000Y-114210000D02*
X160420000Y-106590000D01*
X160420000Y-106590000D02*
X150260000Y-106590000D01*
X150260000Y-106590000D02*
X150260000Y-114210000D01*
X150260000Y-114210000D02*
X160420000Y-114210000D01*
X169290000Y-104796078D02*
X169290000Y-104278922D01*
X170710000Y-104796078D02*
X170710000Y-104278922D01*
X164690000Y-104203922D02*
X164690000Y-104721078D01*
X166110000Y-104203922D02*
X166110000Y-104721078D01*
X163460000Y-114210000D02*
X173620000Y-114210000D01*
X163460000Y-106590000D02*
X163460000Y-114210000D01*
X173620000Y-106590000D02*
X163460000Y-106590000D01*
X173620000Y-114210000D02*
X173620000Y-106590000D01*
X173620000Y-112940000D02*
X163460000Y-112940000D01*
X114234000Y-79502000D02*
G75*
G03X114234000Y-79502000I-950000J0D01*
G01*
X108900000Y-94996000D02*
G75*
G03X108900000Y-94996000I-950000J0D01*
G01*
X168510000Y-80742000D02*
X167250000Y-80742000D01*
X161690000Y-80742000D02*
X162950000Y-80742000D01*
X168510000Y-84502000D02*
X168510000Y-80742000D01*
X161690000Y-86752000D02*
X161690000Y-80742000D01*
X152656000Y-99770000D02*
X159256000Y-99770000D01*
X159256000Y-99770000D02*
X159256000Y-106170000D01*
X152656000Y-99770000D02*
X152656000Y-106170000D01*
X159256000Y-106170000D02*
X159256000Y-106370000D01*
X159256000Y-106370000D02*
X152656000Y-106370000D01*
X152656000Y-106370000D02*
X152656000Y-106170000D01*
X104989000Y-87646000D02*
X107789000Y-87646000D01*
X107789000Y-87646000D02*
X107789000Y-89646000D01*
X107789000Y-89646000D02*
X104989000Y-89646000D01*
X104989000Y-89646000D02*
X104989000Y-87646000D01*
X116316000Y-88485000D02*
X114316000Y-88485000D01*
X116316000Y-85685000D02*
X116316000Y-88485000D01*
X114316000Y-85685000D02*
X116316000Y-85685000D01*
X114316000Y-88485000D02*
X114316000Y-85685000D01*
D11*
X160705895Y-99807780D02*
X160705895Y-100617304D01*
X160753514Y-100712542D01*
X160801133Y-100760161D01*
X160896371Y-100807780D01*
X161086847Y-100807780D01*
X161182085Y-100760161D01*
X161229704Y-100712542D01*
X161277323Y-100617304D01*
X161277323Y-99807780D01*
X161705895Y-99903019D02*
X161753514Y-99855400D01*
X161848752Y-99807780D01*
X162086847Y-99807780D01*
X162182085Y-99855400D01*
X162229704Y-99903019D01*
X162277323Y-99998257D01*
X162277323Y-100093495D01*
X162229704Y-100236352D01*
X161658276Y-100807780D01*
X162277323Y-100807780D01*
X157796761Y-106624380D02*
X158368190Y-106624380D01*
X158082476Y-107624380D02*
X158082476Y-106624380D01*
X158653904Y-107338666D02*
X159130095Y-107338666D01*
X158558666Y-107624380D02*
X158892000Y-106624380D01*
X159225333Y-107624380D01*
X159511047Y-107576761D02*
X159653904Y-107624380D01*
X159892000Y-107624380D01*
X159987238Y-107576761D01*
X160034857Y-107529142D01*
X160082476Y-107433904D01*
X160082476Y-107338666D01*
X160034857Y-107243428D01*
X159987238Y-107195809D01*
X159892000Y-107148190D01*
X159701523Y-107100571D01*
X159606285Y-107052952D01*
X159558666Y-107005333D01*
X159511047Y-106910095D01*
X159511047Y-106814857D01*
X159558666Y-106719619D01*
X159606285Y-106672000D01*
X159701523Y-106624380D01*
X159939619Y-106624380D01*
X160082476Y-106672000D01*
X160463428Y-106719619D02*
X160511047Y-106672000D01*
X160606285Y-106624380D01*
X160844380Y-106624380D01*
X160939619Y-106672000D01*
X160987238Y-106719619D01*
X161034857Y-106814857D01*
X161034857Y-106910095D01*
X160987238Y-107052952D01*
X160415809Y-107624380D01*
X161034857Y-107624380D01*
X161939619Y-106624380D02*
X161463428Y-106624380D01*
X161415809Y-107100571D01*
X161463428Y-107052952D01*
X161558666Y-107005333D01*
X161796761Y-107005333D01*
X161892000Y-107052952D01*
X161939619Y-107100571D01*
X161987238Y-107195809D01*
X161987238Y-107433904D01*
X161939619Y-107529142D01*
X161892000Y-107576761D01*
X161796761Y-107624380D01*
X161558666Y-107624380D01*
X161463428Y-107576761D01*
X161415809Y-107529142D01*
X162844380Y-106624380D02*
X162653904Y-106624380D01*
X162558666Y-106672000D01*
X162511047Y-106719619D01*
X162415809Y-106862476D01*
X162368190Y-107052952D01*
X162368190Y-107433904D01*
X162415809Y-107529142D01*
X162463428Y-107576761D01*
X162558666Y-107624380D01*
X162749142Y-107624380D01*
X162844380Y-107576761D01*
X162892000Y-107529142D01*
X162939619Y-107433904D01*
X162939619Y-107195809D01*
X162892000Y-107100571D01*
X162844380Y-107052952D01*
X162749142Y-107005333D01*
X162558666Y-107005333D01*
X162463428Y-107052952D01*
X162415809Y-107100571D01*
X162368190Y-107195809D01*
X163320571Y-106719619D02*
X163368190Y-106672000D01*
X163463428Y-106624380D01*
X163701523Y-106624380D01*
X163796761Y-106672000D01*
X163844380Y-106719619D01*
X163892000Y-106814857D01*
X163892000Y-106910095D01*
X163844380Y-107052952D01*
X163272952Y-107624380D01*
X163892000Y-107624380D01*
X148663066Y-104906380D02*
X148663066Y-105620666D01*
X148615447Y-105763523D01*
X148520209Y-105858761D01*
X148377352Y-105906380D01*
X148282114Y-105906380D01*
X149663066Y-105906380D02*
X149091638Y-105906380D01*
X149377352Y-105906380D02*
X149377352Y-104906380D01*
X149282114Y-105049238D01*
X149186876Y-105144476D01*
X149091638Y-105192095D01*
X172589866Y-78141580D02*
X172589866Y-78855866D01*
X172542247Y-78998723D01*
X172447009Y-79093961D01*
X172304152Y-79141580D01*
X172208914Y-79141580D01*
X173494628Y-78474914D02*
X173494628Y-79141580D01*
X173256533Y-78093961D02*
X173018438Y-78808247D01*
X173637485Y-78808247D01*
X159330380Y-95576166D02*
X159330380Y-96147595D01*
X159330380Y-95861880D02*
X158330380Y-95861880D01*
X158473238Y-95957119D01*
X158568476Y-96052357D01*
X158616095Y-96147595D01*
X158330380Y-94957119D02*
X158330380Y-94861880D01*
X158378000Y-94766642D01*
X158425619Y-94719023D01*
X158520857Y-94671404D01*
X158711333Y-94623785D01*
X158949428Y-94623785D01*
X159139904Y-94671404D01*
X159235142Y-94719023D01*
X159282761Y-94766642D01*
X159330380Y-94861880D01*
X159330380Y-94957119D01*
X159282761Y-95052357D01*
X159235142Y-95099976D01*
X159139904Y-95147595D01*
X158949428Y-95195214D01*
X158711333Y-95195214D01*
X158520857Y-95147595D01*
X158425619Y-95099976D01*
X158378000Y-95052357D01*
X158330380Y-94957119D01*
X159330380Y-94195214D02*
X158330380Y-94195214D01*
X159330380Y-93623785D02*
X158758952Y-94052357D01*
X158330380Y-93623785D02*
X158901809Y-94195214D01*
X159330380Y-92671404D02*
X159330380Y-93242833D01*
X159330380Y-92957119D02*
X158330380Y-92957119D01*
X158473238Y-93052357D01*
X158568476Y-93147595D01*
X158616095Y-93242833D01*
X156536380Y-91766166D02*
X156536380Y-92337595D01*
X156536380Y-92051880D02*
X155536380Y-92051880D01*
X155679238Y-92147119D01*
X155774476Y-92242357D01*
X155822095Y-92337595D01*
X155536380Y-91147119D02*
X155536380Y-91051880D01*
X155584000Y-90956642D01*
X155631619Y-90909023D01*
X155726857Y-90861404D01*
X155917333Y-90813785D01*
X156155428Y-90813785D01*
X156345904Y-90861404D01*
X156441142Y-90909023D01*
X156488761Y-90956642D01*
X156536380Y-91051880D01*
X156536380Y-91147119D01*
X156488761Y-91242357D01*
X156441142Y-91289976D01*
X156345904Y-91337595D01*
X156155428Y-91385214D01*
X155917333Y-91385214D01*
X155726857Y-91337595D01*
X155631619Y-91289976D01*
X155584000Y-91242357D01*
X155536380Y-91147119D01*
X156536380Y-90385214D02*
X155536380Y-90385214D01*
X156536380Y-89813785D02*
X155964952Y-90242357D01*
X155536380Y-89813785D02*
X156107809Y-90385214D01*
X155631619Y-89432833D02*
X155584000Y-89385214D01*
X155536380Y-89289976D01*
X155536380Y-89051880D01*
X155584000Y-88956642D01*
X155631619Y-88909023D01*
X155726857Y-88861404D01*
X155822095Y-88861404D01*
X155964952Y-88909023D01*
X156536380Y-89480452D01*
X156536380Y-88861404D01*
X163741833Y-90145142D02*
X163694214Y-90192761D01*
X163551357Y-90240380D01*
X163456119Y-90240380D01*
X163313261Y-90192761D01*
X163218023Y-90097523D01*
X163170404Y-90002285D01*
X163122785Y-89811809D01*
X163122785Y-89668952D01*
X163170404Y-89478476D01*
X163218023Y-89383238D01*
X163313261Y-89288000D01*
X163456119Y-89240380D01*
X163551357Y-89240380D01*
X163694214Y-89288000D01*
X163741833Y-89335619D01*
X164598976Y-89573714D02*
X164598976Y-90240380D01*
X164360880Y-89192761D02*
X164122785Y-89907047D01*
X164741833Y-89907047D01*
X164757833Y-99545142D02*
X164710214Y-99592761D01*
X164567357Y-99640380D01*
X164472119Y-99640380D01*
X164329261Y-99592761D01*
X164234023Y-99497523D01*
X164186404Y-99402285D01*
X164138785Y-99211809D01*
X164138785Y-99068952D01*
X164186404Y-98878476D01*
X164234023Y-98783238D01*
X164329261Y-98688000D01*
X164472119Y-98640380D01*
X164567357Y-98640380D01*
X164710214Y-98688000D01*
X164757833Y-98735619D01*
X165662595Y-98640380D02*
X165186404Y-98640380D01*
X165138785Y-99116571D01*
X165186404Y-99068952D01*
X165281642Y-99021333D01*
X165519738Y-99021333D01*
X165614976Y-99068952D01*
X165662595Y-99116571D01*
X165710214Y-99211809D01*
X165710214Y-99449904D01*
X165662595Y-99545142D01*
X165614976Y-99592761D01*
X165519738Y-99640380D01*
X165281642Y-99640380D01*
X165186404Y-99592761D01*
X165138785Y-99545142D01*
X154792380Y-105653333D02*
X155506666Y-105653333D01*
X155649523Y-105700952D01*
X155744761Y-105796190D01*
X155792380Y-105939047D01*
X155792380Y-106034285D01*
X154792380Y-105272380D02*
X154792380Y-104653333D01*
X155173333Y-104986666D01*
X155173333Y-104843809D01*
X155220952Y-104748571D01*
X155268571Y-104700952D01*
X155363809Y-104653333D01*
X155601904Y-104653333D01*
X155697142Y-104700952D01*
X155744761Y-104748571D01*
X155792380Y-104843809D01*
X155792380Y-105129523D01*
X155744761Y-105224761D01*
X155697142Y-105272380D01*
X168802380Y-104704166D02*
X168802380Y-105180357D01*
X167802380Y-105180357D01*
X168802380Y-103847023D02*
X168802380Y-104418452D01*
X168802380Y-104132738D02*
X167802380Y-104132738D01*
X167945238Y-104227976D01*
X168040476Y-104323214D01*
X168088095Y-104418452D01*
X167502380Y-104629166D02*
X167502380Y-105105357D01*
X166502380Y-105105357D01*
X166597619Y-104343452D02*
X166550000Y-104295833D01*
X166502380Y-104200595D01*
X166502380Y-103962500D01*
X166550000Y-103867261D01*
X166597619Y-103819642D01*
X166692857Y-103772023D01*
X166788095Y-103772023D01*
X166930952Y-103819642D01*
X167502380Y-104391071D01*
X167502380Y-103772023D01*
X167757142Y-108452380D02*
X167280952Y-108452380D01*
X167280952Y-107452380D01*
X168042857Y-108404761D02*
X168185714Y-108452380D01*
X168423809Y-108452380D01*
X168519047Y-108404761D01*
X168566666Y-108357142D01*
X168614285Y-108261904D01*
X168614285Y-108166666D01*
X168566666Y-108071428D01*
X168519047Y-108023809D01*
X168423809Y-107976190D01*
X168233333Y-107928571D01*
X168138095Y-107880952D01*
X168090476Y-107833333D01*
X168042857Y-107738095D01*
X168042857Y-107642857D01*
X168090476Y-107547619D01*
X168138095Y-107500000D01*
X168233333Y-107452380D01*
X168471428Y-107452380D01*
X168614285Y-107500000D01*
X169566666Y-108452380D02*
X168995238Y-108452380D01*
X169280952Y-108452380D02*
X169280952Y-107452380D01*
X169185714Y-107595238D01*
X169090476Y-107690476D01*
X168995238Y-107738095D01*
X112022095Y-77306380D02*
X112593523Y-77306380D01*
X112307809Y-78306380D02*
X112307809Y-77306380D01*
X112926857Y-78306380D02*
X112926857Y-77306380D01*
X113307809Y-77306380D01*
X113403047Y-77354000D01*
X113450666Y-77401619D01*
X113498285Y-77496857D01*
X113498285Y-77639714D01*
X113450666Y-77734952D01*
X113403047Y-77782571D01*
X113307809Y-77830190D01*
X112926857Y-77830190D01*
X113879238Y-77401619D02*
X113926857Y-77354000D01*
X114022095Y-77306380D01*
X114260190Y-77306380D01*
X114355428Y-77354000D01*
X114403047Y-77401619D01*
X114450666Y-77496857D01*
X114450666Y-77592095D01*
X114403047Y-77734952D01*
X113831619Y-78306380D01*
X114450666Y-78306380D01*
X106688095Y-92800380D02*
X107259523Y-92800380D01*
X106973809Y-93800380D02*
X106973809Y-92800380D01*
X107592857Y-93800380D02*
X107592857Y-92800380D01*
X107973809Y-92800380D01*
X108069047Y-92848000D01*
X108116666Y-92895619D01*
X108164285Y-92990857D01*
X108164285Y-93133714D01*
X108116666Y-93228952D01*
X108069047Y-93276571D01*
X107973809Y-93324190D01*
X107592857Y-93324190D01*
X108497619Y-92800380D02*
X109116666Y-92800380D01*
X108783333Y-93181333D01*
X108926190Y-93181333D01*
X109021428Y-93228952D01*
X109069047Y-93276571D01*
X109116666Y-93371809D01*
X109116666Y-93609904D01*
X109069047Y-93705142D01*
X109021428Y-93752761D01*
X108926190Y-93800380D01*
X108640476Y-93800380D01*
X108545238Y-93752761D01*
X108497619Y-93705142D01*
X160234380Y-86296404D02*
X161043904Y-86296404D01*
X161139142Y-86248785D01*
X161186761Y-86201166D01*
X161234380Y-86105928D01*
X161234380Y-85915452D01*
X161186761Y-85820214D01*
X161139142Y-85772595D01*
X161043904Y-85724976D01*
X160234380Y-85724976D01*
X161234380Y-84724976D02*
X161234380Y-85296404D01*
X161234380Y-85010690D02*
X160234380Y-85010690D01*
X160377238Y-85105928D01*
X160472476Y-85201166D01*
X160520095Y-85296404D01*
X148714333Y-106522380D02*
X148142904Y-106522380D01*
X148428619Y-106522380D02*
X148428619Y-105522380D01*
X148333380Y-105665238D01*
X148238142Y-105760476D01*
X148142904Y-105808095D01*
X149571476Y-105855714D02*
X149571476Y-106522380D01*
X149142904Y-105855714D02*
X149142904Y-106379523D01*
X149190523Y-106474761D01*
X149285761Y-106522380D01*
X149428619Y-106522380D01*
X149523857Y-106474761D01*
X149571476Y-106427142D01*
X150047666Y-106522380D02*
X150047666Y-105522380D01*
X150047666Y-105998571D02*
X150619095Y-105998571D01*
X150619095Y-106522380D02*
X150619095Y-105522380D01*
X151619095Y-106522380D02*
X151047666Y-106522380D01*
X151333380Y-106522380D02*
X151333380Y-105522380D01*
X151238142Y-105665238D01*
X151142904Y-105760476D01*
X151047666Y-105808095D01*
X105555666Y-86298380D02*
X105555666Y-87012666D01*
X105508047Y-87155523D01*
X105412809Y-87250761D01*
X105269952Y-87298380D01*
X105174714Y-87298380D01*
X106031857Y-87298380D02*
X106031857Y-86298380D01*
X106412809Y-86298380D01*
X106508047Y-86346000D01*
X106555666Y-86393619D01*
X106603285Y-86488857D01*
X106603285Y-86631714D01*
X106555666Y-86726952D01*
X106508047Y-86774571D01*
X106412809Y-86822190D01*
X106031857Y-86822190D01*
X107555666Y-87298380D02*
X106984238Y-87298380D01*
X107269952Y-87298380D02*
X107269952Y-86298380D01*
X107174714Y-86441238D01*
X107079476Y-86536476D01*
X106984238Y-86584095D01*
X112968380Y-87918333D02*
X113682666Y-87918333D01*
X113825523Y-87965952D01*
X113920761Y-88061190D01*
X113968380Y-88204047D01*
X113968380Y-88299285D01*
X113968380Y-87442142D02*
X112968380Y-87442142D01*
X112968380Y-87061190D01*
X113016000Y-86965952D01*
X113063619Y-86918333D01*
X113158857Y-86870714D01*
X113301714Y-86870714D01*
X113396952Y-86918333D01*
X113444571Y-86965952D01*
X113492190Y-87061190D01*
X113492190Y-87442142D01*
X113063619Y-86489761D02*
X113016000Y-86442142D01*
X112968380Y-86346904D01*
X112968380Y-86108809D01*
X113016000Y-86013571D01*
X113063619Y-85965952D01*
X113158857Y-85918333D01*
X113254095Y-85918333D01*
X113396952Y-85965952D01*
X113968380Y-86537380D01*
X113968380Y-85918333D01*
M02*
