G04 #@! TF.GenerationSoftware,KiCad,Pcbnew,5.1.1-8be2ce7~80~ubuntu18.10.1*
G04 #@! TF.CreationDate,2019-05-27T00:45:37+08:00*
G04 #@! TF.ProjectId,tas2562_dev_pcb,74617332-3536-4325-9f64-65765f706362,rev?*
G04 #@! TF.SameCoordinates,Original*
G04 #@! TF.FileFunction,Soldermask,Bot*
G04 #@! TF.FilePolarity,Negative*
%FSLAX46Y46*%
G04 Gerber Fmt 4.6, Leading zero omitted, Abs format (unit mm)*
G04 Created by KiCad (PCBNEW 5.1.1-8be2ce7~80~ubuntu18.10.1) date 2019-05-27 00:45:37*
%MOMM*%
%LPD*%
G04 APERTURE LIST*
%ADD10C,0.100000*%
G04 APERTURE END LIST*
D10*
G36*
X156499432Y-112453688D02*
G01*
X156540469Y-112466136D01*
X156578288Y-112486351D01*
X156611441Y-112513559D01*
X156638649Y-112546712D01*
X156658864Y-112584531D01*
X156671312Y-112625568D01*
X156676000Y-112673167D01*
X156676000Y-113726833D01*
X156671312Y-113774432D01*
X156658864Y-113815469D01*
X156638649Y-113853288D01*
X156611441Y-113886441D01*
X156578288Y-113913649D01*
X156540469Y-113933864D01*
X156499432Y-113946312D01*
X156451833Y-113951000D01*
X155823167Y-113951000D01*
X155775568Y-113946312D01*
X155734531Y-113933864D01*
X155696712Y-113913649D01*
X155663559Y-113886441D01*
X155636351Y-113853288D01*
X155616136Y-113815469D01*
X155603688Y-113774432D01*
X155599000Y-113726833D01*
X155599000Y-112673167D01*
X155603688Y-112625568D01*
X155616136Y-112584531D01*
X155636351Y-112546712D01*
X155663559Y-112513559D01*
X155696712Y-112486351D01*
X155734531Y-112466136D01*
X155775568Y-112453688D01*
X155823167Y-112449000D01*
X156451833Y-112449000D01*
X156499432Y-112453688D01*
X156499432Y-112453688D01*
G37*
G36*
X154624432Y-112453688D02*
G01*
X154665469Y-112466136D01*
X154703288Y-112486351D01*
X154736441Y-112513559D01*
X154763649Y-112546712D01*
X154783864Y-112584531D01*
X154796312Y-112625568D01*
X154801000Y-112673167D01*
X154801000Y-113726833D01*
X154796312Y-113774432D01*
X154783864Y-113815469D01*
X154763649Y-113853288D01*
X154736441Y-113886441D01*
X154703288Y-113913649D01*
X154665469Y-113933864D01*
X154624432Y-113946312D01*
X154576833Y-113951000D01*
X153948167Y-113951000D01*
X153900568Y-113946312D01*
X153859531Y-113933864D01*
X153821712Y-113913649D01*
X153788559Y-113886441D01*
X153761351Y-113853288D01*
X153741136Y-113815469D01*
X153728688Y-113774432D01*
X153724000Y-113726833D01*
X153724000Y-112673167D01*
X153728688Y-112625568D01*
X153741136Y-112584531D01*
X153761351Y-112546712D01*
X153788559Y-112513559D01*
X153821712Y-112486351D01*
X153859531Y-112466136D01*
X153900568Y-112453688D01*
X153948167Y-112449000D01*
X154576833Y-112449000D01*
X154624432Y-112453688D01*
X154624432Y-112453688D01*
G37*
G36*
X174574432Y-112741188D02*
G01*
X174615469Y-112753636D01*
X174653288Y-112773851D01*
X174686441Y-112801059D01*
X174713649Y-112834212D01*
X174733864Y-112872031D01*
X174746312Y-112913068D01*
X174751000Y-112960667D01*
X174751000Y-113589333D01*
X174746312Y-113636932D01*
X174733864Y-113677969D01*
X174713649Y-113715788D01*
X174686441Y-113748941D01*
X174653288Y-113776149D01*
X174615469Y-113796364D01*
X174574432Y-113808812D01*
X174526833Y-113813500D01*
X173473167Y-113813500D01*
X173425568Y-113808812D01*
X173384531Y-113796364D01*
X173346712Y-113776149D01*
X173313559Y-113748941D01*
X173286351Y-113715788D01*
X173266136Y-113677969D01*
X173253688Y-113636932D01*
X173249000Y-113589333D01*
X173249000Y-112960667D01*
X173253688Y-112913068D01*
X173266136Y-112872031D01*
X173286351Y-112834212D01*
X173313559Y-112801059D01*
X173346712Y-112773851D01*
X173384531Y-112753636D01*
X173425568Y-112741188D01*
X173473167Y-112736500D01*
X174526833Y-112736500D01*
X174574432Y-112741188D01*
X174574432Y-112741188D01*
G37*
G36*
X163574432Y-112666188D02*
G01*
X163615469Y-112678636D01*
X163653288Y-112698851D01*
X163686441Y-112726059D01*
X163713649Y-112759212D01*
X163733864Y-112797031D01*
X163746312Y-112838068D01*
X163751000Y-112885667D01*
X163751000Y-113514333D01*
X163746312Y-113561932D01*
X163733864Y-113602969D01*
X163713649Y-113640788D01*
X163686441Y-113673941D01*
X163653288Y-113701149D01*
X163615469Y-113721364D01*
X163574432Y-113733812D01*
X163526833Y-113738500D01*
X162473167Y-113738500D01*
X162425568Y-113733812D01*
X162384531Y-113721364D01*
X162346712Y-113701149D01*
X162313559Y-113673941D01*
X162286351Y-113640788D01*
X162266136Y-113602969D01*
X162253688Y-113561932D01*
X162249000Y-113514333D01*
X162249000Y-112885667D01*
X162253688Y-112838068D01*
X162266136Y-112797031D01*
X162286351Y-112759212D01*
X162313559Y-112726059D01*
X162346712Y-112698851D01*
X162384531Y-112678636D01*
X162425568Y-112666188D01*
X162473167Y-112661500D01*
X163526833Y-112661500D01*
X163574432Y-112666188D01*
X163574432Y-112666188D01*
G37*
G36*
X154351000Y-111951000D02*
G01*
X151249000Y-111951000D01*
X151249000Y-108849000D01*
X154351000Y-108849000D01*
X154351000Y-111951000D01*
X154351000Y-111951000D01*
G37*
G36*
X158332410Y-108908604D02*
G01*
X158332412Y-108908605D01*
X158332413Y-108908605D01*
X158436678Y-108951793D01*
X158614674Y-109025521D01*
X158868705Y-109195259D01*
X159084741Y-109411295D01*
X159254479Y-109665326D01*
X159371396Y-109947590D01*
X159431000Y-110247240D01*
X159431000Y-110552760D01*
X159371396Y-110852410D01*
X159254479Y-111134674D01*
X159084741Y-111388705D01*
X158868705Y-111604741D01*
X158614674Y-111774479D01*
X158489931Y-111826149D01*
X158332413Y-111891395D01*
X158332412Y-111891395D01*
X158332410Y-111891396D01*
X158032760Y-111951000D01*
X157727240Y-111951000D01*
X157427590Y-111891396D01*
X157427588Y-111891395D01*
X157427587Y-111891395D01*
X157270069Y-111826149D01*
X157145326Y-111774479D01*
X156891295Y-111604741D01*
X156675259Y-111388705D01*
X156505521Y-111134674D01*
X156388604Y-110852410D01*
X156329000Y-110552760D01*
X156329000Y-110247240D01*
X156388604Y-109947590D01*
X156505521Y-109665326D01*
X156675259Y-109411295D01*
X156891295Y-109195259D01*
X157145326Y-109025521D01*
X157323322Y-108951793D01*
X157427587Y-108908605D01*
X157427588Y-108908605D01*
X157427590Y-108908604D01*
X157727240Y-108849000D01*
X158032760Y-108849000D01*
X158332410Y-108908604D01*
X158332410Y-108908604D01*
G37*
G36*
X167551000Y-111951000D02*
G01*
X164449000Y-111951000D01*
X164449000Y-108849000D01*
X167551000Y-108849000D01*
X167551000Y-111951000D01*
X167551000Y-111951000D01*
G37*
G36*
X171532410Y-108908604D02*
G01*
X171532412Y-108908605D01*
X171532413Y-108908605D01*
X171636678Y-108951793D01*
X171814674Y-109025521D01*
X172068705Y-109195259D01*
X172284741Y-109411295D01*
X172454479Y-109665326D01*
X172571396Y-109947590D01*
X172631000Y-110247240D01*
X172631000Y-110552760D01*
X172571396Y-110852410D01*
X172454479Y-111134674D01*
X172284741Y-111388705D01*
X172068705Y-111604741D01*
X171814674Y-111774479D01*
X171689931Y-111826149D01*
X171532413Y-111891395D01*
X171532412Y-111891395D01*
X171532410Y-111891396D01*
X171232760Y-111951000D01*
X170927240Y-111951000D01*
X170627590Y-111891396D01*
X170627588Y-111891395D01*
X170627587Y-111891395D01*
X170470069Y-111826149D01*
X170345326Y-111774479D01*
X170091295Y-111604741D01*
X169875259Y-111388705D01*
X169705521Y-111134674D01*
X169588604Y-110852410D01*
X169529000Y-110552760D01*
X169529000Y-110247240D01*
X169588604Y-109947590D01*
X169705521Y-109665326D01*
X169875259Y-109411295D01*
X170091295Y-109195259D01*
X170345326Y-109025521D01*
X170523322Y-108951793D01*
X170627587Y-108908605D01*
X170627588Y-108908605D01*
X170627590Y-108908604D01*
X170927240Y-108849000D01*
X171232760Y-108849000D01*
X171532410Y-108908604D01*
X171532410Y-108908604D01*
G37*
G36*
X174574432Y-110866188D02*
G01*
X174615469Y-110878636D01*
X174653288Y-110898851D01*
X174686441Y-110926059D01*
X174713649Y-110959212D01*
X174733864Y-110997031D01*
X174746312Y-111038068D01*
X174751000Y-111085667D01*
X174751000Y-111714333D01*
X174746312Y-111761932D01*
X174733864Y-111802969D01*
X174713649Y-111840788D01*
X174686441Y-111873941D01*
X174653288Y-111901149D01*
X174615469Y-111921364D01*
X174574432Y-111933812D01*
X174526833Y-111938500D01*
X173473167Y-111938500D01*
X173425568Y-111933812D01*
X173384531Y-111921364D01*
X173346712Y-111901149D01*
X173313559Y-111873941D01*
X173286351Y-111840788D01*
X173266136Y-111802969D01*
X173253688Y-111761932D01*
X173249000Y-111714333D01*
X173249000Y-111085667D01*
X173253688Y-111038068D01*
X173266136Y-110997031D01*
X173286351Y-110959212D01*
X173313559Y-110926059D01*
X173346712Y-110898851D01*
X173384531Y-110878636D01*
X173425568Y-110866188D01*
X173473167Y-110861500D01*
X174526833Y-110861500D01*
X174574432Y-110866188D01*
X174574432Y-110866188D01*
G37*
G36*
X163574432Y-110791188D02*
G01*
X163615469Y-110803636D01*
X163653288Y-110823851D01*
X163686441Y-110851059D01*
X163713649Y-110884212D01*
X163733864Y-110922031D01*
X163746312Y-110963068D01*
X163751000Y-111010667D01*
X163751000Y-111639333D01*
X163746312Y-111686932D01*
X163733864Y-111727969D01*
X163713649Y-111765788D01*
X163686441Y-111798941D01*
X163653288Y-111826149D01*
X163615469Y-111846364D01*
X163574432Y-111858812D01*
X163526833Y-111863500D01*
X162473167Y-111863500D01*
X162425568Y-111858812D01*
X162384531Y-111846364D01*
X162346712Y-111826149D01*
X162313559Y-111798941D01*
X162286351Y-111765788D01*
X162266136Y-111727969D01*
X162253688Y-111686932D01*
X162249000Y-111639333D01*
X162249000Y-111010667D01*
X162253688Y-110963068D01*
X162266136Y-110922031D01*
X162286351Y-110884212D01*
X162313559Y-110851059D01*
X162346712Y-110823851D01*
X162384531Y-110803636D01*
X162425568Y-110791188D01*
X162473167Y-110786500D01*
X163526833Y-110786500D01*
X163574432Y-110791188D01*
X163574432Y-110791188D01*
G37*
G36*
X149897400Y-104025000D02*
G01*
X148095400Y-104025000D01*
X148095400Y-102223000D01*
X149897400Y-102223000D01*
X149897400Y-104025000D01*
X149897400Y-104025000D01*
G37*
G36*
X173117535Y-102232778D02*
G01*
X173150627Y-102236037D01*
X173263853Y-102270384D01*
X173320467Y-102287557D01*
X173476990Y-102371220D01*
X173614186Y-102483814D01*
X173726780Y-102621010D01*
X173810443Y-102777533D01*
X173810443Y-102777534D01*
X173861963Y-102947373D01*
X173861963Y-102947375D01*
X173879360Y-103124000D01*
X173864826Y-103271559D01*
X173861963Y-103300627D01*
X173827616Y-103413853D01*
X173810443Y-103470467D01*
X173726780Y-103626990D01*
X173614186Y-103764186D01*
X173476990Y-103876780D01*
X173320467Y-103960443D01*
X173268598Y-103976177D01*
X173150627Y-104011963D01*
X173117535Y-104015222D01*
X173018264Y-104025000D01*
X172929736Y-104025000D01*
X172830465Y-104015222D01*
X172797373Y-104011963D01*
X172679402Y-103976177D01*
X172627533Y-103960443D01*
X172471010Y-103876780D01*
X172333814Y-103764186D01*
X172221220Y-103626990D01*
X172137557Y-103470467D01*
X172120384Y-103413853D01*
X172086037Y-103300627D01*
X172083174Y-103271559D01*
X172068640Y-103124000D01*
X172086037Y-102947375D01*
X172086037Y-102947373D01*
X172137557Y-102777534D01*
X172137557Y-102777533D01*
X172221220Y-102621010D01*
X172333814Y-102483814D01*
X172471010Y-102371220D01*
X172627533Y-102287557D01*
X172684147Y-102270384D01*
X172797373Y-102236037D01*
X172830465Y-102232778D01*
X172929736Y-102223000D01*
X173018264Y-102223000D01*
X173117535Y-102232778D01*
X173117535Y-102232778D01*
G37*
G36*
X160936138Y-103509926D02*
G01*
X160950206Y-103514193D01*
X160963180Y-103521128D01*
X160972564Y-103528829D01*
X160988864Y-103539720D01*
X161006975Y-103547221D01*
X161026202Y-103551045D01*
X161045805Y-103551044D01*
X161065031Y-103547219D01*
X161083142Y-103539717D01*
X161099436Y-103528829D01*
X161108820Y-103521128D01*
X161121794Y-103514193D01*
X161135862Y-103509926D01*
X161155417Y-103508000D01*
X161556583Y-103508000D01*
X161576138Y-103509926D01*
X161590206Y-103514193D01*
X161603177Y-103521127D01*
X161614545Y-103530455D01*
X161623873Y-103541823D01*
X161630807Y-103554794D01*
X161635074Y-103568862D01*
X161637000Y-103588417D01*
X161637000Y-103929583D01*
X161635074Y-103949138D01*
X161630807Y-103963206D01*
X161623873Y-103976177D01*
X161614545Y-103987545D01*
X161603177Y-103996873D01*
X161590206Y-104003807D01*
X161576138Y-104008074D01*
X161556583Y-104010000D01*
X161155417Y-104010000D01*
X161135862Y-104008074D01*
X161121794Y-104003807D01*
X161108820Y-103996872D01*
X161099436Y-103989171D01*
X161083136Y-103978280D01*
X161065025Y-103970779D01*
X161045798Y-103966955D01*
X161026195Y-103966956D01*
X161006969Y-103970781D01*
X160988858Y-103978283D01*
X160972564Y-103989171D01*
X160963180Y-103996872D01*
X160950206Y-104003807D01*
X160936138Y-104008074D01*
X160916583Y-104010000D01*
X160515417Y-104010000D01*
X160495862Y-104008074D01*
X160481794Y-104003807D01*
X160468823Y-103996873D01*
X160457455Y-103987545D01*
X160448127Y-103976177D01*
X160441193Y-103963206D01*
X160436926Y-103949138D01*
X160435000Y-103929583D01*
X160435000Y-103588417D01*
X160436926Y-103568862D01*
X160441193Y-103554794D01*
X160448127Y-103541823D01*
X160457455Y-103530455D01*
X160468823Y-103521127D01*
X160481794Y-103514193D01*
X160495862Y-103509926D01*
X160515417Y-103508000D01*
X160916583Y-103508000D01*
X160936138Y-103509926D01*
X160936138Y-103509926D01*
G37*
G36*
X160340432Y-101290188D02*
G01*
X160381469Y-101302636D01*
X160419288Y-101322851D01*
X160452441Y-101350059D01*
X160479649Y-101383212D01*
X160499864Y-101421031D01*
X160512312Y-101462068D01*
X160517000Y-101509667D01*
X160517000Y-102138333D01*
X160512312Y-102185932D01*
X160499864Y-102226969D01*
X160479649Y-102264788D01*
X160452441Y-102297941D01*
X160419288Y-102325149D01*
X160381469Y-102345364D01*
X160340432Y-102357812D01*
X160292833Y-102362500D01*
X159239167Y-102362500D01*
X159191568Y-102357812D01*
X159150531Y-102345364D01*
X159112712Y-102325149D01*
X159079559Y-102297941D01*
X159052351Y-102264788D01*
X159032136Y-102226969D01*
X159019688Y-102185932D01*
X159015000Y-102138333D01*
X159015000Y-101509667D01*
X159019688Y-101462068D01*
X159032136Y-101421031D01*
X159052351Y-101383212D01*
X159079559Y-101350059D01*
X159112712Y-101322851D01*
X159150531Y-101302636D01*
X159191568Y-101290188D01*
X159239167Y-101285500D01*
X160292833Y-101285500D01*
X160340432Y-101290188D01*
X160340432Y-101290188D01*
G37*
G36*
X163374432Y-100666188D02*
G01*
X163415469Y-100678636D01*
X163453288Y-100698851D01*
X163486441Y-100726059D01*
X163513649Y-100759212D01*
X163533864Y-100797031D01*
X163546312Y-100838068D01*
X163551000Y-100885667D01*
X163551000Y-101514333D01*
X163546312Y-101561932D01*
X163533864Y-101602969D01*
X163513649Y-101640788D01*
X163486441Y-101673941D01*
X163453288Y-101701149D01*
X163415469Y-101721364D01*
X163374432Y-101733812D01*
X163326833Y-101738500D01*
X162273167Y-101738500D01*
X162225568Y-101733812D01*
X162184531Y-101721364D01*
X162146712Y-101701149D01*
X162113559Y-101673941D01*
X162086351Y-101640788D01*
X162066136Y-101602969D01*
X162053688Y-101561932D01*
X162049000Y-101514333D01*
X162049000Y-100885667D01*
X162053688Y-100838068D01*
X162066136Y-100797031D01*
X162086351Y-100759212D01*
X162113559Y-100726059D01*
X162146712Y-100698851D01*
X162184531Y-100678636D01*
X162225568Y-100666188D01*
X162273167Y-100661500D01*
X163326833Y-100661500D01*
X163374432Y-100666188D01*
X163374432Y-100666188D01*
G37*
G36*
X173117535Y-99692778D02*
G01*
X173150627Y-99696037D01*
X173255893Y-99727969D01*
X173320467Y-99747557D01*
X173476990Y-99831220D01*
X173614186Y-99943814D01*
X173726780Y-100081010D01*
X173810443Y-100237533D01*
X173827616Y-100294147D01*
X173861963Y-100407373D01*
X173863496Y-100422941D01*
X173879360Y-100584000D01*
X173867257Y-100706877D01*
X173861963Y-100760627D01*
X173837701Y-100840607D01*
X173810443Y-100930467D01*
X173726780Y-101086990D01*
X173614186Y-101224186D01*
X173476990Y-101336780D01*
X173320467Y-101420443D01*
X173263853Y-101437616D01*
X173150627Y-101471963D01*
X173117535Y-101475222D01*
X173018264Y-101485000D01*
X172929736Y-101485000D01*
X172830465Y-101475222D01*
X172797373Y-101471963D01*
X172684147Y-101437616D01*
X172627533Y-101420443D01*
X172471010Y-101336780D01*
X172333814Y-101224186D01*
X172221220Y-101086990D01*
X172137557Y-100930467D01*
X172110299Y-100840607D01*
X172086037Y-100760627D01*
X172080743Y-100706877D01*
X172068640Y-100584000D01*
X172084504Y-100422941D01*
X172086037Y-100407373D01*
X172120384Y-100294147D01*
X172137557Y-100237533D01*
X172221220Y-100081010D01*
X172333814Y-99943814D01*
X172471010Y-99831220D01*
X172627533Y-99747557D01*
X172692107Y-99727969D01*
X172797373Y-99696037D01*
X172830465Y-99692778D01*
X172929736Y-99683000D01*
X173018264Y-99683000D01*
X173117535Y-99692778D01*
X173117535Y-99692778D01*
G37*
G36*
X149139935Y-99692778D02*
G01*
X149173027Y-99696037D01*
X149278293Y-99727969D01*
X149342867Y-99747557D01*
X149499390Y-99831220D01*
X149636586Y-99943814D01*
X149749180Y-100081010D01*
X149832843Y-100237533D01*
X149850016Y-100294147D01*
X149884363Y-100407373D01*
X149885896Y-100422941D01*
X149901760Y-100584000D01*
X149889657Y-100706877D01*
X149884363Y-100760627D01*
X149860101Y-100840607D01*
X149832843Y-100930467D01*
X149749180Y-101086990D01*
X149636586Y-101224186D01*
X149499390Y-101336780D01*
X149342867Y-101420443D01*
X149286253Y-101437616D01*
X149173027Y-101471963D01*
X149139935Y-101475222D01*
X149040664Y-101485000D01*
X148952136Y-101485000D01*
X148852865Y-101475222D01*
X148819773Y-101471963D01*
X148706547Y-101437616D01*
X148649933Y-101420443D01*
X148493410Y-101336780D01*
X148356214Y-101224186D01*
X148243620Y-101086990D01*
X148159957Y-100930467D01*
X148132699Y-100840607D01*
X148108437Y-100760627D01*
X148103143Y-100706877D01*
X148091040Y-100584000D01*
X148106904Y-100422941D01*
X148108437Y-100407373D01*
X148142784Y-100294147D01*
X148159957Y-100237533D01*
X148243620Y-100081010D01*
X148356214Y-99943814D01*
X148493410Y-99831220D01*
X148649933Y-99747557D01*
X148714507Y-99727969D01*
X148819773Y-99696037D01*
X148852865Y-99692778D01*
X148952136Y-99683000D01*
X149040664Y-99683000D01*
X149139935Y-99692778D01*
X149139935Y-99692778D01*
G37*
G36*
X157610476Y-99539261D02*
G01*
X157713645Y-99559782D01*
X157796856Y-99594250D01*
X157859416Y-99620163D01*
X157881123Y-99634667D01*
X157990607Y-99707821D01*
X158102179Y-99819393D01*
X158131650Y-99863500D01*
X158189837Y-99950584D01*
X158214847Y-100010964D01*
X158250218Y-100096355D01*
X158281000Y-100251109D01*
X158281000Y-100408891D01*
X158250218Y-100563645D01*
X158214847Y-100649036D01*
X158189837Y-100709416D01*
X158102178Y-100840608D01*
X157990608Y-100952178D01*
X157859416Y-101039837D01*
X157799036Y-101064847D01*
X157713645Y-101100218D01*
X157610476Y-101120739D01*
X157558892Y-101131000D01*
X157401108Y-101131000D01*
X157349524Y-101120739D01*
X157246355Y-101100218D01*
X157160964Y-101064847D01*
X157100584Y-101039837D01*
X156969392Y-100952178D01*
X156857822Y-100840608D01*
X156770163Y-100709416D01*
X156745153Y-100649036D01*
X156709782Y-100563645D01*
X156679000Y-100408891D01*
X156679000Y-100251109D01*
X156709782Y-100096355D01*
X156745153Y-100010964D01*
X156770163Y-99950584D01*
X156828350Y-99863500D01*
X156857821Y-99819393D01*
X156969393Y-99707821D01*
X157078877Y-99634667D01*
X157100584Y-99620163D01*
X157163144Y-99594250D01*
X157246355Y-99559782D01*
X157349524Y-99539261D01*
X157401108Y-99529000D01*
X157558892Y-99529000D01*
X157610476Y-99539261D01*
X157610476Y-99539261D01*
G37*
G36*
X160340432Y-99415188D02*
G01*
X160381469Y-99427636D01*
X160419288Y-99447851D01*
X160452441Y-99475059D01*
X160479649Y-99508212D01*
X160499864Y-99546031D01*
X160512312Y-99587068D01*
X160517000Y-99634667D01*
X160517000Y-100263333D01*
X160512312Y-100310932D01*
X160499864Y-100351969D01*
X160479649Y-100389788D01*
X160452441Y-100422941D01*
X160419288Y-100450149D01*
X160381469Y-100470364D01*
X160340432Y-100482812D01*
X160292833Y-100487500D01*
X159239167Y-100487500D01*
X159191568Y-100482812D01*
X159150531Y-100470364D01*
X159112712Y-100450149D01*
X159079559Y-100422941D01*
X159052351Y-100389788D01*
X159032136Y-100351969D01*
X159019688Y-100310932D01*
X159015000Y-100263333D01*
X159015000Y-99634667D01*
X159019688Y-99587068D01*
X159032136Y-99546031D01*
X159052351Y-99508212D01*
X159079559Y-99475059D01*
X159112712Y-99447851D01*
X159150531Y-99427636D01*
X159191568Y-99415188D01*
X159239167Y-99410500D01*
X160292833Y-99410500D01*
X160340432Y-99415188D01*
X160340432Y-99415188D01*
G37*
G36*
X163374432Y-98791188D02*
G01*
X163415469Y-98803636D01*
X163453288Y-98823851D01*
X163486441Y-98851059D01*
X163513649Y-98884212D01*
X163533864Y-98922031D01*
X163546312Y-98963068D01*
X163551000Y-99010667D01*
X163551000Y-99639333D01*
X163546312Y-99686932D01*
X163533864Y-99727969D01*
X163513649Y-99765788D01*
X163486441Y-99798941D01*
X163453288Y-99826149D01*
X163415469Y-99846364D01*
X163374432Y-99858812D01*
X163326833Y-99863500D01*
X162273167Y-99863500D01*
X162225568Y-99858812D01*
X162184531Y-99846364D01*
X162146712Y-99826149D01*
X162113559Y-99798941D01*
X162086351Y-99765788D01*
X162066136Y-99727969D01*
X162053688Y-99686932D01*
X162049000Y-99639333D01*
X162049000Y-99010667D01*
X162053688Y-98963068D01*
X162066136Y-98922031D01*
X162086351Y-98884212D01*
X162113559Y-98851059D01*
X162146712Y-98823851D01*
X162184531Y-98803636D01*
X162225568Y-98791188D01*
X162273167Y-98786500D01*
X163326833Y-98786500D01*
X163374432Y-98791188D01*
X163374432Y-98791188D01*
G37*
G36*
X173117535Y-97152778D02*
G01*
X173150627Y-97156037D01*
X173263853Y-97190384D01*
X173320467Y-97207557D01*
X173476990Y-97291220D01*
X173614186Y-97403814D01*
X173726780Y-97541010D01*
X173810443Y-97697533D01*
X173810443Y-97697534D01*
X173861963Y-97867373D01*
X173861963Y-97867375D01*
X173879360Y-98044000D01*
X173864826Y-98191559D01*
X173861963Y-98220627D01*
X173827616Y-98333853D01*
X173810443Y-98390467D01*
X173726780Y-98546990D01*
X173614186Y-98684186D01*
X173476990Y-98796780D01*
X173320467Y-98880443D01*
X173263853Y-98897616D01*
X173150627Y-98931963D01*
X173117535Y-98935222D01*
X173018264Y-98945000D01*
X172929736Y-98945000D01*
X172830465Y-98935222D01*
X172797373Y-98931963D01*
X172684147Y-98897616D01*
X172627533Y-98880443D01*
X172471010Y-98796780D01*
X172333814Y-98684186D01*
X172221220Y-98546990D01*
X172137557Y-98390467D01*
X172120384Y-98333853D01*
X172086037Y-98220627D01*
X172083174Y-98191559D01*
X172068640Y-98044000D01*
X172086037Y-97867375D01*
X172086037Y-97867373D01*
X172137557Y-97697534D01*
X172137557Y-97697533D01*
X172221220Y-97541010D01*
X172333814Y-97403814D01*
X172471010Y-97291220D01*
X172627533Y-97207557D01*
X172684147Y-97190384D01*
X172797373Y-97156037D01*
X172830465Y-97152778D01*
X172929736Y-97143000D01*
X173018264Y-97143000D01*
X173117535Y-97152778D01*
X173117535Y-97152778D01*
G37*
G36*
X149139935Y-97152778D02*
G01*
X149173027Y-97156037D01*
X149286253Y-97190384D01*
X149342867Y-97207557D01*
X149499390Y-97291220D01*
X149636586Y-97403814D01*
X149749180Y-97541010D01*
X149832843Y-97697533D01*
X149832843Y-97697534D01*
X149884363Y-97867373D01*
X149884363Y-97867375D01*
X149901760Y-98044000D01*
X149887226Y-98191559D01*
X149884363Y-98220627D01*
X149850016Y-98333853D01*
X149832843Y-98390467D01*
X149749180Y-98546990D01*
X149636586Y-98684186D01*
X149499390Y-98796780D01*
X149342867Y-98880443D01*
X149286253Y-98897616D01*
X149173027Y-98931963D01*
X149139935Y-98935222D01*
X149040664Y-98945000D01*
X148952136Y-98945000D01*
X148852865Y-98935222D01*
X148819773Y-98931963D01*
X148706547Y-98897616D01*
X148649933Y-98880443D01*
X148493410Y-98796780D01*
X148356214Y-98684186D01*
X148243620Y-98546990D01*
X148159957Y-98390467D01*
X148142784Y-98333853D01*
X148108437Y-98220627D01*
X148105574Y-98191559D01*
X148091040Y-98044000D01*
X148108437Y-97867375D01*
X148108437Y-97867373D01*
X148159957Y-97697534D01*
X148159957Y-97697533D01*
X148243620Y-97541010D01*
X148356214Y-97403814D01*
X148493410Y-97291220D01*
X148649933Y-97207557D01*
X148706547Y-97190384D01*
X148819773Y-97156037D01*
X148852865Y-97152778D01*
X148952136Y-97143000D01*
X149040664Y-97143000D01*
X149139935Y-97152778D01*
X149139935Y-97152778D01*
G37*
G36*
X149139935Y-94612778D02*
G01*
X149173027Y-94616037D01*
X149286253Y-94650384D01*
X149342867Y-94667557D01*
X149499390Y-94751220D01*
X149636586Y-94863814D01*
X149749180Y-95001010D01*
X149832843Y-95157533D01*
X149832843Y-95157534D01*
X149884363Y-95327373D01*
X149884363Y-95327375D01*
X149901760Y-95504000D01*
X149887226Y-95651559D01*
X149884363Y-95680627D01*
X149850016Y-95793853D01*
X149832843Y-95850467D01*
X149749180Y-96006990D01*
X149636586Y-96144186D01*
X149499390Y-96256780D01*
X149342867Y-96340443D01*
X149286253Y-96357616D01*
X149173027Y-96391963D01*
X149139935Y-96395222D01*
X149040664Y-96405000D01*
X148952136Y-96405000D01*
X148852865Y-96395222D01*
X148819773Y-96391963D01*
X148706547Y-96357616D01*
X148649933Y-96340443D01*
X148493410Y-96256780D01*
X148356214Y-96144186D01*
X148243620Y-96006990D01*
X148159957Y-95850467D01*
X148142784Y-95793853D01*
X148108437Y-95680627D01*
X148105574Y-95651559D01*
X148091040Y-95504000D01*
X148108437Y-95327375D01*
X148108437Y-95327373D01*
X148159957Y-95157534D01*
X148159957Y-95157533D01*
X148243620Y-95001010D01*
X148356214Y-94863814D01*
X148493410Y-94751220D01*
X148649933Y-94667557D01*
X148706547Y-94650384D01*
X148819773Y-94616037D01*
X148852865Y-94612778D01*
X148952136Y-94603000D01*
X149040664Y-94603000D01*
X149139935Y-94612778D01*
X149139935Y-94612778D01*
G37*
G36*
X173117535Y-94612778D02*
G01*
X173150627Y-94616037D01*
X173263853Y-94650384D01*
X173320467Y-94667557D01*
X173476990Y-94751220D01*
X173614186Y-94863814D01*
X173726780Y-95001010D01*
X173810443Y-95157533D01*
X173810443Y-95157534D01*
X173861963Y-95327373D01*
X173861963Y-95327375D01*
X173879360Y-95504000D01*
X173864826Y-95651559D01*
X173861963Y-95680627D01*
X173827616Y-95793853D01*
X173810443Y-95850467D01*
X173726780Y-96006990D01*
X173614186Y-96144186D01*
X173476990Y-96256780D01*
X173320467Y-96340443D01*
X173263853Y-96357616D01*
X173150627Y-96391963D01*
X173117535Y-96395222D01*
X173018264Y-96405000D01*
X172929736Y-96405000D01*
X172830465Y-96395222D01*
X172797373Y-96391963D01*
X172684147Y-96357616D01*
X172627533Y-96340443D01*
X172471010Y-96256780D01*
X172333814Y-96144186D01*
X172221220Y-96006990D01*
X172137557Y-95850467D01*
X172120384Y-95793853D01*
X172086037Y-95680627D01*
X172083174Y-95651559D01*
X172068640Y-95504000D01*
X172086037Y-95327375D01*
X172086037Y-95327373D01*
X172137557Y-95157534D01*
X172137557Y-95157533D01*
X172221220Y-95001010D01*
X172333814Y-94863814D01*
X172471010Y-94751220D01*
X172627533Y-94667557D01*
X172684147Y-94650384D01*
X172797373Y-94616037D01*
X172830465Y-94612778D01*
X172929736Y-94603000D01*
X173018264Y-94603000D01*
X173117535Y-94612778D01*
X173117535Y-94612778D01*
G37*
G36*
X149139935Y-92072778D02*
G01*
X149173027Y-92076037D01*
X149286253Y-92110384D01*
X149342867Y-92127557D01*
X149499390Y-92211220D01*
X149636586Y-92323814D01*
X149749180Y-92461010D01*
X149832843Y-92617533D01*
X149832843Y-92617534D01*
X149884363Y-92787373D01*
X149884363Y-92787375D01*
X149901760Y-92964000D01*
X149887226Y-93111559D01*
X149884363Y-93140627D01*
X149850016Y-93253853D01*
X149832843Y-93310467D01*
X149749180Y-93466990D01*
X149636586Y-93604186D01*
X149499390Y-93716780D01*
X149342867Y-93800443D01*
X149286253Y-93817616D01*
X149173027Y-93851963D01*
X149139935Y-93855222D01*
X149040664Y-93865000D01*
X148952136Y-93865000D01*
X148852865Y-93855222D01*
X148819773Y-93851963D01*
X148706547Y-93817616D01*
X148649933Y-93800443D01*
X148493410Y-93716780D01*
X148356214Y-93604186D01*
X148243620Y-93466990D01*
X148159957Y-93310467D01*
X148142784Y-93253853D01*
X148108437Y-93140627D01*
X148105574Y-93111559D01*
X148091040Y-92964000D01*
X148108437Y-92787375D01*
X148108437Y-92787373D01*
X148159957Y-92617534D01*
X148159957Y-92617533D01*
X148243620Y-92461010D01*
X148356214Y-92323814D01*
X148493410Y-92211220D01*
X148649933Y-92127557D01*
X148706547Y-92110384D01*
X148819773Y-92076037D01*
X148852865Y-92072778D01*
X148952136Y-92063000D01*
X149040664Y-92063000D01*
X149139935Y-92072778D01*
X149139935Y-92072778D01*
G37*
G36*
X173117535Y-92072778D02*
G01*
X173150627Y-92076037D01*
X173263853Y-92110384D01*
X173320467Y-92127557D01*
X173476990Y-92211220D01*
X173614186Y-92323814D01*
X173726780Y-92461010D01*
X173810443Y-92617533D01*
X173810443Y-92617534D01*
X173861963Y-92787373D01*
X173861963Y-92787375D01*
X173879360Y-92964000D01*
X173864826Y-93111559D01*
X173861963Y-93140627D01*
X173827616Y-93253853D01*
X173810443Y-93310467D01*
X173726780Y-93466990D01*
X173614186Y-93604186D01*
X173476990Y-93716780D01*
X173320467Y-93800443D01*
X173263853Y-93817616D01*
X173150627Y-93851963D01*
X173117535Y-93855222D01*
X173018264Y-93865000D01*
X172929736Y-93865000D01*
X172830465Y-93855222D01*
X172797373Y-93851963D01*
X172684147Y-93817616D01*
X172627533Y-93800443D01*
X172471010Y-93716780D01*
X172333814Y-93604186D01*
X172221220Y-93466990D01*
X172137557Y-93310467D01*
X172120384Y-93253853D01*
X172086037Y-93140627D01*
X172083174Y-93111559D01*
X172068640Y-92964000D01*
X172086037Y-92787375D01*
X172086037Y-92787373D01*
X172137557Y-92617534D01*
X172137557Y-92617533D01*
X172221220Y-92461010D01*
X172333814Y-92323814D01*
X172471010Y-92211220D01*
X172627533Y-92127557D01*
X172684147Y-92110384D01*
X172797373Y-92076037D01*
X172830465Y-92072778D01*
X172929736Y-92063000D01*
X173018264Y-92063000D01*
X173117535Y-92072778D01*
X173117535Y-92072778D01*
G37*
G36*
X173117535Y-89532778D02*
G01*
X173150627Y-89536037D01*
X173263853Y-89570384D01*
X173320467Y-89587557D01*
X173476990Y-89671220D01*
X173614186Y-89783814D01*
X173726780Y-89921010D01*
X173810443Y-90077533D01*
X173810443Y-90077534D01*
X173861963Y-90247373D01*
X173861963Y-90247375D01*
X173879360Y-90424000D01*
X173864826Y-90571559D01*
X173861963Y-90600627D01*
X173827616Y-90713853D01*
X173810443Y-90770467D01*
X173726780Y-90926990D01*
X173614186Y-91064186D01*
X173476990Y-91176780D01*
X173320467Y-91260443D01*
X173263853Y-91277616D01*
X173150627Y-91311963D01*
X173117535Y-91315222D01*
X173018264Y-91325000D01*
X172929736Y-91325000D01*
X172830465Y-91315222D01*
X172797373Y-91311963D01*
X172684147Y-91277616D01*
X172627533Y-91260443D01*
X172471010Y-91176780D01*
X172333814Y-91064186D01*
X172221220Y-90926990D01*
X172137557Y-90770467D01*
X172120384Y-90713853D01*
X172086037Y-90600627D01*
X172083174Y-90571559D01*
X172068640Y-90424000D01*
X172086037Y-90247375D01*
X172086037Y-90247373D01*
X172137557Y-90077534D01*
X172137557Y-90077533D01*
X172221220Y-89921010D01*
X172333814Y-89783814D01*
X172471010Y-89671220D01*
X172627533Y-89587557D01*
X172684147Y-89570384D01*
X172797373Y-89536037D01*
X172830465Y-89532778D01*
X172929736Y-89523000D01*
X173018264Y-89523000D01*
X173117535Y-89532778D01*
X173117535Y-89532778D01*
G37*
G36*
X149139935Y-89532778D02*
G01*
X149173027Y-89536037D01*
X149286253Y-89570384D01*
X149342867Y-89587557D01*
X149499390Y-89671220D01*
X149636586Y-89783814D01*
X149749180Y-89921010D01*
X149832843Y-90077533D01*
X149832843Y-90077534D01*
X149884363Y-90247373D01*
X149884363Y-90247375D01*
X149901760Y-90424000D01*
X149887226Y-90571559D01*
X149884363Y-90600627D01*
X149850016Y-90713853D01*
X149832843Y-90770467D01*
X149749180Y-90926990D01*
X149636586Y-91064186D01*
X149499390Y-91176780D01*
X149342867Y-91260443D01*
X149286253Y-91277616D01*
X149173027Y-91311963D01*
X149139935Y-91315222D01*
X149040664Y-91325000D01*
X148952136Y-91325000D01*
X148852865Y-91315222D01*
X148819773Y-91311963D01*
X148706547Y-91277616D01*
X148649933Y-91260443D01*
X148493410Y-91176780D01*
X148356214Y-91064186D01*
X148243620Y-90926990D01*
X148159957Y-90770467D01*
X148142784Y-90713853D01*
X148108437Y-90600627D01*
X148105574Y-90571559D01*
X148091040Y-90424000D01*
X148108437Y-90247375D01*
X148108437Y-90247373D01*
X148159957Y-90077534D01*
X148159957Y-90077533D01*
X148243620Y-89921010D01*
X148356214Y-89783814D01*
X148493410Y-89671220D01*
X148649933Y-89587557D01*
X148706547Y-89570384D01*
X148819773Y-89536037D01*
X148852865Y-89532778D01*
X148952136Y-89523000D01*
X149040664Y-89523000D01*
X149139935Y-89532778D01*
X149139935Y-89532778D01*
G37*
G36*
X173117535Y-86992778D02*
G01*
X173150627Y-86996037D01*
X173263853Y-87030384D01*
X173320467Y-87047557D01*
X173476990Y-87131220D01*
X173614186Y-87243814D01*
X173726780Y-87381010D01*
X173810443Y-87537533D01*
X173810443Y-87537534D01*
X173861963Y-87707373D01*
X173861963Y-87707375D01*
X173879360Y-87884000D01*
X173864826Y-88031559D01*
X173861963Y-88060627D01*
X173827616Y-88173853D01*
X173810443Y-88230467D01*
X173726780Y-88386990D01*
X173614186Y-88524186D01*
X173476990Y-88636780D01*
X173320467Y-88720443D01*
X173263853Y-88737616D01*
X173150627Y-88771963D01*
X173117535Y-88775222D01*
X173018264Y-88785000D01*
X172929736Y-88785000D01*
X172830465Y-88775222D01*
X172797373Y-88771963D01*
X172684147Y-88737616D01*
X172627533Y-88720443D01*
X172471010Y-88636780D01*
X172333814Y-88524186D01*
X172221220Y-88386990D01*
X172137557Y-88230467D01*
X172120384Y-88173853D01*
X172086037Y-88060627D01*
X172083174Y-88031559D01*
X172068640Y-87884000D01*
X172086037Y-87707375D01*
X172086037Y-87707373D01*
X172137557Y-87537534D01*
X172137557Y-87537533D01*
X172221220Y-87381010D01*
X172333814Y-87243814D01*
X172471010Y-87131220D01*
X172627533Y-87047557D01*
X172684147Y-87030384D01*
X172797373Y-86996037D01*
X172830465Y-86992778D01*
X172929736Y-86983000D01*
X173018264Y-86983000D01*
X173117535Y-86992778D01*
X173117535Y-86992778D01*
G37*
G36*
X149139935Y-86992778D02*
G01*
X149173027Y-86996037D01*
X149286253Y-87030384D01*
X149342867Y-87047557D01*
X149499390Y-87131220D01*
X149636586Y-87243814D01*
X149749180Y-87381010D01*
X149832843Y-87537533D01*
X149832843Y-87537534D01*
X149884363Y-87707373D01*
X149884363Y-87707375D01*
X149901760Y-87884000D01*
X149887226Y-88031559D01*
X149884363Y-88060627D01*
X149850016Y-88173853D01*
X149832843Y-88230467D01*
X149749180Y-88386990D01*
X149636586Y-88524186D01*
X149499390Y-88636780D01*
X149342867Y-88720443D01*
X149286253Y-88737616D01*
X149173027Y-88771963D01*
X149139935Y-88775222D01*
X149040664Y-88785000D01*
X148952136Y-88785000D01*
X148852865Y-88775222D01*
X148819773Y-88771963D01*
X148706547Y-88737616D01*
X148649933Y-88720443D01*
X148493410Y-88636780D01*
X148356214Y-88524186D01*
X148243620Y-88386990D01*
X148159957Y-88230467D01*
X148142784Y-88173853D01*
X148108437Y-88060627D01*
X148105574Y-88031559D01*
X148091040Y-87884000D01*
X148108437Y-87707375D01*
X148108437Y-87707373D01*
X148159957Y-87537534D01*
X148159957Y-87537533D01*
X148243620Y-87381010D01*
X148356214Y-87243814D01*
X148493410Y-87131220D01*
X148649933Y-87047557D01*
X148706547Y-87030384D01*
X148819773Y-86996037D01*
X148852865Y-86992778D01*
X148952136Y-86983000D01*
X149040664Y-86983000D01*
X149139935Y-86992778D01*
X149139935Y-86992778D01*
G37*
G36*
X167960432Y-87604188D02*
G01*
X168001469Y-87616636D01*
X168039288Y-87636851D01*
X168072441Y-87664059D01*
X168099649Y-87697212D01*
X168119864Y-87735031D01*
X168132312Y-87776068D01*
X168137000Y-87823667D01*
X168137000Y-88452333D01*
X168132312Y-88499932D01*
X168119864Y-88540969D01*
X168099649Y-88578788D01*
X168072441Y-88611941D01*
X168039288Y-88639149D01*
X168001469Y-88659364D01*
X167960432Y-88671812D01*
X167912833Y-88676500D01*
X166859167Y-88676500D01*
X166811568Y-88671812D01*
X166770531Y-88659364D01*
X166732712Y-88639149D01*
X166699559Y-88611941D01*
X166672351Y-88578788D01*
X166652136Y-88540969D01*
X166639688Y-88499932D01*
X166635000Y-88452333D01*
X166635000Y-87823667D01*
X166639688Y-87776068D01*
X166652136Y-87735031D01*
X166672351Y-87697212D01*
X166699559Y-87664059D01*
X166732712Y-87636851D01*
X166770531Y-87616636D01*
X166811568Y-87604188D01*
X166859167Y-87599500D01*
X167912833Y-87599500D01*
X167960432Y-87604188D01*
X167960432Y-87604188D01*
G37*
G36*
X167960432Y-85729188D02*
G01*
X168001469Y-85741636D01*
X168039288Y-85761851D01*
X168072441Y-85789059D01*
X168099649Y-85822212D01*
X168119864Y-85860031D01*
X168132312Y-85901068D01*
X168137000Y-85948667D01*
X168137000Y-86577333D01*
X168132312Y-86624932D01*
X168119864Y-86665969D01*
X168099649Y-86703788D01*
X168072441Y-86736941D01*
X168039288Y-86764149D01*
X168001469Y-86784364D01*
X167960432Y-86796812D01*
X167912833Y-86801500D01*
X166859167Y-86801500D01*
X166811568Y-86796812D01*
X166770531Y-86784364D01*
X166732712Y-86764149D01*
X166699559Y-86736941D01*
X166672351Y-86703788D01*
X166652136Y-86665969D01*
X166639688Y-86624932D01*
X166635000Y-86577333D01*
X166635000Y-85948667D01*
X166639688Y-85901068D01*
X166652136Y-85860031D01*
X166672351Y-85822212D01*
X166699559Y-85789059D01*
X166732712Y-85761851D01*
X166770531Y-85741636D01*
X166811568Y-85729188D01*
X166859167Y-85724500D01*
X167912833Y-85724500D01*
X167960432Y-85729188D01*
X167960432Y-85729188D01*
G37*
G36*
X149139935Y-84452778D02*
G01*
X149173027Y-84456037D01*
X149286253Y-84490384D01*
X149342867Y-84507557D01*
X149499390Y-84591220D01*
X149636586Y-84703814D01*
X149749180Y-84841010D01*
X149832843Y-84997533D01*
X149832843Y-84997534D01*
X149884363Y-85167373D01*
X149884363Y-85167375D01*
X149901760Y-85344000D01*
X149887226Y-85491559D01*
X149884363Y-85520627D01*
X149850016Y-85633853D01*
X149832843Y-85690467D01*
X149749180Y-85846990D01*
X149636586Y-85984186D01*
X149499390Y-86096780D01*
X149342867Y-86180443D01*
X149286253Y-86197616D01*
X149173027Y-86231963D01*
X149139935Y-86235222D01*
X149040664Y-86245000D01*
X148952136Y-86245000D01*
X148852865Y-86235222D01*
X148819773Y-86231963D01*
X148706547Y-86197616D01*
X148649933Y-86180443D01*
X148493410Y-86096780D01*
X148356214Y-85984186D01*
X148243620Y-85846990D01*
X148159957Y-85690467D01*
X148142784Y-85633853D01*
X148108437Y-85520627D01*
X148105574Y-85491559D01*
X148091040Y-85344000D01*
X148108437Y-85167375D01*
X148108437Y-85167373D01*
X148159957Y-84997534D01*
X148159957Y-84997533D01*
X148243620Y-84841010D01*
X148356214Y-84703814D01*
X148493410Y-84591220D01*
X148649933Y-84507557D01*
X148706547Y-84490384D01*
X148819773Y-84456037D01*
X148852865Y-84452778D01*
X148952136Y-84443000D01*
X149040664Y-84443000D01*
X149139935Y-84452778D01*
X149139935Y-84452778D01*
G37*
G36*
X173117535Y-84452778D02*
G01*
X173150627Y-84456037D01*
X173263853Y-84490384D01*
X173320467Y-84507557D01*
X173476990Y-84591220D01*
X173614186Y-84703814D01*
X173726780Y-84841010D01*
X173810443Y-84997533D01*
X173810443Y-84997534D01*
X173861963Y-85167373D01*
X173861963Y-85167375D01*
X173879360Y-85344000D01*
X173864826Y-85491559D01*
X173861963Y-85520627D01*
X173827616Y-85633853D01*
X173810443Y-85690467D01*
X173726780Y-85846990D01*
X173614186Y-85984186D01*
X173476990Y-86096780D01*
X173320467Y-86180443D01*
X173263853Y-86197616D01*
X173150627Y-86231963D01*
X173117535Y-86235222D01*
X173018264Y-86245000D01*
X172929736Y-86245000D01*
X172830465Y-86235222D01*
X172797373Y-86231963D01*
X172684147Y-86197616D01*
X172627533Y-86180443D01*
X172471010Y-86096780D01*
X172333814Y-85984186D01*
X172221220Y-85846990D01*
X172137557Y-85690467D01*
X172120384Y-85633853D01*
X172086037Y-85520627D01*
X172083174Y-85491559D01*
X172068640Y-85344000D01*
X172086037Y-85167375D01*
X172086037Y-85167373D01*
X172137557Y-84997534D01*
X172137557Y-84997533D01*
X172221220Y-84841010D01*
X172333814Y-84703814D01*
X172471010Y-84591220D01*
X172627533Y-84507557D01*
X172684147Y-84490384D01*
X172797373Y-84456037D01*
X172830465Y-84452778D01*
X172929736Y-84443000D01*
X173018264Y-84443000D01*
X173117535Y-84452778D01*
X173117535Y-84452778D01*
G37*
G36*
X149139935Y-81912778D02*
G01*
X149173027Y-81916037D01*
X149286253Y-81950384D01*
X149342867Y-81967557D01*
X149499390Y-82051220D01*
X149636586Y-82163814D01*
X149749180Y-82301010D01*
X149832843Y-82457533D01*
X149832843Y-82457534D01*
X149884363Y-82627373D01*
X149884363Y-82627375D01*
X149901760Y-82804000D01*
X149887226Y-82951559D01*
X149884363Y-82980627D01*
X149850016Y-83093853D01*
X149832843Y-83150467D01*
X149749180Y-83306990D01*
X149636586Y-83444186D01*
X149499390Y-83556780D01*
X149342867Y-83640443D01*
X149286253Y-83657616D01*
X149173027Y-83691963D01*
X149139935Y-83695222D01*
X149040664Y-83705000D01*
X148952136Y-83705000D01*
X148852865Y-83695222D01*
X148819773Y-83691963D01*
X148706547Y-83657616D01*
X148649933Y-83640443D01*
X148493410Y-83556780D01*
X148356214Y-83444186D01*
X148243620Y-83306990D01*
X148159957Y-83150467D01*
X148142784Y-83093853D01*
X148108437Y-82980627D01*
X148105574Y-82951559D01*
X148091040Y-82804000D01*
X148108437Y-82627375D01*
X148108437Y-82627373D01*
X148159957Y-82457534D01*
X148159957Y-82457533D01*
X148243620Y-82301010D01*
X148356214Y-82163814D01*
X148493410Y-82051220D01*
X148649933Y-81967557D01*
X148706547Y-81950384D01*
X148819773Y-81916037D01*
X148852865Y-81912778D01*
X148952136Y-81903000D01*
X149040664Y-81903000D01*
X149139935Y-81912778D01*
X149139935Y-81912778D01*
G37*
G36*
X173117535Y-81912778D02*
G01*
X173150627Y-81916037D01*
X173263853Y-81950384D01*
X173320467Y-81967557D01*
X173476990Y-82051220D01*
X173614186Y-82163814D01*
X173726780Y-82301010D01*
X173810443Y-82457533D01*
X173810443Y-82457534D01*
X173861963Y-82627373D01*
X173861963Y-82627375D01*
X173879360Y-82804000D01*
X173864826Y-82951559D01*
X173861963Y-82980627D01*
X173827616Y-83093853D01*
X173810443Y-83150467D01*
X173726780Y-83306990D01*
X173614186Y-83444186D01*
X173476990Y-83556780D01*
X173320467Y-83640443D01*
X173263853Y-83657616D01*
X173150627Y-83691963D01*
X173117535Y-83695222D01*
X173018264Y-83705000D01*
X172929736Y-83705000D01*
X172830465Y-83695222D01*
X172797373Y-83691963D01*
X172684147Y-83657616D01*
X172627533Y-83640443D01*
X172471010Y-83556780D01*
X172333814Y-83444186D01*
X172221220Y-83306990D01*
X172137557Y-83150467D01*
X172120384Y-83093853D01*
X172086037Y-82980627D01*
X172083174Y-82951559D01*
X172068640Y-82804000D01*
X172086037Y-82627375D01*
X172086037Y-82627373D01*
X172137557Y-82457534D01*
X172137557Y-82457533D01*
X172221220Y-82301010D01*
X172333814Y-82163814D01*
X172471010Y-82051220D01*
X172627533Y-81967557D01*
X172684147Y-81950384D01*
X172797373Y-81916037D01*
X172830465Y-81912778D01*
X172929736Y-81903000D01*
X173018264Y-81903000D01*
X173117535Y-81912778D01*
X173117535Y-81912778D01*
G37*
G36*
X149139935Y-79372778D02*
G01*
X149173027Y-79376037D01*
X149286253Y-79410384D01*
X149342867Y-79427557D01*
X149499390Y-79511220D01*
X149636586Y-79623814D01*
X149749180Y-79761010D01*
X149832843Y-79917533D01*
X149832843Y-79917534D01*
X149884363Y-80087373D01*
X149884363Y-80087375D01*
X149901760Y-80264000D01*
X149887226Y-80411559D01*
X149884363Y-80440627D01*
X149850016Y-80553853D01*
X149832843Y-80610467D01*
X149749180Y-80766990D01*
X149636586Y-80904186D01*
X149499390Y-81016780D01*
X149342867Y-81100443D01*
X149286253Y-81117616D01*
X149173027Y-81151963D01*
X149139935Y-81155222D01*
X149040664Y-81165000D01*
X148952136Y-81165000D01*
X148852865Y-81155222D01*
X148819773Y-81151963D01*
X148706547Y-81117616D01*
X148649933Y-81100443D01*
X148493410Y-81016780D01*
X148356214Y-80904186D01*
X148243620Y-80766990D01*
X148159957Y-80610467D01*
X148142784Y-80553853D01*
X148108437Y-80440627D01*
X148105574Y-80411559D01*
X148091040Y-80264000D01*
X148108437Y-80087375D01*
X148108437Y-80087373D01*
X148159957Y-79917534D01*
X148159957Y-79917533D01*
X148243620Y-79761010D01*
X148356214Y-79623814D01*
X148493410Y-79511220D01*
X148649933Y-79427557D01*
X148706547Y-79410384D01*
X148819773Y-79376037D01*
X148852865Y-79372778D01*
X148952136Y-79363000D01*
X149040664Y-79363000D01*
X149139935Y-79372778D01*
X149139935Y-79372778D01*
G37*
G36*
X173875000Y-81165000D02*
G01*
X172073000Y-81165000D01*
X172073000Y-79363000D01*
X173875000Y-79363000D01*
X173875000Y-81165000D01*
X173875000Y-81165000D01*
G37*
M02*
