G04 #@! TF.GenerationSoftware,KiCad,Pcbnew,5.1.1-8be2ce7~80~ubuntu18.10.1*
G04 #@! TF.CreationDate,2019-05-27T00:45:37+08:00*
G04 #@! TF.ProjectId,tas2562_dev_pcb,74617332-3536-4325-9f64-65765f706362,rev?*
G04 #@! TF.SameCoordinates,Original*
G04 #@! TF.FileFunction,Other,User*
%FSLAX46Y46*%
G04 Gerber Fmt 4.6, Leading zero omitted, Abs format (unit mm)*
G04 Created by KiCad (PCBNEW 5.1.1-8be2ce7~80~ubuntu18.10.1) date 2019-05-27 00:45:37*
%MOMM*%
%LPD*%
G04 APERTURE LIST*
%ADD10C,0.050000*%
G04 APERTURE END LIST*
D10*
X168336000Y-88880500D02*
X168336000Y-85520500D01*
X166436000Y-88880500D02*
X168336000Y-88880500D01*
X166436000Y-85520500D02*
X166436000Y-88880500D01*
X168336000Y-85520500D02*
X166436000Y-85520500D01*
X163950000Y-113942500D02*
X163950000Y-110582500D01*
X162050000Y-113942500D02*
X163950000Y-113942500D01*
X162050000Y-110582500D02*
X162050000Y-113942500D01*
X163950000Y-110582500D02*
X162050000Y-110582500D01*
X174950000Y-110657500D02*
X173050000Y-110657500D01*
X173050000Y-110657500D02*
X173050000Y-114017500D01*
X173050000Y-114017500D02*
X174950000Y-114017500D01*
X174950000Y-114017500D02*
X174950000Y-110657500D01*
X163750000Y-98582500D02*
X161850000Y-98582500D01*
X161850000Y-98582500D02*
X161850000Y-101942500D01*
X161850000Y-101942500D02*
X163750000Y-101942500D01*
X163750000Y-101942500D02*
X163750000Y-98582500D01*
X160716000Y-99206500D02*
X158816000Y-99206500D01*
X158816000Y-99206500D02*
X158816000Y-102566500D01*
X158816000Y-102566500D02*
X160716000Y-102566500D01*
X160716000Y-102566500D02*
X160716000Y-99206500D01*
X158730000Y-100330000D02*
G75*
G03X158730000Y-100330000I-1250000J0D01*
G01*
X156880000Y-114150000D02*
X156880000Y-112250000D01*
X156880000Y-112250000D02*
X153520000Y-112250000D01*
X153520000Y-112250000D02*
X153520000Y-114150000D01*
X153520000Y-114150000D02*
X156880000Y-114150000D01*
X160336000Y-103409000D02*
X160336000Y-104109000D01*
X160336000Y-104109000D02*
X161736000Y-104109000D01*
X161736000Y-104109000D02*
X161736000Y-103409000D01*
X161736000Y-103409000D02*
X160336000Y-103409000D01*
M02*
