G04 #@! TF.GenerationSoftware,KiCad,Pcbnew,5.1.1-8be2ce7~80~ubuntu18.10.1*
G04 #@! TF.CreationDate,2019-05-25T12:59:07+08:00*
G04 #@! TF.ProjectId,tas2562_dev_pcb,74617332-3536-4325-9f64-65765f706362,rev?*
G04 #@! TF.SameCoordinates,Original*
G04 #@! TF.FileFunction,Soldermask,Bot*
G04 #@! TF.FilePolarity,Negative*
%FSLAX46Y46*%
G04 Gerber Fmt 4.6, Leading zero omitted, Abs format (unit mm)*
G04 Created by KiCad (PCBNEW 5.1.1-8be2ce7~80~ubuntu18.10.1) date 2019-05-25 12:59:07*
%MOMM*%
%LPD*%
G04 APERTURE LIST*
%ADD10C,0.100000*%
G04 APERTURE END LIST*
D10*
G36*
X153661135Y-91818778D02*
G01*
X153694227Y-91822037D01*
X153807453Y-91856384D01*
X153864067Y-91873557D01*
X154020590Y-91957220D01*
X154157786Y-92069814D01*
X154270380Y-92207010D01*
X154354043Y-92363533D01*
X154354043Y-92363534D01*
X154405563Y-92533373D01*
X154405563Y-92533375D01*
X154422960Y-92710000D01*
X154408426Y-92857559D01*
X154405563Y-92886627D01*
X154371216Y-92999853D01*
X154354043Y-93056467D01*
X154270380Y-93212990D01*
X154157786Y-93350186D01*
X154020590Y-93462780D01*
X153864067Y-93546443D01*
X153807453Y-93563616D01*
X153694227Y-93597963D01*
X153661135Y-93601222D01*
X153561864Y-93611000D01*
X153473336Y-93611000D01*
X153374065Y-93601222D01*
X153340973Y-93597963D01*
X153227747Y-93563616D01*
X153171133Y-93546443D01*
X153014610Y-93462780D01*
X152877414Y-93350186D01*
X152764820Y-93212990D01*
X152681157Y-93056467D01*
X152663984Y-92999853D01*
X152629637Y-92886627D01*
X152626774Y-92857559D01*
X152612240Y-92710000D01*
X152629637Y-92533375D01*
X152629637Y-92533373D01*
X152681157Y-92363534D01*
X152681157Y-92363533D01*
X152764820Y-92207010D01*
X152877414Y-92069814D01*
X153014610Y-91957220D01*
X153171133Y-91873557D01*
X153227747Y-91856384D01*
X153340973Y-91822037D01*
X153374065Y-91818778D01*
X153473336Y-91809000D01*
X153561864Y-91809000D01*
X153661135Y-91818778D01*
X153661135Y-91818778D01*
G37*
G36*
X130441000Y-93611000D02*
G01*
X128639000Y-93611000D01*
X128639000Y-91809000D01*
X130441000Y-91809000D01*
X130441000Y-93611000D01*
X130441000Y-93611000D01*
G37*
G36*
X129683535Y-89278778D02*
G01*
X129716627Y-89282037D01*
X129829853Y-89316384D01*
X129886467Y-89333557D01*
X130042990Y-89417220D01*
X130180186Y-89529814D01*
X130292780Y-89667010D01*
X130376443Y-89823533D01*
X130376443Y-89823534D01*
X130427963Y-89993373D01*
X130427963Y-89993375D01*
X130445360Y-90170000D01*
X130430826Y-90317559D01*
X130427963Y-90346627D01*
X130393616Y-90459853D01*
X130376443Y-90516467D01*
X130292780Y-90672990D01*
X130180186Y-90810186D01*
X130042990Y-90922780D01*
X129886467Y-91006443D01*
X129829853Y-91023616D01*
X129716627Y-91057963D01*
X129683535Y-91061222D01*
X129584264Y-91071000D01*
X129495736Y-91071000D01*
X129396465Y-91061222D01*
X129363373Y-91057963D01*
X129250147Y-91023616D01*
X129193533Y-91006443D01*
X129037010Y-90922780D01*
X128899814Y-90810186D01*
X128787220Y-90672990D01*
X128703557Y-90516467D01*
X128686384Y-90459853D01*
X128652037Y-90346627D01*
X128649174Y-90317559D01*
X128634640Y-90170000D01*
X128652037Y-89993375D01*
X128652037Y-89993373D01*
X128703557Y-89823534D01*
X128703557Y-89823533D01*
X128787220Y-89667010D01*
X128899814Y-89529814D01*
X129037010Y-89417220D01*
X129193533Y-89333557D01*
X129250147Y-89316384D01*
X129363373Y-89282037D01*
X129396465Y-89278778D01*
X129495736Y-89269000D01*
X129584264Y-89269000D01*
X129683535Y-89278778D01*
X129683535Y-89278778D01*
G37*
G36*
X153661135Y-89278778D02*
G01*
X153694227Y-89282037D01*
X153807453Y-89316384D01*
X153864067Y-89333557D01*
X154020590Y-89417220D01*
X154157786Y-89529814D01*
X154270380Y-89667010D01*
X154354043Y-89823533D01*
X154354043Y-89823534D01*
X154405563Y-89993373D01*
X154405563Y-89993375D01*
X154422960Y-90170000D01*
X154408426Y-90317559D01*
X154405563Y-90346627D01*
X154371216Y-90459853D01*
X154354043Y-90516467D01*
X154270380Y-90672990D01*
X154157786Y-90810186D01*
X154020590Y-90922780D01*
X153864067Y-91006443D01*
X153807453Y-91023616D01*
X153694227Y-91057963D01*
X153661135Y-91061222D01*
X153561864Y-91071000D01*
X153473336Y-91071000D01*
X153374065Y-91061222D01*
X153340973Y-91057963D01*
X153227747Y-91023616D01*
X153171133Y-91006443D01*
X153014610Y-90922780D01*
X152877414Y-90810186D01*
X152764820Y-90672990D01*
X152681157Y-90516467D01*
X152663984Y-90459853D01*
X152629637Y-90346627D01*
X152626774Y-90317559D01*
X152612240Y-90170000D01*
X152629637Y-89993375D01*
X152629637Y-89993373D01*
X152681157Y-89823534D01*
X152681157Y-89823533D01*
X152764820Y-89667010D01*
X152877414Y-89529814D01*
X153014610Y-89417220D01*
X153171133Y-89333557D01*
X153227747Y-89316384D01*
X153340973Y-89282037D01*
X153374065Y-89278778D01*
X153473336Y-89269000D01*
X153561864Y-89269000D01*
X153661135Y-89278778D01*
X153661135Y-89278778D01*
G37*
G36*
X129683535Y-86738778D02*
G01*
X129716627Y-86742037D01*
X129829853Y-86776384D01*
X129886467Y-86793557D01*
X130042990Y-86877220D01*
X130180186Y-86989814D01*
X130292780Y-87127010D01*
X130376443Y-87283533D01*
X130376443Y-87283534D01*
X130427963Y-87453373D01*
X130427963Y-87453375D01*
X130445360Y-87630000D01*
X130430826Y-87777559D01*
X130427963Y-87806627D01*
X130393616Y-87919853D01*
X130376443Y-87976467D01*
X130292780Y-88132990D01*
X130180186Y-88270186D01*
X130042990Y-88382780D01*
X129886467Y-88466443D01*
X129829853Y-88483616D01*
X129716627Y-88517963D01*
X129683535Y-88521222D01*
X129584264Y-88531000D01*
X129495736Y-88531000D01*
X129396465Y-88521222D01*
X129363373Y-88517963D01*
X129250147Y-88483616D01*
X129193533Y-88466443D01*
X129037010Y-88382780D01*
X128899814Y-88270186D01*
X128787220Y-88132990D01*
X128703557Y-87976467D01*
X128686384Y-87919853D01*
X128652037Y-87806627D01*
X128649174Y-87777559D01*
X128634640Y-87630000D01*
X128652037Y-87453375D01*
X128652037Y-87453373D01*
X128703557Y-87283534D01*
X128703557Y-87283533D01*
X128787220Y-87127010D01*
X128899814Y-86989814D01*
X129037010Y-86877220D01*
X129193533Y-86793557D01*
X129250147Y-86776384D01*
X129363373Y-86742037D01*
X129396465Y-86738778D01*
X129495736Y-86729000D01*
X129584264Y-86729000D01*
X129683535Y-86738778D01*
X129683535Y-86738778D01*
G37*
G36*
X153661135Y-86738778D02*
G01*
X153694227Y-86742037D01*
X153807453Y-86776384D01*
X153864067Y-86793557D01*
X154020590Y-86877220D01*
X154157786Y-86989814D01*
X154270380Y-87127010D01*
X154354043Y-87283533D01*
X154354043Y-87283534D01*
X154405563Y-87453373D01*
X154405563Y-87453375D01*
X154422960Y-87630000D01*
X154408426Y-87777559D01*
X154405563Y-87806627D01*
X154371216Y-87919853D01*
X154354043Y-87976467D01*
X154270380Y-88132990D01*
X154157786Y-88270186D01*
X154020590Y-88382780D01*
X153864067Y-88466443D01*
X153807453Y-88483616D01*
X153694227Y-88517963D01*
X153661135Y-88521222D01*
X153561864Y-88531000D01*
X153473336Y-88531000D01*
X153374065Y-88521222D01*
X153340973Y-88517963D01*
X153227747Y-88483616D01*
X153171133Y-88466443D01*
X153014610Y-88382780D01*
X152877414Y-88270186D01*
X152764820Y-88132990D01*
X152681157Y-87976467D01*
X152663984Y-87919853D01*
X152629637Y-87806627D01*
X152626774Y-87777559D01*
X152612240Y-87630000D01*
X152629637Y-87453375D01*
X152629637Y-87453373D01*
X152681157Y-87283534D01*
X152681157Y-87283533D01*
X152764820Y-87127010D01*
X152877414Y-86989814D01*
X153014610Y-86877220D01*
X153171133Y-86793557D01*
X153227747Y-86776384D01*
X153340973Y-86742037D01*
X153374065Y-86738778D01*
X153473336Y-86729000D01*
X153561864Y-86729000D01*
X153661135Y-86738778D01*
X153661135Y-86738778D01*
G37*
G36*
X153661135Y-84198778D02*
G01*
X153694227Y-84202037D01*
X153807453Y-84236384D01*
X153864067Y-84253557D01*
X154020590Y-84337220D01*
X154157786Y-84449814D01*
X154270380Y-84587010D01*
X154354043Y-84743533D01*
X154354043Y-84743534D01*
X154405563Y-84913373D01*
X154405563Y-84913375D01*
X154422960Y-85090000D01*
X154408426Y-85237559D01*
X154405563Y-85266627D01*
X154371216Y-85379853D01*
X154354043Y-85436467D01*
X154270380Y-85592990D01*
X154157786Y-85730186D01*
X154020590Y-85842780D01*
X153864067Y-85926443D01*
X153807453Y-85943616D01*
X153694227Y-85977963D01*
X153661135Y-85981222D01*
X153561864Y-85991000D01*
X153473336Y-85991000D01*
X153374065Y-85981222D01*
X153340973Y-85977963D01*
X153227747Y-85943616D01*
X153171133Y-85926443D01*
X153014610Y-85842780D01*
X152877414Y-85730186D01*
X152764820Y-85592990D01*
X152681157Y-85436467D01*
X152663984Y-85379853D01*
X152629637Y-85266627D01*
X152626774Y-85237559D01*
X152612240Y-85090000D01*
X152629637Y-84913375D01*
X152629637Y-84913373D01*
X152681157Y-84743534D01*
X152681157Y-84743533D01*
X152764820Y-84587010D01*
X152877414Y-84449814D01*
X153014610Y-84337220D01*
X153171133Y-84253557D01*
X153227747Y-84236384D01*
X153340973Y-84202037D01*
X153374065Y-84198778D01*
X153473336Y-84189000D01*
X153561864Y-84189000D01*
X153661135Y-84198778D01*
X153661135Y-84198778D01*
G37*
G36*
X129683535Y-84198778D02*
G01*
X129716627Y-84202037D01*
X129829853Y-84236384D01*
X129886467Y-84253557D01*
X130042990Y-84337220D01*
X130180186Y-84449814D01*
X130292780Y-84587010D01*
X130376443Y-84743533D01*
X130376443Y-84743534D01*
X130427963Y-84913373D01*
X130427963Y-84913375D01*
X130445360Y-85090000D01*
X130430826Y-85237559D01*
X130427963Y-85266627D01*
X130393616Y-85379853D01*
X130376443Y-85436467D01*
X130292780Y-85592990D01*
X130180186Y-85730186D01*
X130042990Y-85842780D01*
X129886467Y-85926443D01*
X129829853Y-85943616D01*
X129716627Y-85977963D01*
X129683535Y-85981222D01*
X129584264Y-85991000D01*
X129495736Y-85991000D01*
X129396465Y-85981222D01*
X129363373Y-85977963D01*
X129250147Y-85943616D01*
X129193533Y-85926443D01*
X129037010Y-85842780D01*
X128899814Y-85730186D01*
X128787220Y-85592990D01*
X128703557Y-85436467D01*
X128686384Y-85379853D01*
X128652037Y-85266627D01*
X128649174Y-85237559D01*
X128634640Y-85090000D01*
X128652037Y-84913375D01*
X128652037Y-84913373D01*
X128703557Y-84743534D01*
X128703557Y-84743533D01*
X128787220Y-84587010D01*
X128899814Y-84449814D01*
X129037010Y-84337220D01*
X129193533Y-84253557D01*
X129250147Y-84236384D01*
X129363373Y-84202037D01*
X129396465Y-84198778D01*
X129495736Y-84189000D01*
X129584264Y-84189000D01*
X129683535Y-84198778D01*
X129683535Y-84198778D01*
G37*
G36*
X129683535Y-81658778D02*
G01*
X129716627Y-81662037D01*
X129829853Y-81696384D01*
X129886467Y-81713557D01*
X130042990Y-81797220D01*
X130180186Y-81909814D01*
X130292780Y-82047010D01*
X130376443Y-82203533D01*
X130376443Y-82203534D01*
X130427963Y-82373373D01*
X130427963Y-82373375D01*
X130445360Y-82550000D01*
X130430826Y-82697559D01*
X130427963Y-82726627D01*
X130393616Y-82839853D01*
X130376443Y-82896467D01*
X130292780Y-83052990D01*
X130180186Y-83190186D01*
X130042990Y-83302780D01*
X129886467Y-83386443D01*
X129829853Y-83403616D01*
X129716627Y-83437963D01*
X129683535Y-83441222D01*
X129584264Y-83451000D01*
X129495736Y-83451000D01*
X129396465Y-83441222D01*
X129363373Y-83437963D01*
X129250147Y-83403616D01*
X129193533Y-83386443D01*
X129037010Y-83302780D01*
X128899814Y-83190186D01*
X128787220Y-83052990D01*
X128703557Y-82896467D01*
X128686384Y-82839853D01*
X128652037Y-82726627D01*
X128649174Y-82697559D01*
X128634640Y-82550000D01*
X128652037Y-82373375D01*
X128652037Y-82373373D01*
X128703557Y-82203534D01*
X128703557Y-82203533D01*
X128787220Y-82047010D01*
X128899814Y-81909814D01*
X129037010Y-81797220D01*
X129193533Y-81713557D01*
X129250147Y-81696384D01*
X129363373Y-81662037D01*
X129396465Y-81658778D01*
X129495736Y-81649000D01*
X129584264Y-81649000D01*
X129683535Y-81658778D01*
X129683535Y-81658778D01*
G37*
G36*
X153661135Y-81658778D02*
G01*
X153694227Y-81662037D01*
X153807453Y-81696384D01*
X153864067Y-81713557D01*
X154020590Y-81797220D01*
X154157786Y-81909814D01*
X154270380Y-82047010D01*
X154354043Y-82203533D01*
X154354043Y-82203534D01*
X154405563Y-82373373D01*
X154405563Y-82373375D01*
X154422960Y-82550000D01*
X154408426Y-82697559D01*
X154405563Y-82726627D01*
X154371216Y-82839853D01*
X154354043Y-82896467D01*
X154270380Y-83052990D01*
X154157786Y-83190186D01*
X154020590Y-83302780D01*
X153864067Y-83386443D01*
X153807453Y-83403616D01*
X153694227Y-83437963D01*
X153661135Y-83441222D01*
X153561864Y-83451000D01*
X153473336Y-83451000D01*
X153374065Y-83441222D01*
X153340973Y-83437963D01*
X153227747Y-83403616D01*
X153171133Y-83386443D01*
X153014610Y-83302780D01*
X152877414Y-83190186D01*
X152764820Y-83052990D01*
X152681157Y-82896467D01*
X152663984Y-82839853D01*
X152629637Y-82726627D01*
X152626774Y-82697559D01*
X152612240Y-82550000D01*
X152629637Y-82373375D01*
X152629637Y-82373373D01*
X152681157Y-82203534D01*
X152681157Y-82203533D01*
X152764820Y-82047010D01*
X152877414Y-81909814D01*
X153014610Y-81797220D01*
X153171133Y-81713557D01*
X153227747Y-81696384D01*
X153340973Y-81662037D01*
X153374065Y-81658778D01*
X153473336Y-81649000D01*
X153561864Y-81649000D01*
X153661135Y-81658778D01*
X153661135Y-81658778D01*
G37*
G36*
X142179432Y-80286688D02*
G01*
X142220469Y-80299136D01*
X142258288Y-80319351D01*
X142291441Y-80346559D01*
X142318649Y-80379712D01*
X142338864Y-80417531D01*
X142351312Y-80458568D01*
X142356000Y-80506167D01*
X142356000Y-81134833D01*
X142351312Y-81182432D01*
X142338864Y-81223469D01*
X142318649Y-81261288D01*
X142291441Y-81294441D01*
X142258288Y-81321649D01*
X142220469Y-81341864D01*
X142179432Y-81354312D01*
X142131833Y-81359000D01*
X141078167Y-81359000D01*
X141030568Y-81354312D01*
X140989531Y-81341864D01*
X140951712Y-81321649D01*
X140918559Y-81294441D01*
X140891351Y-81261288D01*
X140871136Y-81223469D01*
X140858688Y-81182432D01*
X140854000Y-81134833D01*
X140854000Y-80506167D01*
X140858688Y-80458568D01*
X140871136Y-80417531D01*
X140891351Y-80379712D01*
X140918559Y-80346559D01*
X140951712Y-80319351D01*
X140989531Y-80299136D01*
X141030568Y-80286688D01*
X141078167Y-80282000D01*
X142131833Y-80282000D01*
X142179432Y-80286688D01*
X142179432Y-80286688D01*
G37*
G36*
X144186032Y-80263588D02*
G01*
X144227069Y-80276036D01*
X144264888Y-80296251D01*
X144298041Y-80323459D01*
X144325249Y-80356612D01*
X144345464Y-80394431D01*
X144357912Y-80435468D01*
X144362600Y-80483067D01*
X144362600Y-81111733D01*
X144357912Y-81159332D01*
X144345464Y-81200369D01*
X144325249Y-81238188D01*
X144298041Y-81271341D01*
X144264888Y-81298549D01*
X144227069Y-81318764D01*
X144186032Y-81331212D01*
X144138433Y-81335900D01*
X143084767Y-81335900D01*
X143037168Y-81331212D01*
X142996131Y-81318764D01*
X142958312Y-81298549D01*
X142925159Y-81271341D01*
X142897951Y-81238188D01*
X142877736Y-81200369D01*
X142865288Y-81159332D01*
X142860600Y-81111733D01*
X142860600Y-80483067D01*
X142865288Y-80435468D01*
X142877736Y-80394431D01*
X142897951Y-80356612D01*
X142925159Y-80323459D01*
X142958312Y-80296251D01*
X142996131Y-80276036D01*
X143037168Y-80263588D01*
X143084767Y-80258900D01*
X144138433Y-80258900D01*
X144186032Y-80263588D01*
X144186032Y-80263588D01*
G37*
G36*
X129683535Y-79118778D02*
G01*
X129716627Y-79122037D01*
X129829853Y-79156384D01*
X129886467Y-79173557D01*
X130042990Y-79257220D01*
X130180186Y-79369814D01*
X130292780Y-79507010D01*
X130376443Y-79663533D01*
X130376443Y-79663534D01*
X130427963Y-79833373D01*
X130427963Y-79833375D01*
X130445360Y-80010000D01*
X130430826Y-80157559D01*
X130427963Y-80186627D01*
X130406039Y-80258900D01*
X130376443Y-80356467D01*
X130292780Y-80512990D01*
X130180186Y-80650186D01*
X130042990Y-80762780D01*
X129886467Y-80846443D01*
X129829853Y-80863616D01*
X129716627Y-80897963D01*
X129683535Y-80901222D01*
X129584264Y-80911000D01*
X129495736Y-80911000D01*
X129396465Y-80901222D01*
X129363373Y-80897963D01*
X129250147Y-80863616D01*
X129193533Y-80846443D01*
X129037010Y-80762780D01*
X128899814Y-80650186D01*
X128787220Y-80512990D01*
X128703557Y-80356467D01*
X128673961Y-80258900D01*
X128652037Y-80186627D01*
X128649174Y-80157559D01*
X128634640Y-80010000D01*
X128652037Y-79833375D01*
X128652037Y-79833373D01*
X128703557Y-79663534D01*
X128703557Y-79663533D01*
X128787220Y-79507010D01*
X128899814Y-79369814D01*
X129037010Y-79257220D01*
X129193533Y-79173557D01*
X129250147Y-79156384D01*
X129363373Y-79122037D01*
X129396465Y-79118778D01*
X129495736Y-79109000D01*
X129584264Y-79109000D01*
X129683535Y-79118778D01*
X129683535Y-79118778D01*
G37*
G36*
X153661135Y-79118778D02*
G01*
X153694227Y-79122037D01*
X153807453Y-79156384D01*
X153864067Y-79173557D01*
X154020590Y-79257220D01*
X154157786Y-79369814D01*
X154270380Y-79507010D01*
X154354043Y-79663533D01*
X154354043Y-79663534D01*
X154405563Y-79833373D01*
X154405563Y-79833375D01*
X154422960Y-80010000D01*
X154408426Y-80157559D01*
X154405563Y-80186627D01*
X154383639Y-80258900D01*
X154354043Y-80356467D01*
X154270380Y-80512990D01*
X154157786Y-80650186D01*
X154020590Y-80762780D01*
X153864067Y-80846443D01*
X153807453Y-80863616D01*
X153694227Y-80897963D01*
X153661135Y-80901222D01*
X153561864Y-80911000D01*
X153473336Y-80911000D01*
X153374065Y-80901222D01*
X153340973Y-80897963D01*
X153227747Y-80863616D01*
X153171133Y-80846443D01*
X153014610Y-80762780D01*
X152877414Y-80650186D01*
X152764820Y-80512990D01*
X152681157Y-80356467D01*
X152651561Y-80258900D01*
X152629637Y-80186627D01*
X152626774Y-80157559D01*
X152612240Y-80010000D01*
X152629637Y-79833375D01*
X152629637Y-79833373D01*
X152681157Y-79663534D01*
X152681157Y-79663533D01*
X152764820Y-79507010D01*
X152877414Y-79369814D01*
X153014610Y-79257220D01*
X153171133Y-79173557D01*
X153227747Y-79156384D01*
X153340973Y-79122037D01*
X153374065Y-79118778D01*
X153473336Y-79109000D01*
X153561864Y-79109000D01*
X153661135Y-79118778D01*
X153661135Y-79118778D01*
G37*
G36*
X142179432Y-78411688D02*
G01*
X142220469Y-78424136D01*
X142258288Y-78444351D01*
X142291441Y-78471559D01*
X142318649Y-78504712D01*
X142338864Y-78542531D01*
X142351312Y-78583568D01*
X142356000Y-78631167D01*
X142356000Y-79259833D01*
X142351312Y-79307432D01*
X142338864Y-79348469D01*
X142318649Y-79386288D01*
X142291441Y-79419441D01*
X142258288Y-79446649D01*
X142220469Y-79466864D01*
X142179432Y-79479312D01*
X142131833Y-79484000D01*
X141078167Y-79484000D01*
X141030568Y-79479312D01*
X140989531Y-79466864D01*
X140951712Y-79446649D01*
X140918559Y-79419441D01*
X140891351Y-79386288D01*
X140871136Y-79348469D01*
X140858688Y-79307432D01*
X140854000Y-79259833D01*
X140854000Y-78631167D01*
X140858688Y-78583568D01*
X140871136Y-78542531D01*
X140891351Y-78504712D01*
X140918559Y-78471559D01*
X140951712Y-78444351D01*
X140989531Y-78424136D01*
X141030568Y-78411688D01*
X141078167Y-78407000D01*
X142131833Y-78407000D01*
X142179432Y-78411688D01*
X142179432Y-78411688D01*
G37*
G36*
X144186032Y-78388588D02*
G01*
X144227069Y-78401036D01*
X144264888Y-78421251D01*
X144298041Y-78448459D01*
X144325249Y-78481612D01*
X144345464Y-78519431D01*
X144357912Y-78560468D01*
X144362600Y-78608067D01*
X144362600Y-79236733D01*
X144357912Y-79284332D01*
X144345464Y-79325369D01*
X144325249Y-79363188D01*
X144298041Y-79396341D01*
X144264888Y-79423549D01*
X144227069Y-79443764D01*
X144186032Y-79456212D01*
X144138433Y-79460900D01*
X143084767Y-79460900D01*
X143037168Y-79456212D01*
X142996131Y-79443764D01*
X142958312Y-79423549D01*
X142925159Y-79396341D01*
X142897951Y-79363188D01*
X142877736Y-79325369D01*
X142865288Y-79284332D01*
X142860600Y-79236733D01*
X142860600Y-78608067D01*
X142865288Y-78560468D01*
X142877736Y-78519431D01*
X142897951Y-78481612D01*
X142925159Y-78448459D01*
X142958312Y-78421251D01*
X142996131Y-78401036D01*
X143037168Y-78388588D01*
X143084767Y-78383900D01*
X144138433Y-78383900D01*
X144186032Y-78388588D01*
X144186032Y-78388588D01*
G37*
G36*
X153661135Y-76578778D02*
G01*
X153694227Y-76582037D01*
X153807453Y-76616384D01*
X153864067Y-76633557D01*
X154020590Y-76717220D01*
X154157786Y-76829814D01*
X154270380Y-76967010D01*
X154354043Y-77123533D01*
X154354043Y-77123534D01*
X154405563Y-77293373D01*
X154405563Y-77293375D01*
X154422960Y-77470000D01*
X154408426Y-77617559D01*
X154405563Y-77646627D01*
X154371216Y-77759853D01*
X154354043Y-77816467D01*
X154270380Y-77972990D01*
X154157786Y-78110186D01*
X154020590Y-78222780D01*
X153864067Y-78306443D01*
X153807453Y-78323616D01*
X153694227Y-78357963D01*
X153661135Y-78361222D01*
X153561864Y-78371000D01*
X153473336Y-78371000D01*
X153374065Y-78361222D01*
X153340973Y-78357963D01*
X153227747Y-78323616D01*
X153171133Y-78306443D01*
X153014610Y-78222780D01*
X152877414Y-78110186D01*
X152764820Y-77972990D01*
X152681157Y-77816467D01*
X152663984Y-77759853D01*
X152629637Y-77646627D01*
X152626774Y-77617559D01*
X152612240Y-77470000D01*
X152629637Y-77293375D01*
X152629637Y-77293373D01*
X152681157Y-77123534D01*
X152681157Y-77123533D01*
X152764820Y-76967010D01*
X152877414Y-76829814D01*
X153014610Y-76717220D01*
X153171133Y-76633557D01*
X153227747Y-76616384D01*
X153340973Y-76582037D01*
X153374065Y-76578778D01*
X153473336Y-76569000D01*
X153561864Y-76569000D01*
X153661135Y-76578778D01*
X153661135Y-76578778D01*
G37*
G36*
X129683535Y-76578778D02*
G01*
X129716627Y-76582037D01*
X129829853Y-76616384D01*
X129886467Y-76633557D01*
X130042990Y-76717220D01*
X130180186Y-76829814D01*
X130292780Y-76967010D01*
X130376443Y-77123533D01*
X130376443Y-77123534D01*
X130427963Y-77293373D01*
X130427963Y-77293375D01*
X130445360Y-77470000D01*
X130430826Y-77617559D01*
X130427963Y-77646627D01*
X130393616Y-77759853D01*
X130376443Y-77816467D01*
X130292780Y-77972990D01*
X130180186Y-78110186D01*
X130042990Y-78222780D01*
X129886467Y-78306443D01*
X129829853Y-78323616D01*
X129716627Y-78357963D01*
X129683535Y-78361222D01*
X129584264Y-78371000D01*
X129495736Y-78371000D01*
X129396465Y-78361222D01*
X129363373Y-78357963D01*
X129250147Y-78323616D01*
X129193533Y-78306443D01*
X129037010Y-78222780D01*
X128899814Y-78110186D01*
X128787220Y-77972990D01*
X128703557Y-77816467D01*
X128686384Y-77759853D01*
X128652037Y-77646627D01*
X128649174Y-77617559D01*
X128634640Y-77470000D01*
X128652037Y-77293375D01*
X128652037Y-77293373D01*
X128703557Y-77123534D01*
X128703557Y-77123533D01*
X128787220Y-76967010D01*
X128899814Y-76829814D01*
X129037010Y-76717220D01*
X129193533Y-76633557D01*
X129250147Y-76616384D01*
X129363373Y-76582037D01*
X129396465Y-76578778D01*
X129495736Y-76569000D01*
X129584264Y-76569000D01*
X129683535Y-76578778D01*
X129683535Y-76578778D01*
G37*
G36*
X149926432Y-75382188D02*
G01*
X149967469Y-75394636D01*
X150005288Y-75414851D01*
X150038441Y-75442059D01*
X150065649Y-75475212D01*
X150085864Y-75513031D01*
X150098312Y-75554068D01*
X150103000Y-75601667D01*
X150103000Y-76230333D01*
X150098312Y-76277932D01*
X150085864Y-76318969D01*
X150065649Y-76356788D01*
X150038441Y-76389941D01*
X150005288Y-76417149D01*
X149967469Y-76437364D01*
X149926432Y-76449812D01*
X149878833Y-76454500D01*
X148825167Y-76454500D01*
X148777568Y-76449812D01*
X148736531Y-76437364D01*
X148698712Y-76417149D01*
X148665559Y-76389941D01*
X148638351Y-76356788D01*
X148618136Y-76318969D01*
X148605688Y-76277932D01*
X148601000Y-76230333D01*
X148601000Y-75601667D01*
X148605688Y-75554068D01*
X148618136Y-75513031D01*
X148638351Y-75475212D01*
X148665559Y-75442059D01*
X148698712Y-75414851D01*
X148736531Y-75394636D01*
X148777568Y-75382188D01*
X148825167Y-75377500D01*
X149878833Y-75377500D01*
X149926432Y-75382188D01*
X149926432Y-75382188D01*
G37*
G36*
X153661135Y-74038778D02*
G01*
X153694227Y-74042037D01*
X153807453Y-74076384D01*
X153864067Y-74093557D01*
X154020590Y-74177220D01*
X154157786Y-74289814D01*
X154270380Y-74427010D01*
X154354043Y-74583533D01*
X154354043Y-74583534D01*
X154405563Y-74753373D01*
X154405563Y-74753375D01*
X154422960Y-74930000D01*
X154408426Y-75077559D01*
X154405563Y-75106627D01*
X154371216Y-75219853D01*
X154354043Y-75276467D01*
X154270380Y-75432990D01*
X154157786Y-75570186D01*
X154020590Y-75682780D01*
X153864067Y-75766443D01*
X153807453Y-75783616D01*
X153694227Y-75817963D01*
X153661135Y-75821222D01*
X153561864Y-75831000D01*
X153473336Y-75831000D01*
X153374065Y-75821222D01*
X153340973Y-75817963D01*
X153227747Y-75783616D01*
X153171133Y-75766443D01*
X153014610Y-75682780D01*
X152877414Y-75570186D01*
X152764820Y-75432990D01*
X152681157Y-75276467D01*
X152663984Y-75219853D01*
X152629637Y-75106627D01*
X152626774Y-75077559D01*
X152612240Y-74930000D01*
X152629637Y-74753375D01*
X152629637Y-74753373D01*
X152681157Y-74583534D01*
X152681157Y-74583533D01*
X152764820Y-74427010D01*
X152877414Y-74289814D01*
X153014610Y-74177220D01*
X153171133Y-74093557D01*
X153227747Y-74076384D01*
X153340973Y-74042037D01*
X153374065Y-74038778D01*
X153473336Y-74029000D01*
X153561864Y-74029000D01*
X153661135Y-74038778D01*
X153661135Y-74038778D01*
G37*
G36*
X129683535Y-74038778D02*
G01*
X129716627Y-74042037D01*
X129829853Y-74076384D01*
X129886467Y-74093557D01*
X130042990Y-74177220D01*
X130180186Y-74289814D01*
X130292780Y-74427010D01*
X130376443Y-74583533D01*
X130376443Y-74583534D01*
X130427963Y-74753373D01*
X130427963Y-74753375D01*
X130445360Y-74930000D01*
X130430826Y-75077559D01*
X130427963Y-75106627D01*
X130393616Y-75219853D01*
X130376443Y-75276467D01*
X130292780Y-75432990D01*
X130180186Y-75570186D01*
X130042990Y-75682780D01*
X129886467Y-75766443D01*
X129829853Y-75783616D01*
X129716627Y-75817963D01*
X129683535Y-75821222D01*
X129584264Y-75831000D01*
X129495736Y-75831000D01*
X129396465Y-75821222D01*
X129363373Y-75817963D01*
X129250147Y-75783616D01*
X129193533Y-75766443D01*
X129037010Y-75682780D01*
X128899814Y-75570186D01*
X128787220Y-75432990D01*
X128703557Y-75276467D01*
X128686384Y-75219853D01*
X128652037Y-75106627D01*
X128649174Y-75077559D01*
X128634640Y-74930000D01*
X128652037Y-74753375D01*
X128652037Y-74753373D01*
X128703557Y-74583534D01*
X128703557Y-74583533D01*
X128787220Y-74427010D01*
X128899814Y-74289814D01*
X129037010Y-74177220D01*
X129193533Y-74093557D01*
X129250147Y-74076384D01*
X129363373Y-74042037D01*
X129396465Y-74038778D01*
X129495736Y-74029000D01*
X129584264Y-74029000D01*
X129683535Y-74038778D01*
X129683535Y-74038778D01*
G37*
G36*
X149926432Y-73507188D02*
G01*
X149967469Y-73519636D01*
X150005288Y-73539851D01*
X150038441Y-73567059D01*
X150065649Y-73600212D01*
X150085864Y-73638031D01*
X150098312Y-73679068D01*
X150103000Y-73726667D01*
X150103000Y-74355333D01*
X150098312Y-74402932D01*
X150085864Y-74443969D01*
X150065649Y-74481788D01*
X150038441Y-74514941D01*
X150005288Y-74542149D01*
X149967469Y-74562364D01*
X149926432Y-74574812D01*
X149878833Y-74579500D01*
X148825167Y-74579500D01*
X148777568Y-74574812D01*
X148736531Y-74562364D01*
X148698712Y-74542149D01*
X148665559Y-74514941D01*
X148638351Y-74481788D01*
X148618136Y-74443969D01*
X148605688Y-74402932D01*
X148601000Y-74355333D01*
X148601000Y-73726667D01*
X148605688Y-73679068D01*
X148618136Y-73638031D01*
X148638351Y-73600212D01*
X148665559Y-73567059D01*
X148698712Y-73539851D01*
X148736531Y-73519636D01*
X148777568Y-73507188D01*
X148825167Y-73502500D01*
X149878833Y-73502500D01*
X149926432Y-73507188D01*
X149926432Y-73507188D01*
G37*
G36*
X129683535Y-71498778D02*
G01*
X129716627Y-71502037D01*
X129817034Y-71532495D01*
X129886467Y-71553557D01*
X130042990Y-71637220D01*
X130180186Y-71749814D01*
X130292780Y-71887010D01*
X130376443Y-72043533D01*
X130376443Y-72043534D01*
X130427963Y-72213373D01*
X130427963Y-72213375D01*
X130445360Y-72390000D01*
X130441110Y-72433145D01*
X130427963Y-72566627D01*
X130393616Y-72679853D01*
X130376443Y-72736467D01*
X130292780Y-72892990D01*
X130180186Y-73030186D01*
X130042990Y-73142780D01*
X129886467Y-73226443D01*
X129829853Y-73243616D01*
X129716627Y-73277963D01*
X129683535Y-73281222D01*
X129584264Y-73291000D01*
X129495736Y-73291000D01*
X129396465Y-73281222D01*
X129363373Y-73277963D01*
X129250147Y-73243616D01*
X129193533Y-73226443D01*
X129037010Y-73142780D01*
X128899814Y-73030186D01*
X128787220Y-72892990D01*
X128703557Y-72736467D01*
X128686384Y-72679853D01*
X128652037Y-72566627D01*
X128638890Y-72433145D01*
X128634640Y-72390000D01*
X128652037Y-72213375D01*
X128652037Y-72213373D01*
X128703557Y-72043534D01*
X128703557Y-72043533D01*
X128787220Y-71887010D01*
X128899814Y-71749814D01*
X129037010Y-71637220D01*
X129193533Y-71553557D01*
X129262966Y-71532495D01*
X129363373Y-71502037D01*
X129396465Y-71498778D01*
X129495736Y-71489000D01*
X129584264Y-71489000D01*
X129683535Y-71498778D01*
X129683535Y-71498778D01*
G37*
G36*
X153661135Y-71498778D02*
G01*
X153694227Y-71502037D01*
X153794634Y-71532495D01*
X153864067Y-71553557D01*
X154020590Y-71637220D01*
X154157786Y-71749814D01*
X154270380Y-71887010D01*
X154354043Y-72043533D01*
X154354043Y-72043534D01*
X154405563Y-72213373D01*
X154405563Y-72213375D01*
X154422960Y-72390000D01*
X154418710Y-72433145D01*
X154405563Y-72566627D01*
X154371216Y-72679853D01*
X154354043Y-72736467D01*
X154270380Y-72892990D01*
X154157786Y-73030186D01*
X154020590Y-73142780D01*
X153864067Y-73226443D01*
X153807453Y-73243616D01*
X153694227Y-73277963D01*
X153661135Y-73281222D01*
X153561864Y-73291000D01*
X153473336Y-73291000D01*
X153374065Y-73281222D01*
X153340973Y-73277963D01*
X153227747Y-73243616D01*
X153171133Y-73226443D01*
X153014610Y-73142780D01*
X152877414Y-73030186D01*
X152764820Y-72892990D01*
X152681157Y-72736467D01*
X152663984Y-72679853D01*
X152629637Y-72566627D01*
X152616490Y-72433145D01*
X152612240Y-72390000D01*
X152629637Y-72213375D01*
X152629637Y-72213373D01*
X152681157Y-72043534D01*
X152681157Y-72043533D01*
X152764820Y-71887010D01*
X152877414Y-71749814D01*
X153014610Y-71637220D01*
X153171133Y-71553557D01*
X153240566Y-71532495D01*
X153340973Y-71502037D01*
X153374065Y-71498778D01*
X153473336Y-71489000D01*
X153561864Y-71489000D01*
X153661135Y-71498778D01*
X153661135Y-71498778D01*
G37*
G36*
X148918432Y-71516688D02*
G01*
X148959469Y-71529136D01*
X148997288Y-71549351D01*
X149030441Y-71576559D01*
X149057649Y-71609712D01*
X149077864Y-71647531D01*
X149090312Y-71688568D01*
X149095000Y-71736167D01*
X149095000Y-72789833D01*
X149090312Y-72837432D01*
X149077864Y-72878469D01*
X149057649Y-72916288D01*
X149030441Y-72949441D01*
X148997288Y-72976649D01*
X148959469Y-72996864D01*
X148918432Y-73009312D01*
X148870833Y-73014000D01*
X148242167Y-73014000D01*
X148194568Y-73009312D01*
X148153531Y-72996864D01*
X148115712Y-72976649D01*
X148082559Y-72949441D01*
X148055351Y-72916288D01*
X148035136Y-72878469D01*
X148022688Y-72837432D01*
X148018000Y-72789833D01*
X148018000Y-71736167D01*
X148022688Y-71688568D01*
X148035136Y-71647531D01*
X148055351Y-71609712D01*
X148082559Y-71576559D01*
X148115712Y-71549351D01*
X148153531Y-71529136D01*
X148194568Y-71516688D01*
X148242167Y-71512000D01*
X148870833Y-71512000D01*
X148918432Y-71516688D01*
X148918432Y-71516688D01*
G37*
G36*
X150793432Y-71516688D02*
G01*
X150834469Y-71529136D01*
X150872288Y-71549351D01*
X150905441Y-71576559D01*
X150932649Y-71609712D01*
X150952864Y-71647531D01*
X150965312Y-71688568D01*
X150970000Y-71736167D01*
X150970000Y-72789833D01*
X150965312Y-72837432D01*
X150952864Y-72878469D01*
X150932649Y-72916288D01*
X150905441Y-72949441D01*
X150872288Y-72976649D01*
X150834469Y-72996864D01*
X150793432Y-73009312D01*
X150745833Y-73014000D01*
X150117167Y-73014000D01*
X150069568Y-73009312D01*
X150028531Y-72996864D01*
X149990712Y-72976649D01*
X149957559Y-72949441D01*
X149930351Y-72916288D01*
X149910136Y-72878469D01*
X149897688Y-72837432D01*
X149893000Y-72789833D01*
X149893000Y-71736167D01*
X149897688Y-71688568D01*
X149910136Y-71647531D01*
X149930351Y-71609712D01*
X149957559Y-71576559D01*
X149990712Y-71549351D01*
X150028531Y-71529136D01*
X150069568Y-71516688D01*
X150117167Y-71512000D01*
X150745833Y-71512000D01*
X150793432Y-71516688D01*
X150793432Y-71516688D01*
G37*
G36*
X145799476Y-71408761D02*
G01*
X145902645Y-71429282D01*
X145988036Y-71464653D01*
X146048416Y-71489663D01*
X146048417Y-71489664D01*
X146178467Y-71576559D01*
X146179608Y-71577322D01*
X146291178Y-71688892D01*
X146378837Y-71820084D01*
X146403847Y-71880464D01*
X146439218Y-71965855D01*
X146470000Y-72120609D01*
X146470000Y-72278391D01*
X146439218Y-72433145D01*
X146403847Y-72518536D01*
X146378837Y-72578916D01*
X146378836Y-72578917D01*
X146291179Y-72710107D01*
X146179607Y-72821679D01*
X146114012Y-72865508D01*
X146048416Y-72909337D01*
X145988036Y-72934347D01*
X145902645Y-72969718D01*
X145799476Y-72990239D01*
X145747892Y-73000500D01*
X145590108Y-73000500D01*
X145538524Y-72990239D01*
X145435355Y-72969718D01*
X145349964Y-72934347D01*
X145289584Y-72909337D01*
X145223988Y-72865507D01*
X145158393Y-72821679D01*
X145046821Y-72710107D01*
X144959164Y-72578917D01*
X144959163Y-72578916D01*
X144934153Y-72518536D01*
X144898782Y-72433145D01*
X144868000Y-72278391D01*
X144868000Y-72120609D01*
X144898782Y-71965855D01*
X144934153Y-71880464D01*
X144959163Y-71820084D01*
X145046822Y-71688892D01*
X145158392Y-71577322D01*
X145159534Y-71576559D01*
X145289583Y-71489664D01*
X145289584Y-71489663D01*
X145349964Y-71464653D01*
X145435355Y-71429282D01*
X145538524Y-71408761D01*
X145590108Y-71398500D01*
X145747892Y-71398500D01*
X145799476Y-71408761D01*
X145799476Y-71408761D01*
G37*
G36*
X129683535Y-68958778D02*
G01*
X129716627Y-68962037D01*
X129829853Y-68996384D01*
X129886467Y-69013557D01*
X130042990Y-69097220D01*
X130180186Y-69209814D01*
X130292780Y-69347010D01*
X130376443Y-69503533D01*
X130376443Y-69503534D01*
X130427963Y-69673373D01*
X130427963Y-69673375D01*
X130445360Y-69850000D01*
X130430826Y-69997559D01*
X130427963Y-70026627D01*
X130393616Y-70139853D01*
X130376443Y-70196467D01*
X130292780Y-70352990D01*
X130180186Y-70490186D01*
X130042990Y-70602780D01*
X129886467Y-70686443D01*
X129829853Y-70703616D01*
X129716627Y-70737963D01*
X129683535Y-70741222D01*
X129584264Y-70751000D01*
X129495736Y-70751000D01*
X129396465Y-70741222D01*
X129363373Y-70737963D01*
X129250147Y-70703616D01*
X129193533Y-70686443D01*
X129037010Y-70602780D01*
X128899814Y-70490186D01*
X128787220Y-70352990D01*
X128703557Y-70196467D01*
X128686384Y-70139853D01*
X128652037Y-70026627D01*
X128649174Y-69997559D01*
X128634640Y-69850000D01*
X128652037Y-69673375D01*
X128652037Y-69673373D01*
X128703557Y-69503534D01*
X128703557Y-69503533D01*
X128787220Y-69347010D01*
X128899814Y-69209814D01*
X129037010Y-69097220D01*
X129193533Y-69013557D01*
X129250147Y-68996384D01*
X129363373Y-68962037D01*
X129396465Y-68958778D01*
X129495736Y-68949000D01*
X129584264Y-68949000D01*
X129683535Y-68958778D01*
X129683535Y-68958778D01*
G37*
G36*
X154418600Y-70751000D02*
G01*
X152616600Y-70751000D01*
X152616600Y-68949000D01*
X154418600Y-68949000D01*
X154418600Y-70751000D01*
X154418600Y-70751000D01*
G37*
G36*
X145760832Y-67309588D02*
G01*
X145801869Y-67322036D01*
X145839688Y-67342251D01*
X145872841Y-67369459D01*
X145900049Y-67402612D01*
X145920264Y-67440431D01*
X145932712Y-67481468D01*
X145937400Y-67529067D01*
X145937400Y-68157733D01*
X145932712Y-68205332D01*
X145920264Y-68246369D01*
X145900049Y-68284188D01*
X145872841Y-68317341D01*
X145839688Y-68344549D01*
X145801869Y-68364764D01*
X145760832Y-68377212D01*
X145713233Y-68381900D01*
X144659567Y-68381900D01*
X144611968Y-68377212D01*
X144570931Y-68364764D01*
X144533112Y-68344549D01*
X144499959Y-68317341D01*
X144472751Y-68284188D01*
X144452536Y-68246369D01*
X144440088Y-68205332D01*
X144435400Y-68157733D01*
X144435400Y-67529067D01*
X144440088Y-67481468D01*
X144452536Y-67440431D01*
X144472751Y-67402612D01*
X144499959Y-67369459D01*
X144533112Y-67342251D01*
X144570931Y-67322036D01*
X144611968Y-67309588D01*
X144659567Y-67304900D01*
X145713233Y-67304900D01*
X145760832Y-67309588D01*
X145760832Y-67309588D01*
G37*
G36*
X151298032Y-67309588D02*
G01*
X151339069Y-67322036D01*
X151376888Y-67342251D01*
X151410041Y-67369459D01*
X151437249Y-67402612D01*
X151457464Y-67440431D01*
X151469912Y-67481468D01*
X151474600Y-67529067D01*
X151474600Y-68157733D01*
X151469912Y-68205332D01*
X151457464Y-68246369D01*
X151437249Y-68284188D01*
X151410041Y-68317341D01*
X151376888Y-68344549D01*
X151339069Y-68364764D01*
X151298032Y-68377212D01*
X151250433Y-68381900D01*
X150196767Y-68381900D01*
X150149168Y-68377212D01*
X150108131Y-68364764D01*
X150070312Y-68344549D01*
X150037159Y-68317341D01*
X150009951Y-68284188D01*
X149989736Y-68246369D01*
X149977288Y-68205332D01*
X149972600Y-68157733D01*
X149972600Y-67529067D01*
X149977288Y-67481468D01*
X149989736Y-67440431D01*
X150009951Y-67402612D01*
X150037159Y-67369459D01*
X150070312Y-67342251D01*
X150108131Y-67322036D01*
X150149168Y-67309588D01*
X150196767Y-67304900D01*
X151250433Y-67304900D01*
X151298032Y-67309588D01*
X151298032Y-67309588D01*
G37*
G36*
X151298032Y-65434588D02*
G01*
X151339069Y-65447036D01*
X151376888Y-65467251D01*
X151410041Y-65494459D01*
X151437249Y-65527612D01*
X151457464Y-65565431D01*
X151469912Y-65606468D01*
X151474600Y-65654067D01*
X151474600Y-66282733D01*
X151469912Y-66330332D01*
X151457464Y-66371369D01*
X151437249Y-66409188D01*
X151410041Y-66442341D01*
X151376888Y-66469549D01*
X151339069Y-66489764D01*
X151298032Y-66502212D01*
X151250433Y-66506900D01*
X150196767Y-66506900D01*
X150149168Y-66502212D01*
X150108131Y-66489764D01*
X150070312Y-66469549D01*
X150037159Y-66442341D01*
X150009951Y-66409188D01*
X149989736Y-66371369D01*
X149977288Y-66330332D01*
X149972600Y-66282733D01*
X149972600Y-65654067D01*
X149977288Y-65606468D01*
X149989736Y-65565431D01*
X150009951Y-65527612D01*
X150037159Y-65494459D01*
X150070312Y-65467251D01*
X150108131Y-65447036D01*
X150149168Y-65434588D01*
X150196767Y-65429900D01*
X151250433Y-65429900D01*
X151298032Y-65434588D01*
X151298032Y-65434588D01*
G37*
G36*
X145760832Y-65434588D02*
G01*
X145801869Y-65447036D01*
X145839688Y-65467251D01*
X145872841Y-65494459D01*
X145900049Y-65527612D01*
X145920264Y-65565431D01*
X145932712Y-65606468D01*
X145937400Y-65654067D01*
X145937400Y-66282733D01*
X145932712Y-66330332D01*
X145920264Y-66371369D01*
X145900049Y-66409188D01*
X145872841Y-66442341D01*
X145839688Y-66469549D01*
X145801869Y-66489764D01*
X145760832Y-66502212D01*
X145713233Y-66506900D01*
X144659567Y-66506900D01*
X144611968Y-66502212D01*
X144570931Y-66489764D01*
X144533112Y-66469549D01*
X144499959Y-66442341D01*
X144472751Y-66409188D01*
X144452536Y-66371369D01*
X144440088Y-66330332D01*
X144435400Y-66282733D01*
X144435400Y-65654067D01*
X144440088Y-65606468D01*
X144452536Y-65565431D01*
X144472751Y-65527612D01*
X144499959Y-65494459D01*
X144533112Y-65467251D01*
X144570931Y-65447036D01*
X144611968Y-65434588D01*
X144659567Y-65429900D01*
X145713233Y-65429900D01*
X145760832Y-65434588D01*
X145760832Y-65434588D01*
G37*
G36*
X133802410Y-61856204D02*
G01*
X133802412Y-61856205D01*
X133802413Y-61856205D01*
X133839389Y-61871521D01*
X134084674Y-61973121D01*
X134338705Y-62142859D01*
X134554741Y-62358895D01*
X134724479Y-62612926D01*
X134841396Y-62895190D01*
X134901000Y-63194840D01*
X134901000Y-63500360D01*
X134841396Y-63800010D01*
X134724479Y-64082274D01*
X134554741Y-64336305D01*
X134338705Y-64552341D01*
X134084674Y-64722079D01*
X134047695Y-64737396D01*
X133802413Y-64838995D01*
X133802412Y-64838995D01*
X133802410Y-64838996D01*
X133502760Y-64898600D01*
X133197240Y-64898600D01*
X132897590Y-64838996D01*
X132897588Y-64838995D01*
X132897587Y-64838995D01*
X132652305Y-64737396D01*
X132615326Y-64722079D01*
X132361295Y-64552341D01*
X132145259Y-64336305D01*
X131975521Y-64082274D01*
X131858604Y-63800010D01*
X131799000Y-63500360D01*
X131799000Y-63194840D01*
X131858604Y-62895190D01*
X131975521Y-62612926D01*
X132145259Y-62358895D01*
X132361295Y-62142859D01*
X132615326Y-61973121D01*
X132860611Y-61871521D01*
X132897587Y-61856205D01*
X132897588Y-61856205D01*
X132897590Y-61856204D01*
X133197240Y-61796600D01*
X133502760Y-61796600D01*
X133802410Y-61856204D01*
X133802410Y-61856204D01*
G37*
G36*
X139981000Y-64898600D02*
G01*
X136879000Y-64898600D01*
X136879000Y-61796600D01*
X139981000Y-61796600D01*
X139981000Y-64898600D01*
X139981000Y-64898600D01*
G37*
G36*
X145740410Y-61754604D02*
G01*
X145740412Y-61754605D01*
X145740413Y-61754605D01*
X145841798Y-61796600D01*
X146022674Y-61871521D01*
X146276705Y-62041259D01*
X146492741Y-62257295D01*
X146662479Y-62511326D01*
X146779396Y-62793590D01*
X146839000Y-63093240D01*
X146839000Y-63398760D01*
X146779396Y-63698410D01*
X146662479Y-63980674D01*
X146492741Y-64234705D01*
X146276705Y-64450741D01*
X146022674Y-64620479D01*
X145844678Y-64694207D01*
X145740413Y-64737395D01*
X145740412Y-64737395D01*
X145740410Y-64737396D01*
X145440760Y-64797000D01*
X145135240Y-64797000D01*
X144835590Y-64737396D01*
X144835588Y-64737395D01*
X144835587Y-64737395D01*
X144731322Y-64694207D01*
X144553326Y-64620479D01*
X144299295Y-64450741D01*
X144083259Y-64234705D01*
X143913521Y-63980674D01*
X143796604Y-63698410D01*
X143737000Y-63398760D01*
X143737000Y-63093240D01*
X143796604Y-62793590D01*
X143913521Y-62511326D01*
X144083259Y-62257295D01*
X144299295Y-62041259D01*
X144553326Y-61871521D01*
X144734202Y-61796600D01*
X144835587Y-61754605D01*
X144835588Y-61754605D01*
X144835590Y-61754604D01*
X145135240Y-61695000D01*
X145440760Y-61695000D01*
X145740410Y-61754604D01*
X145740410Y-61754604D01*
G37*
G36*
X151919000Y-64797000D02*
G01*
X148817000Y-64797000D01*
X148817000Y-61695000D01*
X151919000Y-61695000D01*
X151919000Y-64797000D01*
X151919000Y-64797000D01*
G37*
M02*
