G04 #@! TF.GenerationSoftware,KiCad,Pcbnew,5.1.1-8be2ce7~80~ubuntu18.10.1*
G04 #@! TF.CreationDate,2019-05-25T12:59:07+08:00*
G04 #@! TF.ProjectId,tas2562_dev_pcb,74617332-3536-4325-9f64-65765f706362,rev?*
G04 #@! TF.SameCoordinates,Original*
G04 #@! TF.FileFunction,Legend,Bot*
G04 #@! TF.FilePolarity,Positive*
%FSLAX46Y46*%
G04 Gerber Fmt 4.6, Leading zero omitted, Abs format (unit mm)*
G04 Created by KiCad (PCBNEW 5.1.1-8be2ce7~80~ubuntu18.10.1) date 2019-05-25 12:59:07*
%MOMM*%
%LPD*%
G04 APERTURE LIST*
%ADD10C,0.300000*%
%ADD11C,0.120000*%
%ADD12C,0.150000*%
G04 APERTURE END LIST*
D10*
X139997142Y-91888571D02*
X139068571Y-91888571D01*
X139568571Y-92460000D01*
X139354285Y-92460000D01*
X139211428Y-92531428D01*
X139140000Y-92602857D01*
X139068571Y-92745714D01*
X139068571Y-93102857D01*
X139140000Y-93245714D01*
X139211428Y-93317142D01*
X139354285Y-93388571D01*
X139782857Y-93388571D01*
X139925714Y-93317142D01*
X139997142Y-93245714D01*
X138425714Y-93245714D02*
X138354285Y-93317142D01*
X138425714Y-93388571D01*
X138497142Y-93317142D01*
X138425714Y-93245714D01*
X138425714Y-93388571D01*
X137854285Y-91888571D02*
X136925714Y-91888571D01*
X137425714Y-92460000D01*
X137211428Y-92460000D01*
X137068571Y-92531428D01*
X136997142Y-92602857D01*
X136925714Y-92745714D01*
X136925714Y-93102857D01*
X136997142Y-93245714D01*
X137068571Y-93317142D01*
X137211428Y-93388571D01*
X137640000Y-93388571D01*
X137782857Y-93317142D01*
X137854285Y-93245714D01*
X136425714Y-92388571D02*
X136068571Y-93388571D01*
X135711428Y-92388571D01*
X135140000Y-92602857D02*
X134640000Y-92602857D01*
X134425714Y-93388571D02*
X135140000Y-93388571D01*
X135140000Y-91888571D01*
X134425714Y-91888571D01*
X133925714Y-91888571D02*
X132925714Y-93388571D01*
X132925714Y-91888571D02*
X133925714Y-93388571D01*
X132568571Y-91888571D02*
X131711428Y-91888571D01*
X132140000Y-93388571D02*
X132140000Y-91888571D01*
X137124000Y-89602571D02*
X137838285Y-89602571D01*
X137909714Y-90316857D01*
X137838285Y-90245428D01*
X137695428Y-90174000D01*
X137338285Y-90174000D01*
X137195428Y-90245428D01*
X137124000Y-90316857D01*
X137052571Y-90459714D01*
X137052571Y-90816857D01*
X137124000Y-90959714D01*
X137195428Y-91031142D01*
X137338285Y-91102571D01*
X137695428Y-91102571D01*
X137838285Y-91031142D01*
X137909714Y-90959714D01*
X136624000Y-89602571D02*
X136124000Y-91102571D01*
X135624000Y-89602571D01*
X135124000Y-90316857D02*
X134624000Y-90316857D01*
X134409714Y-91102571D02*
X135124000Y-91102571D01*
X135124000Y-89602571D01*
X134409714Y-89602571D01*
X133909714Y-89602571D02*
X132909714Y-91102571D01*
X132909714Y-89602571D02*
X133909714Y-91102571D01*
X132552571Y-89602571D02*
X131695428Y-89602571D01*
X132124000Y-91102571D02*
X132124000Y-89602571D01*
X137695428Y-88237142D02*
X137481142Y-88308571D01*
X137124000Y-88308571D01*
X136981142Y-88237142D01*
X136909714Y-88165714D01*
X136838285Y-88022857D01*
X136838285Y-87880000D01*
X136909714Y-87737142D01*
X136981142Y-87665714D01*
X137124000Y-87594285D01*
X137409714Y-87522857D01*
X137552571Y-87451428D01*
X137624000Y-87380000D01*
X137695428Y-87237142D01*
X137695428Y-87094285D01*
X137624000Y-86951428D01*
X137552571Y-86880000D01*
X137409714Y-86808571D01*
X137052571Y-86808571D01*
X136838285Y-86880000D01*
X136195428Y-88308571D02*
X136195428Y-86808571D01*
X135838285Y-86808571D01*
X135624000Y-86880000D01*
X135481142Y-87022857D01*
X135409714Y-87165714D01*
X135338285Y-87451428D01*
X135338285Y-87665714D01*
X135409714Y-87951428D01*
X135481142Y-88094285D01*
X135624000Y-88237142D01*
X135838285Y-88308571D01*
X136195428Y-88308571D01*
X134838285Y-86808571D02*
X134481142Y-88308571D01*
X134195428Y-87237142D01*
X133909714Y-88308571D01*
X133552571Y-86808571D01*
X132981142Y-88308571D02*
X132981142Y-86808571D01*
X132124000Y-88308571D01*
X132124000Y-86808571D01*
X135643714Y-85697142D02*
X135429428Y-85768571D01*
X135072285Y-85768571D01*
X134929428Y-85697142D01*
X134858000Y-85625714D01*
X134786571Y-85482857D01*
X134786571Y-85340000D01*
X134858000Y-85197142D01*
X134929428Y-85125714D01*
X135072285Y-85054285D01*
X135358000Y-84982857D01*
X135500857Y-84911428D01*
X135572285Y-84840000D01*
X135643714Y-84697142D01*
X135643714Y-84554285D01*
X135572285Y-84411428D01*
X135500857Y-84340000D01*
X135358000Y-84268571D01*
X135000857Y-84268571D01*
X134786571Y-84340000D01*
X133286571Y-85625714D02*
X133358000Y-85697142D01*
X133572285Y-85768571D01*
X133715142Y-85768571D01*
X133929428Y-85697142D01*
X134072285Y-85554285D01*
X134143714Y-85411428D01*
X134215142Y-85125714D01*
X134215142Y-84911428D01*
X134143714Y-84625714D01*
X134072285Y-84482857D01*
X133929428Y-84340000D01*
X133715142Y-84268571D01*
X133572285Y-84268571D01*
X133358000Y-84340000D01*
X133286571Y-84411428D01*
X131929428Y-85768571D02*
X132643714Y-85768571D01*
X132643714Y-84268571D01*
X135679428Y-83157142D02*
X135465142Y-83228571D01*
X135108000Y-83228571D01*
X134965142Y-83157142D01*
X134893714Y-83085714D01*
X134822285Y-82942857D01*
X134822285Y-82800000D01*
X134893714Y-82657142D01*
X134965142Y-82585714D01*
X135108000Y-82514285D01*
X135393714Y-82442857D01*
X135536571Y-82371428D01*
X135608000Y-82300000D01*
X135679428Y-82157142D01*
X135679428Y-82014285D01*
X135608000Y-81871428D01*
X135536571Y-81800000D01*
X135393714Y-81728571D01*
X135036571Y-81728571D01*
X134822285Y-81800000D01*
X134179428Y-83228571D02*
X134179428Y-81728571D01*
X133822285Y-81728571D01*
X133608000Y-81800000D01*
X133465142Y-81942857D01*
X133393714Y-82085714D01*
X133322285Y-82371428D01*
X133322285Y-82585714D01*
X133393714Y-82871428D01*
X133465142Y-83014285D01*
X133608000Y-83157142D01*
X133822285Y-83228571D01*
X134179428Y-83228571D01*
X132750857Y-82800000D02*
X132036571Y-82800000D01*
X132893714Y-83228571D02*
X132393714Y-81728571D01*
X131893714Y-83228571D01*
X135393714Y-80688571D02*
X135393714Y-79188571D01*
X135036571Y-79188571D01*
X134822285Y-79260000D01*
X134679428Y-79402857D01*
X134608000Y-79545714D01*
X134536571Y-79831428D01*
X134536571Y-80045714D01*
X134608000Y-80331428D01*
X134679428Y-80474285D01*
X134822285Y-80617142D01*
X135036571Y-80688571D01*
X135393714Y-80688571D01*
X133893714Y-80688571D02*
X133893714Y-79188571D01*
X133179428Y-80688571D02*
X133179428Y-79188571D01*
X132322285Y-80688571D01*
X132322285Y-79188571D01*
X136620000Y-77362857D02*
X136405714Y-77434285D01*
X136334285Y-77505714D01*
X136262857Y-77648571D01*
X136262857Y-77862857D01*
X136334285Y-78005714D01*
X136405714Y-78077142D01*
X136548571Y-78148571D01*
X137120000Y-78148571D01*
X137120000Y-76648571D01*
X136620000Y-76648571D01*
X136477142Y-76720000D01*
X136405714Y-76791428D01*
X136334285Y-76934285D01*
X136334285Y-77077142D01*
X136405714Y-77220000D01*
X136477142Y-77291428D01*
X136620000Y-77362857D01*
X137120000Y-77362857D01*
X134762857Y-78005714D02*
X134834285Y-78077142D01*
X135048571Y-78148571D01*
X135191428Y-78148571D01*
X135405714Y-78077142D01*
X135548571Y-77934285D01*
X135620000Y-77791428D01*
X135691428Y-77505714D01*
X135691428Y-77291428D01*
X135620000Y-77005714D01*
X135548571Y-76862857D01*
X135405714Y-76720000D01*
X135191428Y-76648571D01*
X135048571Y-76648571D01*
X134834285Y-76720000D01*
X134762857Y-76791428D01*
X133405714Y-78148571D02*
X134120000Y-78148571D01*
X134120000Y-76648571D01*
X132905714Y-78148571D02*
X132905714Y-76648571D01*
X132048571Y-78148571D02*
X132691428Y-77291428D01*
X132048571Y-76648571D02*
X132905714Y-77505714D01*
X137624000Y-71822571D02*
X137266857Y-73322571D01*
X136981142Y-72251142D01*
X136695428Y-73322571D01*
X136338285Y-71822571D01*
X134909714Y-73179714D02*
X134981142Y-73251142D01*
X135195428Y-73322571D01*
X135338285Y-73322571D01*
X135552571Y-73251142D01*
X135695428Y-73108285D01*
X135766857Y-72965428D01*
X135838285Y-72679714D01*
X135838285Y-72465428D01*
X135766857Y-72179714D01*
X135695428Y-72036857D01*
X135552571Y-71894000D01*
X135338285Y-71822571D01*
X135195428Y-71822571D01*
X134981142Y-71894000D01*
X134909714Y-71965428D01*
X133552571Y-73322571D02*
X134266857Y-73322571D01*
X134266857Y-71822571D01*
X133052571Y-73322571D02*
X133052571Y-71822571D01*
X132195428Y-73322571D02*
X132838285Y-72465428D01*
X132195428Y-71822571D02*
X133052571Y-72679714D01*
X135318357Y-69354000D02*
X135461214Y-69282571D01*
X135675500Y-69282571D01*
X135889785Y-69354000D01*
X136032642Y-69496857D01*
X136104071Y-69639714D01*
X136175500Y-69925428D01*
X136175500Y-70139714D01*
X136104071Y-70425428D01*
X136032642Y-70568285D01*
X135889785Y-70711142D01*
X135675500Y-70782571D01*
X135532642Y-70782571D01*
X135318357Y-70711142D01*
X135246928Y-70639714D01*
X135246928Y-70139714D01*
X135532642Y-70139714D01*
X134604071Y-70782571D02*
X134604071Y-69282571D01*
X133746928Y-70782571D01*
X133746928Y-69282571D01*
X133032642Y-70782571D02*
X133032642Y-69282571D01*
X132675500Y-69282571D01*
X132461214Y-69354000D01*
X132318357Y-69496857D01*
X132246928Y-69639714D01*
X132175500Y-69925428D01*
X132175500Y-70139714D01*
X132246928Y-70425428D01*
X132318357Y-70568285D01*
X132461214Y-70711142D01*
X132675500Y-70782571D01*
X133032642Y-70782571D01*
D11*
X150062000Y-74719922D02*
X150062000Y-75237078D01*
X148642000Y-74719922D02*
X148642000Y-75237078D01*
X142315000Y-79624422D02*
X142315000Y-80141578D01*
X140895000Y-79624422D02*
X140895000Y-80141578D01*
X142901600Y-79601322D02*
X142901600Y-80118478D01*
X144321600Y-79601322D02*
X144321600Y-80118478D01*
X151433600Y-66647322D02*
X151433600Y-67164478D01*
X150013600Y-66647322D02*
X150013600Y-67164478D01*
X144476400Y-66647322D02*
X144476400Y-67164478D01*
X145896400Y-66647322D02*
X145896400Y-67164478D01*
X149752578Y-71553000D02*
X149235422Y-71553000D01*
X149752578Y-72973000D02*
X149235422Y-72973000D01*
X146619000Y-72199500D02*
G75*
G03X146619000Y-72199500I-950000J0D01*
G01*
D12*
X142108180Y-75462833D02*
X142108180Y-74891404D01*
X142108180Y-75177119D02*
X141108180Y-75177119D01*
X141251038Y-75081880D01*
X141346276Y-74986642D01*
X141393895Y-74891404D01*
X141108180Y-76081880D02*
X141108180Y-76177119D01*
X141155800Y-76272357D01*
X141203419Y-76319976D01*
X141298657Y-76367595D01*
X141489133Y-76415214D01*
X141727228Y-76415214D01*
X141917704Y-76367595D01*
X142012942Y-76319976D01*
X142060561Y-76272357D01*
X142108180Y-76177119D01*
X142108180Y-76081880D01*
X142060561Y-75986642D01*
X142012942Y-75939023D01*
X141917704Y-75891404D01*
X141727228Y-75843785D01*
X141489133Y-75843785D01*
X141298657Y-75891404D01*
X141203419Y-75939023D01*
X141155800Y-75986642D01*
X141108180Y-76081880D01*
X142108180Y-76843785D02*
X141108180Y-76843785D01*
X142108180Y-77415214D02*
X141536752Y-76986642D01*
X141108180Y-77415214D02*
X141679609Y-76843785D01*
X142108180Y-78367595D02*
X142108180Y-77796166D01*
X142108180Y-78081880D02*
X141108180Y-78081880D01*
X141251038Y-77986642D01*
X141346276Y-77891404D01*
X141393895Y-77796166D01*
X144190980Y-75388933D02*
X144190980Y-74817504D01*
X144190980Y-75103219D02*
X143190980Y-75103219D01*
X143333838Y-75007980D01*
X143429076Y-74912742D01*
X143476695Y-74817504D01*
X143190980Y-76007980D02*
X143190980Y-76103219D01*
X143238600Y-76198457D01*
X143286219Y-76246076D01*
X143381457Y-76293695D01*
X143571933Y-76341314D01*
X143810028Y-76341314D01*
X144000504Y-76293695D01*
X144095742Y-76246076D01*
X144143361Y-76198457D01*
X144190980Y-76103219D01*
X144190980Y-76007980D01*
X144143361Y-75912742D01*
X144095742Y-75865123D01*
X144000504Y-75817504D01*
X143810028Y-75769885D01*
X143571933Y-75769885D01*
X143381457Y-75817504D01*
X143286219Y-75865123D01*
X143238600Y-75912742D01*
X143190980Y-76007980D01*
X144190980Y-76769885D02*
X143190980Y-76769885D01*
X144190980Y-77341314D02*
X143619552Y-76912742D01*
X143190980Y-77341314D02*
X143762409Y-76769885D01*
X143286219Y-77722266D02*
X143238600Y-77769885D01*
X143190980Y-77865123D01*
X143190980Y-78103219D01*
X143238600Y-78198457D01*
X143286219Y-78246076D01*
X143381457Y-78293695D01*
X143476695Y-78293695D01*
X143619552Y-78246076D01*
X144190980Y-77674647D01*
X144190980Y-78293695D01*
X149430742Y-66739233D02*
X149478361Y-66691614D01*
X149525980Y-66548757D01*
X149525980Y-66453519D01*
X149478361Y-66310661D01*
X149383123Y-66215423D01*
X149287885Y-66167804D01*
X149097409Y-66120185D01*
X148954552Y-66120185D01*
X148764076Y-66167804D01*
X148668838Y-66215423D01*
X148573600Y-66310661D01*
X148525980Y-66453519D01*
X148525980Y-66548757D01*
X148573600Y-66691614D01*
X148621219Y-66739233D01*
X148621219Y-67120185D02*
X148573600Y-67167804D01*
X148525980Y-67263042D01*
X148525980Y-67501138D01*
X148573600Y-67596376D01*
X148621219Y-67643995D01*
X148716457Y-67691614D01*
X148811695Y-67691614D01*
X148954552Y-67643995D01*
X149525980Y-67072566D01*
X149525980Y-67691614D01*
X143893542Y-66739233D02*
X143941161Y-66691614D01*
X143988780Y-66548757D01*
X143988780Y-66453519D01*
X143941161Y-66310661D01*
X143845923Y-66215423D01*
X143750685Y-66167804D01*
X143560209Y-66120185D01*
X143417352Y-66120185D01*
X143226876Y-66167804D01*
X143131638Y-66215423D01*
X143036400Y-66310661D01*
X142988780Y-66453519D01*
X142988780Y-66548757D01*
X143036400Y-66691614D01*
X143084019Y-66739233D01*
X142988780Y-67072566D02*
X142988780Y-67691614D01*
X143369733Y-67358280D01*
X143369733Y-67501138D01*
X143417352Y-67596376D01*
X143464971Y-67643995D01*
X143560209Y-67691614D01*
X143798304Y-67691614D01*
X143893542Y-67643995D01*
X143941161Y-67596376D01*
X143988780Y-67501138D01*
X143988780Y-67215423D01*
X143941161Y-67120185D01*
X143893542Y-67072566D01*
X144073404Y-72667880D02*
X143501976Y-72667880D01*
X143787690Y-73667880D02*
X143787690Y-72667880D01*
X143168642Y-73667880D02*
X143168642Y-72667880D01*
X142787690Y-72667880D01*
X142692452Y-72715500D01*
X142644833Y-72763119D01*
X142597214Y-72858357D01*
X142597214Y-73001214D01*
X142644833Y-73096452D01*
X142692452Y-73144071D01*
X142787690Y-73191690D01*
X143168642Y-73191690D01*
X142216261Y-72763119D02*
X142168642Y-72715500D01*
X142073404Y-72667880D01*
X141835309Y-72667880D01*
X141740071Y-72715500D01*
X141692452Y-72763119D01*
X141644833Y-72858357D01*
X141644833Y-72953595D01*
X141692452Y-73096452D01*
X142263880Y-73667880D01*
X141644833Y-73667880D01*
M02*
