G04 #@! TF.GenerationSoftware,KiCad,Pcbnew,5.1.1-8be2ce7~80~ubuntu18.10.1*
G04 #@! TF.CreationDate,2019-05-25T12:59:07+08:00*
G04 #@! TF.ProjectId,tas2562_dev_pcb,74617332-3536-4325-9f64-65765f706362,rev?*
G04 #@! TF.SameCoordinates,Original*
G04 #@! TF.FileFunction,Other,User*
%FSLAX46Y46*%
G04 Gerber Fmt 4.6, Leading zero omitted, Abs format (unit mm)*
G04 Created by KiCad (PCBNEW 5.1.1-8be2ce7~80~ubuntu18.10.1) date 2019-05-25 12:59:07*
%MOMM*%
%LPD*%
G04 APERTURE LIST*
%ADD10C,0.050000*%
%ADD11C,0.152400*%
G04 APERTURE END LIST*
D10*
X155317600Y-68050000D02*
X151717600Y-68050000D01*
X155317600Y-94500000D02*
X155317600Y-68050000D01*
X151717600Y-94500000D02*
X155317600Y-94500000D01*
X151717600Y-68050000D02*
X151717600Y-94500000D01*
D11*
X148872400Y-75999800D02*
X145564400Y-75999800D01*
X148872400Y-72691800D02*
X148872400Y-75999800D01*
X145564400Y-72691800D02*
X148872400Y-72691800D01*
X145564400Y-75999800D02*
X145564400Y-72691800D01*
D10*
X149794000Y-79482500D02*
X147894000Y-79482500D01*
X147894000Y-79482500D02*
X147894000Y-76122500D01*
X147894000Y-76122500D02*
X149794000Y-76122500D01*
X149794000Y-76122500D02*
X149794000Y-79482500D01*
X142306000Y-89896500D02*
X142306000Y-86536500D01*
X144206000Y-89896500D02*
X142306000Y-89896500D01*
X144206000Y-86536500D02*
X144206000Y-89896500D01*
X142306000Y-86536500D02*
X144206000Y-86536500D01*
X147242500Y-85786000D02*
X147242500Y-83886000D01*
X147242500Y-83886000D02*
X150602500Y-83886000D01*
X150602500Y-83886000D02*
X150602500Y-85786000D01*
X150602500Y-85786000D02*
X147242500Y-85786000D01*
X145925500Y-79482500D02*
X145925500Y-76122500D01*
X147825500Y-79482500D02*
X145925500Y-79482500D01*
X147825500Y-76122500D02*
X147825500Y-79482500D01*
X145925500Y-76122500D02*
X147825500Y-76122500D01*
X142162500Y-73594000D02*
X142162500Y-71694000D01*
X142162500Y-71694000D02*
X145522500Y-71694000D01*
X145522500Y-71694000D02*
X145522500Y-73594000D01*
X145522500Y-73594000D02*
X142162500Y-73594000D01*
X151717600Y-68050000D02*
X151717600Y-94500000D01*
X151717600Y-94500000D02*
X155317600Y-94500000D01*
X155317600Y-94500000D02*
X155317600Y-68050000D01*
X155317600Y-68050000D02*
X151717600Y-68050000D01*
X141140000Y-67347600D02*
X130640000Y-67347600D01*
X141140000Y-67347600D02*
X141140000Y-59347600D01*
X130640000Y-59347600D02*
X130640000Y-67347600D01*
X130640000Y-59347600D02*
X141140000Y-59347600D01*
X127740000Y-94510000D02*
X131340000Y-94510000D01*
X127740000Y-68060000D02*
X127740000Y-94510000D01*
X131340000Y-68060000D02*
X127740000Y-68060000D01*
X131340000Y-94510000D02*
X131340000Y-68060000D01*
X144274500Y-67296000D02*
X146174500Y-67296000D01*
X146174500Y-67296000D02*
X146174500Y-70656000D01*
X146174500Y-70656000D02*
X144274500Y-70656000D01*
X144274500Y-70656000D02*
X144274500Y-67296000D01*
X149413000Y-67535000D02*
X149413000Y-70895000D01*
X147513000Y-67535000D02*
X149413000Y-67535000D01*
X147513000Y-70895000D02*
X147513000Y-67535000D01*
X149413000Y-70895000D02*
X147513000Y-70895000D01*
X142578000Y-59246000D02*
X153078000Y-59246000D01*
X142578000Y-59246000D02*
X142578000Y-67246000D01*
X153078000Y-67246000D02*
X153078000Y-59246000D01*
X153078000Y-67246000D02*
X142578000Y-67246000D01*
X143807500Y-70231000D02*
G75*
G03X143807500Y-70231000I-1250000J0D01*
G01*
X148252500Y-82105500D02*
G75*
G03X148252500Y-82105500I-1250000J0D01*
G01*
X151682000Y-95078000D02*
X151682000Y-86278000D01*
X144482000Y-95078000D02*
X151682000Y-95078000D01*
X144482000Y-86278000D02*
X144482000Y-95078000D01*
X151682000Y-86278000D02*
X144482000Y-86278000D01*
M02*
