G04 #@! TF.GenerationSoftware,KiCad,Pcbnew,5.1.1-8be2ce7~80~ubuntu18.10.1*
G04 #@! TF.CreationDate,2019-05-25T12:59:07+08:00*
G04 #@! TF.ProjectId,tas2562_dev_pcb,74617332-3536-4325-9f64-65765f706362,rev?*
G04 #@! TF.SameCoordinates,Original*
G04 #@! TF.FileFunction,Copper,L4,Bot*
G04 #@! TF.FilePolarity,Positive*
%FSLAX46Y46*%
G04 Gerber Fmt 4.6, Leading zero omitted, Abs format (unit mm)*
G04 Created by KiCad (PCBNEW 5.1.1-8be2ce7~80~ubuntu18.10.1) date 2019-05-25 12:59:07*
%MOMM*%
%LPD*%
G04 APERTURE LIST*
%ADD10O,1.700000X1.700000*%
%ADD11R,1.700000X1.700000*%
%ADD12C,0.100000*%
%ADD13C,0.975000*%
%ADD14R,3.000000X3.000000*%
%ADD15C,3.000000*%
%ADD16C,1.500000*%
%ADD17C,0.200000*%
%ADD18C,0.700000*%
%ADD19C,0.300000*%
%ADD20C,0.400000*%
%ADD21C,0.250000*%
%ADD22C,0.300000*%
%ADD23C,0.500000*%
%ADD24C,0.200000*%
%ADD25C,0.254000*%
G04 APERTURE END LIST*
D10*
X153517600Y-92710000D03*
X153517600Y-90170000D03*
X153517600Y-87630000D03*
X153517600Y-85090000D03*
X153517600Y-82550000D03*
X153517600Y-80010000D03*
X153517600Y-77470000D03*
X153517600Y-74930000D03*
X153517600Y-72390000D03*
D11*
X153517600Y-69850000D03*
D12*
G36*
X149832142Y-75429674D02*
G01*
X149855803Y-75433184D01*
X149879007Y-75438996D01*
X149901529Y-75447054D01*
X149923153Y-75457282D01*
X149943670Y-75469579D01*
X149962883Y-75483829D01*
X149980607Y-75499893D01*
X149996671Y-75517617D01*
X150010921Y-75536830D01*
X150023218Y-75557347D01*
X150033446Y-75578971D01*
X150041504Y-75601493D01*
X150047316Y-75624697D01*
X150050826Y-75648358D01*
X150052000Y-75672250D01*
X150052000Y-76159750D01*
X150050826Y-76183642D01*
X150047316Y-76207303D01*
X150041504Y-76230507D01*
X150033446Y-76253029D01*
X150023218Y-76274653D01*
X150010921Y-76295170D01*
X149996671Y-76314383D01*
X149980607Y-76332107D01*
X149962883Y-76348171D01*
X149943670Y-76362421D01*
X149923153Y-76374718D01*
X149901529Y-76384946D01*
X149879007Y-76393004D01*
X149855803Y-76398816D01*
X149832142Y-76402326D01*
X149808250Y-76403500D01*
X148895750Y-76403500D01*
X148871858Y-76402326D01*
X148848197Y-76398816D01*
X148824993Y-76393004D01*
X148802471Y-76384946D01*
X148780847Y-76374718D01*
X148760330Y-76362421D01*
X148741117Y-76348171D01*
X148723393Y-76332107D01*
X148707329Y-76314383D01*
X148693079Y-76295170D01*
X148680782Y-76274653D01*
X148670554Y-76253029D01*
X148662496Y-76230507D01*
X148656684Y-76207303D01*
X148653174Y-76183642D01*
X148652000Y-76159750D01*
X148652000Y-75672250D01*
X148653174Y-75648358D01*
X148656684Y-75624697D01*
X148662496Y-75601493D01*
X148670554Y-75578971D01*
X148680782Y-75557347D01*
X148693079Y-75536830D01*
X148707329Y-75517617D01*
X148723393Y-75499893D01*
X148741117Y-75483829D01*
X148760330Y-75469579D01*
X148780847Y-75457282D01*
X148802471Y-75447054D01*
X148824993Y-75438996D01*
X148848197Y-75433184D01*
X148871858Y-75429674D01*
X148895750Y-75428500D01*
X149808250Y-75428500D01*
X149832142Y-75429674D01*
X149832142Y-75429674D01*
G37*
D13*
X149352000Y-75916000D03*
D12*
G36*
X149832142Y-73554674D02*
G01*
X149855803Y-73558184D01*
X149879007Y-73563996D01*
X149901529Y-73572054D01*
X149923153Y-73582282D01*
X149943670Y-73594579D01*
X149962883Y-73608829D01*
X149980607Y-73624893D01*
X149996671Y-73642617D01*
X150010921Y-73661830D01*
X150023218Y-73682347D01*
X150033446Y-73703971D01*
X150041504Y-73726493D01*
X150047316Y-73749697D01*
X150050826Y-73773358D01*
X150052000Y-73797250D01*
X150052000Y-74284750D01*
X150050826Y-74308642D01*
X150047316Y-74332303D01*
X150041504Y-74355507D01*
X150033446Y-74378029D01*
X150023218Y-74399653D01*
X150010921Y-74420170D01*
X149996671Y-74439383D01*
X149980607Y-74457107D01*
X149962883Y-74473171D01*
X149943670Y-74487421D01*
X149923153Y-74499718D01*
X149901529Y-74509946D01*
X149879007Y-74518004D01*
X149855803Y-74523816D01*
X149832142Y-74527326D01*
X149808250Y-74528500D01*
X148895750Y-74528500D01*
X148871858Y-74527326D01*
X148848197Y-74523816D01*
X148824993Y-74518004D01*
X148802471Y-74509946D01*
X148780847Y-74499718D01*
X148760330Y-74487421D01*
X148741117Y-74473171D01*
X148723393Y-74457107D01*
X148707329Y-74439383D01*
X148693079Y-74420170D01*
X148680782Y-74399653D01*
X148670554Y-74378029D01*
X148662496Y-74355507D01*
X148656684Y-74332303D01*
X148653174Y-74308642D01*
X148652000Y-74284750D01*
X148652000Y-73797250D01*
X148653174Y-73773358D01*
X148656684Y-73749697D01*
X148662496Y-73726493D01*
X148670554Y-73703971D01*
X148680782Y-73682347D01*
X148693079Y-73661830D01*
X148707329Y-73642617D01*
X148723393Y-73624893D01*
X148741117Y-73608829D01*
X148760330Y-73594579D01*
X148780847Y-73582282D01*
X148802471Y-73572054D01*
X148824993Y-73563996D01*
X148848197Y-73558184D01*
X148871858Y-73554674D01*
X148895750Y-73553500D01*
X149808250Y-73553500D01*
X149832142Y-73554674D01*
X149832142Y-73554674D01*
G37*
D13*
X149352000Y-74041000D03*
D12*
G36*
X142085142Y-80334174D02*
G01*
X142108803Y-80337684D01*
X142132007Y-80343496D01*
X142154529Y-80351554D01*
X142176153Y-80361782D01*
X142196670Y-80374079D01*
X142215883Y-80388329D01*
X142233607Y-80404393D01*
X142249671Y-80422117D01*
X142263921Y-80441330D01*
X142276218Y-80461847D01*
X142286446Y-80483471D01*
X142294504Y-80505993D01*
X142300316Y-80529197D01*
X142303826Y-80552858D01*
X142305000Y-80576750D01*
X142305000Y-81064250D01*
X142303826Y-81088142D01*
X142300316Y-81111803D01*
X142294504Y-81135007D01*
X142286446Y-81157529D01*
X142276218Y-81179153D01*
X142263921Y-81199670D01*
X142249671Y-81218883D01*
X142233607Y-81236607D01*
X142215883Y-81252671D01*
X142196670Y-81266921D01*
X142176153Y-81279218D01*
X142154529Y-81289446D01*
X142132007Y-81297504D01*
X142108803Y-81303316D01*
X142085142Y-81306826D01*
X142061250Y-81308000D01*
X141148750Y-81308000D01*
X141124858Y-81306826D01*
X141101197Y-81303316D01*
X141077993Y-81297504D01*
X141055471Y-81289446D01*
X141033847Y-81279218D01*
X141013330Y-81266921D01*
X140994117Y-81252671D01*
X140976393Y-81236607D01*
X140960329Y-81218883D01*
X140946079Y-81199670D01*
X140933782Y-81179153D01*
X140923554Y-81157529D01*
X140915496Y-81135007D01*
X140909684Y-81111803D01*
X140906174Y-81088142D01*
X140905000Y-81064250D01*
X140905000Y-80576750D01*
X140906174Y-80552858D01*
X140909684Y-80529197D01*
X140915496Y-80505993D01*
X140923554Y-80483471D01*
X140933782Y-80461847D01*
X140946079Y-80441330D01*
X140960329Y-80422117D01*
X140976393Y-80404393D01*
X140994117Y-80388329D01*
X141013330Y-80374079D01*
X141033847Y-80361782D01*
X141055471Y-80351554D01*
X141077993Y-80343496D01*
X141101197Y-80337684D01*
X141124858Y-80334174D01*
X141148750Y-80333000D01*
X142061250Y-80333000D01*
X142085142Y-80334174D01*
X142085142Y-80334174D01*
G37*
D13*
X141605000Y-80820500D03*
D12*
G36*
X142085142Y-78459174D02*
G01*
X142108803Y-78462684D01*
X142132007Y-78468496D01*
X142154529Y-78476554D01*
X142176153Y-78486782D01*
X142196670Y-78499079D01*
X142215883Y-78513329D01*
X142233607Y-78529393D01*
X142249671Y-78547117D01*
X142263921Y-78566330D01*
X142276218Y-78586847D01*
X142286446Y-78608471D01*
X142294504Y-78630993D01*
X142300316Y-78654197D01*
X142303826Y-78677858D01*
X142305000Y-78701750D01*
X142305000Y-79189250D01*
X142303826Y-79213142D01*
X142300316Y-79236803D01*
X142294504Y-79260007D01*
X142286446Y-79282529D01*
X142276218Y-79304153D01*
X142263921Y-79324670D01*
X142249671Y-79343883D01*
X142233607Y-79361607D01*
X142215883Y-79377671D01*
X142196670Y-79391921D01*
X142176153Y-79404218D01*
X142154529Y-79414446D01*
X142132007Y-79422504D01*
X142108803Y-79428316D01*
X142085142Y-79431826D01*
X142061250Y-79433000D01*
X141148750Y-79433000D01*
X141124858Y-79431826D01*
X141101197Y-79428316D01*
X141077993Y-79422504D01*
X141055471Y-79414446D01*
X141033847Y-79404218D01*
X141013330Y-79391921D01*
X140994117Y-79377671D01*
X140976393Y-79361607D01*
X140960329Y-79343883D01*
X140946079Y-79324670D01*
X140933782Y-79304153D01*
X140923554Y-79282529D01*
X140915496Y-79260007D01*
X140909684Y-79236803D01*
X140906174Y-79213142D01*
X140905000Y-79189250D01*
X140905000Y-78701750D01*
X140906174Y-78677858D01*
X140909684Y-78654197D01*
X140915496Y-78630993D01*
X140923554Y-78608471D01*
X140933782Y-78586847D01*
X140946079Y-78566330D01*
X140960329Y-78547117D01*
X140976393Y-78529393D01*
X140994117Y-78513329D01*
X141013330Y-78499079D01*
X141033847Y-78486782D01*
X141055471Y-78476554D01*
X141077993Y-78468496D01*
X141101197Y-78462684D01*
X141124858Y-78459174D01*
X141148750Y-78458000D01*
X142061250Y-78458000D01*
X142085142Y-78459174D01*
X142085142Y-78459174D01*
G37*
D13*
X141605000Y-78945500D03*
D12*
G36*
X144091742Y-78436074D02*
G01*
X144115403Y-78439584D01*
X144138607Y-78445396D01*
X144161129Y-78453454D01*
X144182753Y-78463682D01*
X144203270Y-78475979D01*
X144222483Y-78490229D01*
X144240207Y-78506293D01*
X144256271Y-78524017D01*
X144270521Y-78543230D01*
X144282818Y-78563747D01*
X144293046Y-78585371D01*
X144301104Y-78607893D01*
X144306916Y-78631097D01*
X144310426Y-78654758D01*
X144311600Y-78678650D01*
X144311600Y-79166150D01*
X144310426Y-79190042D01*
X144306916Y-79213703D01*
X144301104Y-79236907D01*
X144293046Y-79259429D01*
X144282818Y-79281053D01*
X144270521Y-79301570D01*
X144256271Y-79320783D01*
X144240207Y-79338507D01*
X144222483Y-79354571D01*
X144203270Y-79368821D01*
X144182753Y-79381118D01*
X144161129Y-79391346D01*
X144138607Y-79399404D01*
X144115403Y-79405216D01*
X144091742Y-79408726D01*
X144067850Y-79409900D01*
X143155350Y-79409900D01*
X143131458Y-79408726D01*
X143107797Y-79405216D01*
X143084593Y-79399404D01*
X143062071Y-79391346D01*
X143040447Y-79381118D01*
X143019930Y-79368821D01*
X143000717Y-79354571D01*
X142982993Y-79338507D01*
X142966929Y-79320783D01*
X142952679Y-79301570D01*
X142940382Y-79281053D01*
X142930154Y-79259429D01*
X142922096Y-79236907D01*
X142916284Y-79213703D01*
X142912774Y-79190042D01*
X142911600Y-79166150D01*
X142911600Y-78678650D01*
X142912774Y-78654758D01*
X142916284Y-78631097D01*
X142922096Y-78607893D01*
X142930154Y-78585371D01*
X142940382Y-78563747D01*
X142952679Y-78543230D01*
X142966929Y-78524017D01*
X142982993Y-78506293D01*
X143000717Y-78490229D01*
X143019930Y-78475979D01*
X143040447Y-78463682D01*
X143062071Y-78453454D01*
X143084593Y-78445396D01*
X143107797Y-78439584D01*
X143131458Y-78436074D01*
X143155350Y-78434900D01*
X144067850Y-78434900D01*
X144091742Y-78436074D01*
X144091742Y-78436074D01*
G37*
D13*
X143611600Y-78922400D03*
D12*
G36*
X144091742Y-80311074D02*
G01*
X144115403Y-80314584D01*
X144138607Y-80320396D01*
X144161129Y-80328454D01*
X144182753Y-80338682D01*
X144203270Y-80350979D01*
X144222483Y-80365229D01*
X144240207Y-80381293D01*
X144256271Y-80399017D01*
X144270521Y-80418230D01*
X144282818Y-80438747D01*
X144293046Y-80460371D01*
X144301104Y-80482893D01*
X144306916Y-80506097D01*
X144310426Y-80529758D01*
X144311600Y-80553650D01*
X144311600Y-81041150D01*
X144310426Y-81065042D01*
X144306916Y-81088703D01*
X144301104Y-81111907D01*
X144293046Y-81134429D01*
X144282818Y-81156053D01*
X144270521Y-81176570D01*
X144256271Y-81195783D01*
X144240207Y-81213507D01*
X144222483Y-81229571D01*
X144203270Y-81243821D01*
X144182753Y-81256118D01*
X144161129Y-81266346D01*
X144138607Y-81274404D01*
X144115403Y-81280216D01*
X144091742Y-81283726D01*
X144067850Y-81284900D01*
X143155350Y-81284900D01*
X143131458Y-81283726D01*
X143107797Y-81280216D01*
X143084593Y-81274404D01*
X143062071Y-81266346D01*
X143040447Y-81256118D01*
X143019930Y-81243821D01*
X143000717Y-81229571D01*
X142982993Y-81213507D01*
X142966929Y-81195783D01*
X142952679Y-81176570D01*
X142940382Y-81156053D01*
X142930154Y-81134429D01*
X142922096Y-81111907D01*
X142916284Y-81088703D01*
X142912774Y-81065042D01*
X142911600Y-81041150D01*
X142911600Y-80553650D01*
X142912774Y-80529758D01*
X142916284Y-80506097D01*
X142922096Y-80482893D01*
X142930154Y-80460371D01*
X142940382Y-80438747D01*
X142952679Y-80418230D01*
X142966929Y-80399017D01*
X142982993Y-80381293D01*
X143000717Y-80365229D01*
X143019930Y-80350979D01*
X143040447Y-80338682D01*
X143062071Y-80328454D01*
X143084593Y-80320396D01*
X143107797Y-80314584D01*
X143131458Y-80311074D01*
X143155350Y-80309900D01*
X144067850Y-80309900D01*
X144091742Y-80311074D01*
X144091742Y-80311074D01*
G37*
D13*
X143611600Y-80797400D03*
D12*
G36*
X151203742Y-67357074D02*
G01*
X151227403Y-67360584D01*
X151250607Y-67366396D01*
X151273129Y-67374454D01*
X151294753Y-67384682D01*
X151315270Y-67396979D01*
X151334483Y-67411229D01*
X151352207Y-67427293D01*
X151368271Y-67445017D01*
X151382521Y-67464230D01*
X151394818Y-67484747D01*
X151405046Y-67506371D01*
X151413104Y-67528893D01*
X151418916Y-67552097D01*
X151422426Y-67575758D01*
X151423600Y-67599650D01*
X151423600Y-68087150D01*
X151422426Y-68111042D01*
X151418916Y-68134703D01*
X151413104Y-68157907D01*
X151405046Y-68180429D01*
X151394818Y-68202053D01*
X151382521Y-68222570D01*
X151368271Y-68241783D01*
X151352207Y-68259507D01*
X151334483Y-68275571D01*
X151315270Y-68289821D01*
X151294753Y-68302118D01*
X151273129Y-68312346D01*
X151250607Y-68320404D01*
X151227403Y-68326216D01*
X151203742Y-68329726D01*
X151179850Y-68330900D01*
X150267350Y-68330900D01*
X150243458Y-68329726D01*
X150219797Y-68326216D01*
X150196593Y-68320404D01*
X150174071Y-68312346D01*
X150152447Y-68302118D01*
X150131930Y-68289821D01*
X150112717Y-68275571D01*
X150094993Y-68259507D01*
X150078929Y-68241783D01*
X150064679Y-68222570D01*
X150052382Y-68202053D01*
X150042154Y-68180429D01*
X150034096Y-68157907D01*
X150028284Y-68134703D01*
X150024774Y-68111042D01*
X150023600Y-68087150D01*
X150023600Y-67599650D01*
X150024774Y-67575758D01*
X150028284Y-67552097D01*
X150034096Y-67528893D01*
X150042154Y-67506371D01*
X150052382Y-67484747D01*
X150064679Y-67464230D01*
X150078929Y-67445017D01*
X150094993Y-67427293D01*
X150112717Y-67411229D01*
X150131930Y-67396979D01*
X150152447Y-67384682D01*
X150174071Y-67374454D01*
X150196593Y-67366396D01*
X150219797Y-67360584D01*
X150243458Y-67357074D01*
X150267350Y-67355900D01*
X151179850Y-67355900D01*
X151203742Y-67357074D01*
X151203742Y-67357074D01*
G37*
D13*
X150723600Y-67843400D03*
D12*
G36*
X151203742Y-65482074D02*
G01*
X151227403Y-65485584D01*
X151250607Y-65491396D01*
X151273129Y-65499454D01*
X151294753Y-65509682D01*
X151315270Y-65521979D01*
X151334483Y-65536229D01*
X151352207Y-65552293D01*
X151368271Y-65570017D01*
X151382521Y-65589230D01*
X151394818Y-65609747D01*
X151405046Y-65631371D01*
X151413104Y-65653893D01*
X151418916Y-65677097D01*
X151422426Y-65700758D01*
X151423600Y-65724650D01*
X151423600Y-66212150D01*
X151422426Y-66236042D01*
X151418916Y-66259703D01*
X151413104Y-66282907D01*
X151405046Y-66305429D01*
X151394818Y-66327053D01*
X151382521Y-66347570D01*
X151368271Y-66366783D01*
X151352207Y-66384507D01*
X151334483Y-66400571D01*
X151315270Y-66414821D01*
X151294753Y-66427118D01*
X151273129Y-66437346D01*
X151250607Y-66445404D01*
X151227403Y-66451216D01*
X151203742Y-66454726D01*
X151179850Y-66455900D01*
X150267350Y-66455900D01*
X150243458Y-66454726D01*
X150219797Y-66451216D01*
X150196593Y-66445404D01*
X150174071Y-66437346D01*
X150152447Y-66427118D01*
X150131930Y-66414821D01*
X150112717Y-66400571D01*
X150094993Y-66384507D01*
X150078929Y-66366783D01*
X150064679Y-66347570D01*
X150052382Y-66327053D01*
X150042154Y-66305429D01*
X150034096Y-66282907D01*
X150028284Y-66259703D01*
X150024774Y-66236042D01*
X150023600Y-66212150D01*
X150023600Y-65724650D01*
X150024774Y-65700758D01*
X150028284Y-65677097D01*
X150034096Y-65653893D01*
X150042154Y-65631371D01*
X150052382Y-65609747D01*
X150064679Y-65589230D01*
X150078929Y-65570017D01*
X150094993Y-65552293D01*
X150112717Y-65536229D01*
X150131930Y-65521979D01*
X150152447Y-65509682D01*
X150174071Y-65499454D01*
X150196593Y-65491396D01*
X150219797Y-65485584D01*
X150243458Y-65482074D01*
X150267350Y-65480900D01*
X151179850Y-65480900D01*
X151203742Y-65482074D01*
X151203742Y-65482074D01*
G37*
D13*
X150723600Y-65968400D03*
D12*
G36*
X145666542Y-65482074D02*
G01*
X145690203Y-65485584D01*
X145713407Y-65491396D01*
X145735929Y-65499454D01*
X145757553Y-65509682D01*
X145778070Y-65521979D01*
X145797283Y-65536229D01*
X145815007Y-65552293D01*
X145831071Y-65570017D01*
X145845321Y-65589230D01*
X145857618Y-65609747D01*
X145867846Y-65631371D01*
X145875904Y-65653893D01*
X145881716Y-65677097D01*
X145885226Y-65700758D01*
X145886400Y-65724650D01*
X145886400Y-66212150D01*
X145885226Y-66236042D01*
X145881716Y-66259703D01*
X145875904Y-66282907D01*
X145867846Y-66305429D01*
X145857618Y-66327053D01*
X145845321Y-66347570D01*
X145831071Y-66366783D01*
X145815007Y-66384507D01*
X145797283Y-66400571D01*
X145778070Y-66414821D01*
X145757553Y-66427118D01*
X145735929Y-66437346D01*
X145713407Y-66445404D01*
X145690203Y-66451216D01*
X145666542Y-66454726D01*
X145642650Y-66455900D01*
X144730150Y-66455900D01*
X144706258Y-66454726D01*
X144682597Y-66451216D01*
X144659393Y-66445404D01*
X144636871Y-66437346D01*
X144615247Y-66427118D01*
X144594730Y-66414821D01*
X144575517Y-66400571D01*
X144557793Y-66384507D01*
X144541729Y-66366783D01*
X144527479Y-66347570D01*
X144515182Y-66327053D01*
X144504954Y-66305429D01*
X144496896Y-66282907D01*
X144491084Y-66259703D01*
X144487574Y-66236042D01*
X144486400Y-66212150D01*
X144486400Y-65724650D01*
X144487574Y-65700758D01*
X144491084Y-65677097D01*
X144496896Y-65653893D01*
X144504954Y-65631371D01*
X144515182Y-65609747D01*
X144527479Y-65589230D01*
X144541729Y-65570017D01*
X144557793Y-65552293D01*
X144575517Y-65536229D01*
X144594730Y-65521979D01*
X144615247Y-65509682D01*
X144636871Y-65499454D01*
X144659393Y-65491396D01*
X144682597Y-65485584D01*
X144706258Y-65482074D01*
X144730150Y-65480900D01*
X145642650Y-65480900D01*
X145666542Y-65482074D01*
X145666542Y-65482074D01*
G37*
D13*
X145186400Y-65968400D03*
D12*
G36*
X145666542Y-67357074D02*
G01*
X145690203Y-67360584D01*
X145713407Y-67366396D01*
X145735929Y-67374454D01*
X145757553Y-67384682D01*
X145778070Y-67396979D01*
X145797283Y-67411229D01*
X145815007Y-67427293D01*
X145831071Y-67445017D01*
X145845321Y-67464230D01*
X145857618Y-67484747D01*
X145867846Y-67506371D01*
X145875904Y-67528893D01*
X145881716Y-67552097D01*
X145885226Y-67575758D01*
X145886400Y-67599650D01*
X145886400Y-68087150D01*
X145885226Y-68111042D01*
X145881716Y-68134703D01*
X145875904Y-68157907D01*
X145867846Y-68180429D01*
X145857618Y-68202053D01*
X145845321Y-68222570D01*
X145831071Y-68241783D01*
X145815007Y-68259507D01*
X145797283Y-68275571D01*
X145778070Y-68289821D01*
X145757553Y-68302118D01*
X145735929Y-68312346D01*
X145713407Y-68320404D01*
X145690203Y-68326216D01*
X145666542Y-68329726D01*
X145642650Y-68330900D01*
X144730150Y-68330900D01*
X144706258Y-68329726D01*
X144682597Y-68326216D01*
X144659393Y-68320404D01*
X144636871Y-68312346D01*
X144615247Y-68302118D01*
X144594730Y-68289821D01*
X144575517Y-68275571D01*
X144557793Y-68259507D01*
X144541729Y-68241783D01*
X144527479Y-68222570D01*
X144515182Y-68202053D01*
X144504954Y-68180429D01*
X144496896Y-68157907D01*
X144491084Y-68134703D01*
X144487574Y-68111042D01*
X144486400Y-68087150D01*
X144486400Y-67599650D01*
X144487574Y-67575758D01*
X144491084Y-67552097D01*
X144496896Y-67528893D01*
X144504954Y-67506371D01*
X144515182Y-67484747D01*
X144527479Y-67464230D01*
X144541729Y-67445017D01*
X144557793Y-67427293D01*
X144575517Y-67411229D01*
X144594730Y-67396979D01*
X144615247Y-67384682D01*
X144636871Y-67374454D01*
X144659393Y-67366396D01*
X144682597Y-67360584D01*
X144706258Y-67357074D01*
X144730150Y-67355900D01*
X145642650Y-67355900D01*
X145666542Y-67357074D01*
X145666542Y-67357074D01*
G37*
D13*
X145186400Y-67843400D03*
D12*
G36*
X150699142Y-71564174D02*
G01*
X150722803Y-71567684D01*
X150746007Y-71573496D01*
X150768529Y-71581554D01*
X150790153Y-71591782D01*
X150810670Y-71604079D01*
X150829883Y-71618329D01*
X150847607Y-71634393D01*
X150863671Y-71652117D01*
X150877921Y-71671330D01*
X150890218Y-71691847D01*
X150900446Y-71713471D01*
X150908504Y-71735993D01*
X150914316Y-71759197D01*
X150917826Y-71782858D01*
X150919000Y-71806750D01*
X150919000Y-72719250D01*
X150917826Y-72743142D01*
X150914316Y-72766803D01*
X150908504Y-72790007D01*
X150900446Y-72812529D01*
X150890218Y-72834153D01*
X150877921Y-72854670D01*
X150863671Y-72873883D01*
X150847607Y-72891607D01*
X150829883Y-72907671D01*
X150810670Y-72921921D01*
X150790153Y-72934218D01*
X150768529Y-72944446D01*
X150746007Y-72952504D01*
X150722803Y-72958316D01*
X150699142Y-72961826D01*
X150675250Y-72963000D01*
X150187750Y-72963000D01*
X150163858Y-72961826D01*
X150140197Y-72958316D01*
X150116993Y-72952504D01*
X150094471Y-72944446D01*
X150072847Y-72934218D01*
X150052330Y-72921921D01*
X150033117Y-72907671D01*
X150015393Y-72891607D01*
X149999329Y-72873883D01*
X149985079Y-72854670D01*
X149972782Y-72834153D01*
X149962554Y-72812529D01*
X149954496Y-72790007D01*
X149948684Y-72766803D01*
X149945174Y-72743142D01*
X149944000Y-72719250D01*
X149944000Y-71806750D01*
X149945174Y-71782858D01*
X149948684Y-71759197D01*
X149954496Y-71735993D01*
X149962554Y-71713471D01*
X149972782Y-71691847D01*
X149985079Y-71671330D01*
X149999329Y-71652117D01*
X150015393Y-71634393D01*
X150033117Y-71618329D01*
X150052330Y-71604079D01*
X150072847Y-71591782D01*
X150094471Y-71581554D01*
X150116993Y-71573496D01*
X150140197Y-71567684D01*
X150163858Y-71564174D01*
X150187750Y-71563000D01*
X150675250Y-71563000D01*
X150699142Y-71564174D01*
X150699142Y-71564174D01*
G37*
D13*
X150431500Y-72263000D03*
D12*
G36*
X148824142Y-71564174D02*
G01*
X148847803Y-71567684D01*
X148871007Y-71573496D01*
X148893529Y-71581554D01*
X148915153Y-71591782D01*
X148935670Y-71604079D01*
X148954883Y-71618329D01*
X148972607Y-71634393D01*
X148988671Y-71652117D01*
X149002921Y-71671330D01*
X149015218Y-71691847D01*
X149025446Y-71713471D01*
X149033504Y-71735993D01*
X149039316Y-71759197D01*
X149042826Y-71782858D01*
X149044000Y-71806750D01*
X149044000Y-72719250D01*
X149042826Y-72743142D01*
X149039316Y-72766803D01*
X149033504Y-72790007D01*
X149025446Y-72812529D01*
X149015218Y-72834153D01*
X149002921Y-72854670D01*
X148988671Y-72873883D01*
X148972607Y-72891607D01*
X148954883Y-72907671D01*
X148935670Y-72921921D01*
X148915153Y-72934218D01*
X148893529Y-72944446D01*
X148871007Y-72952504D01*
X148847803Y-72958316D01*
X148824142Y-72961826D01*
X148800250Y-72963000D01*
X148312750Y-72963000D01*
X148288858Y-72961826D01*
X148265197Y-72958316D01*
X148241993Y-72952504D01*
X148219471Y-72944446D01*
X148197847Y-72934218D01*
X148177330Y-72921921D01*
X148158117Y-72907671D01*
X148140393Y-72891607D01*
X148124329Y-72873883D01*
X148110079Y-72854670D01*
X148097782Y-72834153D01*
X148087554Y-72812529D01*
X148079496Y-72790007D01*
X148073684Y-72766803D01*
X148070174Y-72743142D01*
X148069000Y-72719250D01*
X148069000Y-71806750D01*
X148070174Y-71782858D01*
X148073684Y-71759197D01*
X148079496Y-71735993D01*
X148087554Y-71713471D01*
X148097782Y-71691847D01*
X148110079Y-71671330D01*
X148124329Y-71652117D01*
X148140393Y-71634393D01*
X148158117Y-71618329D01*
X148177330Y-71604079D01*
X148197847Y-71591782D01*
X148219471Y-71581554D01*
X148241993Y-71573496D01*
X148265197Y-71567684D01*
X148288858Y-71564174D01*
X148312750Y-71563000D01*
X148800250Y-71563000D01*
X148824142Y-71564174D01*
X148824142Y-71564174D01*
G37*
D13*
X148556500Y-72263000D03*
D11*
X153517600Y-69850000D03*
D10*
X153517600Y-72390000D03*
X153517600Y-74930000D03*
X153517600Y-77470000D03*
X153517600Y-80010000D03*
X153517600Y-82550000D03*
X153517600Y-85090000D03*
X153517600Y-87630000D03*
X153517600Y-90170000D03*
X153517600Y-92710000D03*
D14*
X138430000Y-63347600D03*
D15*
X133350000Y-63347600D03*
D10*
X129540000Y-69850000D03*
X129540000Y-72390000D03*
X129540000Y-74930000D03*
X129540000Y-77470000D03*
X129540000Y-80010000D03*
X129540000Y-82550000D03*
X129540000Y-85090000D03*
X129540000Y-87630000D03*
X129540000Y-90170000D03*
D11*
X129540000Y-92710000D03*
D15*
X145288000Y-63246000D03*
D14*
X150368000Y-63246000D03*
D16*
X145669000Y-72199500D03*
D17*
X148919080Y-76703267D03*
X147430790Y-74158190D03*
X141859000Y-80873600D03*
D18*
X149723010Y-74041000D03*
D17*
X148674064Y-73983116D03*
X143588500Y-78945500D03*
X146218400Y-73345800D03*
X143611600Y-80797400D03*
X146240500Y-74168000D03*
X146618400Y-74145800D03*
X146618400Y-74145800D03*
X146618400Y-74145800D03*
X146618400Y-74145800D03*
X146618400Y-74145800D03*
X146618400Y-74145800D03*
X146218400Y-74945800D03*
X146618400Y-74945800D03*
X145605510Y-75183998D03*
X145542000Y-75755500D03*
X147018400Y-74145800D03*
D19*
X145224500Y-66865500D03*
D17*
X148590000Y-72771004D03*
D20*
X151701500Y-73787000D03*
D19*
X145224500Y-69913500D03*
D17*
X148584010Y-74945800D03*
X148463000Y-70152516D03*
X145669000Y-72199500D03*
X147018400Y-74545800D03*
X146218400Y-74545800D03*
X146618400Y-74545800D03*
X147418400Y-74945800D03*
D19*
X146939000Y-78456000D03*
X149860000Y-84836000D03*
X150382000Y-85866000D03*
X150382000Y-87528000D03*
X143256000Y-89154000D03*
X146177000Y-89154000D03*
X147574000Y-89154000D03*
X144653000Y-89154000D03*
X149274250Y-88885750D03*
D17*
X147418400Y-73745800D03*
D19*
X142905000Y-72644000D03*
D21*
X148082000Y-74809400D02*
X147530789Y-74258189D01*
X147530789Y-74258189D02*
X147430790Y-74158190D01*
X148919080Y-76703267D02*
X148705627Y-76703267D01*
X148705627Y-76703267D02*
X148082000Y-76079640D01*
X148082000Y-76079640D02*
X148082000Y-74809400D01*
D22*
X149723010Y-74041000D02*
X148731948Y-74041000D01*
X148731948Y-74041000D02*
X148674064Y-73983116D01*
D23*
X143535400Y-78998600D02*
X143588500Y-78945500D01*
X141859000Y-78998600D02*
X143535400Y-78998600D01*
X143588500Y-78945500D02*
X143611600Y-78922400D01*
X150723600Y-63601600D02*
X150368000Y-63246000D01*
X150723600Y-65968400D02*
X150723600Y-63601600D01*
X145186400Y-63347600D02*
X145288000Y-63246000D01*
X145186400Y-65968400D02*
X145186400Y-63347600D01*
D24*
X152120600Y-73787000D02*
X151984342Y-73787000D01*
X153517600Y-72390000D02*
X152120600Y-73787000D01*
X151984342Y-73787000D02*
X151701500Y-73787000D01*
D25*
G36*
X154813000Y-71663311D02*
G01*
X154758306Y-71560986D01*
X154572734Y-71334866D01*
X154346614Y-71149294D01*
X154088634Y-71011401D01*
X153808711Y-70926487D01*
X153590550Y-70905000D01*
X153444650Y-70905000D01*
X153226489Y-70926487D01*
X152946566Y-71011401D01*
X152688586Y-71149294D01*
X152462466Y-71334866D01*
X152276894Y-71560986D01*
X152139001Y-71818966D01*
X152054087Y-72098889D01*
X152025415Y-72390000D01*
X152054087Y-72681111D01*
X152085032Y-72783122D01*
X151894185Y-72973969D01*
X151783740Y-72952000D01*
X151619260Y-72952000D01*
X151457940Y-72984089D01*
X151305979Y-73047033D01*
X151169219Y-73138413D01*
X151052913Y-73254719D01*
X150961533Y-73391479D01*
X150898589Y-73543440D01*
X150866500Y-73704760D01*
X150866500Y-73869240D01*
X150898589Y-74030560D01*
X150961533Y-74182521D01*
X151052913Y-74319281D01*
X151169219Y-74435587D01*
X151305979Y-74526967D01*
X151457940Y-74589911D01*
X151619260Y-74622000D01*
X151783740Y-74622000D01*
X151945060Y-74589911D01*
X152086747Y-74531222D01*
X152054087Y-74638889D01*
X152025415Y-74930000D01*
X152054087Y-75221111D01*
X152139001Y-75501034D01*
X152276894Y-75759014D01*
X152462466Y-75985134D01*
X152688586Y-76170706D01*
X152743391Y-76200000D01*
X152688586Y-76229294D01*
X152462466Y-76414866D01*
X152276894Y-76640986D01*
X152139001Y-76898966D01*
X152054087Y-77178889D01*
X152025415Y-77470000D01*
X152054087Y-77761111D01*
X152139001Y-78041034D01*
X152276894Y-78299014D01*
X152462466Y-78525134D01*
X152688586Y-78710706D01*
X152743391Y-78740000D01*
X152688586Y-78769294D01*
X152462466Y-78954866D01*
X152276894Y-79180986D01*
X152139001Y-79438966D01*
X152054087Y-79718889D01*
X152025415Y-80010000D01*
X152054087Y-80301111D01*
X152139001Y-80581034D01*
X152276894Y-80839014D01*
X152462466Y-81065134D01*
X152688586Y-81250706D01*
X152743391Y-81280000D01*
X152688586Y-81309294D01*
X152462466Y-81494866D01*
X152276894Y-81720986D01*
X152139001Y-81978966D01*
X152054087Y-82258889D01*
X152025415Y-82550000D01*
X152054087Y-82841111D01*
X152139001Y-83121034D01*
X152276894Y-83379014D01*
X152462466Y-83605134D01*
X152688586Y-83790706D01*
X152743391Y-83820000D01*
X152688586Y-83849294D01*
X152462466Y-84034866D01*
X152276894Y-84260986D01*
X152139001Y-84518966D01*
X152054087Y-84798889D01*
X152025415Y-85090000D01*
X152054087Y-85381111D01*
X152139001Y-85661034D01*
X152276894Y-85919014D01*
X152462466Y-86145134D01*
X152688586Y-86330706D01*
X152743391Y-86360000D01*
X152688586Y-86389294D01*
X152462466Y-86574866D01*
X152276894Y-86800986D01*
X152139001Y-87058966D01*
X152054087Y-87338889D01*
X152025415Y-87630000D01*
X152054087Y-87921111D01*
X152139001Y-88201034D01*
X152276894Y-88459014D01*
X152462466Y-88685134D01*
X152688586Y-88870706D01*
X152743391Y-88900000D01*
X152688586Y-88929294D01*
X152462466Y-89114866D01*
X152276894Y-89340986D01*
X152139001Y-89598966D01*
X152054087Y-89878889D01*
X152025415Y-90170000D01*
X152054087Y-90461111D01*
X152139001Y-90741034D01*
X152276894Y-90999014D01*
X152462466Y-91225134D01*
X152688586Y-91410706D01*
X152743391Y-91440000D01*
X152688586Y-91469294D01*
X152462466Y-91654866D01*
X152276894Y-91880986D01*
X152139001Y-92138966D01*
X152054087Y-92418889D01*
X152025415Y-92710000D01*
X152054087Y-93001111D01*
X152139001Y-93281034D01*
X152276894Y-93539014D01*
X152462466Y-93765134D01*
X152569531Y-93853000D01*
X130953407Y-93853000D01*
X130979502Y-93804180D01*
X131015812Y-93684482D01*
X131028072Y-93560000D01*
X131028072Y-91860000D01*
X131015812Y-91735518D01*
X130979502Y-91615820D01*
X130920537Y-91505506D01*
X130841185Y-91408815D01*
X130744494Y-91329463D01*
X130634180Y-91270498D01*
X130565313Y-91249607D01*
X130595134Y-91225134D01*
X130780706Y-90999014D01*
X130918599Y-90741034D01*
X131003513Y-90461111D01*
X131032185Y-90170000D01*
X131003513Y-89878889D01*
X130918599Y-89598966D01*
X130780706Y-89340986D01*
X130595134Y-89114866D01*
X130369014Y-88929294D01*
X130314209Y-88900000D01*
X130369014Y-88870706D01*
X130595134Y-88685134D01*
X130780706Y-88459014D01*
X130918599Y-88201034D01*
X131003513Y-87921111D01*
X131032185Y-87630000D01*
X131003513Y-87338889D01*
X130918599Y-87058966D01*
X130780706Y-86800986D01*
X130595134Y-86574866D01*
X130369014Y-86389294D01*
X130314209Y-86360000D01*
X130369014Y-86330706D01*
X130595134Y-86145134D01*
X130780706Y-85919014D01*
X130918599Y-85661034D01*
X131003513Y-85381111D01*
X131032185Y-85090000D01*
X131003513Y-84798889D01*
X130918599Y-84518966D01*
X130780706Y-84260986D01*
X130595134Y-84034866D01*
X130369014Y-83849294D01*
X130314209Y-83820000D01*
X130369014Y-83790706D01*
X130595134Y-83605134D01*
X130780706Y-83379014D01*
X130918599Y-83121034D01*
X131003513Y-82841111D01*
X131032185Y-82550000D01*
X131003513Y-82258889D01*
X130918599Y-81978966D01*
X130780706Y-81720986D01*
X130595134Y-81494866D01*
X130369014Y-81309294D01*
X130314209Y-81280000D01*
X130369014Y-81250706D01*
X130595134Y-81065134D01*
X130780706Y-80839014D01*
X130918599Y-80581034D01*
X131003513Y-80301111D01*
X131032185Y-80010000D01*
X131003513Y-79718889D01*
X130918599Y-79438966D01*
X130780706Y-79180986D01*
X130595134Y-78954866D01*
X130369014Y-78769294D01*
X130314209Y-78740000D01*
X130369014Y-78710706D01*
X130379926Y-78701750D01*
X140266928Y-78701750D01*
X140266928Y-79189250D01*
X140283872Y-79361285D01*
X140334053Y-79526709D01*
X140415542Y-79679164D01*
X140525208Y-79812792D01*
X140610756Y-79883000D01*
X140525208Y-79953208D01*
X140415542Y-80086836D01*
X140334053Y-80239291D01*
X140283872Y-80404715D01*
X140266928Y-80576750D01*
X140266928Y-81064250D01*
X140283872Y-81236285D01*
X140334053Y-81401709D01*
X140415542Y-81554164D01*
X140525208Y-81687792D01*
X140658836Y-81797458D01*
X140811291Y-81878947D01*
X140976715Y-81929128D01*
X141148750Y-81946072D01*
X142061250Y-81946072D01*
X142233285Y-81929128D01*
X142398709Y-81878947D01*
X142551164Y-81797458D01*
X142622374Y-81739018D01*
X142665436Y-81774358D01*
X142817891Y-81855847D01*
X142983315Y-81906028D01*
X143155350Y-81922972D01*
X144067850Y-81922972D01*
X144239885Y-81906028D01*
X144405309Y-81855847D01*
X144557764Y-81774358D01*
X144691392Y-81664692D01*
X144801058Y-81531064D01*
X144882547Y-81378609D01*
X144932728Y-81213185D01*
X144949672Y-81041150D01*
X144949672Y-80553650D01*
X144932728Y-80381615D01*
X144882547Y-80216191D01*
X144801058Y-80063736D01*
X144691392Y-79930108D01*
X144605844Y-79859900D01*
X144691392Y-79789692D01*
X144801058Y-79656064D01*
X144882547Y-79503609D01*
X144932728Y-79338185D01*
X144949672Y-79166150D01*
X144949672Y-78678650D01*
X144932728Y-78506615D01*
X144882547Y-78341191D01*
X144801058Y-78188736D01*
X144691392Y-78055108D01*
X144557764Y-77945442D01*
X144405309Y-77863953D01*
X144239885Y-77813772D01*
X144067850Y-77796828D01*
X143155350Y-77796828D01*
X142983315Y-77813772D01*
X142817891Y-77863953D01*
X142665436Y-77945442D01*
X142594226Y-78003882D01*
X142551164Y-77968542D01*
X142398709Y-77887053D01*
X142233285Y-77836872D01*
X142061250Y-77819928D01*
X141148750Y-77819928D01*
X140976715Y-77836872D01*
X140811291Y-77887053D01*
X140658836Y-77968542D01*
X140525208Y-78078208D01*
X140415542Y-78211836D01*
X140334053Y-78364291D01*
X140283872Y-78529715D01*
X140266928Y-78701750D01*
X130379926Y-78701750D01*
X130595134Y-78525134D01*
X130780706Y-78299014D01*
X130918599Y-78041034D01*
X131003513Y-77761111D01*
X131032185Y-77470000D01*
X131003513Y-77178889D01*
X130918599Y-76898966D01*
X130780706Y-76640986D01*
X130595134Y-76414866D01*
X130369014Y-76229294D01*
X130314209Y-76200000D01*
X130369014Y-76170706D01*
X130595134Y-75985134D01*
X130780706Y-75759014D01*
X130918599Y-75501034D01*
X131003513Y-75221111D01*
X131032185Y-74930000D01*
X131003513Y-74638889D01*
X130918599Y-74358966D01*
X130780706Y-74100986D01*
X130595134Y-73874866D01*
X130369014Y-73689294D01*
X130314209Y-73660000D01*
X130369014Y-73630706D01*
X130595134Y-73445134D01*
X130780706Y-73219014D01*
X130918599Y-72961034D01*
X131003513Y-72681111D01*
X131032185Y-72390000D01*
X131003513Y-72098889D01*
X130992654Y-72063089D01*
X144284000Y-72063089D01*
X144284000Y-72335911D01*
X144337225Y-72603489D01*
X144441629Y-72855543D01*
X144593201Y-73082386D01*
X144786114Y-73275299D01*
X145012957Y-73426871D01*
X145265011Y-73531275D01*
X145520739Y-73582143D01*
X145567052Y-73693953D01*
X145620161Y-73773438D01*
X145589152Y-73819847D01*
X145533746Y-73953609D01*
X145505500Y-74095609D01*
X145505500Y-74240391D01*
X145533746Y-74382391D01*
X145561336Y-74448998D01*
X145533119Y-74448998D01*
X145391119Y-74477244D01*
X145257357Y-74532650D01*
X145136975Y-74613086D01*
X145034598Y-74715463D01*
X144954162Y-74835845D01*
X144898756Y-74969607D01*
X144870510Y-75111607D01*
X144870510Y-75256389D01*
X144898270Y-75395946D01*
X144890652Y-75407347D01*
X144835246Y-75541109D01*
X144807000Y-75683109D01*
X144807000Y-75827891D01*
X144835246Y-75969891D01*
X144890652Y-76103653D01*
X144971088Y-76224035D01*
X145073465Y-76326412D01*
X145193847Y-76406848D01*
X145327609Y-76462254D01*
X145469609Y-76490500D01*
X145614391Y-76490500D01*
X145756391Y-76462254D01*
X145890153Y-76406848D01*
X146010535Y-76326412D01*
X146112912Y-76224035D01*
X146193348Y-76103653D01*
X146248754Y-75969891D01*
X146277000Y-75827891D01*
X146277000Y-75683109D01*
X146276541Y-75680800D01*
X146290791Y-75680800D01*
X146418400Y-75655417D01*
X146546009Y-75680800D01*
X146690791Y-75680800D01*
X146832791Y-75652554D01*
X146966553Y-75597148D01*
X147086935Y-75516712D01*
X147189312Y-75414335D01*
X147269748Y-75293953D01*
X147322001Y-75167804D01*
X147322000Y-76042317D01*
X147318324Y-76079640D01*
X147322000Y-76116962D01*
X147322000Y-76116972D01*
X147332997Y-76228625D01*
X147362660Y-76326412D01*
X147376454Y-76371886D01*
X147447026Y-76503916D01*
X147486871Y-76552466D01*
X147541999Y-76619641D01*
X147571002Y-76643443D01*
X148141827Y-77214269D01*
X148165626Y-77243268D01*
X148281351Y-77338241D01*
X148413380Y-77408813D01*
X148556641Y-77452270D01*
X148668294Y-77463267D01*
X148668302Y-77463267D01*
X148705627Y-77466943D01*
X148742952Y-77463267D01*
X148956413Y-77463267D01*
X149068066Y-77452270D01*
X149211327Y-77408813D01*
X149343356Y-77338241D01*
X149459081Y-77243268D01*
X149554054Y-77127543D01*
X149624626Y-76995514D01*
X149668083Y-76852253D01*
X149682757Y-76703267D01*
X149668083Y-76554281D01*
X149624626Y-76411020D01*
X149554054Y-76278991D01*
X149459081Y-76163266D01*
X149343356Y-76068293D01*
X149211327Y-75997721D01*
X149068066Y-75954264D01*
X149027423Y-75950261D01*
X148842000Y-75764839D01*
X148842000Y-75634495D01*
X148932163Y-75597148D01*
X149052545Y-75516712D01*
X149154922Y-75414335D01*
X149235358Y-75293953D01*
X149288121Y-75166572D01*
X149808250Y-75166572D01*
X149980285Y-75149628D01*
X150145709Y-75099447D01*
X150298164Y-75017958D01*
X150431792Y-74908292D01*
X150541458Y-74774664D01*
X150622947Y-74622209D01*
X150673128Y-74456785D01*
X150690072Y-74284750D01*
X150690072Y-74228194D01*
X150708010Y-74138014D01*
X150708010Y-73943986D01*
X150690072Y-73853806D01*
X150690072Y-73797250D01*
X150673128Y-73625215D01*
X150622947Y-73459791D01*
X150541458Y-73307336D01*
X150431792Y-73173708D01*
X150298164Y-73064042D01*
X150145709Y-72982553D01*
X149980285Y-72932372D01*
X149808250Y-72915428D01*
X149657804Y-72915428D01*
X149665128Y-72891285D01*
X149682072Y-72719250D01*
X149682072Y-71806750D01*
X149665128Y-71634715D01*
X149614947Y-71469291D01*
X149533458Y-71316836D01*
X149423792Y-71183208D01*
X149290164Y-71073542D01*
X149137709Y-70992053D01*
X148972285Y-70941872D01*
X148800250Y-70924928D01*
X148312750Y-70924928D01*
X148140715Y-70941872D01*
X147975291Y-70992053D01*
X147822836Y-71073542D01*
X147689208Y-71183208D01*
X147579542Y-71316836D01*
X147498053Y-71469291D01*
X147447872Y-71634715D01*
X147430928Y-71806750D01*
X147430928Y-72719250D01*
X147447872Y-72891285D01*
X147498053Y-73056709D01*
X147579542Y-73209164D01*
X147689208Y-73342792D01*
X147822836Y-73452458D01*
X147975291Y-73533947D01*
X148017246Y-73546674D01*
X147974342Y-73626941D01*
X147941792Y-73594391D01*
X147855066Y-73523216D01*
X147723036Y-73452644D01*
X147579775Y-73409188D01*
X147430790Y-73394514D01*
X147281805Y-73409188D01*
X147202945Y-73433109D01*
X147090791Y-73410800D01*
X146953400Y-73410800D01*
X146953400Y-73273409D01*
X146925154Y-73131409D01*
X146869748Y-72997647D01*
X146835584Y-72946517D01*
X146896371Y-72855543D01*
X147000775Y-72603489D01*
X147054000Y-72335911D01*
X147054000Y-72063089D01*
X147000775Y-71795511D01*
X146896371Y-71543457D01*
X146744799Y-71316614D01*
X146551886Y-71123701D01*
X146325043Y-70972129D01*
X146072989Y-70867725D01*
X145805411Y-70814500D01*
X145532589Y-70814500D01*
X145265011Y-70867725D01*
X145012957Y-70972129D01*
X144786114Y-71123701D01*
X144593201Y-71316614D01*
X144441629Y-71543457D01*
X144337225Y-71795511D01*
X144284000Y-72063089D01*
X130992654Y-72063089D01*
X130918599Y-71818966D01*
X130780706Y-71560986D01*
X130595134Y-71334866D01*
X130369014Y-71149294D01*
X130111034Y-71011401D01*
X129831111Y-70926487D01*
X129612950Y-70905000D01*
X129467050Y-70905000D01*
X129248889Y-70926487D01*
X128968966Y-71011401D01*
X128710986Y-71149294D01*
X128484866Y-71334866D01*
X128397000Y-71441931D01*
X128397000Y-69836184D01*
X144439500Y-69836184D01*
X144439500Y-69990816D01*
X144469667Y-70142476D01*
X144528842Y-70285337D01*
X144614751Y-70413908D01*
X144724092Y-70523249D01*
X144852663Y-70609158D01*
X144995524Y-70668333D01*
X145147184Y-70698500D01*
X145301816Y-70698500D01*
X145453476Y-70668333D01*
X145596337Y-70609158D01*
X145724908Y-70523249D01*
X145834249Y-70413908D01*
X145920158Y-70285337D01*
X145979333Y-70142476D01*
X145991735Y-70080125D01*
X147728000Y-70080125D01*
X147728000Y-70224907D01*
X147756246Y-70366907D01*
X147811652Y-70500669D01*
X147892088Y-70621051D01*
X147994465Y-70723428D01*
X148114847Y-70803864D01*
X148248609Y-70859270D01*
X148390609Y-70887516D01*
X148535391Y-70887516D01*
X148677391Y-70859270D01*
X148811153Y-70803864D01*
X148931535Y-70723428D01*
X149033912Y-70621051D01*
X149114348Y-70500669D01*
X149169754Y-70366907D01*
X149198000Y-70224907D01*
X149198000Y-70080125D01*
X149169754Y-69938125D01*
X149114348Y-69804363D01*
X149033912Y-69683981D01*
X148931535Y-69581604D01*
X148811153Y-69501168D01*
X148677391Y-69445762D01*
X148535391Y-69417516D01*
X148390609Y-69417516D01*
X148248609Y-69445762D01*
X148114847Y-69501168D01*
X147994465Y-69581604D01*
X147892088Y-69683981D01*
X147811652Y-69804363D01*
X147756246Y-69938125D01*
X147728000Y-70080125D01*
X145991735Y-70080125D01*
X146009500Y-69990816D01*
X146009500Y-69836184D01*
X145979333Y-69684524D01*
X145920158Y-69541663D01*
X145834249Y-69413092D01*
X145724908Y-69303751D01*
X145596337Y-69217842D01*
X145453476Y-69158667D01*
X145301816Y-69128500D01*
X145147184Y-69128500D01*
X144995524Y-69158667D01*
X144852663Y-69217842D01*
X144724092Y-69303751D01*
X144614751Y-69413092D01*
X144528842Y-69541663D01*
X144469667Y-69684524D01*
X144439500Y-69836184D01*
X128397000Y-69836184D01*
X128397000Y-61847600D01*
X136291928Y-61847600D01*
X136291928Y-64847600D01*
X136304188Y-64972082D01*
X136340498Y-65091780D01*
X136399463Y-65202094D01*
X136478815Y-65298785D01*
X136575506Y-65378137D01*
X136685820Y-65437102D01*
X136805518Y-65473412D01*
X136930000Y-65485672D01*
X139930000Y-65485672D01*
X140054482Y-65473412D01*
X140174180Y-65437102D01*
X140284494Y-65378137D01*
X140381185Y-65298785D01*
X140460537Y-65202094D01*
X140519502Y-65091780D01*
X140555812Y-64972082D01*
X140568072Y-64847600D01*
X140568072Y-63035721D01*
X143153000Y-63035721D01*
X143153000Y-63456279D01*
X143235047Y-63868756D01*
X143395988Y-64257302D01*
X143629637Y-64606983D01*
X143927017Y-64904363D01*
X144158155Y-65058804D01*
X144106608Y-65101108D01*
X143996942Y-65234736D01*
X143915453Y-65387191D01*
X143865272Y-65552615D01*
X143848328Y-65724650D01*
X143848328Y-66212150D01*
X143865272Y-66384185D01*
X143915453Y-66549609D01*
X143996942Y-66702064D01*
X144106608Y-66835692D01*
X144240236Y-66945358D01*
X144392691Y-67026847D01*
X144460294Y-67047354D01*
X144469667Y-67094476D01*
X144528842Y-67237337D01*
X144614751Y-67365908D01*
X144724092Y-67475249D01*
X144852663Y-67561158D01*
X144995524Y-67620333D01*
X145147184Y-67650500D01*
X145301816Y-67650500D01*
X145453476Y-67620333D01*
X145596337Y-67561158D01*
X145724908Y-67475249D01*
X145834249Y-67365908D01*
X145920158Y-67237337D01*
X145979333Y-67094476D01*
X145994293Y-67019265D01*
X146132564Y-66945358D01*
X146266192Y-66835692D01*
X146375858Y-66702064D01*
X146457347Y-66549609D01*
X146507528Y-66384185D01*
X146524472Y-66212150D01*
X146524472Y-65724650D01*
X146507528Y-65552615D01*
X146457347Y-65387191D01*
X146375858Y-65234736D01*
X146297195Y-65138885D01*
X146299302Y-65138012D01*
X146648983Y-64904363D01*
X146946363Y-64606983D01*
X147180012Y-64257302D01*
X147340953Y-63868756D01*
X147423000Y-63456279D01*
X147423000Y-63035721D01*
X147340953Y-62623244D01*
X147180012Y-62234698D01*
X146946363Y-61885017D01*
X146807346Y-61746000D01*
X148229928Y-61746000D01*
X148229928Y-64746000D01*
X148242188Y-64870482D01*
X148278498Y-64990180D01*
X148337463Y-65100494D01*
X148416815Y-65197185D01*
X148513506Y-65276537D01*
X148623820Y-65335502D01*
X148743518Y-65371812D01*
X148868000Y-65384072D01*
X149454320Y-65384072D01*
X149452653Y-65387191D01*
X149402472Y-65552615D01*
X149385528Y-65724650D01*
X149385528Y-66212150D01*
X149402472Y-66384185D01*
X149452653Y-66549609D01*
X149534142Y-66702064D01*
X149643808Y-66835692D01*
X149777436Y-66945358D01*
X149929891Y-67026847D01*
X150095315Y-67077028D01*
X150267350Y-67093972D01*
X151179850Y-67093972D01*
X151351885Y-67077028D01*
X151517309Y-67026847D01*
X151669764Y-66945358D01*
X151803392Y-66835692D01*
X151913058Y-66702064D01*
X151994547Y-66549609D01*
X152044728Y-66384185D01*
X152061672Y-66212150D01*
X152061672Y-65724650D01*
X152044728Y-65552615D01*
X151994547Y-65387191D01*
X151986635Y-65372388D01*
X151992482Y-65371812D01*
X152112180Y-65335502D01*
X152222494Y-65276537D01*
X152319185Y-65197185D01*
X152398537Y-65100494D01*
X152457502Y-64990180D01*
X152493812Y-64870482D01*
X152506072Y-64746000D01*
X152506072Y-61746000D01*
X152493812Y-61621518D01*
X152457502Y-61501820D01*
X152398537Y-61391506D01*
X152319185Y-61294815D01*
X152222494Y-61215463D01*
X152112180Y-61156498D01*
X151992482Y-61120188D01*
X151868000Y-61107928D01*
X148868000Y-61107928D01*
X148743518Y-61120188D01*
X148623820Y-61156498D01*
X148513506Y-61215463D01*
X148416815Y-61294815D01*
X148337463Y-61391506D01*
X148278498Y-61501820D01*
X148242188Y-61621518D01*
X148229928Y-61746000D01*
X146807346Y-61746000D01*
X146648983Y-61587637D01*
X146299302Y-61353988D01*
X145910756Y-61193047D01*
X145498279Y-61111000D01*
X145077721Y-61111000D01*
X144665244Y-61193047D01*
X144276698Y-61353988D01*
X143927017Y-61587637D01*
X143629637Y-61885017D01*
X143395988Y-62234698D01*
X143235047Y-62623244D01*
X143153000Y-63035721D01*
X140568072Y-63035721D01*
X140568072Y-61847600D01*
X140555812Y-61723118D01*
X140519502Y-61603420D01*
X140460537Y-61493106D01*
X140381185Y-61396415D01*
X140284494Y-61317063D01*
X140174180Y-61258098D01*
X140054482Y-61221788D01*
X139930000Y-61209528D01*
X136930000Y-61209528D01*
X136805518Y-61221788D01*
X136685820Y-61258098D01*
X136575506Y-61317063D01*
X136478815Y-61396415D01*
X136399463Y-61493106D01*
X136340498Y-61603420D01*
X136304188Y-61723118D01*
X136291928Y-61847600D01*
X128397000Y-61847600D01*
X128397000Y-59817000D01*
X154813000Y-59817000D01*
X154813000Y-71663311D01*
X154813000Y-71663311D01*
G37*
X154813000Y-71663311D02*
X154758306Y-71560986D01*
X154572734Y-71334866D01*
X154346614Y-71149294D01*
X154088634Y-71011401D01*
X153808711Y-70926487D01*
X153590550Y-70905000D01*
X153444650Y-70905000D01*
X153226489Y-70926487D01*
X152946566Y-71011401D01*
X152688586Y-71149294D01*
X152462466Y-71334866D01*
X152276894Y-71560986D01*
X152139001Y-71818966D01*
X152054087Y-72098889D01*
X152025415Y-72390000D01*
X152054087Y-72681111D01*
X152085032Y-72783122D01*
X151894185Y-72973969D01*
X151783740Y-72952000D01*
X151619260Y-72952000D01*
X151457940Y-72984089D01*
X151305979Y-73047033D01*
X151169219Y-73138413D01*
X151052913Y-73254719D01*
X150961533Y-73391479D01*
X150898589Y-73543440D01*
X150866500Y-73704760D01*
X150866500Y-73869240D01*
X150898589Y-74030560D01*
X150961533Y-74182521D01*
X151052913Y-74319281D01*
X151169219Y-74435587D01*
X151305979Y-74526967D01*
X151457940Y-74589911D01*
X151619260Y-74622000D01*
X151783740Y-74622000D01*
X151945060Y-74589911D01*
X152086747Y-74531222D01*
X152054087Y-74638889D01*
X152025415Y-74930000D01*
X152054087Y-75221111D01*
X152139001Y-75501034D01*
X152276894Y-75759014D01*
X152462466Y-75985134D01*
X152688586Y-76170706D01*
X152743391Y-76200000D01*
X152688586Y-76229294D01*
X152462466Y-76414866D01*
X152276894Y-76640986D01*
X152139001Y-76898966D01*
X152054087Y-77178889D01*
X152025415Y-77470000D01*
X152054087Y-77761111D01*
X152139001Y-78041034D01*
X152276894Y-78299014D01*
X152462466Y-78525134D01*
X152688586Y-78710706D01*
X152743391Y-78740000D01*
X152688586Y-78769294D01*
X152462466Y-78954866D01*
X152276894Y-79180986D01*
X152139001Y-79438966D01*
X152054087Y-79718889D01*
X152025415Y-80010000D01*
X152054087Y-80301111D01*
X152139001Y-80581034D01*
X152276894Y-80839014D01*
X152462466Y-81065134D01*
X152688586Y-81250706D01*
X152743391Y-81280000D01*
X152688586Y-81309294D01*
X152462466Y-81494866D01*
X152276894Y-81720986D01*
X152139001Y-81978966D01*
X152054087Y-82258889D01*
X152025415Y-82550000D01*
X152054087Y-82841111D01*
X152139001Y-83121034D01*
X152276894Y-83379014D01*
X152462466Y-83605134D01*
X152688586Y-83790706D01*
X152743391Y-83820000D01*
X152688586Y-83849294D01*
X152462466Y-84034866D01*
X152276894Y-84260986D01*
X152139001Y-84518966D01*
X152054087Y-84798889D01*
X152025415Y-85090000D01*
X152054087Y-85381111D01*
X152139001Y-85661034D01*
X152276894Y-85919014D01*
X152462466Y-86145134D01*
X152688586Y-86330706D01*
X152743391Y-86360000D01*
X152688586Y-86389294D01*
X152462466Y-86574866D01*
X152276894Y-86800986D01*
X152139001Y-87058966D01*
X152054087Y-87338889D01*
X152025415Y-87630000D01*
X152054087Y-87921111D01*
X152139001Y-88201034D01*
X152276894Y-88459014D01*
X152462466Y-88685134D01*
X152688586Y-88870706D01*
X152743391Y-88900000D01*
X152688586Y-88929294D01*
X152462466Y-89114866D01*
X152276894Y-89340986D01*
X152139001Y-89598966D01*
X152054087Y-89878889D01*
X152025415Y-90170000D01*
X152054087Y-90461111D01*
X152139001Y-90741034D01*
X152276894Y-90999014D01*
X152462466Y-91225134D01*
X152688586Y-91410706D01*
X152743391Y-91440000D01*
X152688586Y-91469294D01*
X152462466Y-91654866D01*
X152276894Y-91880986D01*
X152139001Y-92138966D01*
X152054087Y-92418889D01*
X152025415Y-92710000D01*
X152054087Y-93001111D01*
X152139001Y-93281034D01*
X152276894Y-93539014D01*
X152462466Y-93765134D01*
X152569531Y-93853000D01*
X130953407Y-93853000D01*
X130979502Y-93804180D01*
X131015812Y-93684482D01*
X131028072Y-93560000D01*
X131028072Y-91860000D01*
X131015812Y-91735518D01*
X130979502Y-91615820D01*
X130920537Y-91505506D01*
X130841185Y-91408815D01*
X130744494Y-91329463D01*
X130634180Y-91270498D01*
X130565313Y-91249607D01*
X130595134Y-91225134D01*
X130780706Y-90999014D01*
X130918599Y-90741034D01*
X131003513Y-90461111D01*
X131032185Y-90170000D01*
X131003513Y-89878889D01*
X130918599Y-89598966D01*
X130780706Y-89340986D01*
X130595134Y-89114866D01*
X130369014Y-88929294D01*
X130314209Y-88900000D01*
X130369014Y-88870706D01*
X130595134Y-88685134D01*
X130780706Y-88459014D01*
X130918599Y-88201034D01*
X131003513Y-87921111D01*
X131032185Y-87630000D01*
X131003513Y-87338889D01*
X130918599Y-87058966D01*
X130780706Y-86800986D01*
X130595134Y-86574866D01*
X130369014Y-86389294D01*
X130314209Y-86360000D01*
X130369014Y-86330706D01*
X130595134Y-86145134D01*
X130780706Y-85919014D01*
X130918599Y-85661034D01*
X131003513Y-85381111D01*
X131032185Y-85090000D01*
X131003513Y-84798889D01*
X130918599Y-84518966D01*
X130780706Y-84260986D01*
X130595134Y-84034866D01*
X130369014Y-83849294D01*
X130314209Y-83820000D01*
X130369014Y-83790706D01*
X130595134Y-83605134D01*
X130780706Y-83379014D01*
X130918599Y-83121034D01*
X131003513Y-82841111D01*
X131032185Y-82550000D01*
X131003513Y-82258889D01*
X130918599Y-81978966D01*
X130780706Y-81720986D01*
X130595134Y-81494866D01*
X130369014Y-81309294D01*
X130314209Y-81280000D01*
X130369014Y-81250706D01*
X130595134Y-81065134D01*
X130780706Y-80839014D01*
X130918599Y-80581034D01*
X131003513Y-80301111D01*
X131032185Y-80010000D01*
X131003513Y-79718889D01*
X130918599Y-79438966D01*
X130780706Y-79180986D01*
X130595134Y-78954866D01*
X130369014Y-78769294D01*
X130314209Y-78740000D01*
X130369014Y-78710706D01*
X130379926Y-78701750D01*
X140266928Y-78701750D01*
X140266928Y-79189250D01*
X140283872Y-79361285D01*
X140334053Y-79526709D01*
X140415542Y-79679164D01*
X140525208Y-79812792D01*
X140610756Y-79883000D01*
X140525208Y-79953208D01*
X140415542Y-80086836D01*
X140334053Y-80239291D01*
X140283872Y-80404715D01*
X140266928Y-80576750D01*
X140266928Y-81064250D01*
X140283872Y-81236285D01*
X140334053Y-81401709D01*
X140415542Y-81554164D01*
X140525208Y-81687792D01*
X140658836Y-81797458D01*
X140811291Y-81878947D01*
X140976715Y-81929128D01*
X141148750Y-81946072D01*
X142061250Y-81946072D01*
X142233285Y-81929128D01*
X142398709Y-81878947D01*
X142551164Y-81797458D01*
X142622374Y-81739018D01*
X142665436Y-81774358D01*
X142817891Y-81855847D01*
X142983315Y-81906028D01*
X143155350Y-81922972D01*
X144067850Y-81922972D01*
X144239885Y-81906028D01*
X144405309Y-81855847D01*
X144557764Y-81774358D01*
X144691392Y-81664692D01*
X144801058Y-81531064D01*
X144882547Y-81378609D01*
X144932728Y-81213185D01*
X144949672Y-81041150D01*
X144949672Y-80553650D01*
X144932728Y-80381615D01*
X144882547Y-80216191D01*
X144801058Y-80063736D01*
X144691392Y-79930108D01*
X144605844Y-79859900D01*
X144691392Y-79789692D01*
X144801058Y-79656064D01*
X144882547Y-79503609D01*
X144932728Y-79338185D01*
X144949672Y-79166150D01*
X144949672Y-78678650D01*
X144932728Y-78506615D01*
X144882547Y-78341191D01*
X144801058Y-78188736D01*
X144691392Y-78055108D01*
X144557764Y-77945442D01*
X144405309Y-77863953D01*
X144239885Y-77813772D01*
X144067850Y-77796828D01*
X143155350Y-77796828D01*
X142983315Y-77813772D01*
X142817891Y-77863953D01*
X142665436Y-77945442D01*
X142594226Y-78003882D01*
X142551164Y-77968542D01*
X142398709Y-77887053D01*
X142233285Y-77836872D01*
X142061250Y-77819928D01*
X141148750Y-77819928D01*
X140976715Y-77836872D01*
X140811291Y-77887053D01*
X140658836Y-77968542D01*
X140525208Y-78078208D01*
X140415542Y-78211836D01*
X140334053Y-78364291D01*
X140283872Y-78529715D01*
X140266928Y-78701750D01*
X130379926Y-78701750D01*
X130595134Y-78525134D01*
X130780706Y-78299014D01*
X130918599Y-78041034D01*
X131003513Y-77761111D01*
X131032185Y-77470000D01*
X131003513Y-77178889D01*
X130918599Y-76898966D01*
X130780706Y-76640986D01*
X130595134Y-76414866D01*
X130369014Y-76229294D01*
X130314209Y-76200000D01*
X130369014Y-76170706D01*
X130595134Y-75985134D01*
X130780706Y-75759014D01*
X130918599Y-75501034D01*
X131003513Y-75221111D01*
X131032185Y-74930000D01*
X131003513Y-74638889D01*
X130918599Y-74358966D01*
X130780706Y-74100986D01*
X130595134Y-73874866D01*
X130369014Y-73689294D01*
X130314209Y-73660000D01*
X130369014Y-73630706D01*
X130595134Y-73445134D01*
X130780706Y-73219014D01*
X130918599Y-72961034D01*
X131003513Y-72681111D01*
X131032185Y-72390000D01*
X131003513Y-72098889D01*
X130992654Y-72063089D01*
X144284000Y-72063089D01*
X144284000Y-72335911D01*
X144337225Y-72603489D01*
X144441629Y-72855543D01*
X144593201Y-73082386D01*
X144786114Y-73275299D01*
X145012957Y-73426871D01*
X145265011Y-73531275D01*
X145520739Y-73582143D01*
X145567052Y-73693953D01*
X145620161Y-73773438D01*
X145589152Y-73819847D01*
X145533746Y-73953609D01*
X145505500Y-74095609D01*
X145505500Y-74240391D01*
X145533746Y-74382391D01*
X145561336Y-74448998D01*
X145533119Y-74448998D01*
X145391119Y-74477244D01*
X145257357Y-74532650D01*
X145136975Y-74613086D01*
X145034598Y-74715463D01*
X144954162Y-74835845D01*
X144898756Y-74969607D01*
X144870510Y-75111607D01*
X144870510Y-75256389D01*
X144898270Y-75395946D01*
X144890652Y-75407347D01*
X144835246Y-75541109D01*
X144807000Y-75683109D01*
X144807000Y-75827891D01*
X144835246Y-75969891D01*
X144890652Y-76103653D01*
X144971088Y-76224035D01*
X145073465Y-76326412D01*
X145193847Y-76406848D01*
X145327609Y-76462254D01*
X145469609Y-76490500D01*
X145614391Y-76490500D01*
X145756391Y-76462254D01*
X145890153Y-76406848D01*
X146010535Y-76326412D01*
X146112912Y-76224035D01*
X146193348Y-76103653D01*
X146248754Y-75969891D01*
X146277000Y-75827891D01*
X146277000Y-75683109D01*
X146276541Y-75680800D01*
X146290791Y-75680800D01*
X146418400Y-75655417D01*
X146546009Y-75680800D01*
X146690791Y-75680800D01*
X146832791Y-75652554D01*
X146966553Y-75597148D01*
X147086935Y-75516712D01*
X147189312Y-75414335D01*
X147269748Y-75293953D01*
X147322001Y-75167804D01*
X147322000Y-76042317D01*
X147318324Y-76079640D01*
X147322000Y-76116962D01*
X147322000Y-76116972D01*
X147332997Y-76228625D01*
X147362660Y-76326412D01*
X147376454Y-76371886D01*
X147447026Y-76503916D01*
X147486871Y-76552466D01*
X147541999Y-76619641D01*
X147571002Y-76643443D01*
X148141827Y-77214269D01*
X148165626Y-77243268D01*
X148281351Y-77338241D01*
X148413380Y-77408813D01*
X148556641Y-77452270D01*
X148668294Y-77463267D01*
X148668302Y-77463267D01*
X148705627Y-77466943D01*
X148742952Y-77463267D01*
X148956413Y-77463267D01*
X149068066Y-77452270D01*
X149211327Y-77408813D01*
X149343356Y-77338241D01*
X149459081Y-77243268D01*
X149554054Y-77127543D01*
X149624626Y-76995514D01*
X149668083Y-76852253D01*
X149682757Y-76703267D01*
X149668083Y-76554281D01*
X149624626Y-76411020D01*
X149554054Y-76278991D01*
X149459081Y-76163266D01*
X149343356Y-76068293D01*
X149211327Y-75997721D01*
X149068066Y-75954264D01*
X149027423Y-75950261D01*
X148842000Y-75764839D01*
X148842000Y-75634495D01*
X148932163Y-75597148D01*
X149052545Y-75516712D01*
X149154922Y-75414335D01*
X149235358Y-75293953D01*
X149288121Y-75166572D01*
X149808250Y-75166572D01*
X149980285Y-75149628D01*
X150145709Y-75099447D01*
X150298164Y-75017958D01*
X150431792Y-74908292D01*
X150541458Y-74774664D01*
X150622947Y-74622209D01*
X150673128Y-74456785D01*
X150690072Y-74284750D01*
X150690072Y-74228194D01*
X150708010Y-74138014D01*
X150708010Y-73943986D01*
X150690072Y-73853806D01*
X150690072Y-73797250D01*
X150673128Y-73625215D01*
X150622947Y-73459791D01*
X150541458Y-73307336D01*
X150431792Y-73173708D01*
X150298164Y-73064042D01*
X150145709Y-72982553D01*
X149980285Y-72932372D01*
X149808250Y-72915428D01*
X149657804Y-72915428D01*
X149665128Y-72891285D01*
X149682072Y-72719250D01*
X149682072Y-71806750D01*
X149665128Y-71634715D01*
X149614947Y-71469291D01*
X149533458Y-71316836D01*
X149423792Y-71183208D01*
X149290164Y-71073542D01*
X149137709Y-70992053D01*
X148972285Y-70941872D01*
X148800250Y-70924928D01*
X148312750Y-70924928D01*
X148140715Y-70941872D01*
X147975291Y-70992053D01*
X147822836Y-71073542D01*
X147689208Y-71183208D01*
X147579542Y-71316836D01*
X147498053Y-71469291D01*
X147447872Y-71634715D01*
X147430928Y-71806750D01*
X147430928Y-72719250D01*
X147447872Y-72891285D01*
X147498053Y-73056709D01*
X147579542Y-73209164D01*
X147689208Y-73342792D01*
X147822836Y-73452458D01*
X147975291Y-73533947D01*
X148017246Y-73546674D01*
X147974342Y-73626941D01*
X147941792Y-73594391D01*
X147855066Y-73523216D01*
X147723036Y-73452644D01*
X147579775Y-73409188D01*
X147430790Y-73394514D01*
X147281805Y-73409188D01*
X147202945Y-73433109D01*
X147090791Y-73410800D01*
X146953400Y-73410800D01*
X146953400Y-73273409D01*
X146925154Y-73131409D01*
X146869748Y-72997647D01*
X146835584Y-72946517D01*
X146896371Y-72855543D01*
X147000775Y-72603489D01*
X147054000Y-72335911D01*
X147054000Y-72063089D01*
X147000775Y-71795511D01*
X146896371Y-71543457D01*
X146744799Y-71316614D01*
X146551886Y-71123701D01*
X146325043Y-70972129D01*
X146072989Y-70867725D01*
X145805411Y-70814500D01*
X145532589Y-70814500D01*
X145265011Y-70867725D01*
X145012957Y-70972129D01*
X144786114Y-71123701D01*
X144593201Y-71316614D01*
X144441629Y-71543457D01*
X144337225Y-71795511D01*
X144284000Y-72063089D01*
X130992654Y-72063089D01*
X130918599Y-71818966D01*
X130780706Y-71560986D01*
X130595134Y-71334866D01*
X130369014Y-71149294D01*
X130111034Y-71011401D01*
X129831111Y-70926487D01*
X129612950Y-70905000D01*
X129467050Y-70905000D01*
X129248889Y-70926487D01*
X128968966Y-71011401D01*
X128710986Y-71149294D01*
X128484866Y-71334866D01*
X128397000Y-71441931D01*
X128397000Y-69836184D01*
X144439500Y-69836184D01*
X144439500Y-69990816D01*
X144469667Y-70142476D01*
X144528842Y-70285337D01*
X144614751Y-70413908D01*
X144724092Y-70523249D01*
X144852663Y-70609158D01*
X144995524Y-70668333D01*
X145147184Y-70698500D01*
X145301816Y-70698500D01*
X145453476Y-70668333D01*
X145596337Y-70609158D01*
X145724908Y-70523249D01*
X145834249Y-70413908D01*
X145920158Y-70285337D01*
X145979333Y-70142476D01*
X145991735Y-70080125D01*
X147728000Y-70080125D01*
X147728000Y-70224907D01*
X147756246Y-70366907D01*
X147811652Y-70500669D01*
X147892088Y-70621051D01*
X147994465Y-70723428D01*
X148114847Y-70803864D01*
X148248609Y-70859270D01*
X148390609Y-70887516D01*
X148535391Y-70887516D01*
X148677391Y-70859270D01*
X148811153Y-70803864D01*
X148931535Y-70723428D01*
X149033912Y-70621051D01*
X149114348Y-70500669D01*
X149169754Y-70366907D01*
X149198000Y-70224907D01*
X149198000Y-70080125D01*
X149169754Y-69938125D01*
X149114348Y-69804363D01*
X149033912Y-69683981D01*
X148931535Y-69581604D01*
X148811153Y-69501168D01*
X148677391Y-69445762D01*
X148535391Y-69417516D01*
X148390609Y-69417516D01*
X148248609Y-69445762D01*
X148114847Y-69501168D01*
X147994465Y-69581604D01*
X147892088Y-69683981D01*
X147811652Y-69804363D01*
X147756246Y-69938125D01*
X147728000Y-70080125D01*
X145991735Y-70080125D01*
X146009500Y-69990816D01*
X146009500Y-69836184D01*
X145979333Y-69684524D01*
X145920158Y-69541663D01*
X145834249Y-69413092D01*
X145724908Y-69303751D01*
X145596337Y-69217842D01*
X145453476Y-69158667D01*
X145301816Y-69128500D01*
X145147184Y-69128500D01*
X144995524Y-69158667D01*
X144852663Y-69217842D01*
X144724092Y-69303751D01*
X144614751Y-69413092D01*
X144528842Y-69541663D01*
X144469667Y-69684524D01*
X144439500Y-69836184D01*
X128397000Y-69836184D01*
X128397000Y-61847600D01*
X136291928Y-61847600D01*
X136291928Y-64847600D01*
X136304188Y-64972082D01*
X136340498Y-65091780D01*
X136399463Y-65202094D01*
X136478815Y-65298785D01*
X136575506Y-65378137D01*
X136685820Y-65437102D01*
X136805518Y-65473412D01*
X136930000Y-65485672D01*
X139930000Y-65485672D01*
X140054482Y-65473412D01*
X140174180Y-65437102D01*
X140284494Y-65378137D01*
X140381185Y-65298785D01*
X140460537Y-65202094D01*
X140519502Y-65091780D01*
X140555812Y-64972082D01*
X140568072Y-64847600D01*
X140568072Y-63035721D01*
X143153000Y-63035721D01*
X143153000Y-63456279D01*
X143235047Y-63868756D01*
X143395988Y-64257302D01*
X143629637Y-64606983D01*
X143927017Y-64904363D01*
X144158155Y-65058804D01*
X144106608Y-65101108D01*
X143996942Y-65234736D01*
X143915453Y-65387191D01*
X143865272Y-65552615D01*
X143848328Y-65724650D01*
X143848328Y-66212150D01*
X143865272Y-66384185D01*
X143915453Y-66549609D01*
X143996942Y-66702064D01*
X144106608Y-66835692D01*
X144240236Y-66945358D01*
X144392691Y-67026847D01*
X144460294Y-67047354D01*
X144469667Y-67094476D01*
X144528842Y-67237337D01*
X144614751Y-67365908D01*
X144724092Y-67475249D01*
X144852663Y-67561158D01*
X144995524Y-67620333D01*
X145147184Y-67650500D01*
X145301816Y-67650500D01*
X145453476Y-67620333D01*
X145596337Y-67561158D01*
X145724908Y-67475249D01*
X145834249Y-67365908D01*
X145920158Y-67237337D01*
X145979333Y-67094476D01*
X145994293Y-67019265D01*
X146132564Y-66945358D01*
X146266192Y-66835692D01*
X146375858Y-66702064D01*
X146457347Y-66549609D01*
X146507528Y-66384185D01*
X146524472Y-66212150D01*
X146524472Y-65724650D01*
X146507528Y-65552615D01*
X146457347Y-65387191D01*
X146375858Y-65234736D01*
X146297195Y-65138885D01*
X146299302Y-65138012D01*
X146648983Y-64904363D01*
X146946363Y-64606983D01*
X147180012Y-64257302D01*
X147340953Y-63868756D01*
X147423000Y-63456279D01*
X147423000Y-63035721D01*
X147340953Y-62623244D01*
X147180012Y-62234698D01*
X146946363Y-61885017D01*
X146807346Y-61746000D01*
X148229928Y-61746000D01*
X148229928Y-64746000D01*
X148242188Y-64870482D01*
X148278498Y-64990180D01*
X148337463Y-65100494D01*
X148416815Y-65197185D01*
X148513506Y-65276537D01*
X148623820Y-65335502D01*
X148743518Y-65371812D01*
X148868000Y-65384072D01*
X149454320Y-65384072D01*
X149452653Y-65387191D01*
X149402472Y-65552615D01*
X149385528Y-65724650D01*
X149385528Y-66212150D01*
X149402472Y-66384185D01*
X149452653Y-66549609D01*
X149534142Y-66702064D01*
X149643808Y-66835692D01*
X149777436Y-66945358D01*
X149929891Y-67026847D01*
X150095315Y-67077028D01*
X150267350Y-67093972D01*
X151179850Y-67093972D01*
X151351885Y-67077028D01*
X151517309Y-67026847D01*
X151669764Y-66945358D01*
X151803392Y-66835692D01*
X151913058Y-66702064D01*
X151994547Y-66549609D01*
X152044728Y-66384185D01*
X152061672Y-66212150D01*
X152061672Y-65724650D01*
X152044728Y-65552615D01*
X151994547Y-65387191D01*
X151986635Y-65372388D01*
X151992482Y-65371812D01*
X152112180Y-65335502D01*
X152222494Y-65276537D01*
X152319185Y-65197185D01*
X152398537Y-65100494D01*
X152457502Y-64990180D01*
X152493812Y-64870482D01*
X152506072Y-64746000D01*
X152506072Y-61746000D01*
X152493812Y-61621518D01*
X152457502Y-61501820D01*
X152398537Y-61391506D01*
X152319185Y-61294815D01*
X152222494Y-61215463D01*
X152112180Y-61156498D01*
X151992482Y-61120188D01*
X151868000Y-61107928D01*
X148868000Y-61107928D01*
X148743518Y-61120188D01*
X148623820Y-61156498D01*
X148513506Y-61215463D01*
X148416815Y-61294815D01*
X148337463Y-61391506D01*
X148278498Y-61501820D01*
X148242188Y-61621518D01*
X148229928Y-61746000D01*
X146807346Y-61746000D01*
X146648983Y-61587637D01*
X146299302Y-61353988D01*
X145910756Y-61193047D01*
X145498279Y-61111000D01*
X145077721Y-61111000D01*
X144665244Y-61193047D01*
X144276698Y-61353988D01*
X143927017Y-61587637D01*
X143629637Y-61885017D01*
X143395988Y-62234698D01*
X143235047Y-62623244D01*
X143153000Y-63035721D01*
X140568072Y-63035721D01*
X140568072Y-61847600D01*
X140555812Y-61723118D01*
X140519502Y-61603420D01*
X140460537Y-61493106D01*
X140381185Y-61396415D01*
X140284494Y-61317063D01*
X140174180Y-61258098D01*
X140054482Y-61221788D01*
X139930000Y-61209528D01*
X136930000Y-61209528D01*
X136805518Y-61221788D01*
X136685820Y-61258098D01*
X136575506Y-61317063D01*
X136478815Y-61396415D01*
X136399463Y-61493106D01*
X136340498Y-61603420D01*
X136304188Y-61723118D01*
X136291928Y-61847600D01*
X128397000Y-61847600D01*
X128397000Y-59817000D01*
X154813000Y-59817000D01*
X154813000Y-71663311D01*
M02*
