G04 #@! TF.GenerationSoftware,KiCad,Pcbnew,5.1.1-8be2ce7~80~ubuntu18.10.1*
G04 #@! TF.CreationDate,2019-05-25T12:59:07+08:00*
G04 #@! TF.ProjectId,tas2562_dev_pcb,74617332-3536-4325-9f64-65765f706362,rev?*
G04 #@! TF.SameCoordinates,Original*
G04 #@! TF.FileFunction,Copper,L1,Top*
G04 #@! TF.FilePolarity,Positive*
%FSLAX46Y46*%
G04 Gerber Fmt 4.6, Leading zero omitted, Abs format (unit mm)*
G04 Created by KiCad (PCBNEW 5.1.1-8be2ce7~80~ubuntu18.10.1) date 2019-05-25 12:59:07*
%MOMM*%
%LPD*%
G04 APERTURE LIST*
%ADD10O,1.700000X1.700000*%
%ADD11R,1.700000X1.700000*%
%ADD12C,0.230000*%
%ADD13C,0.100000*%
%ADD14C,0.975000*%
%ADD15R,3.700000X2.100000*%
%ADD16R,3.000000X3.000000*%
%ADD17C,3.000000*%
%ADD18C,1.500000*%
%ADD19R,3.800000X2.000000*%
%ADD20R,1.500000X2.000000*%
%ADD21C,0.200000*%
%ADD22C,0.700000*%
%ADD23C,0.300000*%
%ADD24C,0.400000*%
%ADD25C,0.250000*%
%ADD26C,0.500000*%
%ADD27C,0.300000*%
%ADD28C,0.150000*%
%ADD29C,0.200000*%
%ADD30C,1.000000*%
%ADD31C,0.254000*%
G04 APERTURE END LIST*
D10*
X153517600Y-92710000D03*
X153517600Y-90170000D03*
X153517600Y-87630000D03*
X153517600Y-85090000D03*
X153517600Y-82550000D03*
X153517600Y-80010000D03*
X153517600Y-77470000D03*
X153517600Y-74930000D03*
X153517600Y-72390000D03*
D11*
X153517600Y-69850000D03*
D12*
X148218400Y-75345800D03*
X147818400Y-75345800D03*
X147418400Y-75345800D03*
X147018400Y-75345800D03*
X146618400Y-75345800D03*
X146218400Y-75345800D03*
X148218400Y-74945800D03*
X147818400Y-74945800D03*
X147418400Y-74945800D03*
X147018400Y-74945800D03*
X146618400Y-74945800D03*
X146218400Y-74945800D03*
X148218400Y-74545800D03*
X147818400Y-74545800D03*
X147418400Y-74545800D03*
X147018400Y-74545800D03*
X146618400Y-74545800D03*
X146218400Y-74545800D03*
X148218400Y-74145800D03*
X147818400Y-74145800D03*
X147418400Y-74145800D03*
X147018400Y-74145800D03*
X146618400Y-74145800D03*
X146218400Y-74145800D03*
X148218400Y-73745800D03*
X147818400Y-73745800D03*
X147418400Y-73745800D03*
X147018400Y-73745800D03*
X146618400Y-73745800D03*
X146218400Y-73745800D03*
X148218400Y-73345800D03*
X147818400Y-73345800D03*
X147448400Y-73345800D03*
X147018400Y-73345800D03*
X146618400Y-73345800D03*
X146218400Y-73345800D03*
D13*
G36*
X149324142Y-78253674D02*
G01*
X149347803Y-78257184D01*
X149371007Y-78262996D01*
X149393529Y-78271054D01*
X149415153Y-78281282D01*
X149435670Y-78293579D01*
X149454883Y-78307829D01*
X149472607Y-78323893D01*
X149488671Y-78341617D01*
X149502921Y-78360830D01*
X149515218Y-78381347D01*
X149525446Y-78402971D01*
X149533504Y-78425493D01*
X149539316Y-78448697D01*
X149542826Y-78472358D01*
X149544000Y-78496250D01*
X149544000Y-78983750D01*
X149542826Y-79007642D01*
X149539316Y-79031303D01*
X149533504Y-79054507D01*
X149525446Y-79077029D01*
X149515218Y-79098653D01*
X149502921Y-79119170D01*
X149488671Y-79138383D01*
X149472607Y-79156107D01*
X149454883Y-79172171D01*
X149435670Y-79186421D01*
X149415153Y-79198718D01*
X149393529Y-79208946D01*
X149371007Y-79217004D01*
X149347803Y-79222816D01*
X149324142Y-79226326D01*
X149300250Y-79227500D01*
X148387750Y-79227500D01*
X148363858Y-79226326D01*
X148340197Y-79222816D01*
X148316993Y-79217004D01*
X148294471Y-79208946D01*
X148272847Y-79198718D01*
X148252330Y-79186421D01*
X148233117Y-79172171D01*
X148215393Y-79156107D01*
X148199329Y-79138383D01*
X148185079Y-79119170D01*
X148172782Y-79098653D01*
X148162554Y-79077029D01*
X148154496Y-79054507D01*
X148148684Y-79031303D01*
X148145174Y-79007642D01*
X148144000Y-78983750D01*
X148144000Y-78496250D01*
X148145174Y-78472358D01*
X148148684Y-78448697D01*
X148154496Y-78425493D01*
X148162554Y-78402971D01*
X148172782Y-78381347D01*
X148185079Y-78360830D01*
X148199329Y-78341617D01*
X148215393Y-78323893D01*
X148233117Y-78307829D01*
X148252330Y-78293579D01*
X148272847Y-78281282D01*
X148294471Y-78271054D01*
X148316993Y-78262996D01*
X148340197Y-78257184D01*
X148363858Y-78253674D01*
X148387750Y-78252500D01*
X149300250Y-78252500D01*
X149324142Y-78253674D01*
X149324142Y-78253674D01*
G37*
D14*
X148844000Y-78740000D03*
D13*
G36*
X149324142Y-76378674D02*
G01*
X149347803Y-76382184D01*
X149371007Y-76387996D01*
X149393529Y-76396054D01*
X149415153Y-76406282D01*
X149435670Y-76418579D01*
X149454883Y-76432829D01*
X149472607Y-76448893D01*
X149488671Y-76466617D01*
X149502921Y-76485830D01*
X149515218Y-76506347D01*
X149525446Y-76527971D01*
X149533504Y-76550493D01*
X149539316Y-76573697D01*
X149542826Y-76597358D01*
X149544000Y-76621250D01*
X149544000Y-77108750D01*
X149542826Y-77132642D01*
X149539316Y-77156303D01*
X149533504Y-77179507D01*
X149525446Y-77202029D01*
X149515218Y-77223653D01*
X149502921Y-77244170D01*
X149488671Y-77263383D01*
X149472607Y-77281107D01*
X149454883Y-77297171D01*
X149435670Y-77311421D01*
X149415153Y-77323718D01*
X149393529Y-77333946D01*
X149371007Y-77342004D01*
X149347803Y-77347816D01*
X149324142Y-77351326D01*
X149300250Y-77352500D01*
X148387750Y-77352500D01*
X148363858Y-77351326D01*
X148340197Y-77347816D01*
X148316993Y-77342004D01*
X148294471Y-77333946D01*
X148272847Y-77323718D01*
X148252330Y-77311421D01*
X148233117Y-77297171D01*
X148215393Y-77281107D01*
X148199329Y-77263383D01*
X148185079Y-77244170D01*
X148172782Y-77223653D01*
X148162554Y-77202029D01*
X148154496Y-77179507D01*
X148148684Y-77156303D01*
X148145174Y-77132642D01*
X148144000Y-77108750D01*
X148144000Y-76621250D01*
X148145174Y-76597358D01*
X148148684Y-76573697D01*
X148154496Y-76550493D01*
X148162554Y-76527971D01*
X148172782Y-76506347D01*
X148185079Y-76485830D01*
X148199329Y-76466617D01*
X148215393Y-76448893D01*
X148233117Y-76432829D01*
X148252330Y-76418579D01*
X148272847Y-76406282D01*
X148294471Y-76396054D01*
X148316993Y-76387996D01*
X148340197Y-76382184D01*
X148363858Y-76378674D01*
X148387750Y-76377500D01*
X149300250Y-76377500D01*
X149324142Y-76378674D01*
X149324142Y-76378674D01*
G37*
D14*
X148844000Y-76865000D03*
D15*
X138176000Y-74853800D03*
X138176000Y-85140800D03*
D13*
G36*
X143736142Y-88667674D02*
G01*
X143759803Y-88671184D01*
X143783007Y-88676996D01*
X143805529Y-88685054D01*
X143827153Y-88695282D01*
X143847670Y-88707579D01*
X143866883Y-88721829D01*
X143884607Y-88737893D01*
X143900671Y-88755617D01*
X143914921Y-88774830D01*
X143927218Y-88795347D01*
X143937446Y-88816971D01*
X143945504Y-88839493D01*
X143951316Y-88862697D01*
X143954826Y-88886358D01*
X143956000Y-88910250D01*
X143956000Y-89397750D01*
X143954826Y-89421642D01*
X143951316Y-89445303D01*
X143945504Y-89468507D01*
X143937446Y-89491029D01*
X143927218Y-89512653D01*
X143914921Y-89533170D01*
X143900671Y-89552383D01*
X143884607Y-89570107D01*
X143866883Y-89586171D01*
X143847670Y-89600421D01*
X143827153Y-89612718D01*
X143805529Y-89622946D01*
X143783007Y-89631004D01*
X143759803Y-89636816D01*
X143736142Y-89640326D01*
X143712250Y-89641500D01*
X142799750Y-89641500D01*
X142775858Y-89640326D01*
X142752197Y-89636816D01*
X142728993Y-89631004D01*
X142706471Y-89622946D01*
X142684847Y-89612718D01*
X142664330Y-89600421D01*
X142645117Y-89586171D01*
X142627393Y-89570107D01*
X142611329Y-89552383D01*
X142597079Y-89533170D01*
X142584782Y-89512653D01*
X142574554Y-89491029D01*
X142566496Y-89468507D01*
X142560684Y-89445303D01*
X142557174Y-89421642D01*
X142556000Y-89397750D01*
X142556000Y-88910250D01*
X142557174Y-88886358D01*
X142560684Y-88862697D01*
X142566496Y-88839493D01*
X142574554Y-88816971D01*
X142584782Y-88795347D01*
X142597079Y-88774830D01*
X142611329Y-88755617D01*
X142627393Y-88737893D01*
X142645117Y-88721829D01*
X142664330Y-88707579D01*
X142684847Y-88695282D01*
X142706471Y-88685054D01*
X142728993Y-88676996D01*
X142752197Y-88671184D01*
X142775858Y-88667674D01*
X142799750Y-88666500D01*
X143712250Y-88666500D01*
X143736142Y-88667674D01*
X143736142Y-88667674D01*
G37*
D14*
X143256000Y-89154000D03*
D13*
G36*
X143736142Y-86792674D02*
G01*
X143759803Y-86796184D01*
X143783007Y-86801996D01*
X143805529Y-86810054D01*
X143827153Y-86820282D01*
X143847670Y-86832579D01*
X143866883Y-86846829D01*
X143884607Y-86862893D01*
X143900671Y-86880617D01*
X143914921Y-86899830D01*
X143927218Y-86920347D01*
X143937446Y-86941971D01*
X143945504Y-86964493D01*
X143951316Y-86987697D01*
X143954826Y-87011358D01*
X143956000Y-87035250D01*
X143956000Y-87522750D01*
X143954826Y-87546642D01*
X143951316Y-87570303D01*
X143945504Y-87593507D01*
X143937446Y-87616029D01*
X143927218Y-87637653D01*
X143914921Y-87658170D01*
X143900671Y-87677383D01*
X143884607Y-87695107D01*
X143866883Y-87711171D01*
X143847670Y-87725421D01*
X143827153Y-87737718D01*
X143805529Y-87747946D01*
X143783007Y-87756004D01*
X143759803Y-87761816D01*
X143736142Y-87765326D01*
X143712250Y-87766500D01*
X142799750Y-87766500D01*
X142775858Y-87765326D01*
X142752197Y-87761816D01*
X142728993Y-87756004D01*
X142706471Y-87747946D01*
X142684847Y-87737718D01*
X142664330Y-87725421D01*
X142645117Y-87711171D01*
X142627393Y-87695107D01*
X142611329Y-87677383D01*
X142597079Y-87658170D01*
X142584782Y-87637653D01*
X142574554Y-87616029D01*
X142566496Y-87593507D01*
X142560684Y-87570303D01*
X142557174Y-87546642D01*
X142556000Y-87522750D01*
X142556000Y-87035250D01*
X142557174Y-87011358D01*
X142560684Y-86987697D01*
X142566496Y-86964493D01*
X142574554Y-86941971D01*
X142584782Y-86920347D01*
X142597079Y-86899830D01*
X142611329Y-86880617D01*
X142627393Y-86862893D01*
X142645117Y-86846829D01*
X142664330Y-86832579D01*
X142684847Y-86820282D01*
X142706471Y-86810054D01*
X142728993Y-86801996D01*
X142752197Y-86796184D01*
X142775858Y-86792674D01*
X142799750Y-86791500D01*
X143712250Y-86791500D01*
X143736142Y-86792674D01*
X143736142Y-86792674D01*
G37*
D14*
X143256000Y-87279000D03*
D13*
G36*
X148252642Y-84137174D02*
G01*
X148276303Y-84140684D01*
X148299507Y-84146496D01*
X148322029Y-84154554D01*
X148343653Y-84164782D01*
X148364170Y-84177079D01*
X148383383Y-84191329D01*
X148401107Y-84207393D01*
X148417171Y-84225117D01*
X148431421Y-84244330D01*
X148443718Y-84264847D01*
X148453946Y-84286471D01*
X148462004Y-84308993D01*
X148467816Y-84332197D01*
X148471326Y-84355858D01*
X148472500Y-84379750D01*
X148472500Y-85292250D01*
X148471326Y-85316142D01*
X148467816Y-85339803D01*
X148462004Y-85363007D01*
X148453946Y-85385529D01*
X148443718Y-85407153D01*
X148431421Y-85427670D01*
X148417171Y-85446883D01*
X148401107Y-85464607D01*
X148383383Y-85480671D01*
X148364170Y-85494921D01*
X148343653Y-85507218D01*
X148322029Y-85517446D01*
X148299507Y-85525504D01*
X148276303Y-85531316D01*
X148252642Y-85534826D01*
X148228750Y-85536000D01*
X147741250Y-85536000D01*
X147717358Y-85534826D01*
X147693697Y-85531316D01*
X147670493Y-85525504D01*
X147647971Y-85517446D01*
X147626347Y-85507218D01*
X147605830Y-85494921D01*
X147586617Y-85480671D01*
X147568893Y-85464607D01*
X147552829Y-85446883D01*
X147538579Y-85427670D01*
X147526282Y-85407153D01*
X147516054Y-85385529D01*
X147507996Y-85363007D01*
X147502184Y-85339803D01*
X147498674Y-85316142D01*
X147497500Y-85292250D01*
X147497500Y-84379750D01*
X147498674Y-84355858D01*
X147502184Y-84332197D01*
X147507996Y-84308993D01*
X147516054Y-84286471D01*
X147526282Y-84264847D01*
X147538579Y-84244330D01*
X147552829Y-84225117D01*
X147568893Y-84207393D01*
X147586617Y-84191329D01*
X147605830Y-84177079D01*
X147626347Y-84164782D01*
X147647971Y-84154554D01*
X147670493Y-84146496D01*
X147693697Y-84140684D01*
X147717358Y-84137174D01*
X147741250Y-84136000D01*
X148228750Y-84136000D01*
X148252642Y-84137174D01*
X148252642Y-84137174D01*
G37*
D14*
X147985000Y-84836000D03*
D13*
G36*
X150127642Y-84137174D02*
G01*
X150151303Y-84140684D01*
X150174507Y-84146496D01*
X150197029Y-84154554D01*
X150218653Y-84164782D01*
X150239170Y-84177079D01*
X150258383Y-84191329D01*
X150276107Y-84207393D01*
X150292171Y-84225117D01*
X150306421Y-84244330D01*
X150318718Y-84264847D01*
X150328946Y-84286471D01*
X150337004Y-84308993D01*
X150342816Y-84332197D01*
X150346326Y-84355858D01*
X150347500Y-84379750D01*
X150347500Y-85292250D01*
X150346326Y-85316142D01*
X150342816Y-85339803D01*
X150337004Y-85363007D01*
X150328946Y-85385529D01*
X150318718Y-85407153D01*
X150306421Y-85427670D01*
X150292171Y-85446883D01*
X150276107Y-85464607D01*
X150258383Y-85480671D01*
X150239170Y-85494921D01*
X150218653Y-85507218D01*
X150197029Y-85517446D01*
X150174507Y-85525504D01*
X150151303Y-85531316D01*
X150127642Y-85534826D01*
X150103750Y-85536000D01*
X149616250Y-85536000D01*
X149592358Y-85534826D01*
X149568697Y-85531316D01*
X149545493Y-85525504D01*
X149522971Y-85517446D01*
X149501347Y-85507218D01*
X149480830Y-85494921D01*
X149461617Y-85480671D01*
X149443893Y-85464607D01*
X149427829Y-85446883D01*
X149413579Y-85427670D01*
X149401282Y-85407153D01*
X149391054Y-85385529D01*
X149382996Y-85363007D01*
X149377184Y-85339803D01*
X149373674Y-85316142D01*
X149372500Y-85292250D01*
X149372500Y-84379750D01*
X149373674Y-84355858D01*
X149377184Y-84332197D01*
X149382996Y-84308993D01*
X149391054Y-84286471D01*
X149401282Y-84264847D01*
X149413579Y-84244330D01*
X149427829Y-84225117D01*
X149443893Y-84207393D01*
X149461617Y-84191329D01*
X149480830Y-84177079D01*
X149501347Y-84164782D01*
X149522971Y-84154554D01*
X149545493Y-84146496D01*
X149568697Y-84140684D01*
X149592358Y-84137174D01*
X149616250Y-84136000D01*
X150103750Y-84136000D01*
X150127642Y-84137174D01*
X150127642Y-84137174D01*
G37*
D14*
X149860000Y-84836000D03*
D13*
G36*
X147355642Y-78253674D02*
G01*
X147379303Y-78257184D01*
X147402507Y-78262996D01*
X147425029Y-78271054D01*
X147446653Y-78281282D01*
X147467170Y-78293579D01*
X147486383Y-78307829D01*
X147504107Y-78323893D01*
X147520171Y-78341617D01*
X147534421Y-78360830D01*
X147546718Y-78381347D01*
X147556946Y-78402971D01*
X147565004Y-78425493D01*
X147570816Y-78448697D01*
X147574326Y-78472358D01*
X147575500Y-78496250D01*
X147575500Y-78983750D01*
X147574326Y-79007642D01*
X147570816Y-79031303D01*
X147565004Y-79054507D01*
X147556946Y-79077029D01*
X147546718Y-79098653D01*
X147534421Y-79119170D01*
X147520171Y-79138383D01*
X147504107Y-79156107D01*
X147486383Y-79172171D01*
X147467170Y-79186421D01*
X147446653Y-79198718D01*
X147425029Y-79208946D01*
X147402507Y-79217004D01*
X147379303Y-79222816D01*
X147355642Y-79226326D01*
X147331750Y-79227500D01*
X146419250Y-79227500D01*
X146395358Y-79226326D01*
X146371697Y-79222816D01*
X146348493Y-79217004D01*
X146325971Y-79208946D01*
X146304347Y-79198718D01*
X146283830Y-79186421D01*
X146264617Y-79172171D01*
X146246893Y-79156107D01*
X146230829Y-79138383D01*
X146216579Y-79119170D01*
X146204282Y-79098653D01*
X146194054Y-79077029D01*
X146185996Y-79054507D01*
X146180184Y-79031303D01*
X146176674Y-79007642D01*
X146175500Y-78983750D01*
X146175500Y-78496250D01*
X146176674Y-78472358D01*
X146180184Y-78448697D01*
X146185996Y-78425493D01*
X146194054Y-78402971D01*
X146204282Y-78381347D01*
X146216579Y-78360830D01*
X146230829Y-78341617D01*
X146246893Y-78323893D01*
X146264617Y-78307829D01*
X146283830Y-78293579D01*
X146304347Y-78281282D01*
X146325971Y-78271054D01*
X146348493Y-78262996D01*
X146371697Y-78257184D01*
X146395358Y-78253674D01*
X146419250Y-78252500D01*
X147331750Y-78252500D01*
X147355642Y-78253674D01*
X147355642Y-78253674D01*
G37*
D14*
X146875500Y-78740000D03*
D13*
G36*
X147355642Y-76378674D02*
G01*
X147379303Y-76382184D01*
X147402507Y-76387996D01*
X147425029Y-76396054D01*
X147446653Y-76406282D01*
X147467170Y-76418579D01*
X147486383Y-76432829D01*
X147504107Y-76448893D01*
X147520171Y-76466617D01*
X147534421Y-76485830D01*
X147546718Y-76506347D01*
X147556946Y-76527971D01*
X147565004Y-76550493D01*
X147570816Y-76573697D01*
X147574326Y-76597358D01*
X147575500Y-76621250D01*
X147575500Y-77108750D01*
X147574326Y-77132642D01*
X147570816Y-77156303D01*
X147565004Y-77179507D01*
X147556946Y-77202029D01*
X147546718Y-77223653D01*
X147534421Y-77244170D01*
X147520171Y-77263383D01*
X147504107Y-77281107D01*
X147486383Y-77297171D01*
X147467170Y-77311421D01*
X147446653Y-77323718D01*
X147425029Y-77333946D01*
X147402507Y-77342004D01*
X147379303Y-77347816D01*
X147355642Y-77351326D01*
X147331750Y-77352500D01*
X146419250Y-77352500D01*
X146395358Y-77351326D01*
X146371697Y-77347816D01*
X146348493Y-77342004D01*
X146325971Y-77333946D01*
X146304347Y-77323718D01*
X146283830Y-77311421D01*
X146264617Y-77297171D01*
X146246893Y-77281107D01*
X146230829Y-77263383D01*
X146216579Y-77244170D01*
X146204282Y-77223653D01*
X146194054Y-77202029D01*
X146185996Y-77179507D01*
X146180184Y-77156303D01*
X146176674Y-77132642D01*
X146175500Y-77108750D01*
X146175500Y-76621250D01*
X146176674Y-76597358D01*
X146180184Y-76573697D01*
X146185996Y-76550493D01*
X146194054Y-76527971D01*
X146204282Y-76506347D01*
X146216579Y-76485830D01*
X146230829Y-76466617D01*
X146246893Y-76448893D01*
X146264617Y-76432829D01*
X146283830Y-76418579D01*
X146304347Y-76406282D01*
X146325971Y-76396054D01*
X146348493Y-76387996D01*
X146371697Y-76382184D01*
X146395358Y-76378674D01*
X146419250Y-76377500D01*
X147331750Y-76377500D01*
X147355642Y-76378674D01*
X147355642Y-76378674D01*
G37*
D14*
X146875500Y-76865000D03*
D13*
G36*
X143172642Y-71945174D02*
G01*
X143196303Y-71948684D01*
X143219507Y-71954496D01*
X143242029Y-71962554D01*
X143263653Y-71972782D01*
X143284170Y-71985079D01*
X143303383Y-71999329D01*
X143321107Y-72015393D01*
X143337171Y-72033117D01*
X143351421Y-72052330D01*
X143363718Y-72072847D01*
X143373946Y-72094471D01*
X143382004Y-72116993D01*
X143387816Y-72140197D01*
X143391326Y-72163858D01*
X143392500Y-72187750D01*
X143392500Y-73100250D01*
X143391326Y-73124142D01*
X143387816Y-73147803D01*
X143382004Y-73171007D01*
X143373946Y-73193529D01*
X143363718Y-73215153D01*
X143351421Y-73235670D01*
X143337171Y-73254883D01*
X143321107Y-73272607D01*
X143303383Y-73288671D01*
X143284170Y-73302921D01*
X143263653Y-73315218D01*
X143242029Y-73325446D01*
X143219507Y-73333504D01*
X143196303Y-73339316D01*
X143172642Y-73342826D01*
X143148750Y-73344000D01*
X142661250Y-73344000D01*
X142637358Y-73342826D01*
X142613697Y-73339316D01*
X142590493Y-73333504D01*
X142567971Y-73325446D01*
X142546347Y-73315218D01*
X142525830Y-73302921D01*
X142506617Y-73288671D01*
X142488893Y-73272607D01*
X142472829Y-73254883D01*
X142458579Y-73235670D01*
X142446282Y-73215153D01*
X142436054Y-73193529D01*
X142427996Y-73171007D01*
X142422184Y-73147803D01*
X142418674Y-73124142D01*
X142417500Y-73100250D01*
X142417500Y-72187750D01*
X142418674Y-72163858D01*
X142422184Y-72140197D01*
X142427996Y-72116993D01*
X142436054Y-72094471D01*
X142446282Y-72072847D01*
X142458579Y-72052330D01*
X142472829Y-72033117D01*
X142488893Y-72015393D01*
X142506617Y-71999329D01*
X142525830Y-71985079D01*
X142546347Y-71972782D01*
X142567971Y-71962554D01*
X142590493Y-71954496D01*
X142613697Y-71948684D01*
X142637358Y-71945174D01*
X142661250Y-71944000D01*
X143148750Y-71944000D01*
X143172642Y-71945174D01*
X143172642Y-71945174D01*
G37*
D14*
X142905000Y-72644000D03*
D13*
G36*
X145047642Y-71945174D02*
G01*
X145071303Y-71948684D01*
X145094507Y-71954496D01*
X145117029Y-71962554D01*
X145138653Y-71972782D01*
X145159170Y-71985079D01*
X145178383Y-71999329D01*
X145196107Y-72015393D01*
X145212171Y-72033117D01*
X145226421Y-72052330D01*
X145238718Y-72072847D01*
X145248946Y-72094471D01*
X145257004Y-72116993D01*
X145262816Y-72140197D01*
X145266326Y-72163858D01*
X145267500Y-72187750D01*
X145267500Y-73100250D01*
X145266326Y-73124142D01*
X145262816Y-73147803D01*
X145257004Y-73171007D01*
X145248946Y-73193529D01*
X145238718Y-73215153D01*
X145226421Y-73235670D01*
X145212171Y-73254883D01*
X145196107Y-73272607D01*
X145178383Y-73288671D01*
X145159170Y-73302921D01*
X145138653Y-73315218D01*
X145117029Y-73325446D01*
X145094507Y-73333504D01*
X145071303Y-73339316D01*
X145047642Y-73342826D01*
X145023750Y-73344000D01*
X144536250Y-73344000D01*
X144512358Y-73342826D01*
X144488697Y-73339316D01*
X144465493Y-73333504D01*
X144442971Y-73325446D01*
X144421347Y-73315218D01*
X144400830Y-73302921D01*
X144381617Y-73288671D01*
X144363893Y-73272607D01*
X144347829Y-73254883D01*
X144333579Y-73235670D01*
X144321282Y-73215153D01*
X144311054Y-73193529D01*
X144302996Y-73171007D01*
X144297184Y-73147803D01*
X144293674Y-73124142D01*
X144292500Y-73100250D01*
X144292500Y-72187750D01*
X144293674Y-72163858D01*
X144297184Y-72140197D01*
X144302996Y-72116993D01*
X144311054Y-72094471D01*
X144321282Y-72072847D01*
X144333579Y-72052330D01*
X144347829Y-72033117D01*
X144363893Y-72015393D01*
X144381617Y-71999329D01*
X144400830Y-71985079D01*
X144421347Y-71972782D01*
X144442971Y-71962554D01*
X144465493Y-71954496D01*
X144488697Y-71948684D01*
X144512358Y-71945174D01*
X144536250Y-71944000D01*
X145023750Y-71944000D01*
X145047642Y-71945174D01*
X145047642Y-71945174D01*
G37*
D14*
X144780000Y-72644000D03*
D11*
X153517600Y-69850000D03*
D10*
X153517600Y-72390000D03*
X153517600Y-74930000D03*
X153517600Y-77470000D03*
X153517600Y-80010000D03*
X153517600Y-82550000D03*
X153517600Y-85090000D03*
X153517600Y-87630000D03*
X153517600Y-90170000D03*
X153517600Y-92710000D03*
D16*
X138430000Y-63347600D03*
D17*
X133350000Y-63347600D03*
D10*
X129540000Y-69850000D03*
X129540000Y-72390000D03*
X129540000Y-74930000D03*
X129540000Y-77470000D03*
X129540000Y-80010000D03*
X129540000Y-82550000D03*
X129540000Y-85090000D03*
X129540000Y-87630000D03*
X129540000Y-90170000D03*
D11*
X129540000Y-92710000D03*
D13*
G36*
X145704642Y-67552174D02*
G01*
X145728303Y-67555684D01*
X145751507Y-67561496D01*
X145774029Y-67569554D01*
X145795653Y-67579782D01*
X145816170Y-67592079D01*
X145835383Y-67606329D01*
X145853107Y-67622393D01*
X145869171Y-67640117D01*
X145883421Y-67659330D01*
X145895718Y-67679847D01*
X145905946Y-67701471D01*
X145914004Y-67723993D01*
X145919816Y-67747197D01*
X145923326Y-67770858D01*
X145924500Y-67794750D01*
X145924500Y-68282250D01*
X145923326Y-68306142D01*
X145919816Y-68329803D01*
X145914004Y-68353007D01*
X145905946Y-68375529D01*
X145895718Y-68397153D01*
X145883421Y-68417670D01*
X145869171Y-68436883D01*
X145853107Y-68454607D01*
X145835383Y-68470671D01*
X145816170Y-68484921D01*
X145795653Y-68497218D01*
X145774029Y-68507446D01*
X145751507Y-68515504D01*
X145728303Y-68521316D01*
X145704642Y-68524826D01*
X145680750Y-68526000D01*
X144768250Y-68526000D01*
X144744358Y-68524826D01*
X144720697Y-68521316D01*
X144697493Y-68515504D01*
X144674971Y-68507446D01*
X144653347Y-68497218D01*
X144632830Y-68484921D01*
X144613617Y-68470671D01*
X144595893Y-68454607D01*
X144579829Y-68436883D01*
X144565579Y-68417670D01*
X144553282Y-68397153D01*
X144543054Y-68375529D01*
X144534996Y-68353007D01*
X144529184Y-68329803D01*
X144525674Y-68306142D01*
X144524500Y-68282250D01*
X144524500Y-67794750D01*
X144525674Y-67770858D01*
X144529184Y-67747197D01*
X144534996Y-67723993D01*
X144543054Y-67701471D01*
X144553282Y-67679847D01*
X144565579Y-67659330D01*
X144579829Y-67640117D01*
X144595893Y-67622393D01*
X144613617Y-67606329D01*
X144632830Y-67592079D01*
X144653347Y-67579782D01*
X144674971Y-67569554D01*
X144697493Y-67561496D01*
X144720697Y-67555684D01*
X144744358Y-67552174D01*
X144768250Y-67551000D01*
X145680750Y-67551000D01*
X145704642Y-67552174D01*
X145704642Y-67552174D01*
G37*
D14*
X145224500Y-68038500D03*
D13*
G36*
X145704642Y-69427174D02*
G01*
X145728303Y-69430684D01*
X145751507Y-69436496D01*
X145774029Y-69444554D01*
X145795653Y-69454782D01*
X145816170Y-69467079D01*
X145835383Y-69481329D01*
X145853107Y-69497393D01*
X145869171Y-69515117D01*
X145883421Y-69534330D01*
X145895718Y-69554847D01*
X145905946Y-69576471D01*
X145914004Y-69598993D01*
X145919816Y-69622197D01*
X145923326Y-69645858D01*
X145924500Y-69669750D01*
X145924500Y-70157250D01*
X145923326Y-70181142D01*
X145919816Y-70204803D01*
X145914004Y-70228007D01*
X145905946Y-70250529D01*
X145895718Y-70272153D01*
X145883421Y-70292670D01*
X145869171Y-70311883D01*
X145853107Y-70329607D01*
X145835383Y-70345671D01*
X145816170Y-70359921D01*
X145795653Y-70372218D01*
X145774029Y-70382446D01*
X145751507Y-70390504D01*
X145728303Y-70396316D01*
X145704642Y-70399826D01*
X145680750Y-70401000D01*
X144768250Y-70401000D01*
X144744358Y-70399826D01*
X144720697Y-70396316D01*
X144697493Y-70390504D01*
X144674971Y-70382446D01*
X144653347Y-70372218D01*
X144632830Y-70359921D01*
X144613617Y-70345671D01*
X144595893Y-70329607D01*
X144579829Y-70311883D01*
X144565579Y-70292670D01*
X144553282Y-70272153D01*
X144543054Y-70250529D01*
X144534996Y-70228007D01*
X144529184Y-70204803D01*
X144525674Y-70181142D01*
X144524500Y-70157250D01*
X144524500Y-69669750D01*
X144525674Y-69645858D01*
X144529184Y-69622197D01*
X144534996Y-69598993D01*
X144543054Y-69576471D01*
X144553282Y-69554847D01*
X144565579Y-69534330D01*
X144579829Y-69515117D01*
X144595893Y-69497393D01*
X144613617Y-69481329D01*
X144632830Y-69467079D01*
X144653347Y-69454782D01*
X144674971Y-69444554D01*
X144697493Y-69436496D01*
X144720697Y-69430684D01*
X144744358Y-69427174D01*
X144768250Y-69426000D01*
X145680750Y-69426000D01*
X145704642Y-69427174D01*
X145704642Y-69427174D01*
G37*
D14*
X145224500Y-69913500D03*
D13*
G36*
X148943142Y-67791174D02*
G01*
X148966803Y-67794684D01*
X148990007Y-67800496D01*
X149012529Y-67808554D01*
X149034153Y-67818782D01*
X149054670Y-67831079D01*
X149073883Y-67845329D01*
X149091607Y-67861393D01*
X149107671Y-67879117D01*
X149121921Y-67898330D01*
X149134218Y-67918847D01*
X149144446Y-67940471D01*
X149152504Y-67962993D01*
X149158316Y-67986197D01*
X149161826Y-68009858D01*
X149163000Y-68033750D01*
X149163000Y-68521250D01*
X149161826Y-68545142D01*
X149158316Y-68568803D01*
X149152504Y-68592007D01*
X149144446Y-68614529D01*
X149134218Y-68636153D01*
X149121921Y-68656670D01*
X149107671Y-68675883D01*
X149091607Y-68693607D01*
X149073883Y-68709671D01*
X149054670Y-68723921D01*
X149034153Y-68736218D01*
X149012529Y-68746446D01*
X148990007Y-68754504D01*
X148966803Y-68760316D01*
X148943142Y-68763826D01*
X148919250Y-68765000D01*
X148006750Y-68765000D01*
X147982858Y-68763826D01*
X147959197Y-68760316D01*
X147935993Y-68754504D01*
X147913471Y-68746446D01*
X147891847Y-68736218D01*
X147871330Y-68723921D01*
X147852117Y-68709671D01*
X147834393Y-68693607D01*
X147818329Y-68675883D01*
X147804079Y-68656670D01*
X147791782Y-68636153D01*
X147781554Y-68614529D01*
X147773496Y-68592007D01*
X147767684Y-68568803D01*
X147764174Y-68545142D01*
X147763000Y-68521250D01*
X147763000Y-68033750D01*
X147764174Y-68009858D01*
X147767684Y-67986197D01*
X147773496Y-67962993D01*
X147781554Y-67940471D01*
X147791782Y-67918847D01*
X147804079Y-67898330D01*
X147818329Y-67879117D01*
X147834393Y-67861393D01*
X147852117Y-67845329D01*
X147871330Y-67831079D01*
X147891847Y-67818782D01*
X147913471Y-67808554D01*
X147935993Y-67800496D01*
X147959197Y-67794684D01*
X147982858Y-67791174D01*
X148006750Y-67790000D01*
X148919250Y-67790000D01*
X148943142Y-67791174D01*
X148943142Y-67791174D01*
G37*
D14*
X148463000Y-68277500D03*
D13*
G36*
X148943142Y-69666174D02*
G01*
X148966803Y-69669684D01*
X148990007Y-69675496D01*
X149012529Y-69683554D01*
X149034153Y-69693782D01*
X149054670Y-69706079D01*
X149073883Y-69720329D01*
X149091607Y-69736393D01*
X149107671Y-69754117D01*
X149121921Y-69773330D01*
X149134218Y-69793847D01*
X149144446Y-69815471D01*
X149152504Y-69837993D01*
X149158316Y-69861197D01*
X149161826Y-69884858D01*
X149163000Y-69908750D01*
X149163000Y-70396250D01*
X149161826Y-70420142D01*
X149158316Y-70443803D01*
X149152504Y-70467007D01*
X149144446Y-70489529D01*
X149134218Y-70511153D01*
X149121921Y-70531670D01*
X149107671Y-70550883D01*
X149091607Y-70568607D01*
X149073883Y-70584671D01*
X149054670Y-70598921D01*
X149034153Y-70611218D01*
X149012529Y-70621446D01*
X148990007Y-70629504D01*
X148966803Y-70635316D01*
X148943142Y-70638826D01*
X148919250Y-70640000D01*
X148006750Y-70640000D01*
X147982858Y-70638826D01*
X147959197Y-70635316D01*
X147935993Y-70629504D01*
X147913471Y-70621446D01*
X147891847Y-70611218D01*
X147871330Y-70598921D01*
X147852117Y-70584671D01*
X147834393Y-70568607D01*
X147818329Y-70550883D01*
X147804079Y-70531670D01*
X147791782Y-70511153D01*
X147781554Y-70489529D01*
X147773496Y-70467007D01*
X147767684Y-70443803D01*
X147764174Y-70420142D01*
X147763000Y-70396250D01*
X147763000Y-69908750D01*
X147764174Y-69884858D01*
X147767684Y-69861197D01*
X147773496Y-69837993D01*
X147781554Y-69815471D01*
X147791782Y-69793847D01*
X147804079Y-69773330D01*
X147818329Y-69754117D01*
X147834393Y-69736393D01*
X147852117Y-69720329D01*
X147871330Y-69706079D01*
X147891847Y-69693782D01*
X147913471Y-69683554D01*
X147935993Y-69675496D01*
X147959197Y-69669684D01*
X147982858Y-69666174D01*
X148006750Y-69665000D01*
X148919250Y-69665000D01*
X148943142Y-69666174D01*
X148943142Y-69666174D01*
G37*
D14*
X148463000Y-70152500D03*
D17*
X145288000Y-63246000D03*
D16*
X150368000Y-63246000D03*
D18*
X142557500Y-70231000D03*
X147002500Y-82105500D03*
D19*
X148082000Y-93828000D03*
D20*
X148082000Y-87528000D03*
X145782000Y-87528000D03*
X150382000Y-87528000D03*
D21*
X148919080Y-76703267D03*
X147430790Y-74158190D03*
X141859000Y-80873600D03*
D22*
X149723010Y-74041000D03*
D21*
X148674064Y-73983116D03*
X143588500Y-78945500D03*
X146218400Y-73345800D03*
X143611600Y-80797400D03*
D23*
X144637112Y-74025112D03*
X143288968Y-74025112D03*
X141940828Y-74025112D03*
X140592688Y-74025112D03*
X141266758Y-74025112D03*
X142614898Y-74025112D03*
X143963038Y-74025112D03*
X138176000Y-74853800D03*
D21*
X146240500Y-74168000D03*
X146618400Y-74145800D03*
X146618400Y-74145800D03*
X146618400Y-74145800D03*
X146618400Y-74145800D03*
X146618400Y-74145800D03*
X146618400Y-74145800D03*
D23*
X144637112Y-74533112D03*
X141940828Y-74533112D03*
X143963038Y-74533112D03*
X140592688Y-74533112D03*
X142614898Y-74533112D03*
X141266758Y-74533112D03*
X143288968Y-74533112D03*
X144780000Y-72644000D03*
X145278424Y-74145800D03*
D21*
X146218400Y-74945800D03*
X146618400Y-74945800D03*
X145605510Y-75183998D03*
X145542000Y-75755500D03*
X147818400Y-74145800D03*
X147018400Y-74145800D03*
D23*
X145224500Y-66865500D03*
D21*
X148590000Y-72771004D03*
D24*
X151701500Y-73787000D03*
D21*
X146618400Y-73745800D03*
X147818400Y-74945800D03*
D23*
X145224500Y-69913500D03*
D21*
X148584010Y-74945800D03*
X148463000Y-70152516D03*
X145669000Y-72199500D03*
X147827119Y-73752957D03*
X147018400Y-74545800D03*
X146218400Y-74545800D03*
X146618400Y-74545800D03*
X147418400Y-74945800D03*
D23*
X146939000Y-78456000D03*
X149860000Y-84836000D03*
X150382000Y-85866000D03*
X150382000Y-87528000D03*
X143256000Y-89154000D03*
X146177000Y-89154000D03*
X147574000Y-89154000D03*
X144653000Y-89154000D03*
X149274250Y-88885750D03*
D21*
X147418400Y-73745800D03*
D23*
X142905000Y-72644000D03*
D25*
X146218400Y-75345800D02*
X148218400Y-75345800D01*
D26*
X146939000Y-76581000D02*
X148844000Y-78486000D01*
X148082000Y-84933000D02*
X147985000Y-84836000D01*
X148082000Y-87528000D02*
X148082000Y-84933000D01*
X147985000Y-84836000D02*
X145821400Y-84836000D01*
X145821400Y-84836000D02*
X141859000Y-80873600D01*
D13*
X148574065Y-73883117D02*
X148674064Y-73983116D01*
X148218400Y-73745800D02*
X148436748Y-73745800D01*
X148436748Y-73745800D02*
X148574065Y-73883117D01*
D27*
X147985000Y-84836000D02*
X150210011Y-82610989D01*
X150073009Y-74390999D02*
X149723010Y-74041000D01*
X150210011Y-74528001D02*
X150073009Y-74390999D01*
X150210011Y-82610989D02*
X150210011Y-74528001D01*
D28*
X146402874Y-74145800D02*
X146618400Y-74145800D01*
D26*
X138176000Y-74853800D02*
X139903200Y-74853800D01*
D28*
X145557888Y-74152112D02*
X146240500Y-74168000D01*
D26*
X145272112Y-74152112D02*
X145557888Y-74152112D01*
X141227688Y-74152112D02*
X142097112Y-74152112D01*
X142097112Y-74152112D02*
X142732112Y-74152112D01*
X142732112Y-74152112D02*
X143208388Y-74152112D01*
X143652888Y-74152112D02*
X144287888Y-74152112D01*
D13*
X144287888Y-74025112D02*
X144002112Y-74025112D01*
D26*
X144922888Y-74152112D02*
X145272112Y-74152112D01*
X144287888Y-74152112D02*
X144637112Y-74152112D01*
D29*
X144643424Y-74018800D02*
X144637112Y-74025112D01*
D13*
X146218400Y-74145800D02*
X146472300Y-74145800D01*
D29*
X145627700Y-74145800D02*
X146472300Y-74145800D01*
D13*
X146472300Y-74145800D02*
X146618400Y-74145800D01*
D29*
X146618400Y-74145800D02*
X145627700Y-74145800D01*
D13*
X146218400Y-74145800D02*
X145646800Y-74145800D01*
D29*
X145646800Y-74145800D02*
X146618400Y-74145800D01*
D26*
X140526000Y-74853800D02*
X141227688Y-74152112D01*
D28*
X146240500Y-74168000D02*
X146402874Y-74145800D01*
D13*
X146618400Y-74145800D02*
X146618400Y-74145800D01*
X146618400Y-74145800D02*
X146618400Y-74145800D01*
X146618400Y-74145800D02*
X146618400Y-74145800D01*
X146618400Y-74145800D02*
X146618400Y-74145800D01*
X146618400Y-74145800D02*
X146618400Y-74145800D01*
X146618400Y-74145800D02*
X146618400Y-74145800D01*
D26*
X139903200Y-74853800D02*
X140526000Y-74853800D01*
X143208388Y-74152112D02*
X143652888Y-74152112D01*
D13*
X145646800Y-74145800D02*
X145373700Y-74145800D01*
D29*
X145627700Y-74145800D02*
X145278424Y-74145800D01*
D26*
X145373700Y-74145800D02*
X145278424Y-74145800D01*
D30*
X138430000Y-74599800D02*
X138176000Y-74853800D01*
X138430000Y-63347600D02*
X138430000Y-74599800D01*
D13*
X146618400Y-74945800D02*
X147018400Y-74945800D01*
D25*
X146218400Y-74945800D02*
X145938800Y-74945800D01*
D13*
X145780200Y-74945800D02*
X146034200Y-74945800D01*
D29*
X147018400Y-74945800D02*
X146034200Y-74945800D01*
X146034200Y-74945800D02*
X145938800Y-74945800D01*
D13*
X146218400Y-74945800D02*
X145780200Y-74945800D01*
D25*
X147018400Y-74945800D02*
X146218400Y-74945800D01*
D13*
X145780200Y-74945800D02*
X145669000Y-75057000D01*
D26*
X143505000Y-87528000D02*
X143256000Y-87279000D01*
X145782000Y-87528000D02*
X143505000Y-87528000D01*
X132431000Y-87279000D02*
X143256000Y-87279000D01*
X129540000Y-90170000D02*
X132431000Y-87279000D01*
X150368000Y-66120800D02*
X150368000Y-63246000D01*
X148513800Y-67975000D02*
X150368000Y-66120800D01*
D25*
X147818400Y-74145800D02*
X147828399Y-74145800D01*
D26*
X145224500Y-63309500D02*
X145288000Y-63246000D01*
X145224500Y-68038500D02*
X145224500Y-66865500D01*
X145224500Y-66865500D02*
X145224500Y-63309500D01*
D13*
X148218400Y-73345800D02*
X148590000Y-72974200D01*
X148590000Y-72974200D02*
X148590000Y-72912425D01*
X148590000Y-72912425D02*
X148590000Y-72771004D01*
D29*
X151501501Y-73587001D02*
X151701500Y-73787000D01*
X149635477Y-71720977D02*
X151501501Y-73587001D01*
X148068541Y-71720977D02*
X149635477Y-71720977D01*
X147018400Y-73345800D02*
X147018400Y-72771118D01*
X147018400Y-72771118D02*
X148068541Y-71720977D01*
D28*
X152667601Y-76620001D02*
X153517600Y-77470000D01*
X146618400Y-72711486D02*
X147933919Y-71395967D01*
X147933919Y-71395967D02*
X150256971Y-71395967D01*
X152317002Y-73455998D02*
X152317002Y-76269402D01*
X146618400Y-73345800D02*
X146618400Y-72711486D01*
X150256971Y-71395967D02*
X152317002Y-73455998D01*
X152317002Y-76269402D02*
X152667601Y-76620001D01*
D29*
X148991008Y-72420994D02*
X150610022Y-74040008D01*
X150610022Y-79642422D02*
X152667601Y-81700001D01*
X152667601Y-81700001D02*
X153517600Y-82550000D01*
X150610022Y-74040008D02*
X150610022Y-79642422D01*
X147818400Y-73345800D02*
X147818400Y-73024592D01*
X148421998Y-72420994D02*
X148991008Y-72420994D01*
X147818400Y-73024592D02*
X148421998Y-72420994D01*
X154940000Y-83667600D02*
X154367599Y-84240001D01*
X154940000Y-79565500D02*
X154940000Y-83667600D01*
X154114500Y-78740000D02*
X154940000Y-79565500D01*
X147448400Y-72899602D02*
X148277019Y-72070983D01*
X154367599Y-84240001D02*
X153517600Y-85090000D01*
X147448400Y-73345800D02*
X147448400Y-72899602D01*
X148277019Y-72070983D02*
X149286983Y-72070983D01*
X152654000Y-78740000D02*
X154114500Y-78740000D01*
X150960033Y-73744033D02*
X150960033Y-77046033D01*
X149286983Y-72070983D02*
X150960033Y-73744033D01*
X150960033Y-77046033D02*
X152654000Y-78740000D01*
X148218400Y-74945800D02*
X148584010Y-74945800D01*
D27*
X148513800Y-69850000D02*
X148463000Y-69900800D01*
X148463000Y-70011095D02*
X148463000Y-70152516D01*
X148463000Y-69900800D02*
X148463000Y-70011095D01*
D13*
X146218400Y-73745800D02*
X146055766Y-73745800D01*
X146055766Y-73745800D02*
X145903399Y-73593433D01*
X144355101Y-71520601D02*
X143942499Y-71107999D01*
X145903399Y-71520601D02*
X144355101Y-71520601D01*
X143942499Y-71107999D02*
X143192500Y-70358000D01*
X145969001Y-71586203D02*
X145903399Y-71520601D01*
X145969001Y-72343501D02*
X145969001Y-71586203D01*
X145903399Y-72409103D02*
X145969001Y-72343501D01*
X145903399Y-73593433D02*
X145903399Y-72409103D01*
X149860000Y-79629000D02*
X147383500Y-82105500D01*
X147383500Y-82105500D02*
X147002500Y-82105500D01*
X149860000Y-75624766D02*
X149860000Y-79629000D01*
X148218400Y-74145800D02*
X148381034Y-74145800D01*
X148381034Y-74145800D02*
X149860000Y-75624766D01*
X147018400Y-73745800D02*
X147018400Y-73707600D01*
X147418400Y-73745800D02*
X147405800Y-73745800D01*
D28*
X146218400Y-74545800D02*
X146618400Y-74545800D01*
X146618400Y-74545800D02*
X147018400Y-74545800D01*
X147818400Y-74545800D02*
X148218400Y-74545800D01*
D26*
X150382000Y-85358000D02*
X149860000Y-84836000D01*
X150382000Y-87778000D02*
X150382000Y-87528000D01*
D25*
X146218400Y-74545800D02*
X148218400Y-74545800D01*
D28*
X147018400Y-74545800D02*
X147418400Y-74545800D01*
X147818400Y-74545800D02*
X147418400Y-74545800D01*
X147418400Y-74545800D02*
X147418350Y-74545850D01*
X147418400Y-74945800D02*
X147418400Y-74545800D01*
D25*
X147418400Y-74535801D02*
X147418400Y-74945800D01*
D30*
X129540000Y-67157600D02*
X133350000Y-63347600D01*
X129540000Y-69850000D02*
X129540000Y-67157600D01*
D26*
X150382000Y-87528000D02*
X150382000Y-85866000D01*
X150382000Y-85866000D02*
X150382000Y-85358000D01*
X146177000Y-89154000D02*
X147574000Y-89154000D01*
X147574000Y-89154000D02*
X149006000Y-89154000D01*
X143256000Y-89154000D02*
X144653000Y-89154000D01*
X144653000Y-89154000D02*
X146177000Y-89154000D01*
X149006000Y-89154000D02*
X149274250Y-88885750D01*
X149274250Y-88885750D02*
X150382000Y-87778000D01*
D13*
X147418400Y-73745800D02*
X147018400Y-73745800D01*
D31*
G36*
X144934000Y-72271891D02*
G01*
X144962246Y-72413891D01*
X145017652Y-72547653D01*
X145098088Y-72668035D01*
X145200465Y-72770412D01*
X145218400Y-72782395D01*
X145218399Y-73559793D01*
X145215086Y-73593433D01*
X145218399Y-73627072D01*
X145218399Y-73627079D01*
X145228311Y-73727715D01*
X145267480Y-73856838D01*
X145331087Y-73975839D01*
X145348575Y-73997148D01*
X145395239Y-74054009D01*
X145395245Y-74054015D01*
X145416688Y-74080143D01*
X145442818Y-74101588D01*
X145541393Y-74200162D01*
X145512854Y-74253553D01*
X145491698Y-74323295D01*
X145397793Y-74373488D01*
X145293489Y-74459089D01*
X145286691Y-74467373D01*
X144273997Y-74961944D01*
X139636500Y-74992656D01*
X139636500Y-73787000D01*
X142114727Y-73787000D01*
X142171336Y-73833458D01*
X142323791Y-73914947D01*
X142489215Y-73965128D01*
X142661250Y-73982072D01*
X143148750Y-73982072D01*
X143320785Y-73965128D01*
X143486209Y-73914947D01*
X143638664Y-73833458D01*
X143695273Y-73787000D01*
X144272000Y-73787000D01*
X144296776Y-73784560D01*
X144320601Y-73777333D01*
X144342557Y-73765597D01*
X144361803Y-73749803D01*
X144377597Y-73730557D01*
X144389333Y-73708601D01*
X144396560Y-73684776D01*
X144399000Y-73660000D01*
X144399000Y-72205601D01*
X144934000Y-72205601D01*
X144934000Y-72271891D01*
X144934000Y-72271891D01*
G37*
X144934000Y-72271891D02*
X144962246Y-72413891D01*
X145017652Y-72547653D01*
X145098088Y-72668035D01*
X145200465Y-72770412D01*
X145218400Y-72782395D01*
X145218399Y-73559793D01*
X145215086Y-73593433D01*
X145218399Y-73627072D01*
X145218399Y-73627079D01*
X145228311Y-73727715D01*
X145267480Y-73856838D01*
X145331087Y-73975839D01*
X145348575Y-73997148D01*
X145395239Y-74054009D01*
X145395245Y-74054015D01*
X145416688Y-74080143D01*
X145442818Y-74101588D01*
X145541393Y-74200162D01*
X145512854Y-74253553D01*
X145491698Y-74323295D01*
X145397793Y-74373488D01*
X145293489Y-74459089D01*
X145286691Y-74467373D01*
X144273997Y-74961944D01*
X139636500Y-74992656D01*
X139636500Y-73787000D01*
X142114727Y-73787000D01*
X142171336Y-73833458D01*
X142323791Y-73914947D01*
X142489215Y-73965128D01*
X142661250Y-73982072D01*
X143148750Y-73982072D01*
X143320785Y-73965128D01*
X143486209Y-73914947D01*
X143638664Y-73833458D01*
X143695273Y-73787000D01*
X144272000Y-73787000D01*
X144296776Y-73784560D01*
X144320601Y-73777333D01*
X144342557Y-73765597D01*
X144361803Y-73749803D01*
X144377597Y-73730557D01*
X144389333Y-73708601D01*
X144396560Y-73684776D01*
X144399000Y-73660000D01*
X144399000Y-72205601D01*
X144934000Y-72205601D01*
X144934000Y-72271891D01*
D29*
G36*
X145767112Y-73952268D02*
G01*
X145776353Y-73969557D01*
X145788789Y-73984711D01*
X145803943Y-73997147D01*
X145821232Y-74006388D01*
X145839991Y-74012079D01*
X145859500Y-74014000D01*
X145921128Y-74014000D01*
X145940406Y-74024304D01*
X145996956Y-74041459D01*
X146005103Y-74042261D01*
X146045508Y-74069259D01*
X146111933Y-74096773D01*
X146182451Y-74110800D01*
X146254349Y-74110800D01*
X146324867Y-74096773D01*
X146391292Y-74069259D01*
X146418400Y-74051146D01*
X146445508Y-74069259D01*
X146511933Y-74096773D01*
X146582451Y-74110800D01*
X146653400Y-74110800D01*
X146653400Y-74170800D01*
X146199981Y-74170800D01*
X146144887Y-74176226D01*
X146082998Y-74195000D01*
X145923000Y-74195000D01*
X145903491Y-74196921D01*
X145884732Y-74202612D01*
X145867443Y-74211853D01*
X145852289Y-74224289D01*
X145839853Y-74239443D01*
X145830612Y-74256732D01*
X145830076Y-74258500D01*
X145197500Y-74258500D01*
X145197500Y-73950500D01*
X145766576Y-73950500D01*
X145767112Y-73952268D01*
X145767112Y-73952268D01*
G37*
X145767112Y-73952268D02*
X145776353Y-73969557D01*
X145788789Y-73984711D01*
X145803943Y-73997147D01*
X145821232Y-74006388D01*
X145839991Y-74012079D01*
X145859500Y-74014000D01*
X145921128Y-74014000D01*
X145940406Y-74024304D01*
X145996956Y-74041459D01*
X146005103Y-74042261D01*
X146045508Y-74069259D01*
X146111933Y-74096773D01*
X146182451Y-74110800D01*
X146254349Y-74110800D01*
X146324867Y-74096773D01*
X146391292Y-74069259D01*
X146418400Y-74051146D01*
X146445508Y-74069259D01*
X146511933Y-74096773D01*
X146582451Y-74110800D01*
X146653400Y-74110800D01*
X146653400Y-74170800D01*
X146199981Y-74170800D01*
X146144887Y-74176226D01*
X146082998Y-74195000D01*
X145923000Y-74195000D01*
X145903491Y-74196921D01*
X145884732Y-74202612D01*
X145867443Y-74211853D01*
X145852289Y-74224289D01*
X145839853Y-74239443D01*
X145830612Y-74256732D01*
X145830076Y-74258500D01*
X145197500Y-74258500D01*
X145197500Y-73950500D01*
X145766576Y-73950500D01*
X145767112Y-73952268D01*
D27*
G36*
X145709500Y-78909175D02*
G01*
X143988500Y-78928512D01*
X143988500Y-78906103D01*
X143973128Y-78828824D01*
X143942975Y-78756029D01*
X143899200Y-78690515D01*
X143843485Y-78634800D01*
X143777971Y-78591025D01*
X143705176Y-78560872D01*
X143627897Y-78545500D01*
X143549103Y-78545500D01*
X143471824Y-78560872D01*
X143399029Y-78591025D01*
X143333515Y-78634800D01*
X143277800Y-78690515D01*
X143234025Y-78756029D01*
X143203872Y-78828824D01*
X143188500Y-78906103D01*
X143188500Y-78937501D01*
X140206315Y-78971009D01*
X140177085Y-78974220D01*
X140149044Y-78983072D01*
X140123268Y-78997224D01*
X140100749Y-79016132D01*
X140082351Y-79039071D01*
X140068782Y-79065158D01*
X140060563Y-79093391D01*
X140058000Y-79121000D01*
X140058000Y-86210000D01*
X135786000Y-86210000D01*
X135786000Y-82954000D01*
X137922000Y-82954000D01*
X137951264Y-82951118D01*
X137979403Y-82942582D01*
X138005336Y-82928720D01*
X138028066Y-82910066D01*
X138046720Y-82887336D01*
X138060582Y-82861403D01*
X138069118Y-82833264D01*
X138072000Y-82804000D01*
X138072000Y-77239000D01*
X141097000Y-77239000D01*
X141126264Y-77236118D01*
X141154403Y-77227582D01*
X141180336Y-77213720D01*
X141203066Y-77195066D01*
X141221720Y-77172336D01*
X141235582Y-77146403D01*
X141244118Y-77118264D01*
X141247000Y-77089000D01*
X141247000Y-75842000D01*
X144780000Y-75842000D01*
X144809264Y-75839118D01*
X144837403Y-75830582D01*
X144863336Y-75816720D01*
X144886066Y-75798066D01*
X144904720Y-75775336D01*
X144918582Y-75749403D01*
X144927118Y-75721264D01*
X144930000Y-75692000D01*
X144930000Y-75401312D01*
X145709500Y-74988635D01*
X145709500Y-78909175D01*
X145709500Y-78909175D01*
G37*
X145709500Y-78909175D02*
X143988500Y-78928512D01*
X143988500Y-78906103D01*
X143973128Y-78828824D01*
X143942975Y-78756029D01*
X143899200Y-78690515D01*
X143843485Y-78634800D01*
X143777971Y-78591025D01*
X143705176Y-78560872D01*
X143627897Y-78545500D01*
X143549103Y-78545500D01*
X143471824Y-78560872D01*
X143399029Y-78591025D01*
X143333515Y-78634800D01*
X143277800Y-78690515D01*
X143234025Y-78756029D01*
X143203872Y-78828824D01*
X143188500Y-78906103D01*
X143188500Y-78937501D01*
X140206315Y-78971009D01*
X140177085Y-78974220D01*
X140149044Y-78983072D01*
X140123268Y-78997224D01*
X140100749Y-79016132D01*
X140082351Y-79039071D01*
X140068782Y-79065158D01*
X140060563Y-79093391D01*
X140058000Y-79121000D01*
X140058000Y-86210000D01*
X135786000Y-86210000D01*
X135786000Y-82954000D01*
X137922000Y-82954000D01*
X137951264Y-82951118D01*
X137979403Y-82942582D01*
X138005336Y-82928720D01*
X138028066Y-82910066D01*
X138046720Y-82887336D01*
X138060582Y-82861403D01*
X138069118Y-82833264D01*
X138072000Y-82804000D01*
X138072000Y-77239000D01*
X141097000Y-77239000D01*
X141126264Y-77236118D01*
X141154403Y-77227582D01*
X141180336Y-77213720D01*
X141203066Y-77195066D01*
X141221720Y-77172336D01*
X141235582Y-77146403D01*
X141244118Y-77118264D01*
X141247000Y-77089000D01*
X141247000Y-75842000D01*
X144780000Y-75842000D01*
X144809264Y-75839118D01*
X144837403Y-75830582D01*
X144863336Y-75816720D01*
X144886066Y-75798066D01*
X144904720Y-75775336D01*
X144918582Y-75749403D01*
X144927118Y-75721264D01*
X144930000Y-75692000D01*
X144930000Y-75401312D01*
X145709500Y-74988635D01*
X145709500Y-78909175D01*
G36*
X148440000Y-75669000D02*
G01*
X147828000Y-75669000D01*
X147798736Y-75671882D01*
X147770597Y-75680418D01*
X147744664Y-75694280D01*
X147721934Y-75712934D01*
X147703280Y-75735664D01*
X147689418Y-75761597D01*
X147680882Y-75789736D01*
X147678000Y-75819000D01*
X147678000Y-77320000D01*
X146517500Y-77320000D01*
X146517500Y-75397500D01*
X148440000Y-75397500D01*
X148440000Y-75669000D01*
X148440000Y-75669000D01*
G37*
X148440000Y-75669000D02*
X147828000Y-75669000D01*
X147798736Y-75671882D01*
X147770597Y-75680418D01*
X147744664Y-75694280D01*
X147721934Y-75712934D01*
X147703280Y-75735664D01*
X147689418Y-75761597D01*
X147680882Y-75789736D01*
X147678000Y-75819000D01*
X147678000Y-77320000D01*
X146517500Y-77320000D01*
X146517500Y-75397500D01*
X148440000Y-75397500D01*
X148440000Y-75669000D01*
M02*
