M48
; DRILL file {KiCad 5.1.1-8be2ce7~80~ubuntu18.10.1} date Sabtu 25 Mei 2019 12:52:50  +08
; FORMAT={-:-/ absolute / metric / decimal}
; #@! TF.CreationDate,2019-05-25T12:52:50+08:00
; #@! TF.GenerationSoftware,Kicad,Pcbnew,5.1.1-8be2ce7~80~ubuntu18.10.1
; #@! TF.FileFunction,Plated,1,4,PTH
FMAT,2
METRIC
T1C0.100
T2C0.200
T3C1.000
T4C1.520
%
G90
G05
T1
X141.859Y-80.874
X142.905Y-72.644
X143.256Y-89.154
X143.588Y-78.945
X143.612Y-80.797
X144.653Y-89.154
X145.225Y-66.865
X145.225Y-69.913
X145.542Y-75.755
X145.606Y-75.184
X145.669Y-72.2
X146.177Y-89.154
X146.218Y-73.346
X146.218Y-74.546
X146.218Y-74.946
X146.24Y-74.168
X146.618Y-74.146
X146.618Y-74.146
X146.618Y-74.146
X146.618Y-74.146
X146.618Y-74.146
X146.618Y-74.146
X146.618Y-74.546
X146.618Y-74.946
X146.939Y-78.456
X147.018Y-74.146
X147.018Y-74.546
X147.418Y-73.746
X147.418Y-74.946
X147.431Y-74.158
X147.574Y-89.154
X148.463Y-70.153
X148.584Y-74.946
X148.59Y-72.771
X148.674Y-73.983
X148.919Y-76.703
X149.274Y-88.886
X149.86Y-84.836
X150.382Y-85.866
X150.382Y-87.528
T2
X149.723Y-74.041
X151.701Y-73.787
T3
X129.54Y-69.85
X129.54Y-72.39
X129.54Y-74.93
X129.54Y-77.47
X129.54Y-80.01
X129.54Y-82.55
X129.54Y-85.09
X129.54Y-87.63
X129.54Y-90.17
X129.54Y-92.71
X153.518Y-69.85
X153.518Y-72.39
X153.518Y-74.93
X153.518Y-77.47
X153.518Y-80.01
X153.518Y-82.55
X153.518Y-85.09
X153.518Y-87.63
X153.518Y-90.17
X153.518Y-92.71
X153.518Y-69.85
X153.518Y-72.39
X153.518Y-74.93
X153.518Y-77.47
X153.518Y-80.01
X153.518Y-82.55
X153.518Y-85.09
X153.518Y-87.63
X153.518Y-90.17
X153.518Y-92.71
T4
X133.35Y-63.348
X138.43Y-63.348
X145.288Y-63.246
X150.368Y-63.246
T0
M30
