G04 #@! TF.GenerationSoftware,KiCad,Pcbnew,5.1.1-8be2ce7~80~ubuntu18.10.1*
G04 #@! TF.CreationDate,2019-05-25T12:59:07+08:00*
G04 #@! TF.ProjectId,tas2562_dev_pcb,74617332-3536-4325-9f64-65765f706362,rev?*
G04 #@! TF.SameCoordinates,Original*
G04 #@! TF.FileFunction,Legend,Top*
G04 #@! TF.FilePolarity,Positive*
%FSLAX46Y46*%
G04 Gerber Fmt 4.6, Leading zero omitted, Abs format (unit mm)*
G04 Created by KiCad (PCBNEW 5.1.1-8be2ce7~80~ubuntu18.10.1) date 2019-05-25 12:59:07*
%MOMM*%
%LPD*%
G04 APERTURE LIST*
%ADD10C,0.150000*%
%ADD11C,0.120000*%
%ADD12C,0.152400*%
G04 APERTURE END LIST*
D10*
X132715047Y-58999428D02*
X133476952Y-58999428D01*
X138811047Y-58999428D02*
X139572952Y-58999428D01*
X139192000Y-59380380D02*
X139192000Y-58618476D01*
X150241047Y-58999428D02*
X151002952Y-58999428D01*
X144907047Y-58999428D02*
X145668952Y-58999428D01*
X145288000Y-59380380D02*
X145288000Y-58618476D01*
D11*
X152187600Y-68520000D02*
X153517600Y-68520000D01*
X152187600Y-69850000D02*
X152187600Y-68520000D01*
X152187600Y-71120000D02*
X154847600Y-71120000D01*
X154847600Y-71120000D02*
X154847600Y-94040000D01*
X152187600Y-71120000D02*
X152187600Y-94040000D01*
X152187600Y-94040000D02*
X154847600Y-94040000D01*
D12*
X145691400Y-72818800D02*
X145691400Y-75872800D01*
X148745400Y-72818800D02*
X145691400Y-72818800D01*
X148745400Y-75872800D02*
X148745400Y-72818800D01*
X145691400Y-75872800D02*
X148745400Y-75872800D01*
X147818348Y-75830940D02*
X147818348Y-75999800D01*
X147818348Y-72860660D02*
X147818348Y-72691800D01*
X148703540Y-74945748D02*
X148872400Y-74945748D01*
X145733260Y-74945748D02*
X145564400Y-74945748D01*
D11*
X148134000Y-78061078D02*
X148134000Y-77543922D01*
X149554000Y-78061078D02*
X149554000Y-77543922D01*
X138176000Y-80010000D02*
X138176000Y-75910000D01*
X138176000Y-80010000D02*
X138176000Y-84110000D01*
X144726000Y-73550000D02*
X131726000Y-73550000D01*
X131726000Y-73550000D02*
X131726000Y-86550000D01*
X131726000Y-86550000D02*
X144726000Y-86550000D01*
X144726000Y-86550000D02*
X144726000Y-73550000D01*
X131726000Y-73550000D02*
X144726000Y-86550000D01*
X144726000Y-86550000D02*
X144726000Y-73550000D01*
X144726000Y-73550000D02*
X131726000Y-86550000D01*
X142546000Y-87957922D02*
X142546000Y-88475078D01*
X143966000Y-87957922D02*
X143966000Y-88475078D01*
X148663922Y-84126000D02*
X149181078Y-84126000D01*
X148663922Y-85546000D02*
X149181078Y-85546000D01*
X146165500Y-77543922D02*
X146165500Y-78061078D01*
X147585500Y-77543922D02*
X147585500Y-78061078D01*
X143583922Y-71934000D02*
X144101078Y-71934000D01*
X143583922Y-73354000D02*
X144101078Y-73354000D01*
X152187600Y-94040000D02*
X154847600Y-94040000D01*
X152187600Y-71120000D02*
X152187600Y-94040000D01*
X154847600Y-71120000D02*
X154847600Y-94040000D01*
X152187600Y-71120000D02*
X154847600Y-71120000D01*
X152187600Y-69850000D02*
X152187600Y-68520000D01*
X152187600Y-68520000D02*
X153517600Y-68520000D01*
X130810000Y-60807600D02*
X140970000Y-60807600D01*
X130810000Y-59537600D02*
X130810000Y-67157600D01*
X130810000Y-67157600D02*
X140970000Y-67157600D01*
X140970000Y-67157600D02*
X140970000Y-59537600D01*
X140970000Y-59537600D02*
X130810000Y-59537600D01*
X130870000Y-94040000D02*
X129540000Y-94040000D01*
X130870000Y-92710000D02*
X130870000Y-94040000D01*
X130870000Y-91440000D02*
X128210000Y-91440000D01*
X128210000Y-91440000D02*
X128210000Y-68520000D01*
X130870000Y-91440000D02*
X130870000Y-68520000D01*
X130870000Y-68520000D02*
X128210000Y-68520000D01*
X145934500Y-68717422D02*
X145934500Y-69234578D01*
X144514500Y-68717422D02*
X144514500Y-69234578D01*
X149173000Y-69473578D02*
X149173000Y-68956422D01*
X147753000Y-69473578D02*
X147753000Y-68956422D01*
X152908000Y-59436000D02*
X142748000Y-59436000D01*
X152908000Y-67056000D02*
X152908000Y-59436000D01*
X142748000Y-67056000D02*
X152908000Y-67056000D01*
X142748000Y-59436000D02*
X142748000Y-67056000D01*
X142748000Y-60706000D02*
X152908000Y-60706000D01*
X143507500Y-70231000D02*
G75*
G03X143507500Y-70231000I-950000J0D01*
G01*
X147952500Y-82105500D02*
G75*
G03X147952500Y-82105500I-950000J0D01*
G01*
X144672000Y-92588000D02*
X145932000Y-92588000D01*
X151492000Y-92588000D02*
X150232000Y-92588000D01*
X144672000Y-88828000D02*
X144672000Y-92588000D01*
X151492000Y-86578000D02*
X151492000Y-92588000D01*
D10*
X153184266Y-66972380D02*
X153184266Y-67686666D01*
X153136647Y-67829523D01*
X153041409Y-67924761D01*
X152898552Y-67972380D01*
X152803314Y-67972380D01*
X154184266Y-67972380D02*
X153612838Y-67972380D01*
X153898552Y-67972380D02*
X153898552Y-66972380D01*
X153803314Y-67115238D01*
X153708076Y-67210476D01*
X153612838Y-67258095D01*
X146592895Y-69362580D02*
X146592895Y-70172104D01*
X146640514Y-70267342D01*
X146688133Y-70314961D01*
X146783371Y-70362580D01*
X146973847Y-70362580D01*
X147069085Y-70314961D01*
X147116704Y-70267342D01*
X147164323Y-70172104D01*
X147164323Y-69362580D01*
X147592895Y-69457819D02*
X147640514Y-69410200D01*
X147735752Y-69362580D01*
X147973847Y-69362580D01*
X148069085Y-69410200D01*
X148116704Y-69457819D01*
X148164323Y-69553057D01*
X148164323Y-69648295D01*
X148116704Y-69791152D01*
X147545276Y-70362580D01*
X148164323Y-70362580D01*
X146050000Y-72096380D02*
X146050000Y-72334476D01*
X145811904Y-72239238D02*
X146050000Y-72334476D01*
X146288095Y-72239238D01*
X145907142Y-72524952D02*
X146050000Y-72334476D01*
X146192857Y-72524952D01*
X126828380Y-73976666D02*
X126828380Y-74548095D01*
X126828380Y-74262380D02*
X125828380Y-74262380D01*
X125971238Y-74357619D01*
X126066476Y-74452857D01*
X126114095Y-74548095D01*
X126161714Y-73119523D02*
X126828380Y-73119523D01*
X126161714Y-73548095D02*
X126685523Y-73548095D01*
X126780761Y-73500476D01*
X126828380Y-73405238D01*
X126828380Y-73262380D01*
X126780761Y-73167142D01*
X126733142Y-73119523D01*
X126828380Y-72643333D02*
X125828380Y-72643333D01*
X126304571Y-72643333D02*
X126304571Y-72071904D01*
X126828380Y-72071904D02*
X125828380Y-72071904D01*
X126828380Y-71071904D02*
X126828380Y-71643333D01*
X126828380Y-71357619D02*
X125828380Y-71357619D01*
X125971238Y-71452857D01*
X126066476Y-71548095D01*
X126114095Y-71643333D01*
X133460761Y-81903809D02*
X133508380Y-81999047D01*
X133508380Y-82189523D01*
X133460761Y-82284761D01*
X133413142Y-82332380D01*
X133317904Y-82380000D01*
X133032190Y-82380000D01*
X132936952Y-82332380D01*
X132889333Y-82284761D01*
X132841714Y-82189523D01*
X132841714Y-81999047D01*
X132889333Y-81903809D01*
X132841714Y-81046666D02*
X133508380Y-81046666D01*
X132841714Y-81475238D02*
X133365523Y-81475238D01*
X133460761Y-81427619D01*
X133508380Y-81332380D01*
X133508380Y-81189523D01*
X133460761Y-81094285D01*
X133413142Y-81046666D01*
X133460761Y-80618095D02*
X133508380Y-80522857D01*
X133508380Y-80332380D01*
X133460761Y-80237142D01*
X133365523Y-80189523D01*
X133317904Y-80189523D01*
X133222666Y-80237142D01*
X133175047Y-80332380D01*
X133175047Y-80475238D01*
X133127428Y-80570476D01*
X133032190Y-80618095D01*
X132984571Y-80618095D01*
X132889333Y-80570476D01*
X132841714Y-80475238D01*
X132841714Y-80332380D01*
X132889333Y-80237142D01*
X132841714Y-79903809D02*
X132841714Y-79522857D01*
X132508380Y-79760952D02*
X133365523Y-79760952D01*
X133460761Y-79713333D01*
X133508380Y-79618095D01*
X133508380Y-79522857D01*
X133508380Y-79046666D02*
X133460761Y-79141904D01*
X133413142Y-79189523D01*
X133317904Y-79237142D01*
X133032190Y-79237142D01*
X132936952Y-79189523D01*
X132889333Y-79141904D01*
X132841714Y-79046666D01*
X132841714Y-78903809D01*
X132889333Y-78808571D01*
X132936952Y-78760952D01*
X133032190Y-78713333D01*
X133317904Y-78713333D01*
X133413142Y-78760952D01*
X133460761Y-78808571D01*
X133508380Y-78903809D01*
X133508380Y-79046666D01*
X133508380Y-78284761D02*
X132841714Y-78284761D01*
X132936952Y-78284761D02*
X132889333Y-78237142D01*
X132841714Y-78141904D01*
X132841714Y-77999047D01*
X132889333Y-77903809D01*
X132984571Y-77856190D01*
X133508380Y-77856190D01*
X132984571Y-77856190D02*
X132889333Y-77808571D01*
X132841714Y-77713333D01*
X132841714Y-77570476D01*
X132889333Y-77475238D01*
X132984571Y-77427619D01*
X133508380Y-77427619D01*
X141708142Y-88355466D02*
X141755761Y-88403085D01*
X141803380Y-88545942D01*
X141803380Y-88641180D01*
X141755761Y-88784038D01*
X141660523Y-88879276D01*
X141565285Y-88926895D01*
X141374809Y-88974514D01*
X141231952Y-88974514D01*
X141041476Y-88926895D01*
X140946238Y-88879276D01*
X140851000Y-88784038D01*
X140803380Y-88641180D01*
X140803380Y-88545942D01*
X140851000Y-88403085D01*
X140898619Y-88355466D01*
X141803380Y-87403085D02*
X141803380Y-87974514D01*
X141803380Y-87688800D02*
X140803380Y-87688800D01*
X140946238Y-87784038D01*
X141041476Y-87879276D01*
X141089095Y-87974514D01*
X148755833Y-83543142D02*
X148708214Y-83590761D01*
X148565357Y-83638380D01*
X148470119Y-83638380D01*
X148327261Y-83590761D01*
X148232023Y-83495523D01*
X148184404Y-83400285D01*
X148136785Y-83209809D01*
X148136785Y-83066952D01*
X148184404Y-82876476D01*
X148232023Y-82781238D01*
X148327261Y-82686000D01*
X148470119Y-82638380D01*
X148565357Y-82638380D01*
X148708214Y-82686000D01*
X148755833Y-82733619D01*
X149612976Y-82971714D02*
X149612976Y-83638380D01*
X149374880Y-82590761D02*
X149136785Y-83305047D01*
X149755833Y-83305047D01*
X153184266Y-66972380D02*
X153184266Y-67686666D01*
X153136647Y-67829523D01*
X153041409Y-67924761D01*
X152898552Y-67972380D01*
X152803314Y-67972380D01*
X154184266Y-67972380D02*
X153612838Y-67972380D01*
X153898552Y-67972380D02*
X153898552Y-66972380D01*
X153803314Y-67115238D01*
X153708076Y-67210476D01*
X153612838Y-67258095D01*
X135556666Y-67879980D02*
X135556666Y-68594266D01*
X135509047Y-68737123D01*
X135413809Y-68832361D01*
X135270952Y-68879980D01*
X135175714Y-68879980D01*
X135937619Y-67879980D02*
X136556666Y-67879980D01*
X136223333Y-68260933D01*
X136366190Y-68260933D01*
X136461428Y-68308552D01*
X136509047Y-68356171D01*
X136556666Y-68451409D01*
X136556666Y-68689504D01*
X136509047Y-68784742D01*
X136461428Y-68832361D01*
X136366190Y-68879980D01*
X136080476Y-68879980D01*
X135985238Y-68832361D01*
X135937619Y-68784742D01*
X129206666Y-94492380D02*
X129206666Y-95206666D01*
X129159047Y-95349523D01*
X129063809Y-95444761D01*
X128920952Y-95492380D01*
X128825714Y-95492380D01*
X130111428Y-94825714D02*
X130111428Y-95492380D01*
X129873333Y-94444761D02*
X129635238Y-95159047D01*
X130254285Y-95159047D01*
X141295595Y-68035380D02*
X141867023Y-68035380D01*
X141581309Y-69035380D02*
X141581309Y-68035380D01*
X142200357Y-69035380D02*
X142200357Y-68035380D01*
X142581309Y-68035380D01*
X142676547Y-68083000D01*
X142724166Y-68130619D01*
X142771785Y-68225857D01*
X142771785Y-68368714D01*
X142724166Y-68463952D01*
X142676547Y-68511571D01*
X142581309Y-68559190D01*
X142200357Y-68559190D01*
X143724166Y-69035380D02*
X143152738Y-69035380D01*
X143438452Y-69035380D02*
X143438452Y-68035380D01*
X143343214Y-68178238D01*
X143247976Y-68273476D01*
X143152738Y-68321095D01*
X152034380Y-91439904D02*
X152843904Y-91439904D01*
X152939142Y-91392285D01*
X152986761Y-91344666D01*
X153034380Y-91249428D01*
X153034380Y-91058952D01*
X152986761Y-90963714D01*
X152939142Y-90916095D01*
X152843904Y-90868476D01*
X152034380Y-90868476D01*
X153034380Y-89868476D02*
X153034380Y-90439904D01*
X153034380Y-90154190D02*
X152034380Y-90154190D01*
X152177238Y-90249428D01*
X152272476Y-90344666D01*
X152320095Y-90439904D01*
M02*
