G04 #@! TF.GenerationSoftware,KiCad,Pcbnew,5.1.1-8be2ce7~80~ubuntu18.10.1*
G04 #@! TF.CreationDate,2019-05-25T12:59:07+08:00*
G04 #@! TF.ProjectId,tas2562_dev_pcb,74617332-3536-4325-9f64-65765f706362,rev?*
G04 #@! TF.SameCoordinates,Original*
G04 #@! TF.FileFunction,Copper,L3,Inr*
G04 #@! TF.FilePolarity,Positive*
%FSLAX46Y46*%
G04 Gerber Fmt 4.6, Leading zero omitted, Abs format (unit mm)*
G04 Created by KiCad (PCBNEW 5.1.1-8be2ce7~80~ubuntu18.10.1) date 2019-05-25 12:59:07*
%MOMM*%
%LPD*%
G04 APERTURE LIST*
%ADD10O,1.700000X1.700000*%
%ADD11R,1.700000X1.700000*%
%ADD12R,3.000000X3.000000*%
%ADD13C,3.000000*%
%ADD14C,0.200000*%
%ADD15C,0.700000*%
%ADD16C,0.300000*%
%ADD17C,0.400000*%
%ADD18C,0.250000*%
%ADD19C,0.100000*%
%ADD20C,0.500000*%
%ADD21C,0.300000*%
G04 APERTURE END LIST*
D10*
X153517600Y-92710000D03*
X153517600Y-90170000D03*
X153517600Y-87630000D03*
X153517600Y-85090000D03*
X153517600Y-82550000D03*
X153517600Y-80010000D03*
X153517600Y-77470000D03*
X153517600Y-74930000D03*
X153517600Y-72390000D03*
D11*
X153517600Y-69850000D03*
X153517600Y-69850000D03*
D10*
X153517600Y-72390000D03*
X153517600Y-74930000D03*
X153517600Y-77470000D03*
X153517600Y-80010000D03*
X153517600Y-82550000D03*
X153517600Y-85090000D03*
X153517600Y-87630000D03*
X153517600Y-90170000D03*
X153517600Y-92710000D03*
D12*
X138430000Y-63347600D03*
D13*
X133350000Y-63347600D03*
D10*
X129540000Y-69850000D03*
X129540000Y-72390000D03*
X129540000Y-74930000D03*
X129540000Y-77470000D03*
X129540000Y-80010000D03*
X129540000Y-82550000D03*
X129540000Y-85090000D03*
X129540000Y-87630000D03*
X129540000Y-90170000D03*
D11*
X129540000Y-92710000D03*
D13*
X145288000Y-63246000D03*
D12*
X150368000Y-63246000D03*
D14*
X148919080Y-76703267D03*
X147430790Y-74158190D03*
X141859000Y-80873600D03*
D15*
X149723010Y-74041000D03*
D14*
X148674064Y-73983116D03*
X143588500Y-78945500D03*
X146218400Y-73345800D03*
X143611600Y-80797400D03*
X146240500Y-74168000D03*
X146618400Y-74145800D03*
X146618400Y-74145800D03*
X146618400Y-74145800D03*
X146618400Y-74145800D03*
X146618400Y-74145800D03*
X146618400Y-74145800D03*
X146218400Y-74945800D03*
X146618400Y-74945800D03*
X145605510Y-75183998D03*
X145542000Y-75755500D03*
X147818400Y-74145800D03*
X147018400Y-74145800D03*
D16*
X145224500Y-66865500D03*
D14*
X148590000Y-72771004D03*
D17*
X151701500Y-73787000D03*
D14*
X146618400Y-73745800D03*
X147818400Y-74945800D03*
D16*
X145224500Y-69913500D03*
D14*
X148584010Y-74945800D03*
X148463000Y-70152516D03*
X145669000Y-72199500D03*
X147827119Y-73752957D03*
X147018400Y-74545800D03*
X146218400Y-74545800D03*
X146618400Y-74545800D03*
X147418400Y-74945800D03*
D16*
X146939000Y-78456000D03*
X149860000Y-84836000D03*
X150382000Y-85866000D03*
X150382000Y-87528000D03*
X143256000Y-89154000D03*
X146177000Y-89154000D03*
X147574000Y-89154000D03*
X144653000Y-89154000D03*
X149274250Y-88885750D03*
D14*
X147418400Y-73745800D03*
D16*
X142905000Y-72644000D03*
D18*
X146157989Y-70197568D02*
X146157989Y-73285433D01*
X143330001Y-70728499D02*
X144625999Y-69432501D01*
X146157989Y-73285433D02*
X146218400Y-73345844D01*
X145392922Y-69432501D02*
X146157989Y-70197568D01*
X143330001Y-78687001D02*
X143330001Y-70728499D01*
X143588500Y-78945500D02*
X143330001Y-78687001D01*
X144625999Y-69432501D02*
X145392922Y-69432501D01*
D19*
X143055363Y-81353637D02*
X143611600Y-80797400D01*
X137628999Y-86780001D02*
X143055363Y-81353637D01*
X130389999Y-86780001D02*
X137628999Y-86780001D01*
X129540000Y-87630000D02*
X130389999Y-86780001D01*
D20*
X153517600Y-87630000D02*
X146685000Y-80797400D01*
X144411600Y-80797400D02*
X143611600Y-80797400D01*
X146685000Y-80797400D02*
X144411600Y-80797400D01*
D19*
X146618400Y-74945800D02*
X146218400Y-74945800D01*
X145980202Y-75183998D02*
X145746931Y-75183998D01*
X145746931Y-75183998D02*
X145605510Y-75183998D01*
X146218400Y-74945800D02*
X145980202Y-75183998D01*
X145605510Y-75691990D02*
X145542000Y-75755500D01*
X145605510Y-75183998D02*
X145605510Y-75691990D01*
X153517600Y-90170000D02*
X129540000Y-90170000D01*
D18*
X145374499Y-67015499D02*
X145224500Y-66865500D01*
X147701000Y-72644000D02*
X147701000Y-69342000D01*
X147018400Y-74145800D02*
X147018400Y-73326600D01*
X147701000Y-69342000D02*
X145374499Y-67015499D01*
X147018400Y-73326600D02*
X147701000Y-72644000D01*
D19*
X130490000Y-92710000D02*
X153517600Y-92710000D01*
X129540000Y-92710000D02*
X130490000Y-92710000D01*
D21*
X147818400Y-74945800D02*
X147818400Y-75955600D01*
X143827500Y-75184000D02*
X143827500Y-71310500D01*
X144862501Y-76219001D02*
X143827500Y-75184000D01*
X144668263Y-70469737D02*
X145224500Y-69913500D01*
X143827500Y-71310500D02*
X144668263Y-70469737D01*
X147554999Y-76219001D02*
X144862501Y-76219001D01*
X147818400Y-75955600D02*
X147554999Y-76219001D01*
D18*
X148214986Y-70400530D02*
X148363001Y-70252515D01*
X148363001Y-70252515D02*
X148463000Y-70152516D01*
X148214986Y-74576776D02*
X148214986Y-70400530D01*
X148584010Y-74945800D02*
X148214986Y-74576776D01*
M02*
